<?xml version="1.0" encoding="utf-8"?>

<!DOCTYPE svg PUBLIC "-//W3C//DTD SVG 1.1//EN" "http://www.w3.org/Graphics/SVG/1.1/DTD/svg11.dtd">
<svg version="1.1" id="Ebene_1" xmlns="http://www.w3.org/2000/svg" xmlns:xlink="http://www.w3.org/1999/xlink" x="0px" y="0px"
	 viewBox="0 0 934.06 636.1" enable-background="new 0 0 934.06 636.1" xml:space="preserve">
<g>
	
		<radialGradient id="SVGID_1_" cx="-384.6947" cy="1110.1514" r="136.78" gradientTransform="matrix(0 3.4753 1.5291 0 -1455.0629 1362.297)" gradientUnits="userSpaceOnUse">
		<stop  offset="0" style="stop-color:#F8EDF4"/>
		<stop  offset="0.2634" style="stop-color:#FFB600"/>
		<stop  offset="0.3953" style="stop-color:#EC8108"/>
		<stop  offset="0.6882" style="stop-color:#C20D19"/>
		<stop  offset="1" style="stop-color:#BF0A24"/>
	</radialGradient>
	<rect x="85.724" y="0.0033" fill="url(#SVGID_1_)" width="165.47" height="376.09"/>
	<path d="M144.73,161.5634c0.687,2.579,0.873,4.945,1.117,7.58c0.597,6.312,5.11,13.044,7.366,19.009
		c2.053,5.414,3.319,10.339,1.346,15.959c-1.211,3.397-2.729,6.666-3.771,10.11c-1.841,1.952-3.61,3.365-5.051,5.72
		c-3.221,5.289-5.121,11.258-7.554,16.932c-2.764,6.441-6.557,12.312-9.642,18.6c-2.785,5.673-3.326,12.114-5.242,18.151
		c-1.938,6.12-4.266,12.104-5.876,18.328c-0.396,1.517-0.736,3.044-1.032,4.581c-0.396,2.068-0.665,1.269-1.496,2.786
		c-0.956,1.744-0.903,3.906-1.118,5.859c-0.01-0.146-0.071-0.271-0.176-0.354c-0.166,2.359-1.288,4.354-2.017,6.566
		c-0.695,2.141,1.356,4.031,2.836,5.529c1.652,1.648,4.441,2.199,4.239,4.537c-0.229,2.525-0.343,5.062-0.571,7.598
		c-0.224,2.307-0.515,4.652-1.241,6.879c-1.185,1.725-2.364,3.377-2.723,5.496c-0.604,3.502-3.994,7.324-6.8,9.775
		c-2.104,1.83-11.154,5.592-4.422,8.062c4.328,1.621,9.17,2.244,13.768,1.912c1.87-0.146,3.949-1.496,5.556-2.506
		c2.212-1.383,1.854-3.387,1.863-5.744c0.026-4.021,0.67-8.084,0.629-12.041c-0.056-4.812,1.699-9.229,3.602-13.539
		c0.909-2.061,1.812-4.115,2.469-6.256c1.952-0.188,4.741-0.469,5.376-2.576c0.728-2.4,0.723-4.988,0.889-7.461
		c0.737-2.545,1.708-5.008,2.706-7.461c2.072-5.09,3.851-10.017,4.926-15.418c1.148-5.673,2.405-11.315,3.604-16.979
		c0.557-2.7,2.853-4.635,4.468-6.878c1.646-2.266,3.195-4.593,4.697-6.973c2.765-4.374,6.437-7.741,10.059-11.377
		c2.223-2.244,6.534-6.774,9.891-6.774c0,11.169-3.562,21.944-3.927,33.083c-0.146,4.945,0.438,9.893,0.479,14.837
		c0.041,4.802-1.484,9.437-1.726,14.214c-0.271,5.361,0.312,10.725,0.229,16.096c-0.041,3.48-2.932,11.639-0.728,14.412
		c0.831,1.059,1.911,1.85,2.973,2.67c-0.062,1.15-0.083,2.297-0.062,3.461c0.042,2.867,0.208,5.732,0.125,8.602
		c-0.072,2.951-0.914,4.967-1.673,7.711c-0.363,1.311,0.385,3.656-0.073,4.072c-0.705,0.664-0.811,5.133-1.234,6.328
		c-0.696,2.023-2.007,3.729-2.577,5.744c-1.756,6.232,4.479,5.758,8.791,5.568c2.73-0.125,12.312,0.166,9.609-5.133
		c-2.018-3.938-3.096-6.973-3.71-11.492c-0.736-5.35-1.589-9.465,0.032-14.771c0.728-2.352,1.579-4.635,2.201-7.004
		c0.571-2.193,2.267-1.705,4.312-2.393c1.402-0.479,4.76-0.684,5.453-1.848c0.874-1.478,1.27-3.223,1.519-4.885
		c0.521-3.396,0.487-7.004-0.146-10.369c-0.083-0.467-1.039-1.506-1.039-1.631c0.229-1.55,0.405-3.076,0.562-4.625
		c0.312-3.199,0.479-6.42,0.604-9.621c0.259-6.557,0.301-13.112,0.747-19.668c0.854-12.303,5.549-23.598,8.229-35.557
		c1.519-6.723,2.41-13.56,2.474-20.438c-0.831-6.161-3.056-11.929-5.092-17.751c-0.562-1.606-0.126-2.749-0.737-4.303
		c-0.488-1.246-0.955-2.551-1.081-3.892c-0.176-2.177-1.068-4.607-1.87-6.712c-1.526-4.011-4.271-7.314-6.493-10.925
		c-2.13-3.43-5.559-10.427-2.878-14.184c3.158-4.438,1.882-9.834-0.071-14.595c-1.995-4.878-4.312-9.376-4.261-14.801
		c0.83-3.714,2.057-2.681,5.537-2.426c3.063,0.229,6.161,0.238,9.237-0.031c3.179-0.265,6.42-0.832,9.382-2.067
		c2.297-0.944,3.729-4.078,4.938-6.161c2.888-5.049,4.977-10.521,6.98-15.984c2.203-6,4.26-12.084,7.065-17.851
		c0.777-1.61,1.163-1.638,2.908-1.715c1.007-0.811,1.851-1.816,2.576-2.877c1.204-1.715,2.119-4.968,4.655-4.524
		c-2.494,2.556,3.043,2.374,3.137,0.784c0.126-2.136,3.024-1.36,4.479-2.225c1.508-0.888-1.4-3.434-2.046-4.653
		c-1.318-2.516-3.096-0.773-4.57-2.404c1.394-1.736,8.301-7.751,5.922-10.229c-5.798,5.887-12.094,10.979-17.082,17.592
		c-4.467,5.938-9.236,11.652-13.424,17.788c-4.438,6.488-8.124,13.461-10.44,20.982c-0.718,2.301-2.174,0.971-4.438,1.019
		c-1.705,0.03-3.398-0.208-5.03-0.748c-2.855-0.937-5.412-2.557-8.416-3.019c0.104-0.312,1.81-1.408,1.279-1.7
		c-1.177-0.736-2.817-1.979-2.673-3.573c1.788,3.147,3.7,2.629,6.589,0.931c-4.22,0.01-4.842-4.354-4.073-7.638
		c0.499,1.538,0.998,3.346,2.452,4.275c0.124-3.435-1.911-6.354-2.431-9.84c-0.104-3.699,1.185-7.768,0.29-11.377
		c-0.777-3.127-2.951-5.402-5.705-6.939c-1.412-0.784-2.504-2-3.751-3.076c-1.608-0.129-3.169-0.333-4.861-0.354
		c-3.68-2.847-5.133-3.05-9.394-0.868c-2.897,1.466-6.789,5.769-9.805,5.979c-2.575,0.182-1.06,1.267-2.03,3.205
		c-0.523,1.044-1.477,1.744-2.534,2.182c-2.15,0.856-4.53,0.897-6.771,1.293c2.349,0.183,4.874,0.281,7.145-0.437
		c-1.652,1.84-5.658,3.662-7.888,1.803c1.128,1.189-0.292,1.7,1.549,2.603c0.878,0.494,1.771,0.547,2.701,0.156
		c-0.357,1.222-2.275,1.195-3.168,0.765c0.488,0.125,0.955,0.077,1.401-0.12c-0.036,0.006-2.773-0.363-2.451-0.229
		c0.333,0.036,0.623,0.15,0.883,0.342c-1.72-0.01-3.304-1.844-3.003,1.293c1.377,0.951,3.372,1.087,4.998,1.212
		c-1.567,0.479-3.459,0.675-5.054,0.176c0.597,1.02,0.935,2.333,1.984,3.028c-1.271,0.059,1.116,1.242,0.64,1.591
		c-0.655-0.129-1.296-0.089-1.929,0.104c0.378,0.14,0.66,0.379,0.856,0.729c-1.091,0.271-2.238,0.108-3.324,0.399
		c1.875,1.851,4.701-1.189,6.432,0.411c-0.801,1.953-4.101,3.377-6.256,4.473c1.056,0.011,2.275-0.69,3.32-0.405
		c-0.333,1.605-1.781,0.446-2.666,1.311c-0.16,0.618,2.271,3.069,2.521,3.164c0.747,0.28,5.163-0.374,5.22-0.286
		c-1.269,0.812-3.543,2.322-4.909,0.873c-0.037,0.42-0.006,0.821,0.136,1.226c-2.687-1.354-6.178-1.839-8.421-3.703
		c-2.017-1.679-4.048-3.324-5.97-5.104c-3.346-3.075-6.155-5.911-8.209-10.006c-4.618-9.18-14.654-13.222-22.001-19.854
		c-3.144-2.831-8.322-5.394-10.053-9.306c-1.283-2.909-5.503-6.868-9.071-5.928c-1.393,0.363-4.03-1.979-5.382-2.586
		c-2.079-0.946-4.233-1.721-6.308-2.688c-3.365-1.579-10.999-5.484-12.708-3.692c-1.3,3.133,10.796,6.909,13.95,9.206
		c-1.674,0.753-5.278,0.955-5.528,3.092c-0.188,1.615-1.31,2.986-0.39,4.363c0.562,0.701,1.074,1.402,1.568,2.141
		c-0.77,0.297-1.193,0.862-1.277,1.694c0.482,0.961,1.158,1.809,2.042,2.44c2.562,1.86,4.104-0.623,6.607,0.312
		c2.639,0.993,5.023,2.565,7.746,3.347c2.936,0.847,5.163-0.432,7.896,1.034c7.314,9.491,13.859,20.048,24.302,26.464
		c4.392,4.81,8.22,10.094,12.625,14.883c4.101,4.453,9.311,7.314,11.813,12.957c1.547,3.521,2.452,6.583,4.874,9.673
		 M149.541,96.8173c0.188-0.357,0.385-0.682,0.562-1.029c0.32,0.182-0.12,1.055-0.56,1.029H149.541z M147.8611,109.8073
		c-0.729,1.319-2.421,2.089-4.225,1.247c1.32-0.39,3.06-1.25,4.22-1.25L147.8611,109.8073z M149.261,95.0553
		C149.3611,95.1803,149.1711,94.9883,149.261,95.0553z M149.7811,94.9053c-0.457-0.218,0.469-0.432,0.541-0.682
		c0.46,0.224-0.47,0.448-0.54,0.682H149.7811z M195.591,328.2853c0.053,1.143,1.246,4-0.146,4.332c0.52-1.31-0.1-2.75,0.15-4.33
		L195.591,328.2853z M195.8311,326.1853C196.2111,325.5253,195.8611,327.2553,195.8311,326.1853z M195.7711,318.1853
		c1.851,1.318,0.79,4.654,0.458,6.971c-0.03-2.45-1.21-4.26-0.46-6.97L195.7711,318.1853z M202.3011,203.8553
		c0.654,0.396,0.707,1.353,0.604,2.463c-0.35-0.67-0.56-1.49-0.6-2.46L202.3011,203.8553z M202.1311,203.6753
		C202.2411,203.7953,202.0611,203.6053,202.1311,203.6753z M201.5311,201.0453
		C201.0811,199.6653,202.011,202.0053,201.5311,201.0453z M185.9611,119.8753c0.519-0.026,0.519,0.416,1.038,0.389
		c-0.15,0.33-1.12,0.05-1.04-0.39L185.9611,119.8753z M187.1511,91.5363C187.0911,91.4643,187.2611,91.6563,187.1511,91.5363z
		 M182.1011,116.0753C182.3311,115.3953,182.2911,116.7753,182.1011,116.0753z M182.1611,119.5553
		C182.4611,120.1453,181.6811,118.6953,182.1611,119.5553z M182.4911,114.7053
		C182.7211,114.0253,182.6811,115.3953,182.4911,114.7053z M182.3111,115.3953
		C182.5211,114.7153,182.4711,116.0753,182.3111,115.3953z M181.9111,116.4253c0.354,0.565,0.114,2.041-0.082,2.607
		c-0.62-0.48,0.17-1.63,0.08-2.61L181.9111,116.4253z M113.9211,304.1153C114.0511,304.2253,113.8611,304.0453,113.9211,304.1153z
		 M112.4411,311.7253c-0.494-2.102,1.034-3.596,1.081-5.715c0.52,1.42-0.64,4.12-1.08,5.72L112.4411,311.7253z M114.3011,303.6053
		c-0.119-1.33,0.94-2.951,1.367-4.301c0.33,1.55-0.63,3.3-1.37,4.3L114.3011,303.6053z M172.0611,80.2053
		C170.7311,79.9293,172.8111,80.3613,172.0611,80.2053z M151.3311,124.5693C151.5711,123.8893,151.5011,125.2493,151.3311,124.5693z
		 M149.6411,123.4593c1.143-0.119,2.333-0.723,3.485-0.229c-0.37,1.89-2.29,0.29-3.48,0.23L149.6411,123.4593z M149.2411,119.7793
		C149.7911,119.3293,148.7511,120.3093,149.2411,119.7793z M147.6311,120.7693c0.021-0.582,0.821-0.321,1.071-0.648
		c0.38-0.29-0.57,0.71-1.07,0.65L147.6311,120.7693z"/>
	
		<radialGradient id="SVGID_2_" cx="-730.2114" cy="1110.1514" r="136.78" gradientTransform="matrix(1.560300e-010 -2.4027 1.5291 4.746100e-011 -1455.0629 -1135.889)" gradientUnits="userSpaceOnUse">
		<stop  offset="0" style="stop-color:#F8EDF4"/>
		<stop  offset="0.2634" style="stop-color:#FFB600"/>
		<stop  offset="0.3953" style="stop-color:#EC8108"/>
		<stop  offset="0.6882" style="stop-color:#C20D19"/>
		<stop  offset="1" style="stop-color:#BF0A24"/>
	</radialGradient>
	<rect x="85.724" y="376.0933" opacity="0.4" fill="url(#SVGID_2_)" enable-background="new    " width="165.47" height="260.01"/>
	
		<radialGradient id="SVGID_3_" cx="-384.6947" cy="1239.4813" r="136.78" gradientTransform="matrix(0 3.4753 1.5291 0 -1455.0629 1362.297)" gradientUnits="userSpaceOnUse">
		<stop  offset="0" style="stop-color:#F8EDF4"/>
		<stop  offset="0.2634" style="stop-color:#FF00CF"/>
		<stop  offset="0.6882" style="stop-color:#D30BA4"/>
		<stop  offset="1" style="stop-color:#BC0C93"/>
	</radialGradient>
	<rect x="283.46" y="0.0033" fill="url(#SVGID_3_)" width="165.47" height="376.09"/>
	
		<radialGradient id="SVGID_4_" cx="-778.6014" cy="1239.4713" r="136.78" gradientTransform="matrix(0 -2.4027 1.5291 0 -1455.0629 -1252.189)" gradientUnits="userSpaceOnUse">
		<stop  offset="0" style="stop-color:#F8EDF4"/>
		<stop  offset="0.2634" style="stop-color:#FF00CF"/>
		<stop  offset="0.6882" style="stop-color:#D30BA4"/>
		<stop  offset="1" style="stop-color:#BC0C93"/>
	</radialGradient>
	<rect x="283.46" y="376.0933" opacity="0.4" fill="url(#SVGID_4_)" enable-background="new    " width="165.47" height="260.01"/>
	<path d="M434.9,36.2134c-0.229-1.697-2.485-0.591-2.657-2.425c-1.733-0.039-2.387-2.529-4.402-1.742
		c-1.185-0.731-2.7-0.092-3.841,0.314c-0.511-0.597-1.085-1.004-1.845-0.961c-1.235,0.318-0.444,1.883-0.998,2.747
		c-0.237,3.533-1.008,7.396,0.229,11.017c-0.924,4.624-2.021,9.227-3.853,13.523c-5.088,8.857-6.551,19.168-12.659,27.611
		c-1.41,6.696-6.496,11.917-9.893,17.833c-0.336,0.856-0.728,1.684-1.171,2.497c0.011-0.099,0.011-0.217-0.021-0.336
		c-0.408,0.586-1.09,1.411-1.971,1.477c-0.731-0.781-2.022-1.118-2.424-2.03l0.771-0.4h-0.314c-0.274-0.238,0.032-0.467,0.098-0.693
		l-1.203-0.098c-0.717-1.043-0.813-2.421-1.23-3.614c-0.923-2.149-3.435-2.477-5.271-2.519c-3.113-0.836-1.423-4.038-2.979-6.058
		c-2.11-1.236-1.746-3.625-3.162-5.515c-1.102-1.236-3.205-0.954-4.534-0.694c-1.149-0.26-0.46-2.235-1.734-2.963
		c-1.021-0.423-2.263-0.186-3.223,0.229c-2.057,1.097-2.338-2.171-4.166-2.441c-1.963-0.467-3.671,1.248-4.95,2.029
		c-0.086-0.173-0.276-0.173-0.412-0.237c-0.542-0.587-0.407-1.281-0.364-1.966c-0.178-0.098-0.286,0.099-0.422,0.175
		c-0.265-0.228-0.591-0.728-0.991-0.424c0.13,0.935-0.104,1.673-0.656,2.303c-0.722,0.692-1.683,0.749-2.521,0.237
		c-2.424-0.835-5.4-0.186-7.044,1.964c-1.932,0.283-3.157,2.03-4.957,2.529c-2.202,0.651-2.109,3.019-2.659,4.774
		c-0.368-0.107-0.611-0.064-0.774,0.043c-4.191-6.75-7.208-13.936-9.666-21.425c-1.565-5.079,4.091-7.424,4.802-11.874
		c0.829-1.977-0.812-3.146-1.648-4.635c-0.636-1.791,0.151-4.31-1.514-5.59c-1.552,0.542-1.742-1.385-3.063-1.324
		c-0.646,0.224-0.787,1.01-1.016,1.552c-1.23,0.451-2.19,1.878-3.209,2.747l0.473,0.563c0,1.866-1.334,3.244-1.016,5.274
		c-3.765,5.361,0.509,11.224,0.543,16.953c0,10.734,2.981,20.317,4.87,30.13c1.508,4.275,5.728,7.12,7.781,11.136
		c3.575,7.076,7.155,14.132,12.479,20.471c0.451,1.141,2.692,1.324,1.73,2.733c-2.104,3.279-4.397,6.479-6.595,9.684
		c-4.09,6.382-0.869,14.63,0.641,21.152c0.281,4.082,0.092,8.206-0.641,12.006c-1.146,0.554,0,1.648-1.01,2.301
		c-0.558,3.981-4.637,6.501-6.697,9.91c-0.585,0.998,0.96,1.042,0.874,1.964c-0.267,0.966-1.734,1.835-0.874,2.896
		c-0.498,3.146-3.34,5.353-2.744,8.978c-0.51,1.14-1.284,2.159-1.426,3.439c-2.337,3.82-3.168,8.216-3.978,12.655
		c-0.368,10.462-1.562,21.1-1.097,31.367c-0.648,6.457-1.159,14.132,0,20.688c2.09,6.188,2.822,12.928,5.711,18.81
		c-0.535,9.758,0.561,19.242,0.332,29.295c0.313,3.439,1.832,6.382,3.117,9.442c-1.072,3.58-3.258,6.696-3.676,10.561
		c-1.465,4.168,2.305,6.633,2.76,10.258c-0.319,0.642-1.052,0.87-1.659,1.292c-0.727,0.737-0.505,1.704,0.232,2.344
		c2.288,1.641,4.989,0.401,7.701,1.096c-0.043,3.716,0.781,7.188,1.871,10.312c2.804,0.791-1.417,1.104-1.008,2.67
		c-0.408,1.237,0.141,2.39,1.105,3.191c2.981,1.291,7.104,0.792,10.357,0.423c4.756-1.607,10.401-1.185,14.851-3.614
		c-0.277-0.955,0.585-1.705,0.449-2.768c-0.135-2.151,2.306-1.281,3.405-2.107c0.863-0.044,1.503-1.192,2.424-0.866
		c0.407,0.979-0.324,1.834-0.232,2.659c0.048,0.314,0.462,0.368,0.641,0.552c1.242,0.188,2.613,0.229,3.438-0.878l-0.694-1.64
		c-0.684-2.898,2.718-3.387,4.215-4.948c-0.033-0.37,0.098-0.748-0.125-1.01c-4.127-5.513-2.479-12.991-3.949-19.591
		c-0.868-6.603-3.894-12.33-5.271-18.711c-0.314-5.536-1.146-10.865-4.3-15.188l-1.192-6.403c-0.686-3.581,0.13-7.804-2.014-10.787
		c-3.032-2.562-2.892-6.502-4.812-9.585c0.965-1.876,2.146-3.668,2.289-5.926c2.157-2.963,3.662-6.229,5.174-9.433
		c6.286-9.171,11.454-18.994,15.945-28.979c0.319-1.977,2.104-3.626,1.427-5.688c1.645-3.312,0.548-7.337,1.014-11.157
		c0.631-8.423-4.04-15.207-4.544-23.436c-0.727-5.438,2.755-9.398,4.626-13.837c2.437-7.468,5.093-14.807,7.291-22.381
		c0.227-1.098,0.475-2.204,0.726-3.312c0.021-0.021,0.038-0.056,0.05-0.087h0.332c0.639,1.671-0.707,3.126-0.556,4.731h0.456
		c3.847-0.869,2.695-5.242,3.075-8.042c0.586-0.488,0.943-1.585,1.551-2.191c0.326,0.51,0.912,0.693,1.433,0.563
		c-0.099-0.25,0.13-0.282,0.087-0.479c-0.51-1.823-2.256-3.517-1.334-5.492c0.585,0.271-0.229,0.738,0.368,1.021
		c1.096-0.239,0.554-1.802,1.291-2.346l1.648,1.554c1.062,0.749,2.668,1.105,3.903,0.705c-0.486,0.087-0.998-0.163-1.583-0.063
		c-1.649-0.369-3.297-1.834-3.612-3.387c1.66,1.14,3.581,3.212,5.825,2.289c-0.977,0.131-1.747-0.186-2.538-0.411
		c-2.147-1.249-4.252-3.312-4.057-5.872c0.955,0.086,1.821-0.043,2.604-0.315c0.173-0.51-0.281-0.835-0.411-1.105
		c0.411-0.5,0.043-1.106,0.325-1.509c3.341,0.544,1.733,3.931,2.646,6.145c0.185,0.684-1.378,1.009-0.358,1.648
		c0.771,0,0.358-0.812,0.911-1.097c0.313-0.099,0.729,0.357,0.966-0.099l-0.781-0.553c0.737-2.247-0.825-3.854-0.412-6.046
		c-0.26-1.477-1.822-1.192-2.756-1.79c-0.998-0.186-1.69-1.249-1.551-2.29c1.14-2.572,2.375-5.274,1.877-8.401
		c-0.066-0.174-0.131-0.369-0.239-0.542c2.027-4.223,4.102-8.443,5.693-12.852c3.81-6.229,5.133-13.763,9.123-20.036
		c3.342-6.686,6.312-13.577,8.481-20.772c1.605-8.347,5.814-15.586,8.244-23.581c2.8-2.382,2.89-6.554,1.84-9.861L434.9,36.2134z
		 M403.37,136.4734l-0.088,0.076l-1.021-0.737c0.43,0.09,0.96,0.14,1.11,0.66L403.37,136.4734z M393.14,107.8434
		c-0.152,0.25-0.304,0.511-0.466,0.761c-0.071-0.064-0.152-0.142-0.201-0.207c0.23-0.15,0.45-0.34,0.67-0.55L393.14,107.8434z
		 M386.23,100.3634v0.012c0.259,0.143,0.51,0.272,0.412,0.63l-0.635-0.4l0.223-0.229c-0.125-0.075-0.271-0.142-0.362-0.229
		l0.37,0.22L386.23,100.3634z M383.35,99.5074c0.535-0.186,1.014,0.164,1.102,0.642c-0.412,0.369-0.836-0.237-1.102-0.313v-0.333
		V99.5074z M373.57,86.6134c1.062,0.056,2.158,0.469,2.618,1.51l0.132,1.106l-2.007-1.106l0.137-0.087
		c-0.729-0.142-0.689-0.955-1.423-0.998c-0.26-0.543,0.36-0.153,0.54-0.425H373.57z M369.91,84.4094
		c-0.131,0.413,0.368,0.694-0.082,0.967c-0.517-0.607-1.242-1.055-1.889-1.422c0.65-0.217,1.71-0.413,1.97,0.455L369.91,84.4094z
		 M367.71,85.3774l0.554,0.142l-0.554,0.087V85.3774z M363.69,83.0864c-1.009-0.456-1.979-1.097-3.125-1.021
		c0.73-0.954,2.81-0.13,3.13,1.021H363.69z M360.02,83.1844c0.728-0.186,1.644-0.142,2.202,0.356
		c-0.961,0.413-2.159,0.738-3.175,0.738c-0.21-0.324,0.52-0.866,0.98-1.094H360.02z M355.2,84.9534
		c-0.017,0.064-0.038,0.108-0.077,0.151c-0.129,0-0.26-0.012-0.4-0.012c0.13-0.161,0.28-0.269,0.48-0.139H355.2z M351.0299,83.7374
		c-0.579,0.825-1.372-0.141-1.869,0c0.45-0.325,1.37-0.325,1.87,0H351.0299z M345.3099,87.8184l-0.017,0.076
		c-0.125,0.098-0.238,0.186-0.357,0.282c0.05-0.097,0.16-0.217,0.38-0.358L345.3099,87.8184z M340.2199,88.5883
		c-0.467,1.054,0.146,2.477-1.508,2.528c-0.37-0.823,0.4-2.386,1.51-2.528H340.2199z M393.0099,160.5934l0.554-1.888
		c0.271,0.043,0.461,0.324,0.773,0.229c-0.08,0.69-0.63,1.38-1.32,1.66L393.0099,160.5934z M397.7799,138.2034
		c-0.043-0.368,0.032-1.01,0.186-1.423c0.954-0.087,0.999,1.106,1.562,1.423c-0.74,0.1-1.07,0.37-1.75,0H397.7799z
		 M400.6299,128.8434l-0.237,0.38l0.78-3.225l-0.54,2.84L400.6299,128.8434z M397.7799,131.8334
		c-0.063,0.032-0.129,0.043-0.173,0.043c0.575-1.442,1.226-2.876,1.876-4.31c-0.29,1.5-0.87,2.94-1.71,4.27L397.7799,131.8334z"/>
	
		<radialGradient id="SVGID_5_" cx="-384.6947" cy="1369.3413" r="136.78" gradientTransform="matrix(0 3.4753 1.5291 0 -1455.0629 1362.297)" gradientUnits="userSpaceOnUse">
		<stop  offset="0" style="stop-color:#B2C3F7"/>
		<stop  offset="0.2634" style="stop-color:#367BFF"/>
		<stop  offset="0.6882" style="stop-color:#396DEA"/>
		<stop  offset="0.7197" style="stop-color:#3469E5"/>
		<stop  offset="1" style="stop-color:#0B44BA"/>
	</radialGradient>
	<rect x="482.03" y="0.0033" fill="url(#SVGID_5_)" width="165.47" height="376.09"/>
	
		<radialGradient id="SVGID_6_" cx="-802.8749" cy="1369.3413" r="136.78" gradientTransform="matrix(0 -2.4011 1.5291 0 -1455.0629 -1309.3898)" gradientUnits="userSpaceOnUse">
		<stop  offset="0" style="stop-color:#B2C3F7"/>
		<stop  offset="0.2634" style="stop-color:#367BFF"/>
		<stop  offset="0.6882" style="stop-color:#396DEA"/>
		<stop  offset="0.7197" style="stop-color:#3469E5"/>
		<stop  offset="1" style="stop-color:#0B44BA"/>
	</radialGradient>
	<rect x="482.03" y="376.0934" opacity="0.4" fill="url(#SVGID_6_)" enable-background="new    " width="165.47" height="259.84"/>
	<path d="M530.85,187.1434c0.89,0.208,4.943,0.74,5.834,0.954c-0.533,5.517-0.533,10.094-0.119,15.368
		c1.285,16.749-1.266,30.789-5.249,47.305c0.979,0.545,1.552,0.465,2.521,1.02c-0.594,7.562-1.61,14.702-2.008,22.354
		c-0.285,5.458,0.326,11.123-1.305,16.343c-6.556,20.961,0.207,41.862-3.926,62.143c-1.049,5.102-6.466,9.231-10.134,12.428
		c-1.969,1.701-8.522,4.902-7.197,8.503c2.154,5.853,15.532,0.385,18.312-2.61c1.681-1.816,3.192-3.854,5.229-5.241
		c1.435-0.968,3.837-0.274,4.905-1.632c3.747-6.593,1.721-9.214,0.986-11.379c-1.344-11.726,3.422-23.927,6.209-35.118
		c1.347-5.33-1.216-9.888,0.338-14.979c1.643-5.43,5.783-13.843,7.245-22.572c1.555-9.293,3.649-18.312,5.825-27.466
		c3.281-0.228,6.544-0.444,9.812-0.651c0.647,4.734-1.575,25.499,0.484,28.623c12.947,19.726,28.975,34.495,36.003,58.046
		c0.503,1.682-0.144,3.58,0.366,5.262c0.449,1.464,2.536,3.598,2.427,5.102c-0.208,2.957,0.073,6.526,1.515,9.789
		c1.418,3.242,0.146,13.011,5.596,13.229c2.032,0.098,8.354-2.473,9.513-4.193c4.067-6.07-0.095-13.604-2.508-19.516
		c-1.675-4.085-5.429-6.991-6.639-11.331c-3.97-14.229-4.521-28.595-10.94-42.516c-3.465-7.514-13.629-11.301-13.898-18.231
		c-0.174-4.646,2.484-20.477,2.943-26.894c1.523-0.315,3.053-0.651,4.578-0.968c-0.695-21.896,2.726-40.379-13.145-57.191
		c3.067-0.039,2.017-3.185,5.086-3.238c-3.855-5.333-13.674-14.929-11.468-21.558c1.087,1.739,3.224,4.067,4.923,5.229
		c1.442,1.003,2.596,1.008,3.807,1.368c2.838,3.164,1.162,2.116,5.755,3.955c1.196-0.231,2.956,1.325,5.76,1.004
		c8.559,1.049,22.421,1.938,30.979,2.98c-1.75-2.141-0.488-3.208-0.82-4.805c5.878-0.114,11.639-4.533,13.629-2.996
		c1.723,1.341,3.624,1.106,6.721,2.318c0.689,0.494,2.328-0.494,1.396-1.435c-0.397-0.409-6.635-1.868-3.275-3.153
		c2.181-0.84,5.389,1.094,6.125,1.863c0.476,0.499,0.122,2.512,0.396,3.49c0.366,1.33,1.85,0.46,1.761,0.203
		c0.622,1.003,1.268,1.354,1.611-0.063c0.188-0.751-0.153-3.006,0.464-2.67c3.54,1.908,5.324,0.737,0.639-2.556
		c-0.421-0.297-1.026-1.395-1.458-1.811c-2.725-2.625-5.94-2.99-8.498-4.51c-0.83-0.499-5.905,2.279-7.812,3.075
		c-2.378,0.989-10.806,2.474-9.906,0.791c-9.595-0.604-19.428-1.874-28.826-3.983c-4.784-2.659-6.196-2.249-6.898-5.809
		c-1.409-7.044-7.725-7.094-11.544-15.715c-1.391-3.11-0.41-8.192-1.637-11.775c-1.689-4.897-6.932-5.167-11.448-5.556
		c-3.595-0.302-12.038-4.055-10.97-7.724c7.09-0.409,4.329-3.667,5.478-5.339c1.146-1.666,5.021-5.729,4.104-8.486
		c-1.451-4.326-0.329-2.789,1.257-7.124c1.099-0.42,1.048,0.567,2.423,2.343c-0.376-7.089-1.312-7.439-6.054-8.172
		c1.219-1.166,4.512-0.851,5.251-0.119c-7.947-12.397-22.385-14.06-27.563-6.328c-2.019,2.981-6.98,0.737-8.503,4.736
		c-1.048,2.788-6.646,6.392-4.795,8.799c-0.276,1.038,0.562,1.85,0.286,2.893c-0.812,2.013-2.006,3.904-1.621,6.045
		c1.335,7.303,9.647,7.78,11.123,7.56c0,1.973-8.196,6.343-9.658,6.832c-5.56,1.834-8.147-2.732-14.95,2.856
		c-0.653-0.118-2.552-0.326-3.204-1.878c-0.058-0.815,1.543-0.807,1.483-1.627c0.989-1.306-0.544,0,0.179-1.458
		c3.598-7.129,7.504-17.264,12.18-24.07c0.932-1.359,1.365-0.673,2.492-1.868c0.691-0.718,0.87-1.729,0.691-2.699
		c-0.396-2.17,0.159-4.879,0.258-6.175c0.02-0.386-0.613-0.786-0.979-0.652c-0.562,0.203-1.217,2.131-1.475,2.699
		c0.081-0.815-0.117-1.716,0.238-2.457c0.297-0.607,1.039-0.875,1.552-1.3c0.386,0.147,2.532,1.686,2.858,1.553
		c0.452-0.188-0.052-0.988-0.079-1.479c0.649,0.931,1.205,1.941,1.956,2.783c1.314,1.435,1.958,1.062,1.375-0.652
		c-0.277-0.796-0.802-1.522-1.146-2.294c0.879-0.089,4.558,1.196,4.438,0.184c-0.129-1.279-5.183-2.511-6.782-3.208
		c0.098-0.375,0.06-0.852,0.336-1.143c0.632-0.722,2.036-1.167,2.63-1.928c0.157-0.213-0.06-0.812-0.337-0.736
		c-2.788,0.813-4.715,1.888-6.881,3.807c-1.087,0.387-1.374,1.034-2.451,1.453c-0.771,0.315-1.603,0.579-2.284,1.073
		c-0.482,0.341-1.105,0.786-1.146,1.384c-0.179,3.045,1.553,5.25,0.268,8.542c-3.323,5.591-13.289,16.322-18.045,22.913h-1.947
		c-2.512,5.665-4.941,10.855-5.675,17c-0.274,2.304,3.232,3.316,4.903,4.914c2.58,2.441,2.946,5.363,5.993,7.192
		c3.071,1.844,6.761,2.397,10.143,3.594c12.21,14.83,17.76,22.35,13.66,39.2L530.85,187.1434z"/>
	
		<radialGradient id="SVGID_7_" cx="-384.6947" cy="1499.7814" r="136.78" gradientTransform="matrix(0 3.4753 1.5291 0 -1455.0629 1362.297)" gradientUnits="userSpaceOnUse">
		<stop  offset="0" style="stop-color:#CEF4E0"/>
		<stop  offset="0.2634" style="stop-color:#39FF97"/>
		<stop  offset="0.6882" style="stop-color:#3AE88D"/>
		<stop  offset="0.7251" style="stop-color:#34E28B"/>
		<stop  offset="1" style="stop-color:#0DB77E"/>
	</radialGradient>
	<rect x="681.48" y="0.0033" fill="url(#SVGID_7_)" width="165.47" height="376.09"/>
	
		<radialGradient id="SVGID_8_" cx="-803.05" cy="1499.7814" r="136.78" gradientTransform="matrix(0 -2.3996 1.5291 0 -1455.0629 -1308.5719)" gradientUnits="userSpaceOnUse">
		<stop  offset="0" style="stop-color:#CEF4E0"/>
		<stop  offset="0.2634" style="stop-color:#39FF97"/>
		<stop  offset="0.6882" style="stop-color:#3AE88D"/>
		<stop  offset="0.7251" style="stop-color:#34E28B"/>
		<stop  offset="1" style="stop-color:#0DB77E"/>
	</radialGradient>
	<rect x="681.48" y="376.2634" opacity="0.4" fill="url(#SVGID_8_)" enable-background="new    " width="165.47" height="259.67"/>
	<path d="M864.72,167.8334c0.441-0.858,7.224-8.977,2.577-7.156c-3.356,1.31-5.913,4.348-9.583,4.821
		c1.901-1.97,4.813-2.96,5.741-5.749c-2.35-0.044-4.035,1.48-5.724,2.901c-2.705,2.25-3.562,1.185-6.652,0.188
		c-3.984-1.288-6.354-5.389-10.655-6.509c-1.273-0.335-2.587-0.435-3.879-0.354c-1.394-0.691-2.646-1.529-3.859-2.468
		c-2.339-1.831-4.393-3.991-6.553-6.034c-3.958-3.726-8.072-7.092-11.666-11.196c-0.008-0.307-0.067-0.637-0.217-0.972
		c-0.051-0.404-0.166-0.84-0.363-1.299c0.206-0.818,1.252-1.361,1.135-2.279c-3.88,0.352-0.218-2.966-1.777-4.613l1.266-0.099
		c0.868-0.341,1.223-1.264,1.332-2.088c-0.644-0.649-0.74,0.606-1.253,0.745c-0.651,0.435-1.521,0.079-2.172-0.139
		c-1.322-0.173-0.959-1.92-1.048-2.481c0.555,0.435,1.434,0.997,2.398,1.353c0.74-0.301,1.559-1.091,1.864-1.88
		c0-0.778,0.521-2.087-0.436-2.526l-0.099,2.098c-0.296,0.695-0.986,1.312-1.855,1.046c-1.786-0.923-0.957-3.144-1.875-4.485
		c-0.65-1.186-2.014-1.573-3.274-1.657c-2.132,0.084-1.272-2.363-2.487-3.271c-1.4-0.785-3.089-2.049-4.707-0.924
		c-0.168-0.69-0.729-0.69-1.272-0.947c-0.375-1.096,0.88-0.307,1.146-0.834c0-2.175,2.231-3.178,3.061-5.008
		c0.946-1.663-0.75-3.795,1.433-4.713c0.217-1.44-0.74-2.441-0.522-3.879c0.178-0.996,0-2.22,0.956-2.837
		c0.141-0.605-0.818-0.438-0.609-1.13c0.609-0.735,0.562-1.914,0.395-2.837c0-1.135-1.4-0.996-1.797-1.87
		c0.672-0.779,1.659-1.613,1.501-2.837c-0.879-2.042-3.099-2.566-5.152-2.738c0.142-1.792-2.092-2.136-3.307-2.793
		c-0.688-1.125-1.627-2.171-2.831-2.605c0.257-0.705,1.312-1.707,0.089-2.103c-0.275,0.174-0.346,0.479-0.533,0.701
		c-1.599,1.263-2.949-0.785-4.281-1.569c-1.816,0.045-3.957-0.094-5.654,0.522c-2.616,1.697-4.394-1.925-7.018-0.085
		c-1.047,0.13-1.697,1.26-1.865,2.178c-0.877,0.694-1.975,0-3.011,0.216c-0.622,0.139-0.829,0.745-0.868,1.264
		c1.265,1.915-1.668,2.313-1.875,3.879c-0.217,1.485-1.965,1.702-2.615,2.698c-3.109,0.7-0.295,4.624-3.228,5.368
		c-1.312,2.133,1.953,1.392,2.692,2.61c0.141,0.479,0.238,1.22-0.088,1.658c0.534,0.878-0.513,1.657-0.436,2.611
		c0.219,0.654-0.077,1.663,0.762,2.013c-0.414,1.169-1.146,2.354-2.419,2.783c-1.44,2.229,1.53,4.057,2.627,5.669
		c0.345,0.958-0.141,1.87-0.829,2.526l0.078,0.09l1.146-1.047c0.562-0.69-0.146-1.657,0.196-2.311
		c1.401,0.691,2.19,2.262,3.146,3.439c1.361,0.771,2.933,1.797,3.662,3.242c0.314,2.103-0.067,4.165-1.798,6.577
		c-1.864,2.63-6.542,3.823-9.699,3.644c-5.34-0.317-8.161,1.47-11.812,5.337c-1.479,1.569-2.734,3.361-3.644,5.34
		c-1.292,2.853-2.447,3.727-5.033,5.601c-2.271,1.658-4.538,3.315-6.777,5.004c-2.161,1.613-5.084,0.85-7.736,1.001
		c-4.837,0.286-9.595,1.249-14.281,2.536c-4.439,1.229-8.812,2.709-13.233,3.978c-5.29,1.51-9.354,0.869-14.744,0.345
		c-1.489-0.147-2.86,0.1-4.125-0.783c-0.621-0.527-1.293-0.573-1.993-0.145c-1.461-1.432-2.95-3.443-4.775-3.913
		c-0.7-0.178-2.803-2.463-2.468-0.178c0.229,1.484,1.825,2.318,2.032,3.739c-1.293-0.527-2.891-1.114-4.312-0.726
		c0.809,2.229,3.661,2.462,5.496,3.307c1.965,0.873,3.957,2.155,6,2.803c2.508,0.606,4.865,1.712,7.362,2.333
		c3.324,0.818,4.913-0.257,8.043-0.845c6.021-1.146,12.85,0.504,18.918,0.851c5.626,0.324,11.43,0.577,16.994-0.52
		c2.743-0.526,5.479-1.436,7.757-3.083c2.014-2.183,2.665-3.504,5.527-4.708c1.302-0.542,2.624-1.115,3.878-1.781
		c1.539-0.818,2.279-0.438,3.957-0.665c2.004-0.271,4.835-2.665,6.356-1.826c4.52,2.518,6.403,10.757,8.831,15.243
		c2.654,4.948,6.494,9.004,6.107,14.748c-2.882,4.432-3.711,10.624-8.271,13.825c-2.053,3.572-4.797,6.678-6.84,10.259
		c-2.675,4.703-3.581,9.89-2.854,15.237c0.701,2.932,2.122,5.562,3.533,8.195c1.48,2.744,2.803,3.78,5.093,5.636
		c1.944-0.029,2.486-0.346,3.523,1.455c0.816,1.446,1.677,2.888,2.547,4.312c1.726,2.816,3.512,5.586,5.377,8.329
		c3.494,5.166,7.186,10.188,11.014,15.104c3.829,4.865,7.54,9.835,10.086,15.504c0.987,2.231,3.484,5.922,0.375,7.249
		c-2.437,1.051-4.153,4.026-5.691,6.158c-7.58,10.55-10.984,22.451-14.576,34.734c-1.648,5.645-3.396,12.133-7.402,16.537
		c-1.656,1.843-3.799,2.693-5.467,4.547c-1.904,2.121-2.181,4.214-3.139,6.782c-1.639,4.469,3.643,11.056,5.478,15.119
		c1.874,4.187,4.489,10.229,9.801,9.909c3.335-0.208,6.522-1.377,9.866-1.545c2.794-0.139,2.47-3.513,1.146-5.585
		c-0.581-0.914-1.44-1.639-2.457-1.97c-0.66-1.339-1.282-2.687-1.896-4.048c-1.242-2.787-2.379-5.624-3.325-8.521
		c5.559,0.85,9.851,4.135,14.664,6.716c4.581,2.458,10.137,4.159,13.878-0.577c1.56-1.985,2.518-3.783,2.26-6.38
		c-0.356-3.42-3.84-2.837-6.258-2.833c-2.406,0.018-4.991-1.145-5.546-3.459c-0.435-1.826-2.646-2.457-3.188-4.237
		c-0.308-2.31,0.158-4.064-1.866-2.95c-1.372,0.755,0.72-5.191,0.79-5.491c7.104-11.021,16.659-20.06,25.748-29.369
		c4.677-4.793,9.108-9.702,14.023-14.247c4.342-4.021,7.512-8.407,7.096-14.609c-0.386-5.812-6.276-10.948-8.223-16.412
		c-2.053-5.788-4.489-11.438-7.263-16.905c-2.893-5.669-6.179-11.151-9.778-16.402c-1.64-2.367-3.348-4.707-5.094-6.985
		c-0.869-1.135-1.776-2.267-2.675-3.371c-1.688-2.062-0.237-0.616-0.544-2.368c-3.436-3.771-1.767-10.535-1.727-15.104
		c0.02-1.53,0.462-4.954-1.411-5.161c-1.065-0.119-0.475-7.919-0.425-8.873c0.156-2.265,0.384-4.505,0.504-6.774
		c0.146-0.458,1.124,0.089,0.878-0.706c0.039-3.223,0.039-6.436,0.079-9.661c0.078-6.538,0.234-13.091,0.829-19.618
		c0.481,0.603,1.174-0.79,2.545,0.021c0.858,0.518,1.696,1.061,2.536,1.623c-0.13,0.39-0.582,0.667-0.275,1.085
		c0.554-0.05,0.762-0.325,0.839-0.696c0.593,0.41,1.175,0.819,1.746,1.233c2.755,1.979,5.418,4.071,8.3,5.872
		c3.583,2.25,6.031,4.54,9.08,7.461c2.329,2.245,5.771,2.357,8.873,2.433c2.043,0.063,4.104,0,6.138-0.004
		c1.679,0,2.616,1.104,4.225,1.09c1.104,2.182,3.938,2.729,6.107,3.045c2.933,0.438,5.184,0.805,7.442-1.312
		c1.785-1.657,4.757-1.624,6.206-3.705c-2.18-1.15-4.16,0.52-6.18,0.89L864.72,167.8334z M804.03,89.9734
		c0.443,0.127,0.877,0.567,0.837,1.046l-0.136,1.174c-0.73-0.345-0.78-1.346-0.7-2.22H804.03z M800.03,84.0464
		c1.569-0.223,2.882,0.168,3.879,1.22c0.484,0.479,0.918,1.219,0.444,1.781l-1.195,1.046l-3.215-3.879l0.09-0.168H800.03z
		 M763.54,91.7544c-0.306-1.024,1.265-0.985,1.539-1.87c0.012-0.152,0.029-0.307,0.04-0.436c0.021,0.168,0.012,0.307-0.04,0.436
		c-0.059,0.76-0.089,1.86,0.643,2.397c-0.56,0.001-1.52-0.127-2.18-0.527H763.54z M765.34,88.6164
		c-0.053-0.907-0.102-1.959,0.829-2.388c0.05,0.957-0.21,1.742-0.83,2.388H765.34z M766.37,106.7134
		c-0.825-0.436-1.727-1.091-2.219-1.959c-0.268-0.571-0.612-1.22-0.079-1.791l0.829-0.438c-0.13,1.57,1.91,2.57,1.47,4.19
		L766.37,106.7134z M813.17,289.0334C813.11,288.9633,813.29,289.1433,813.17,289.0334z M825.59,276.4034
		c2.546,3.775-3.219,4.388-5.497,6.292c-2.21,1.825-4.154,4.224-6.483,5.861c1.529-1.091,1.937-8.922,1.776-10.975
		c-0.286-3.593-2.121-6.562-3.632-9.74c-1.521-3.163-1.836-6.726-2.871-10.057c5.89,5.48,12.2,11.96,16.7,18.62L825.59,276.4034z
		 M809.27,118.4433c0.376,0.474,0.868,1.164,0.908,1.56h-0.207c-0.168-0.263-0.839-1.658-1.747-1.56c0.39-0.14,0.61-0.14,1.05,0
		H809.27z M808.0599,119.4033c-0.554,0.06-1.126,0.47-1.323,1.031c-0.335-0.089-0.474-0.479-0.434-0.834
		c0.64-0.49,1.19-0.23,1.75-0.2L808.0599,119.4033z M784.2899,75.9593c1.45-0.296,3.101-0.726,4.579-0.419
		c0.386,0.359,0.918,0.66,1.233,1.051c-0.979,0.869-2.319,0.084-3.315-0.217c-0.82-0.114-1.62-0.499-2.49-0.415
		c-0.156,0.044-0.297,0.079-0.481,0.107c0.18-0.048,0.32-0.078,0.48-0.107H784.2899z M793.1299,323.0594
		c-1.707,2.53-3.523,4.993-5.39,7.421c-1.824,2.349-4.245,3.929-5.805,6.494c4.697-11.902,13.945-21.075,20.656-31.777
		c-2.3,6.36-5.66,12.29-9.47,17.87L793.1299,323.0594z M802.77,305.0193C802.6899,304.9294,802.89,305.1393,802.77,305.0193z
		 M861.14,167.2894C861.0599,167.2094,861.2399,167.3994,861.14,167.2894z M861.48,167.1094
		C861.6,167.2194,861.41,167.0394,861.48,167.1094z M861.85,166.9294C861.77,166.8494,861.97,167.0494,861.85,166.9294z
		 M862.4,166.7594c-0.396-0.06,0.168-0.632,0.533-0.549c0.05,0.42-0.52,0.2-0.53,0.55L862.4,166.7594z"/>
	<g opacity="0.1">
		<path d="M141.56,556.6833c-2.422,2.423-3.327,4.824-4.874,7.587c-2.503,4.426-7.713,6.67-11.813,10.163
			c-4.405,3.756-8.233,7.901-12.625,11.674c-10.442,5.032-16.987,13.312-24.302,20.757c-2.733,1.15-4.961,0.147-7.896,0.812
			c-2.723,0.613-5.107,1.846-7.746,2.625c-2.503,0.734-4.045-1.214-6.607,0.245c-0.884,0.496-1.56,1.16-2.042,1.914
			c0.084,0.653,0.508,1.097,1.277,1.329c-0.494,0.579-1.007,1.129-1.568,1.68c-0.92,1.08,0.202,2.155,0.39,3.422
			c0.25,1.676,3.854,1.835,5.528,2.425c-3.154,1.802-15.25,4.764-13.95,7.222c1.709,1.405,9.343-1.658,12.708-2.896
			c2.074-0.759,4.229-1.366,6.308-2.108c1.352-0.476,3.989-2.313,5.382-2.028c3.568,0.737,7.788-2.368,9.071-4.65
			c1.73-3.068,6.909-5.078,10.053-7.299c7.347-5.202,17.383-8.373,22.001-15.573c2.054-3.212,4.863-5.437,8.209-7.849
			c1.922-1.396,3.953-2.686,5.97-4.003c2.243-1.462,5.734-1.842,8.421-2.904c-0.142,0.317-0.173,0.632-0.136,0.961
			c1.366-1.137,3.641,0.049,4.909,0.686c-0.057,0.068-4.473-0.444-5.22-0.225c-0.25,0.074-2.682,1.997-2.521,2.481
			c0.885,0.678,2.333-0.231,2.666,1.028c-1.045,0.224-2.265-0.326-3.32-0.318c2.155,0.859,5.455,1.977,6.256,3.509
			c-1.73,1.255-4.557-1.13-6.432,0.322c1.086,0.229,2.233,0.101,3.324,0.313c-0.196,0.273-0.479,0.462-0.856,0.571
			c0.633,0.15,1.273,0.182,1.929,0.081c0.477,0.273-1.911,1.202-0.64,1.248c-1.05,0.545-1.388,1.575-1.984,2.375
			c1.595-0.392,3.486-0.237,5.054,0.138c-1.626,0.099-3.621,0.205-4.998,0.951c-0.301,2.46,1.283,1.021,3.003,1.014
			c-0.26,0.15-0.55,0.24-0.883,0.269c-0.322,0.105,2.415-0.185,2.451-0.18c-0.446-0.154-0.913-0.192-1.401-0.094
			c0.893-0.338,2.811-0.358,3.168,0.6c-0.93-0.307-1.823-0.266-2.701,0.122c-1.841,0.708-0.421,1.108-1.549,2.042
			c2.229-1.459,6.235-0.029,7.888,1.414c-2.271-0.563-4.796-0.486-7.145-0.343c2.24,0.311,4.62,0.343,6.771,1.015
			c1.058,0.343,2.011,0.892,2.534,1.711c0.971,1.521-0.545,2.371,2.03,2.514c3.016,0.166,6.907,3.54,9.805,4.69
			c4.261,1.711,5.714,1.552,9.394-0.681c1.692-0.017,3.253-0.177,4.861-0.277c1.247-0.845,2.339-1.798,3.751-2.413
			c2.754-1.206,4.928-2.99,5.705-5.443c0.895-2.831-0.394-6.022-0.29-8.924c0.52-2.734,2.555-5.024,2.431-7.718
			c-1.454,0.729-1.953,2.146-2.452,3.354c-0.769-2.575-0.146-5.999,4.073-5.991c-2.889-1.332-4.801-1.738-6.589,0.73
			c-0.145-1.251,1.496-2.226,2.673-2.803c0.53-0.229-1.176-1.09-1.279-1.334c3.004-0.362,5.561-1.633,8.416-2.367
			c1.632-0.424,3.325-0.611,5.03-0.587c2.264,0.037,3.72-1.006,4.438,0.799c2.316,5.899,6.003,11.368,10.44,16.458
			c4.188,4.812,8.957,9.295,13.424,13.952c4.988,5.188,11.284,9.182,17.082,13.799c2.379-1.944-4.528-6.662-5.922-8.023
			c1.475-1.279,3.252,0.087,4.57-1.887c0.646-0.956,3.554-2.953,2.046-3.649c-1.454-0.678-4.353-0.069-4.479-1.745
			c-0.094-1.247-5.631-1.39-3.137,0.615c-2.536,0.348-3.451-2.204-4.655-3.549c-0.726-0.832-1.569-1.621-2.576-2.257
			c-1.745-0.061-2.131-0.082-2.908-1.345c-2.806-4.523-4.862-9.296-7.065-14.002c-2.004-4.285-4.093-8.577-6.98-12.537
			c-1.208-1.634-2.641-4.092-4.938-4.833c-2.962-0.969-6.203-1.414-9.382-1.621c-3.076-0.212-6.174-0.204-9.237-0.025
			c-3.48,0.2-4.707,1.011-5.537-1.902c-0.051-4.255,2.266-7.783,4.261-11.609c1.953-3.734,3.229-7.966,0.071-11.447
			c-2.681-2.947,0.748-8.436,2.878-11.126c2.223-2.831,4.967-5.423,6.493-8.568c0.802-1.651,1.694-3.558,1.87-5.265
			c0.126-1.052,0.593-2.075,1.081-3.053c0.611-1.219,0.176-2.115,0.737-3.375c2.036-4.567,4.261-9.091,5.092-13.924
			c-0.063-5.396-0.955-10.758-2.474-16.031c-2.68-9.38-7.375-18.239-8.229-27.89c-0.446-5.142-0.488-10.284-0.747-15.427
			c-0.125-2.511-0.292-5.037-0.604-7.547c-0.156-1.215-0.333-2.412-0.562-3.628c0-0.098,0.956-0.913,1.039-1.279
			c0.633-2.64,0.667-5.469,0.146-8.133c-0.249-1.304-0.645-2.673-1.519-3.831c-0.693-0.913-4.051-1.074-5.453-1.45
			c-2.046-0.539-3.741-0.156-4.312-1.876c-0.622-1.858-1.474-3.649-2.201-5.494c-1.621-4.162-0.769-7.39-0.032-11.586
			c0.614-3.545,1.692-5.926,3.71-9.015c2.703-4.156-6.879-3.928-9.609-4.025c-4.312-0.149-10.547-0.521-8.791,4.367
			c0.57,1.581,1.881,2.919,2.577,4.506c0.424,0.938,0.529,4.442,1.234,4.964c0.458,0.326-0.29,2.166,0.073,3.193
			c0.759,2.152,1.601,3.733,1.673,6.049c0.083,2.25-0.083,4.498-0.125,6.747c-0.021,0.913,0,1.812,0.062,2.714
			c-1.062,0.644-2.142,1.265-2.973,2.095c-2.204,2.175,0.687,8.574,0.728,11.305c0.083,4.213-0.499,8.419-0.229,12.625
			c0.241,3.747,1.767,7.383,1.726,11.148c-0.041,3.879-0.625,7.759-0.479,11.638c0.364,8.737,3.927,17.189,3.927,25.949
			c-3.356,0-7.668-3.553-9.891-5.313c-3.622-2.852-7.294-5.492-10.059-8.924c-1.502-1.866-3.051-3.691-4.697-5.469
			c-1.615-1.76-3.911-3.277-4.468-5.395c-1.199-4.443-2.456-8.869-3.604-13.318c-1.075-4.237-2.854-8.102-4.926-12.094
			c-0.998-1.924-1.969-3.856-2.706-5.853c-0.166-1.939-0.161-3.969-0.889-5.852c-0.635-1.653-3.424-1.874-5.376-2.021
			c-0.656-1.68-1.56-3.291-2.469-4.907c-1.902-3.381-3.657-6.845-3.602-10.62c0.041-3.104-0.603-6.29-0.629-9.444
			c-0.01-1.85,0.349-3.421-1.863-4.506c-1.606-0.792-3.686-1.851-5.556-1.965c-4.598-0.261-9.439,0.228-13.768,1.499
			c-6.732,1.938,2.318,4.889,4.422,6.324c2.806,1.923,6.196,4.921,6.8,7.668c0.358,1.662,1.538,2.958,2.723,4.311
			c0.727,1.747,1.018,3.587,1.241,5.396c0.229,1.989,0.343,3.979,0.571,5.96c0.202,1.834-2.587,2.266-4.239,3.559
			c-1.479,1.175-3.531,2.658-2.836,4.337c0.729,1.735,1.851,3.3,2.017,5.15c0.104-0.064,0.166-0.163,0.176-0.277
			c0.215,1.531,0.162,3.228,1.118,4.596c0.831,1.19,1.101,0.562,1.496,2.186c0.296,1.205,0.637,2.403,1.032,3.593
			c1.61,4.883,3.938,9.576,5.876,14.376c1.916,4.735,2.457,9.788,5.242,14.237c3.085,4.933,6.878,9.537,9.642,14.59
			c2.433,4.45,4.333,9.132,7.554,13.28c1.44,1.847,3.21,2.955,5.051,4.486c1.043,2.702,2.561,5.266,3.771,7.931
			c1.974,4.408,0.707,8.271-1.346,12.518c-2.256,4.679-6.77,9.959-7.366,14.91c-0.244,2.066-0.431,3.923-1.117,5.945
			 M150.169,596.1122c-0.177-0.272-0.373-0.526-0.562-0.807c0.44-0.01,0.88,0.67,0.56,0.81L150.169,596.1122z M143.699,584.1423
			c1.804-0.661,3.496-0.057,4.225,0.978c-1.16-0.01-2.9-0.67-4.23-0.98L143.699,584.1423z M149.329,596.6923
			C149.239,596.7422,149.429,596.5923,149.329,596.6923z M150.389,597.3423c-0.072-0.196-0.998-0.364-0.541-0.535
			c0.07,0.18,1,0.35,0.54,0.53L150.389,597.3423z M195.509,410.3523c1.392,0.261,0.198,2.502,0.146,3.397
			c-0.25-1.25,0.37-2.37-0.15-3.4L195.509,410.3523z M195.899,415.3923C195.929,414.5623,196.279,415.9123,195.899,415.3923z
			 M196.299,416.2123c0.332,1.817,1.393,4.434-0.458,5.468c-0.75-2.14,0.43-3.55,0.46-5.47L196.299,416.2123z M202.969,509.4123
			c0.104,0.871,0.051,1.621-0.604,1.932c0.04-0.75,0.25-1.4,0.6-1.93L202.969,509.4123z M202.199,511.4923
			C202.129,511.5423,202.309,511.3923,202.199,511.4923z M201.599,513.5523C202.0789,512.8023,201.149,514.6323,201.599,513.5523z
			 M187.069,576.9123c-0.52-0.021-0.52,0.326-1.038,0.305c-0.08-0.34,0.89-0.56,1.04-0.3L187.069,576.9123z M187.2189,599.4523
			C187.3289,599.3523,187.159,599.5023,187.2189,599.4523z M182.1689,580.1923
			C182.3589,579.6523,182.3989,580.7322,182.1689,580.1923z M182.2289,577.4623
			C181.7489,578.1523,182.5289,577.0123,182.2289,577.4623z M182.5589,581.2723
			C182.7489,580.7323,182.7889,581.8123,182.5589,581.2723z M182.379,580.7323C182.539,580.1923,182.589,581.2723,182.379,580.7323z
			 M181.899,577.8823c0.196,0.444,0.437,1.603,0.082,2.046c0.09-0.77-0.7-1.68-0.08-2.05L181.899,577.8823z M113.989,432.7123
			C113.929,432.7623,114.1189,432.6223,113.989,432.7123z M113.589,431.2123c-0.047-1.662-1.575-2.834-1.081-4.482
			c0.44,1.26,1.6,3.38,1.08,4.48L113.589,431.2123z M115.739,436.4823c-0.427-1.059-1.486-2.331-1.367-3.374
			c0.74,0.78,1.7,2.15,1.37,3.37L115.739,436.4823z M172.129,608.3423C172.879,608.2123,170.799,608.5524,172.129,608.3423z
			 M151.399,573.5424C151.569,573.0024,151.639,574.0724,151.399,573.5424z M153.1889,574.5923
			c-1.152,0.388-2.343-0.086-3.485-0.179c1.19-0.05,3.11-1.3,3.48,0.18L153.1889,574.5923z M149.3089,577.2924
			C148.8189,576.8824,149.8589,577.6523,149.3089,577.2924z M148.769,577.0323c-0.25-0.257-1.05-0.052-1.071-0.509
			c0.5-0.05,1.45,0.74,1.07,0.51L148.769,577.0323z"/>
	</g>
	<path opacity="0.1" enable-background="new    " d="M433.02,617.3734c-2.43-5.844-6.639-11.134-8.244-17.234
		c-2.169-5.259-5.14-10.296-8.481-15.182c-3.99-4.585-5.313-10.09-9.123-14.644c-1.592-3.222-3.666-6.306-5.693-9.392
		c0.108-0.126,0.173-0.27,0.239-0.396c0.498-2.285-0.737-4.261-1.877-6.141c-0.14-0.76,0.553-1.538,1.551-1.674
		c0.934-0.437,2.496-0.229,2.756-1.307c-0.413-1.603,1.149-2.777,0.412-4.419l0.781-0.404c-0.237-0.333-0.652,0-0.966-0.072
		c-0.553-0.208-0.14-0.802-0.911-0.802c-1.02,0.468,0.543,0.706,0.358,1.205c-0.912,1.618,0.695,4.093-2.646,4.491
		c-0.282-0.295,0.086-0.738-0.325-1.104c0.13-0.197,0.584-0.435,0.411-0.808c-0.782-0.199-1.648-0.294-2.604-0.23
		c-0.195-1.871,1.909-3.379,4.057-4.291c0.791-0.165,1.562-0.396,2.538-0.301c-2.244-0.675-4.165,0.84-5.825,1.673
		c0.315-1.135,1.963-2.206,3.612-2.476c0.585,0.073,1.097-0.11,1.583-0.046c-1.235-0.293-2.842-0.033-3.903,0.515l-1.648,1.136
		c-0.737-0.397-0.195-1.539-1.291-1.715c-0.597,0.207,0.217,0.548-0.368,0.747c-0.922-1.444,0.824-2.682,1.334-4.015
		c0.043-0.144-0.186-0.167-0.087-0.35c-0.521-0.095-1.106,0.039-1.433,0.412c-0.607-0.443-0.965-1.244-1.551-1.602
		c-0.38-2.047,0.771-5.242-3.075-5.878h-0.456c-0.151,1.174,1.194,2.237,0.556,3.458h-0.332c-0.012-0.022-0.029-0.049-0.05-0.063
		c-0.251-0.81-0.499-1.618-0.726-2.42c-2.198-5.535-4.854-10.898-7.291-16.357c-1.871-3.243-5.353-6.138-4.626-10.112
		c0.504-6.014,5.175-10.972,4.544-17.127c-0.466-2.793,0.631-5.733-1.014-8.154c0.678-1.508-1.107-2.713-1.427-4.157
		c-4.491-7.297-9.659-14.477-15.945-21.179c-1.512-2.342-3.017-4.729-5.174-6.894c-0.143-1.65-1.324-2.96-2.289-4.331
		c1.92-2.254,1.779-5.132,4.812-7.005c2.144-2.181,1.328-5.267,2.014-7.884l1.192-4.68c3.154-3.159,3.985-7.054,4.3-11.101
		c1.377-4.663,4.402-8.85,5.271-13.675c1.471-4.822-0.178-10.288,3.949-14.317c0.223-0.191,0.092-0.468,0.125-0.738
		c-1.497-1.142-4.898-1.498-4.215-3.616l0.694-1.198c-0.825-0.809-2.196-0.779-3.438-0.642c-0.179,0.135-0.593,0.174-0.641,0.403
		c-0.092,0.603,0.64,1.229,0.232,1.943c-0.921,0.238-1.561-0.601-2.424-0.633c-1.1-0.604-3.54,0.032-3.405-1.54
		c0.136-0.777-0.727-1.325-0.449-2.022c-4.449-1.776-10.095-1.467-14.851-2.643c-3.254-0.27-7.376-0.634-10.357,0.31
		c-0.965,0.586-1.514,1.428-1.105,2.333c-0.409,1.144,3.812,1.373,1.008,1.951c-1.09,2.283-1.914,4.821-1.871,7.536
		c-2.712,0.508-5.413-0.397-7.701,0.801c-0.737,0.468-0.959,1.174-0.232,1.714c0.607,0.308,1.34,0.475,1.659,0.943
		c-0.455,2.649-4.225,4.451-2.76,7.497c0.418,2.824,2.604,5.102,3.676,7.718c-1.285,2.236-2.804,4.387-3.117,6.901
		c0.229,7.347-0.867,14.278-0.332,21.409c-2.889,4.299-3.621,9.225-5.711,13.747c-1.159,4.791-0.648,10.399,0,15.119
		c-0.465,7.504,0.729,15.278,1.097,22.924c0.81,3.245,1.641,6.457,3.978,9.249c0.142,0.937,0.916,1.681,1.426,2.515
		c-0.596,2.648,2.246,4.261,2.744,6.561c-0.86,0.775,0.607,1.41,0.874,2.117c0.086,0.674-1.459,0.705-0.874,1.436
		c2.061,2.491,6.14,4.332,6.697,7.242c1.01,0.477-0.136,1.276,1.01,1.682c0.732,2.776,0.922,5.791,0.641,8.774
		c-1.51,4.767-4.73,10.795-0.641,15.458c2.197,2.343,4.49,4.681,6.595,7.077c0.962,1.03-1.279,1.165-1.73,1.999
		c-5.323,4.632-8.903,9.788-12.479,14.96c-2.054,2.935-6.273,5.014-7.781,8.139c-1.889,7.172-4.87,14.175-4.87,22.02
		c-0.034,4.188-4.308,8.472-0.543,12.39c-0.318,1.484,1.016,2.491,1.016,3.855l-0.473,0.412c1.019,0.635,1.979,1.677,3.209,2.008
		c0.229,0.396,0.37,0.97,1.016,1.134c1.321,0.044,1.512-1.364,3.063-0.968c1.665-0.937,0.878-2.776,1.514-4.086
		c0.836-1.088,2.478-1.942,1.648-3.387c-0.711-3.252-6.367-4.966-4.802-8.678c2.458-5.474,5.475-10.725,9.666-15.658
		c0.163,0.079,0.406,0.11,0.774,0.031c0.55,1.283,0.457,3.014,2.659,3.489c1.8,0.364,3.025,1.642,4.957,1.849
		c1.644,1.571,4.62,2.046,7.044,1.436c0.839-0.374,1.8-0.333,2.521,0.174c0.553,0.459,0.786,0.999,0.656,1.682
		c0.4,0.223,0.727-0.143,0.991-0.31c0.136,0.056,0.244,0.2,0.422,0.128c-0.043-0.501-0.178-1.008,0.364-1.437
		c0.136-0.047,0.326-0.047,0.412-0.173c1.279,0.57,2.987,1.823,4.95,1.482c1.828-0.198,2.109-2.586,4.166-1.784
		c0.96,0.303,2.202,0.477,3.223,0.167c1.274-0.532,0.585-1.976,1.734-2.166c1.329,0.19,3.433,0.397,4.534-0.507
		c1.416-1.382,1.052-3.126,3.162-4.03c1.556-1.477-0.135-3.816,2.979-4.427c1.837-0.031,4.349-0.271,5.271-1.842
		c0.417-0.871,0.514-1.879,1.23-2.641l1.203-0.071c-0.065-0.165-0.372-0.332-0.098-0.507h0.314l-0.771-0.293
		c0.401-0.666,1.692-0.912,2.424-1.483c0.881,0.048,1.562,0.651,1.971,1.079c0.032-0.087,0.032-0.174,0.021-0.246
		c0.443,0.595,0.835,1.199,1.171,1.825c3.396,4.323,8.482,8.14,9.893,13.033c6.108,6.171,7.571,13.706,12.659,20.18
		c1.832,3.141,2.929,6.504,3.853,9.883c-1.237,2.646-0.467,5.469-0.229,8.052c0.554,0.631-0.237,1.775,0.998,2.008
		c0.76,0.031,1.334-0.267,1.845-0.702c1.141,0.297,2.656,0.764,3.841,0.229c2.016,0.575,2.669-1.245,4.402-1.273
		c0.172-1.341,2.429-0.531,2.657-1.771c1.07-2.42,0.98-5.46-1.86-7.23L433.02,617.3734z M402.26,551.8134l1.021-0.539l0.088,0.056
		c-0.15,0.37-0.68,0.41-1.11,0.48L402.26,551.8134z M392.47,571.8533c0.049-0.048,0.13-0.104,0.201-0.151
		c0.162,0.183,0.313,0.374,0.466,0.556c-0.22-0.16-0.44-0.3-0.67-0.41L392.47,571.8533z M385.87,577.8734
		c0.091-0.063,0.237-0.112,0.362-0.167l-0.223-0.168l0.635-0.292c0.098,0.261-0.153,0.356-0.412,0.461v0.008l-0.36,0.16
		L385.87,577.8734z M383.35,578.1033c0.266-0.055,0.689-0.498,1.102-0.229c-0.088,0.349-0.566,0.604-1.102,0.469V578.1033z
		 M373.03,587.4633c0.733-0.031,0.694-0.626,1.423-0.729l-0.137-0.064l2.007-0.808l-0.132,0.808
		c-0.46,0.762-1.556,1.063-2.618,1.104c-0.18-0.2-0.8,0.08-0.54-0.31L373.03,587.4633z M367.94,589.7133
		c0.646-0.269,1.372-0.595,1.889-1.039c0.45,0.199-0.049,0.405,0.082,0.707c-0.26,0.63-1.32,0.49-1.97,0.33L367.94,589.7133z
		 M367.71,588.5033l0.554,0.063l-0.554,0.104v-0.16V588.5033z M360.56,591.0933c1.146,0.055,2.116-0.413,3.125-0.746
		c-0.31,0.84-2.39,1.45-3.12,0.75L360.56,591.0933z M359.05,589.4733c1.016,0,2.214,0.238,3.175,0.54
		c-0.559,0.364-1.475,0.396-2.202,0.261c-0.46-0.16-1.19-0.56-0.97-0.8L359.05,589.4733z M354.72,588.8833
		c0.141,0,0.271-0.009,0.4-0.009c0.039,0.031,0.061,0.063,0.077,0.111c-0.2,0.1-0.35,0.02-0.48-0.1L354.72,588.8833z
		 M349.16,589.8733c0.497,0.104,1.29-0.604,1.869,0c-0.5,0.24-1.42,0.24-1.87,0H349.16z M344.94,586.6233
		c0.119,0.07,0.232,0.135,0.357,0.206l0.017,0.056c-0.23-0.11-0.34-0.19-0.38-0.27L344.94,586.6233z M338.71,584.4833
		c1.654,0.037,1.041,1.078,1.508,1.848c-1.11-0.11-1.88-1.25-1.51-1.85L338.71,584.4833z M394.34,534.9133
		c-0.312-0.07-0.503,0.136-0.773,0.167l-0.554-1.379c0.68,0.21,1.23,0.7,1.32,1.21L394.34,534.9133z M399.53,550.0633
		c-0.563,0.231-0.608,1.104-1.562,1.04c-0.153-0.302-0.229-0.771-0.186-1.04c0.68-0.26,1.01-0.07,1.75,0H399.53z M401.17,558.9833
		l-0.78-2.357l0.237,0.278l0.54,2.08L401.17,558.9833z M399.48,557.8433c-0.65-1.048-1.301-2.096-1.876-3.15
		c0.044,0,0.109,0.009,0.173,0.031c0.85,0.97,1.43,2.02,1.71,3.12L399.48,557.8433z"/>
	<path opacity="0.1" enable-background="new    " d="M530.85,534.4434c4.093,14.119-1.454,20.419-13.616,32.789
		c-3.382,1.003-7.071,1.467-10.143,3.012c-3.047,1.532-3.413,3.98-5.993,6.025c-1.671,1.339-5.178,2.188-4.903,4.117
		c0.733,5.148,3.163,9.497,5.675,14.243h1.947c4.756,5.522,14.722,14.514,18.045,19.197c1.285,2.759-0.446,4.606-0.268,7.156
		c0.04,0.501,0.663,0.874,1.146,1.16c0.682,0.413,1.514,0.635,2.284,0.898c1.077,0.352,1.364,0.895,2.451,1.219
		c2.166,1.606,4.093,2.507,6.881,3.188c0.277,0.062,0.494-0.438,0.337-0.616c-0.594-0.638-1.998-1.011-2.63-1.616
		c-0.276-0.243-0.238-0.643-0.336-0.956c1.6-0.585,6.653-1.616,6.782-2.688c0.119-0.849-3.56,0.229-4.438,0.153
		c0.345-0.646,0.869-1.255,1.146-1.922c0.583-1.437-0.061-1.748-1.375-0.546c-0.751,0.705-1.307,1.552-1.956,2.331
		c0.027-0.41,0.531-1.081,0.079-1.238c-0.326-0.111-2.473,1.178-2.858,1.301c-0.513-0.355-1.255-0.58-1.552-1.088
		c-0.355-0.622-0.157-1.376-0.238-2.059c0.258,0.476,0.912,2.091,1.475,2.261c0.366,0.112,0.999-0.224,0.979-0.547
		c-0.099-1.085-0.654-3.354-0.258-5.173c0.179-0.812,0-1.661-0.691-2.262c-1.127-1.002-1.561-0.426-2.492-1.565
		c-4.676-5.702-8.582-14.194-12.18-20.166c-0.723-1.222,0.811-0.129-0.179-1.222c0.06-0.688-1.541-0.681-1.483-1.363
		c0.652-1.301,2.551-1.475,3.204-1.573c6.803,4.683,9.391,0.856,14.95,2.393c1.462,0.41,9.658,4.071,9.658,5.725
		c-1.476-0.186-9.788,0.215-11.123,6.333c-0.385,1.794,0.81,3.379,1.621,5.064c0.275,0.874-0.562,1.555-0.286,2.424
		c-1.851,2.017,3.747,5.035,4.795,7.371c1.522,3.351,6.484,1.471,8.503,3.97c5.179,6.477,19.616,5.084,27.563-5.303
		c-0.739,0.613-4.032,0.878-5.251-0.1c4.741-0.614,5.678-0.907,6.054-6.847c-1.375,1.487-1.324,2.314-2.423,1.963
		c-1.586-3.632-2.708-2.344-1.257-5.969c0.917-2.31-2.958-5.714-4.104-7.109c-1.148-1.401,1.612-4.131-5.478-4.474
		c-1.068-3.074,7.375-6.219,10.97-6.472c4.517-0.324,9.759-0.551,11.448-4.653c1.227-3.003,0.246-7.261,1.637-9.866
		c3.819-7.223,10.135-7.265,11.544-13.167c0.702-2.982,2.114-2.638,6.898-4.866c9.398-1.768,19.231-2.831,28.826-3.338
		c-0.899-1.409,7.528-0.165,9.906,0.663c1.906,0.667,6.981,2.994,7.812,2.576c2.558-1.272,5.773-1.578,8.498-3.777
		c0.432-0.349,1.037-1.269,1.458-1.518c4.686-2.759,2.901-3.74-0.639-2.142c-0.617,0.281-0.276-1.606-0.464-2.236
		c-0.344-1.188-0.989-0.894-1.611-0.054c0.089-0.215-1.395-0.944-1.761,0.17c-0.273,0.82,0.08,2.507-0.396,2.925
		c-0.736,0.645-3.944,2.265-6.125,1.562c-3.359-1.076,2.878-2.299,3.275-2.643c0.932-0.788-0.707-1.615-1.396-1.201
		c-3.097,1.016-4.998,0.818-6.721,1.941c-1.99,1.288-7.751-2.414-13.629-2.51c0.332-1.338-0.93-2.232,0.82-4.025
		c-8.559,0.873-22.421,1.618-30.979,2.497c-2.804-0.269-4.563,1.035-5.76,0.841c-4.593,1.541-2.917,0.663-5.755,3.314
		c-1.211,0.301-2.364,0.306-3.807,1.146c-1.699,0.974-3.836,2.925-4.923,4.381c-2.206-5.553,7.612-13.593,11.468-18.061
		c-3.069-0.046-2.019-2.681-5.086-2.713c15.87-14.086,12.449-29.572,13.145-47.916c-1.525-0.266-3.055-0.548-4.578-0.812
		c-0.459-5.376-3.117-18.64-2.943-22.532c0.27-5.807,10.434-8.979,13.898-15.274c6.42-11.663,6.971-23.7,10.94-35.621
		c1.21-3.636,4.964-6.07,6.639-9.493c2.413-4.952,6.575-11.265,2.508-16.351c-1.158-1.442-7.48-3.595-9.513-3.514
		c-5.449,0.184-4.178,8.367-5.596,11.085c-1.441,2.732-1.723,5.724-1.515,8.2c0.109,1.26-1.978,3.048-2.427,4.274
		c-0.51,1.409,0.137,3-0.366,4.409c-7.028,19.731-23.056,32.105-36.003,48.632c-2.06,2.617,0.163,20.015-0.484,23.981
		c-3.269-0.174-6.531-0.355-9.812-0.546c-2.176-7.67-4.271-15.226-5.825-23.012c-1.462-7.313-5.603-14.362-7.245-18.912
		c-1.554-4.265,1.009-8.083-0.338-12.549c-2.787-9.377-7.553-19.599-6.209-29.423c0.734-1.813,2.761-4.01-0.986-9.533
		c-1.068-1.138-3.471-0.557-4.905-1.368c-2.037-1.162-3.549-2.869-5.229-4.391c-2.779-2.51-16.157-7.091-18.312-2.187
		c-1.325,3.016,5.229,5.698,7.197,7.124c3.668,2.678,9.085,6.138,10.134,10.412c4.133,16.991-2.63,34.503,3.926,52.063
		c1.631,4.374,1.02,9.12,1.305,13.693c0.397,6.41,1.414,12.393,2.008,18.729c-0.97,0.465-1.542,0.397-2.521,0.854
		c3.983,13.837,6.534,25.6,5.249,39.632c-0.414,4.42-0.414,8.255,0.119,12.876c-0.92,0.22-4.98,0.66-5.87,0.84L530.85,534.4434z"/>
	<g opacity="0.1">
		<path d="M870.84,553.6934c-1.449-1.766-4.421-1.738-6.206-3.144c-2.259-1.797-4.51-1.486-7.442-1.113
			c-2.17,0.267-5.003,0.731-6.107,2.583c-1.608-0.012-2.546,0.925-4.225,0.925c-2.034-0.004-4.095-0.057-6.138-0.004
			c-3.102,0.063-6.544,0.16-8.873,2.065c-3.049,2.478-5.497,4.421-9.08,6.33c-2.882,1.527-5.545,3.304-8.3,4.982
			c-0.571,0.351-1.153,0.698-1.746,1.046c-0.077-0.314-0.285-0.548-0.839-0.591c-0.307,0.355,0.146,0.59,0.275,0.921
			c-0.84,0.477-1.678,0.938-2.536,1.378c-1.371,0.687-2.063-0.494-2.545,0.017c-0.595-5.538-0.751-11.098-0.829-16.646
			c-0.04-2.736-0.04-5.462-0.079-8.197c0.246-0.674-0.731-0.21-0.878-0.599c-0.12-1.926-0.348-3.827-0.504-5.748
			c-0.05-0.81-0.641-7.428,0.425-7.528c1.873-0.176,1.431-3.082,1.411-4.38c-0.04-3.877-1.709-9.616,1.727-12.815
			c0.307-1.486-1.144-0.259,0.544-2.01c0.898-0.937,1.806-1.897,2.675-2.859c1.746-1.934,3.454-3.919,5.094-5.928
			c3.6-4.455,6.886-9.107,9.778-13.917c2.773-4.64,5.21-9.433,7.263-14.345c1.946-4.636,7.837-8.993,8.223-13.926
			c0.416-5.262-2.754-8.984-7.096-12.396c-4.915-3.856-9.347-8.022-14.023-12.089c-9.089-7.899-18.644-15.569-25.748-24.92
			c-0.07-0.254-2.162-5.299-0.79-4.659c2.024,0.945,1.559-0.543,1.866-2.503c0.542-1.511,2.754-2.046,3.188-3.596
			c0.555-1.964,3.14-2.949,5.546-2.935c2.418,0.003,5.901,0.498,6.258-2.404c0.258-2.203-0.7-3.729-2.26-5.413
			c-3.741-4.02-9.297-2.576-13.878-0.49c-4.813,2.19-9.105,4.979-14.664,5.698c0.946-2.457,2.083-4.864,3.325-7.229
			c0.614-1.155,1.236-2.299,1.896-3.436c1.017-0.28,1.876-0.896,2.457-1.671c1.323-1.758,1.647-4.621-1.146-4.739
			c-3.344-0.143-6.531-1.134-9.866-1.311c-5.312-0.272-7.927,4.856-9.801,8.408c-1.835,3.448-7.116,9.037-5.478,12.828
			c0.958,2.18,1.234,3.955,3.139,5.756c1.668,1.572,3.811,2.293,5.467,3.857c4.006,3.737,5.754,9.242,7.402,14.031
			c3.592,10.423,6.996,20.521,14.576,29.473c1.538,1.809,3.255,4.334,5.691,5.225c3.109,1.126,0.612,4.258-0.375,6.15
			c-2.546,4.812-6.257,9.028-10.086,13.156c-3.828,4.17-7.52,8.432-11.014,12.814c-1.865,2.328-3.651,4.678-5.377,7.068
			c-0.87,1.208-1.73,2.431-2.547,3.659c-1.037,1.527-1.579,1.259-3.523,1.234c-2.29,1.574-3.612,2.453-5.093,4.782
			c-1.411,2.234-2.832,4.466-3.533,6.953c-0.728,4.537,0.179,8.938,2.854,12.93c2.043,3.037,4.787,5.673,6.84,8.704
			c4.56,2.716,5.389,7.971,8.271,11.73c0.387,4.874-3.453,8.315-6.107,12.514c-2.428,3.807-4.312,10.797-8.831,12.935
			c-1.521,0.711-4.353-1.32-6.356-1.55c-1.678-0.192-2.418,0.13-3.957-0.564c-1.254-0.565-2.576-1.052-3.878-1.512
			c-2.862-1.021-3.514-2.143-5.527-3.995c-2.278-1.397-5.014-2.169-7.757-2.615c-5.564-0.931-11.368-0.716-16.994-0.441
			c-6.068,0.295-12.897,1.694-18.918,0.723c-3.13-0.499-4.719-1.411-8.043-0.718c-2.497,0.527-4.854,1.465-7.362,1.98
			c-2.043,0.549-4.035,1.637-6,2.378c-1.835,0.717-4.688,0.913-5.496,2.805c1.421,0.33,3.019-0.168,4.312-0.615
			c-0.207,1.206-1.804,1.914-2.032,3.174c-0.335,1.938,1.768,0,2.468-0.151c1.825-0.399,3.314-2.105,4.775-3.321
			c0.7,0.364,1.372,0.325,1.993-0.122c1.265-0.749,2.636-0.539,4.125-0.664c5.391-0.445,9.454-0.988,14.744,0.292
			c4.421,1.077,8.794,2.333,13.233,3.376c4.687,1.091,9.444,1.908,14.281,2.15c2.652,0.13,5.575-0.519,7.736,0.85
			c2.239,1.434,4.507,2.84,6.777,4.247c2.586,1.589,3.741,2.331,5.033,4.752c0.909,1.679,2.164,3.199,3.644,4.53
			c3.651,3.282,6.473,4.797,11.812,4.528c3.157-0.152,7.835,0.86,9.699,3.092c1.73,2.047,2.112,3.796,1.798,5.581
			c-0.729,1.226-2.301,2.097-3.662,2.75c-0.956,1-1.745,2.332-3.146,2.919c-0.343-0.555,0.366-1.374-0.196-1.961l-1.146-0.889
			l-0.078,0.077c0.688,0.557,1.174,1.33,0.829,2.144c-1.097,1.368-4.067,2.918-2.627,4.811c1.272,0.363,2.005,1.369,2.419,2.361
			c-0.839,0.296-0.543,1.152-0.762,1.707c-0.077,0.81,0.97,1.471,0.436,2.216c0.326,0.373,0.229,1.002,0.088,1.407
			c-0.739,1.034-4.005,0.405-2.692,2.215c2.933,0.631,0.118,3.961,3.228,4.556c0.65,0.845,2.398,1.028,2.615,2.289
			c0.207,1.328,3.14,1.666,1.875,3.291c0.039,0.44,0.246,0.954,0.868,1.072c1.036,0.183,2.134-0.406,3.011,0.183
			c0.168,0.779,0.818,1.738,1.865,1.849c2.624,1.562,4.401-1.513,7.018-0.072c1.697,0.522,3.838,0.404,5.654,0.442
			c1.332-0.665,2.683-2.402,4.281-1.331c0.188,0.189,0.258,0.448,0.533,0.595c1.224-0.335,0.168-1.186-0.089-1.783
			c1.204-0.369,2.143-1.256,2.831-2.211c1.215-0.558,3.448-0.85,3.307-2.37c2.054-0.146,4.273-0.591,5.152-2.323
			c0.158-1.038-0.829-1.746-1.501-2.407c0.396-0.741,1.797-0.624,1.797-1.587c0.167-0.783,0.215-1.783-0.395-2.407
			c-0.209-0.586,0.75-0.444,0.609-0.959c-0.956-0.523-0.778-1.562-0.956-2.406c-0.218-1.221,0.739-2.069,0.522-3.292
			c-2.183-0.779-0.486-2.587-1.433-3.998c-0.829-1.554-3.061-2.404-3.061-4.249c-0.266-0.448-1.521,0.221-1.146-0.708
			c0.544-0.218,1.104-0.218,1.272-0.804c1.618,0.955,3.307-0.118,4.707-0.784c1.215-0.771,0.355-2.847,2.487-2.775
			c1.261-0.071,2.624-0.4,3.274-1.406c0.918-1.139,0.089-3.022,1.875-3.806c0.869-0.227,1.56,0.297,1.855,0.888l0.099,1.779
			c0.956-0.373,0.436-1.483,0.436-2.144c-0.306-0.67-1.124-1.34-1.864-1.596c-0.965,0.302-1.844,0.779-2.398,1.148
			c0.089-0.478-0.274-1.96,1.048-2.105c0.65-0.186,1.521-0.487,2.172-0.118c0.513,0.118,0.609,1.183,1.253,0.632
			c-0.109-0.699-0.464-1.482-1.332-1.771l-1.266-0.083c1.56-1.398-2.103-4.214,1.777-3.915c0.117-0.778-0.929-1.239-1.135-1.934
			c0.197-0.39,0.312-0.76,0.363-1.103c0.149-0.284,0.209-0.564,0.217-0.823c3.594-3.483,7.708-6.34,11.666-9.501
			c2.16-1.733,4.214-3.566,6.553-5.12c1.213-0.796,2.466-1.507,3.859-2.094c1.292,0.068,2.605-0.017,3.879-0.301
			c4.302-0.95,6.671-4.43,10.655-5.522c3.091-0.847,3.947-1.75,6.652,0.159c1.688,1.205,3.374,2.499,5.724,2.462
			c-0.928-2.367-3.84-3.207-5.741-4.879c3.67,0.402,6.227,2.98,9.583,4.092c4.646,1.544-2.136-5.344-2.577-6.072
			c2.03,0.31,4.01,1.74,6.13,0.77L870.84,553.6934z M804.7401,617.1033l0.136,0.996c0.04,0.406-0.394,0.779-0.837,0.888
			c-0.09-0.74-0.04-1.59,0.7-1.89L804.7401,617.1033z M799.9401,623.8734l3.215-3.291l1.195,0.888
			c0.474,0.478,0.04,1.104-0.444,1.512c-0.997,0.892-2.31,1.224-3.879,1.034l-0.1-0.14L799.9401,623.8734z M765.7201,617.0333
			c-0.731,0.456-0.701,1.389-0.643,2.034c0.052,0.109,0.061,0.228,0.04,0.369c-0.011-0.108-0.028-0.24-0.04-0.369
			c-0.274-0.751-1.845-0.718-1.539-1.587c0.66-0.33,1.62-0.44,2.18-0.44L765.7201,617.0333z M766.1701,622.1733
			c-0.931-0.364-0.882-1.257-0.829-2.026c0.62,0.55,0.88,1.21,0.83,2.03L766.1701,622.1733z M764.9001,608.3433l-0.829-0.373
			c-0.533-0.484-0.188-1.034,0.079-1.52c0.492-0.736,1.394-1.292,2.219-1.661c0.44,1.37-1.6,2.22-1.47,3.55L764.9001,608.3433z
			 M813.1701,450.0933C813.2901,449.9933,813.1101,450.1533,813.1701,450.0933z M808.8801,476.6033
			c1.035-2.827,1.35-5.85,2.871-8.534c1.511-2.695,3.346-5.216,3.632-8.264c0.16-1.742-0.247-8.387-1.776-9.312
			c2.329,1.389,4.273,3.424,6.483,4.973c2.278,1.615,8.043,2.136,5.497,5.338c-4.49,5.64-10.8,11.14-16.7,15.79L808.8801,476.6033z
			 M808.2301,594.8333c0.908,0.083,1.579-1.101,1.747-1.323h0.207c-0.04,0.336-0.532,0.921-0.908,1.323c-0.45,0.12-0.67,0.12-1.05,0
			H808.2301z M806.3001,593.8533c-0.04-0.303,0.099-0.632,0.434-0.708c0.197,0.477,0.77,0.824,1.323,0.875
			c-0.55,0.02-1.1,0.24-1.75-0.17L806.3001,593.8533z M783.8001,630.7933c0.185,0.023,0.325,0.053,0.481,0.09
			c0.869,0.071,1.678-0.255,2.497-0.352c0.996-0.256,2.337-0.922,3.315-0.185c-0.315,0.332-0.848,0.588-1.233,0.893
			c-1.479,0.26-3.129-0.104-4.579-0.356c-0.16-0.01-0.3-0.04-0.49-0.08L783.8001,630.7933z M802.5901,436.3734
			c-6.711-9.081-15.959-16.864-20.656-26.964c1.56,2.177,3.98,3.518,5.805,5.511c1.866,2.06,3.683,4.149,5.39,6.296
			c3.81,4.73,7.17,9.76,9.46,15.15L802.5901,436.3734z M802.7701,436.5233C802.8901,436.4233,802.6901,436.5934,802.7701,436.5233z
			 M861.1401,553.3834C861.2401,553.2933,861.0601,553.4534,861.1401,553.3834z M861.4801,553.5433
			C861.4101,553.6033,861.6001,553.4434,861.4801,553.5433z M861.8501,553.6934
			C861.9701,553.5934,861.7701,553.7534,861.8501,553.6934z M862.9301,554.3033c-0.365,0.07-0.929-0.415-0.533-0.465
			c0.01,0.28,0.58,0.11,0.53,0.46L862.9301,554.3033z"/>
	</g>
</g>
</svg>
