<?xml version="1.0" encoding="utf-8"?>
<!-- Generator: Adobe Illustrator 16.0.0, SVG Export Plug-In . SVG Version: 6.00 Build 0)  -->
<!DOCTYPE svg PUBLIC "-//W3C//DTD SVG 1.1//EN" "http://www.w3.org/Graphics/SVG/1.1/DTD/svg11.dtd" [
	<!ENTITY ns_extend "http://ns.adobe.com/Extensibility/1.0/">
	<!ENTITY ns_ai "http://ns.adobe.com/AdobeIllustrator/10.0/">
	<!ENTITY ns_graphs "http://ns.adobe.com/Graphs/1.0/">
	<!ENTITY ns_vars "http://ns.adobe.com/Variables/1.0/">
	<!ENTITY ns_imrep "http://ns.adobe.com/ImageReplacement/1.0/">
	<!ENTITY ns_sfw "http://ns.adobe.com/SaveForWeb/1.0/">
	<!ENTITY ns_custom "http://ns.adobe.com/GenericCustomNamespace/1.0/">
	<!ENTITY ns_adobe_xpath "http://ns.adobe.com/XPath/1.0/">
]>
<svg version="1.1" id="Layer_1" xmlns:x="&ns_extend;" xmlns:i="&ns_ai;" xmlns:graph="&ns_graphs;"
	 xmlns="http://www.w3.org/2000/svg" xmlns:xlink="http://www.w3.org/1999/xlink" x="0px" y="0px" width="792px" height="612px"
	 viewBox="0 0 792 612" enable-background="new 0 0 792 612" xml:space="preserve">
<metadata>
	<sfw  xmlns="&ns_sfw;">
		<slices></slices>
		<sliceSourceBounds  width="759.819" height="577.755" bottomLeftOrigin="true" x="15.769" y="-597.193"></sliceSourceBounds>
	</sfw>
</metadata>
<path d="M692.356,20.5c0.267,0.98,0.326,2.227,0.089,3.206c-2.523,3.474-8.133,5.342-8.489,10.062
	c2.643-2.346,5.996-3.532,9.349-4.482c2.554-0.208,5.195-0.445,7.896-0.712c0.861,0.386,0.446,1.366,0.356,2.048
	c-0.326,2.019-2.434,2.969-3.977,3.859c-3.177,0.771-6.174,1.573-8.43,4.274c4.274-0.505,7.836-3.176,12.198-3.71
	c1.603,0.296,1.573,2.047,1.93,3.265c0.118,0.652-0.179,1.098-0.594,1.513c-2.938,1.455-5.698,3.324-8.666,4.689
	c-1.692,1.01-2.998,2.761-2.938,4.838c0.06,0.713-0.119,1.514,0.148,2.137c3.205-0.623,5.816-2.642,9.111-2.967
	c0.979,0.296,2.404,0.089,2.701,1.335c0.118,0.92,0.178,2.018-0.356,2.789c-2.019,1.366-4.215,2.523-6.471,3.117
	c-2.077,0.534-2.76,3.117-4.63,3.918c-1.543,3.324-3.324,6.56-4.423,10.062c-0.741,2.434-2.997,4.363-5.192,5.55
	c-0.743,3.561-3.889,6.113-4.928,9.557c-2.404,6.619-2.761,14.098-4.837,20.865c-1.633,8.488-4.097,16.62-7.035,24.575
	c-0.444,1.632-1.217,3.235-1.009,5.045c4.452,3.235,8.25,7.301,12.109,11.338c1.009,0.712,2.344,0.682,3.413,1.276l3.918,1.988
	c4.125-0.029,7.983,0.535,11.843,1.128c1.482,0.06,2.641-0.741,3.977-1.068c1.632-0.238,3.294-0.712,4.986-0.623
	c0.504-0.772,1.424-1.632,0.86-2.583c-0.831-1.276-1.988-2.404-2.434-3.829c-3.829-3.294-5.401-7.479-6.321-11.961
	c-1.246-2.433-1.337-5.045-1.931-7.716c0.03-2.671-0.682-5.907-0.207-8.667c0.623-1.929,1.099-4.066,0.772-6.204
	c-0.297-2.463,1.246-4.541,1.632-6.916c0.95-2.671,0.831-5.787,2.849-8.043c0.386-1.068,1.276-1.929,1.425-3.057
	c1.603-2.167,4.215-3.829,6.263-5.639c2.7-1.543,5.996-0.801,8.904-1.425c2.463-0.475,5.016-1.158,7.627-0.771
	c4.394,2.167,9.766,2.018,14.662,2.998c1.217,0.356,1.988,1.335,3.146,1.84l-0.504-0.059c2.969,2.314,5.432,5.401,8.043,8.043
	c1.276,1.721,1.544,3.888,2.434,5.758c0.416,1.247-0.029,2.819,0.921,3.858c4.244,3.502,9.022,6.471,13.029,10.24
	c0.801,0.564,1.484,1.335,2.018,1.989v59.003H661.252c-7.124-9.201-11.932-19.47-16.265-29.858
	c-2.256-2.642-3.978-5.521-4.838-8.755c-0.119-3.443,1.543-6.292,2.077-9.557c1.603-7.272,1.514-14.959,4.185-21.786
	c4.839-13.119,12.821-24.723,19.174-37.189c1.276-1.929,0.563-4.66,2.286-6.411c0.771-4.808-0.684-9.498,0.414-14.157
	c1.158-4.126,2.969-8.073,2.85-12.615c0.06-1.187,0.891-2.136,1.929-2.582c0.832,0,1.722,0.475,2.434,0.861
	c2.404-4.541,5.462-9.26,10.182-12.021c1.81-1.336,3.62-3.265,5.965-2.583L692.356,20.5z"/>
<path d="M352.753,184.448c0.618,1.104,0.752,2.562,0.53,3.888c-0.794,2.561-3.179,4.328-5.079,5.654
	c0.396,1.766,0.973,3.843,0.31,5.698c-0.089,0.308,0.264,0.442,0.397,0.662c1.368-0.928,2.737-3.048,4.683-2.651
	c2.693,0.531,3.356,4.506,6.051,4.418c2.606,0.22,4.462,5.433,7.113,1.811c0.928,0.087,0.353,1.457,0.53,2.031
	c0.353,1.635-0.885,2.917-1.944,4.109c-1.193,1.193-2.829,2.474-4.021,3.932c0.62,3.313,0.132,7.333,0.442,10.911
	c0.132,3.623,0.088,7.642-2.429,10.38c-1.282,7.201,0.749,15.108,2.296,22.176c2.915,12.325,7.421,24.384,6.361,37.946l0.663,0.972
	c6.405,1.943,12.368,5.699,17.271,10.602c0.53,10.692-0.574,21.516,0.089,31.897c-0.884,0-1.768,0.485-2.74,0
	c-3.666,0.264-7.996-0.441-11.75-0.223c-0.705-2.34-1.723-4.594-2.032-7.067c-6.14-7.951-16.034-14.003-18.642-23.988
	c-3.18-3.534-4.991-7.642-4.77-12.59c-6.582-7.509-5.522-18.111-5.434-27.564c0.486-13.43,2.386-26.24,2.871-39.67
	c-2.782-4.063-1.898-9.629-3.71-14.091c-0.707-4.063-1.899-8.481-0.221-12.633c0.045-3.491,0.31-7.864,3.844-10.161
	c2.208-1.899,5.08-3.932,6.758-6.272C350.766,183.873,352.092,183.74,352.753,184.448z"/>
<path d="M276.95,193.636c0.398,3.136-1.148,6.317-0.751,9.453c0.089,3.27-2.385,5.876-1.148,9.233
	c1.281,0.883,2.519-1.282,3.888-0.22c1.325,0.927,2.915-0.531,4.152,0.619c1.634,1.898,4.593,0.264,6.45,1.811
	c2.649,1.28,1.148,4.991,1.723,6.891c-0.751,5.035-1.193,10.47-4.153,14.754c-4.063,3.136-3.003,8.525-3.49,13.031
	c0.574,12.723,6.98,23.324,11.972,34.323c1.943,5.345,4.108,10.867,3.843,16.875c0.972,0.838,2.385,0.574,3.71,0.618
	c6.538,1.943,13.031,4.021,18.951,7.422c-0.352,10.161-0.486,18.908-0.309,29.068c-4.814,0-10.47-0.663-15.373-0.089
	c-9.895-6.228-15.549-16.521-25.223-23.323c-4.108-2.96-6.45-7.646-6.494-12.725c-0.53-7.907-5.699-13.826-5.08-22.176
	l-0.751-23.412c-0.31-3.402-2.076-6.538-1.37-9.763c1.502-2.121,0.751-4.682,0.663-7.201c-0.309-4.638-1.414-8.923-2.651-13.164
	c-1.855-3.18-1.502-7.112-0.354-10.47c3.225-4.859,3.578-10.867,6.272-15.903c1.458-3.312,1.458-6.803,2.431-10.292
	c0.309-0.31,0.707-0.839,1.06-0.31C276.244,190.057,277.216,191.736,276.95,193.636z"/>
<path d="M191.694,189.748c2.165,5.831,0.177,12.679,1.723,18.642c0.531,2.297,0.088,4.991,1.591,6.891
	c0.352,0.044,0.795-0.089,1.148-0.442l0.221-0.309c0.574-6.141,0.088-11.927,0.839-18.024c0.221-1.061,0.707-2.208,1.723-2.739
	c0.531-0.309,1.237,0.089,1.679,0.089c2.385,3.489,1.237,8.216,1.369,12.324c-0.176,3.357-0.529,6.449-0.087,9.938
	c0.22,1.237,1.237,1.636,2.12,2.209c2.694,0.486,2.828-3.003,4.859-4.02c1.945-3.136,3.357-6.494,5.522-9.542
	c0.531-0.619,1.281-0.398,1.9-0.398c1.723,1.59,0.839,4.064,0.31,5.919c-2.519,4.683-4.904,9.409-7.201,14.225
	c-0.531,3.181,0.486,6.184,0.751,9.321c0.265,4.506-0.133,9.144-1.06,13.119c0.838,3.578,1.237,7.29,2.562,10.602
	c3.004,7.377,6.98,14.313,10.602,21.424c-0.177,0.618,0.574,0.84,0.618,1.37c3.489,7.863,7.687,15.461,9.542,23.986
	c0.31,2.077,1.104,3.976,1.678,5.92c2.341,1.945,5.301,3.359,7.111,6.053c0.134,6.892,0.222,14.578,0.309,21.822
	c-5.477,0.486-10.424-0.266-15.99,0.442c-1.591-3.003-1.856-6.538-4.242-9.233c-10.248-10.734-20.01-22.486-23.103-36.578
	c-4.55-15.152-3.622-32.689-8.702-47.488c-0.619-0.883-1.635-1.281-2.562-1.679c-2.695-4.549-8.04-5.565-11-9.895
	c-1.988-4.284-6.008-7.907-10.071-10.248c-0.486-0.486-0.84-1.282-0.53-2.032c1.281-1.635,3.623-0.973,5.168-0.442
	c3.445,1.678,6.051,4.682,9.144,7.111c0.839,0.177,2.297,0.309,2.341-0.928c-0.574-3.534-0.84-7.2-2.65-10.204
	c-2.342-4.417-4.816-8.747-5.743-13.782c-0.883-2.43-2.518-4.551-2.871-7.2c0.663-0.663,1.635-0.84,2.429-0.751
	c2.783,1.812,3.755,5.124,4.903,7.952c2.871,3.534,5.169,7.465,6.892,11.573c0.751,0.75,0.839,1.458,1.988,1.06l1.059-1.28
	c-0.883-6.053-1.368-13.208-0.839-19.305c0.177-1.944,0.663-4.461,2.43-5.832C190.326,189.748,191.032,189.218,191.694,189.748z"/>
<path d="M29.199,179.323c0.486,4.814-1.944,8.438-2.518,12.811c0.53,0.884,1.061-0.176,1.59-0.309
	c2.562-2.917,4.639-6.185,7.819-8.482c1.988-1.987,3.667-4.639,6.272-5.831c0.751,1.324,1.105,3.092,0.619,4.682
	c-0.707,2.386-3.225,4.021-4.948,5.699c-0.751,2.342-3.534,4.02-3.091,6.892c0.22,0.53,0.927,0.221,1.281,0
	c2.606-1.591,5.389-3.18,7.818-4.771c1.325-0.132,3.048-0.839,4.242,0.354c0.132,4.33-5.125,5.964-7.509,9.012
	c-0.442,0.088-0.84,0.574-1.062,0.928c0.575,1.9-0.619,4.374-0.22,6.494c0.883,0.838,1.898,0.574,2.96,0.618
	c3.136-2.386,5.698-5.963,9.144-7.863c0.707,0.309,1.679,0.353,1.988,1.192c0.221,0.972-0.222,1.944-0.84,2.738l0.132,0.132
	c-3.224,3.8-6.714,7.157-9.762,11.133c1.414,9.011-2.518,16.301-5.213,23.81c-0.751,3.093,0.84,6.228,1.061,9.453
	c0.221,0.442,0.132,1.017,0.309,1.591c3.313,13.56,6.007,27.52,10.425,40.506c1.06,3.491,1.812,7.157,1.768,11.132
	c1.237,3.137,5.124,3.048,7.864,4.108c4.417,1.811,8.966,3.447,12.721,6.584l0.088,24.074v1.503
	c-4.903-0.177-10.248-0.045-15.151-0.53c-0.884-0.045-1.414-1.192-2.209-1.06c-9.012-6.185-15.594-15.02-22.926-23.016
	c-3.048-3.757-2.43-9.058-4.417-13.255c-1.723-6.141-4.286-11.882-5.435-18.244c-1.325-18.509,0.354-37.459-0.927-56.587
	c0.044-3.181-1.767-5.566-1.812-8.703c0.486-5.963,0.22-11.44,1.06-17.271c1.282-1.945,1.591-4.683,1.282-6.891
	c1.368-3.888,2.165-7.952,4.108-11.574c0.529-1.458,1.016-3.004,2.032-4.153C29.376,176.32,28.845,178.263,29.199,179.323z"/>
<path d="M123.775,186.833c0.84,1.192,1.325,2.519,1.9,3.843c2.076,0.751,4.241,1.369,6.361,1.988
	c1.503,2.429,0.575,5.522-0.22,7.951c-1.37,4.948-3.667,9.629-6.228,14.003c-2.165,1.899-4.463,3.18-6.053,5.301l-0.089,3.18
	c-3.534,3.313-2.915,8.217-3.401,12.722c0.265,12.943,7.199,24.075,7.952,36.665c1.414,6.759,1.501,13.473,1.678,20.585
	c0.088,0.75,0.177,1.943,1.193,2.209c1.457-0.442,3.534,0.132,5.168,0.529c9.808,0.973,18.244,5.875,27.698,8.084
	c4.417,0.353,8.967-1.679,13.34,0.088c1.591,0.971,4.02,0.486,4.991,2.562c0.884,6.142,0.045,12.724,0.311,19.396v10.91
	c-11.751-0.221-23.854,0.045-35.295-0.617c-2.917-3.402-6.627-5.522-10.073-8.482c-7.995-5.699-16.301-10.337-24.517-15.814
	c-4.683-3.138-6.537-8.263-6.979-13.564c-1.326-9.586-4.551-18.774-4.33-28.625c-0.133-6.979-0.397-13.207,0.619-20.142
	c0.574-8.879,1.811-18.024,2.252-26.815c-0.132-3.092-0.707-6.096-0.354-9.232c-1.545-4.02-1.987-8.481-0.838-12.811
	c-0.221-2.827-0.972-5.742-0.53-8.79c2.077-2.784,5.566-3.446,9.011-3.535c2.077-1.855,4.948-2.12,7.643-2.208
	c0.794-0.707,1.678-0.265,2.517-0.839C119.757,185.507,121.965,185.684,123.775,186.833z"/>
<path d="M440.413,188.43c-0.618,1.104-0.75,2.562-0.529,3.888c0.795,2.561,3.181,4.329,5.079,5.653
	c-0.397,1.767-0.972,3.843-0.31,5.699c0.09,0.309-0.264,0.441-0.396,0.663c-1.369-0.929-2.738-3.049-4.684-2.651
	c-2.693,0.53-3.357,4.505-6.052,4.417c-2.604,0.221-4.461,5.434-7.112,1.811c-0.927,0.089-0.352,1.457-0.528,2.032
	c-0.354,1.634,0.883,2.916,1.943,4.108c1.192,1.193,2.826,2.474,4.02,3.931c-0.617,3.314-0.132,7.333-0.441,10.911
	c-0.132,3.623-0.089,7.642,2.43,10.381c1.281,7.201-0.751,15.107-2.297,22.175c-2.916,12.325-7.422,24.384-6.361,37.946
	l-0.662,0.971c-6.405,1.943-12.37,5.699-17.273,10.604c-0.529,10.691,0.574,21.514-0.088,31.895c0.884,0,1.767,0.485,2.739,0
	c3.666,0.265,7.995-0.442,11.749-0.22c0.708-2.342,1.724-4.595,2.033-7.068c6.14-7.951,16.035-14.004,18.642-23.987
	c3.181-3.536,4.991-7.645,4.771-12.592c6.583-7.51,5.521-18.112,5.434-27.565c-0.486-13.43-2.385-26.24-2.871-39.668
	c2.782-4.064,1.898-9.631,3.711-14.093c0.706-4.063,1.899-8.48,0.221-12.633c-0.045-3.49-0.31-7.863-3.843-10.161
	c-2.209-1.899-5.082-3.931-6.76-6.272C442.401,187.855,441.077,187.723,440.413,188.43z"/>
<path d="M516.217,197.617c-0.398,3.138,1.147,6.318,0.751,9.455c-0.089,3.268,2.385,5.874,1.148,9.231
	c-1.28,0.884-2.518-1.281-3.887-0.22c-1.326,0.927-2.916-0.53-4.153,0.618c-1.634,1.899-4.594,0.265-6.449,1.811
	c-2.65,1.282-1.148,4.992-1.723,6.891c0.752,5.036,1.192,10.47,4.152,14.755c4.064,3.135,3.004,8.525,3.49,13.031
	c-0.575,12.722-6.981,23.324-11.972,34.323c-1.943,5.345-4.108,10.867-3.843,16.875c-0.972,0.84-2.385,0.574-3.712,0.618
	c-6.536,1.944-13.031,4.022-18.949,7.424c0.354,10.159,0.485,18.906,0.309,29.066c4.815,0,10.47-0.663,15.372-0.089
	c9.896-6.229,15.55-16.52,25.223-23.323c4.108-2.96,6.45-7.643,6.495-12.725c0.529-7.908,5.698-13.827,5.08-22.176l0.752-23.412
	c0.309-3.402,2.074-6.538,1.368-9.763c-1.502-2.12-0.75-4.683-0.662-7.2c0.31-4.638,1.413-8.924,2.65-13.165
	c1.854-3.181,1.501-7.112,0.354-10.469c-3.225-4.86-3.578-10.867-6.273-15.903c-1.457-3.313-1.457-6.802-2.43-10.292
	c-0.31-0.31-0.706-0.839-1.061-0.31C516.924,194.041,515.952,195.719,516.217,197.617z"/>
<path d="M601.474,193.731c-2.165,5.832-0.178,12.678-1.723,18.641c-0.531,2.297-0.089,4.992-1.592,6.891
	c-0.353,0.045-0.794-0.088-1.146-0.441l-0.223-0.31c-0.573-6.14-0.088-11.927-0.839-18.023c-0.221-1.061-0.707-2.209-1.723-2.739
	c-0.53-0.309-1.236,0.088-1.68,0.088c-2.385,3.49-1.235,8.216-1.368,12.325c0.177,3.357,0.53,6.449,0.088,9.939
	c-0.221,1.237-1.236,1.635-2.12,2.208c-2.694,0.486-2.827-3.003-4.858-4.02c-1.944-3.136-3.357-6.493-5.522-9.541
	c-0.53-0.619-1.281-0.398-1.9-0.398c-1.722,1.59-0.839,4.064-0.309,5.92c2.519,4.682,4.903,9.409,7.2,14.224
	c0.531,3.18-0.486,6.185-0.751,9.321c-0.265,4.506,0.132,9.144,1.061,13.12c-0.838,3.578-1.237,7.289-2.562,10.601
	c-3.003,7.377-6.979,14.312-10.602,21.425c0.177,0.619-0.574,0.839-0.618,1.37c-3.489,7.863-7.687,15.46-9.542,23.988
	c-0.31,2.076-1.104,3.978-1.679,5.921c-2.341,1.943-5.301,3.356-7.111,6.051c-0.133,6.893-0.221,14.578-0.309,21.822
	c5.477,0.486,10.423-0.265,15.989,0.441c1.591-3.004,1.855-6.537,4.242-9.232c10.247-10.734,20.01-22.485,23.103-36.578
	c4.549-15.151,3.621-32.689,8.701-47.488c0.618-0.884,1.636-1.281,2.562-1.678c2.695-4.551,8.041-5.566,11-9.896
	c1.988-4.285,6.008-7.907,10.071-10.249c0.487-0.486,0.84-1.281,0.53-2.032c-1.281-1.634-3.623-0.972-5.168-0.441
	c-3.445,1.678-6.052,4.682-9.144,7.112c-0.84,0.176-2.297,0.309-2.342-0.928c0.573-3.534,0.84-7.201,2.649-10.205
	c2.343-4.417,4.816-8.747,5.744-13.782c0.883-2.43,2.518-4.55,2.871-7.201c-0.663-0.663-1.635-0.839-2.429-0.75
	c-2.784,1.811-3.756,5.125-4.904,7.951c-2.871,3.534-5.169,7.465-6.891,11.574c-0.752,0.751-0.84,1.458-1.989,1.061l-1.059-1.282
	c0.882-6.052,1.368-13.208,0.839-19.304c-0.177-1.943-0.664-4.462-2.431-5.831C602.842,193.731,602.136,193.2,601.474,193.731z"/>
<path d="M762.157,190.417c-0.485,4.816,1.945,8.438,2.52,12.812c-0.532,0.883-1.061-0.177-1.591-0.309
	c-2.562-2.916-4.639-6.185-7.819-8.482c-1.988-1.988-3.667-4.638-6.272-5.831c-0.751,1.324-1.104,3.092-0.618,4.683
	c0.707,2.385,3.224,4.019,4.947,5.698c0.751,2.341,3.534,4.02,3.092,6.891c-0.22,0.53-0.927,0.221-1.28,0
	c-2.606-1.59-5.39-3.181-7.819-4.77c-1.325-0.134-3.048-0.84-4.241,0.352c-0.134,4.33,5.125,5.963,7.511,9.011
	c0.439,0.089,0.84,0.576,1.06,0.928c-0.574,1.9,0.618,4.375,0.221,6.494c-0.884,0.84-1.899,0.574-2.96,0.619
	c-3.136-2.385-5.697-5.963-9.144-7.864c-0.706,0.31-1.68,0.354-1.988,1.193c-0.221,0.972,0.223,1.944,0.841,2.74l-0.133,0.132
	c3.225,3.799,6.715,7.156,9.762,11.131c-1.414,9.011,2.518,16.301,5.213,23.811c0.751,3.092-0.84,6.229-1.061,9.453
	c-0.221,0.443-0.133,1.017-0.31,1.591c-3.312,13.562-6.008,27.521-10.424,40.508c-1.062,3.489-1.812,7.156-1.768,11.133
	c-1.237,3.137-5.124,3.049-7.863,4.109c-4.418,1.812-8.968,3.445-12.723,6.582l-0.088,24.075v1.501
	c4.904-0.176,10.248-0.043,15.152-0.53c0.884-0.044,1.413-1.192,2.208-1.06c9.011-6.186,15.594-15.02,22.926-23.016
	c3.05-3.754,2.431-9.055,4.418-13.252c1.724-6.142,4.285-11.885,5.434-18.247c1.325-18.508-0.354-37.458,0.928-56.586
	c-0.045-3.181,1.766-5.566,1.812-8.703c-0.488-5.964-0.222-11.44-1.062-17.272c-1.28-1.943-1.591-4.683-1.28-6.891
	c-1.37-3.888-2.166-7.951-4.108-11.574c-0.53-1.458-1.017-3.004-2.032-4.153C761.982,187.415,762.511,189.358,762.157,190.417z"/>
<path d="M667.581,197.927c-0.84,1.194-1.324,2.519-1.9,3.844c-2.074,0.75-4.239,1.369-6.36,1.987
	c-1.502,2.431-0.574,5.522,0.221,7.953c1.369,4.947,3.666,9.63,6.228,14.002c2.165,1.9,4.464,3.18,6.053,5.3l0.09,3.182
	c3.533,3.313,2.914,8.216,3.4,12.722c-0.266,12.943-7.2,24.075-7.952,36.664c-1.412,6.759-1.501,13.473-1.679,20.585
	c-0.087,0.752-0.177,1.944-1.191,2.208c-1.458-0.441-3.534,0.133-5.169,0.531c-9.807,0.971-18.244,5.876-27.697,8.086
	c-4.418,0.354-8.968-1.679-13.341,0.089c-1.59,0.971-4.021,0.485-4.991,2.562c-0.885,6.141-0.044,12.722-0.31,19.393v10.91
	c11.75-0.221,23.854,0.045,35.296-0.619c2.916-3.4,6.626-5.521,10.071-8.482c7.995-5.697,16.302-10.335,24.517-15.812
	c4.683-3.137,6.538-8.262,6.98-13.562c1.325-9.587,4.549-18.776,4.33-28.626c0.132-6.98,0.396-13.208-0.619-20.144
	c-0.576-8.879-1.812-18.024-2.254-26.813c0.132-3.093,0.707-6.097,0.354-9.233c1.546-4.02,1.987-8.482,0.839-12.811
	c0.221-2.827,0.972-5.743,0.53-8.791c-2.077-2.783-5.566-3.446-9.011-3.534c-2.078-1.855-4.948-2.12-7.643-2.209
	c-0.795-0.706-1.68-0.264-2.519-0.839C671.601,196.603,669.392,196.78,667.581,197.927z"/>
<g>
	<g>
		<g>
			<g>
				<path d="M627.394,419.577c-1.034-0.884-2.068-0.884-2.954-0.146c-0.74,1.33-1.035,2.808-0.74,4.433
					c0.593,1.478,1.332,2.659,2.514,3.694c1.181,1.181,2.216,1.921,3.399,2.658c-0.741,2.216-0.888,4.433-0.444,6.651
					c0,0.294-0.149,0.441-0.443,0.739c-0.741-0.739-1.479-1.48-2.512-2.219c-0.739-0.739-1.773-1.034-2.809-0.739
					c-1.477,0.297-2.66,1.184-3.398,2.66c-1.033,1.33-2.069,2.068-3.398,2.218c-1.034,0.296-2.068,0.737-2.954,1.625
					c-0.741,0.887-1.626,1.478-2.513,1.922c-0.74,0.296-1.626-0.297-2.66-1.331c-0.592,0-0.739,0.296-0.739,0.738
					c0,0.593,0,1.036,0,1.478c-0.147,0.886,0,1.774,0.59,2.514c0.444,0.739,1.036,1.477,1.626,2.215
					c1.479,1.181,3.104,2.808,4.582,4.434c-0.295,1.921-0.443,3.99-0.443,6.059c0.148,2.217,0,4.286,0,6.354
					c-0.149,2.07,0,4.285,0.296,6.354c0.147,2.07,1.034,3.841,2.511,5.469c0.592,4.284,0.445,8.42-0.148,12.705
					c-0.146,1.479-0.442,2.956-0.737,4.286c-1.183-0.888-2.511-1.772-3.693-2.807c-0.444-0.443-0.593-1.035-0.593-1.626
					c-0.147-0.591-0.147-1.182-0.295-1.772c-0.295-0.737-0.591-1.625-0.737-2.513c-0.298-0.887-0.741-1.773-1.184-2.512
					c-1.184-1.183-2.364-2.363-3.546-3.397c-1.035-1.332-2.216-2.514-3.399-3.399h0.443c-0.592-0.297-1.181-0.593-1.479-0.888
					c-0.442-0.295-0.737-0.591-1.329-0.738c-0.148,0-0.148,0-0.445-0.148c0.445-0.294,0.891-0.739,1.332-1.182
					c1.921-2.955,3.251-6.207,3.988-9.751c0.741-3.546,1.183-7.095,1.626-10.789c-0.146-1.479-0.146-3.103,0-5.024
					c0-2.067-0.737-3.545-2.217-4.58c-1.477-0.884-2.955-1.182-4.729-1.034c-1.623,0.15-3.101-0.443-4.43-1.478
					c-0.886-0.592-1.774-0.886-2.81-0.444c-1.034,0.297-2.067,0-2.808-0.441c-1.182-0.445-1.921-0.445-2.953,0
					c-0.741,0.738-1.774,0.738-2.659,0.441c-0.741-2.363-0.592-4.579,0.295-6.649c0.887-1.921,1.182-4.136,1.33-6.353
					c-0.148-2.218,0-4.434,0.589-6.649c0.445-2.217,0.739-4.434,0.445-6.651c0.294-2.659-0.741-4.874-2.81-6.795
					c-0.591-0.443-1.032-0.295-1.329,0.442c-0.738,2.364-1.182,4.877-1.478,7.24c-0.443,2.365-1.035,4.728-2.068,7.093
					c-1.627,3.546-3.103,7.24-4.138,11.231c-0.887,3.841-2.512,7.535-4.729,11.082c-1.921,4.876-1.626,9.899,0.591,14.48
					c1.479,4.878,2.659,9.753,3.398,14.777c-0.443,0.294-0.739,0.294-1.034,0.444c-0.886,0.885-1.772,1.623-2.66,2.363
					c-1.033,0.739-1.921,1.625-2.659,2.658c0,0.297-0.295,0.741-0.591,1.184c-0.146,0.441-0.443,0.886-0.592,1.329
					c-0.887,1.034-1.33,2.217-1.625,3.399c-0.148,1.183-0.443,2.363-0.887,3.546c0,0.591-0.295,0.887-0.295,1.478
					c-0.444-5.764-1.034-11.23-1.478-16.993c0.295-2.66,0.443-5.318,0.295-7.979c1.478-3.693,1.626-7.389,0.738-11.377
					c0.149-1.183,0.296-2.363,0.444-3.697c0.295-1.181,0.295-2.656,0-3.841c-1.922-2.215-4.581-3.25-7.832-3.25
					c-1.773-1.034-3.694-1.773-5.909-1.921c0.738-1.479,1.181-2.955,1.622-4.433c0.297-1.035,0.741-2.216,0.888-3.546
					c0.148-1.184-0.146-2.365-0.591-3.398c-1.919-0.591-3.694-1.034-5.615-1.775c-0.443-1.181-1.033-2.216-1.773-3.396
					c-1.476-0.74-3.398-1.182-5.467-1.182c-0.295,0.146-0.59,0.146-1.034,0.295c-0.443,0-0.738,0.146-1.034,0.443
					c-2.513-0.297-4.729,0.443-6.799,1.92c-3.103-0.147-5.909,0.887-7.829,2.955c-0.148,1.478-0.148,2.659,0,4.139
					c0.147,1.181,0.294,2.364,0.441,3.546c-0.887,3.989-0.59,7.683,0.739,11.229c-0.147,2.809,0,5.468,0.297,8.129
					c-0.592,7.832-1.184,15.661-1.923,23.494c-0.737,5.91-0.884,11.821-0.591,17.731c0,2.658,0.296,5.319,0.591,7.832
					c-0.295-0.886-0.591-1.921-0.737-2.807c-0.298-1.185-0.74-2.367-1.479-3.399c-0.295-0.444-0.442-0.887-0.739-1.183
					c-0.296-0.443-0.589-1.035-0.589-1.479c-0.74-0.887-1.627-1.772-2.66-2.513c-0.888-0.885-1.922-1.476-2.661-2.362
					c-0.296,0-0.74-0.297-1.035-0.297c0.739-5.171,1.774-10.046,3.4-14.776c2.216-4.727,2.512-9.604,0.442-14.775
					c-2.068-3.399-3.548-7.094-4.582-10.936c-1.032-3.841-2.363-7.684-4.135-11.23c-1.035-2.215-1.627-4.729-1.923-7.092
					c-0.294-2.364-0.738-4.729-1.479-7.242c-0.59-0.739-1.034-0.885-1.477-0.441c-2.067,1.919-3.103,4.138-2.807,6.944
					c-0.296,2.217,0,4.434,0.59,6.649c0.443,2.069,0.592,4.436,0.443,6.502c0,2.364,0.591,4.433,1.479,6.501
					c0.736,1.921,0.736,4.138,0.147,6.355c-0.889,0.59-1.921,0.294-2.66-0.148c-0.89-0.592-1.922-0.592-2.808,0
					c-0.888,0.442-1.922,0.442-2.956,0.148c-1.035-0.148-1.92-0.148-2.807,0.59c-1.185,1.183-2.66,1.625-4.433,1.478
					c-1.775-0.147-3.251,0.147-4.581,1.184c-1.626,0.886-2.364,2.363-2.364,4.432c0.146,1.92,0.146,3.695,0,5.172
					c0.295,3.399,1.033,7.093,1.623,10.641c0.741,3.546,2.071,6.796,4.139,9.898c0.443,0.444,0.738,0.741,1.184,1.183
					c-0.148,0-0.298,0-0.445,0c-0.591,0.148-1.033,0.443-1.33,0.739c-0.441,0.295-0.886,0.592-1.328,0.885h0.442
					c-1.33,1.035-2.513,2.07-3.546,3.254c-1.183,1.181-2.216,2.51-3.399,3.693c-0.59,0.739-1.036,1.478-1.329,2.362
					c-0.146,0.888-0.443,1.626-0.888,2.513c0,0.591-0.146,1.182-0.146,1.774c0,0.591-0.148,1.181-0.592,1.476
					c-1.184,1.183-2.364,2.07-3.693,2.957c-0.297-1.478-0.592-2.807-0.738-4.285c-0.74-4.285-0.74-8.57,0-12.709
					c1.328-1.478,2.216-3.397,2.511-5.467c0.146-2.217,0.295-4.137,0.146-6.353c0-1.921,0-4.139,0-6.354
					c0-2.068-0.146-4.139-0.441-6.06c1.479-1.624,2.954-3.104,4.581-4.58c0.59-0.443,1.183-1.183,1.773-2.067
					c0.294-0.74,0.59-1.626,0.441-2.514c-0.147-0.295-0.147-0.887,0-1.329c0-0.592-0.147-0.887-0.589-1.035
					c-1.036,1.332-2.072,1.774-2.809,1.332c-0.886-0.297-1.626-1.036-2.66-1.776c-0.738-0.738-1.773-1.327-2.66-1.476
					c-1.478-0.297-2.66-1.034-3.546-2.365c-0.443-0.886-1.033-1.626-1.774-2.068c0.444-0.442,1.036-1.036,1.626-1.479
					c2.07-1.772,3.842-4.137,5.174-6.648c0.59-2.659,1.771-5.173,3.396-7.536c1.627-2.365,3.4-4.432,5.616-6.207
					c0.442-0.739,0.442-1.478,0-2.363c-0.887-0.74-1.922-0.887-2.957-0.591c-1.181,0.146-2.067,0.738-2.954,1.181
					c-1.627,1.478-3.102,2.955-4.434,4.729c-1.328,1.773-2.659,3.546-4.137,5.319c-0.59,0.147-1.034,0.295-1.625,0.295
					c-0.59,0.147-0.888-0.295-1.183-0.737c-0.146-2.219-0.146-4.138-0.146-6.207c-0.148-1.922,0.146-3.989,0.739-5.912
					c1.032-2.659,1.625-5.465,2.51-8.126c0.592-2.808,0.886-5.614,0.886-8.571c0.297-1.328,0.739-2.806,1.036-4.136
					c0.442-1.479,0.738-2.956,0.738-4.435c-1.035-0.59-2.068-0.59-2.955-0.442c-1.331,1.329-2.215,2.955-2.659,4.877
					c-0.593,1.625-0.887,3.398-1.036,5.172c-1.772,3.396-3.251,6.795-4.283,10.343c-0.592-7.389-1.184-14.776-1.626-22.312
					c1.477-2.514,2.364-5.024,2.658-7.98c0.15-2.956,0.739-5.615,1.776-8.126c0.441-2.364,0.736-4.878,1.033-7.241
					c0.293-2.365,0-4.879-0.888-7.241c0-2.068-0.146-4.136-0.738-6.206c-0.444-2.217-1.627-3.99-3.693-5.32
					c-1.182-1.183-2.662-2.215-4.138-3.398c-1.331-1.183-2.513-2.363-3.547-3.842c-0.887-0.737-1.92-0.885-2.808-0.148
					c-0.738,1.332-1.035,2.808-0.738,4.436c0.59,1.479,1.479,2.659,2.511,3.693c1.035,1.033,2.216,1.92,3.398,2.658
					c-0.737,2.217-1.035,4.284-0.442,6.501c-0.146,0.444-0.146,0.594-0.442,0.74c-0.74-0.593-1.626-1.33-2.365-2.068
					c-0.887-0.738-1.921-1.034-2.956-0.889c-1.478,0.594-2.659,1.332-3.396,2.811c-1.035,1.328-2.219,2.215-3.547,2.363
					c-0.888,0-1.922,0.591-2.66,1.478c-1.033,0.739-1.773,1.477-2.661,1.923c-0.739,0.293-1.773-0.297-2.807-1.331
					c-0.444,0-0.592,0.295-0.592,0.885c0.147,0.446,0.147,0.888,0,1.331c-0.146,0.887,0.147,1.772,0.444,2.512
					c0.591,0.738,1.181,1.478,1.771,2.069c1.627,1.478,3.104,2.954,4.582,4.58c-0.297,1.922-0.444,3.99-0.444,6.059
					c0.147,2.069,0,4.285,0,6.354c-0.146,2.217,0,4.285,0.147,6.354c0.297,1.034,0.594,2.217,1.037,3.25l0,0
					c-0.74,0-1.479,0-1.922,0.444c-0.887,2.217-1.035,4.582-0.444,6.945c0.592,2.365,1.182,4.728,1.626,7.093
					c0.592,1.772,1.034,3.546,1.478,5.32c-0.591,2.362-1.181,4.876-1.774,7.24c-2.067-1.627-4.432-2.809-6.944-3.547
					c-2.215-2.66-4.579-5.171-6.945-7.832c-0.737-0.297-1.478-0.297-2.215,0c-0.739,1.035-0.886,2.217-0.445,3.399
					c0.298,1.181,0.888,2.217,1.331,3.25c0.297,0.148,0.297,0.148,0.297,0.444c-5.911,0.146-10.788,2.364-15.073,6.649
					c-2.217,2.216-3.988,4.728-5.174,7.535c-0.441-0.146-1.032-0.296-1.771-0.146l-0.444,0.74c-0.146,0.737-0.146,1.476,0,2.216
					c0.297,0.292,0.739,0.738,1.034,1.181c-0.147,0.887-0.295,1.92-0.295,2.954c-0.442-0.146-0.886-0.295-1.479-0.441
					c-1.624,0-3.397-0.297-5.319-0.297c-0.295,0-0.445,0.297-0.445,0.443c0.149,0.295,0.149,0.739,0.149,0.739
					c0.148,0.736,0.443,1.33,1.182,1.772c0.445,0.298,1.035,0.74,1.626,1.036c1.034,0.147,2.068,0.589,3.102,0.885
					c0.443,0.296,0.74,0.444,1.183,0.74c0,0.295-0.295,0.59-0.442,0.886c-0.74-0.147-1.479-0.591-2.218-0.886
					c-1.328-0.594-2.66-1.036-4.284-1.183c-0.593,0-0.739,0.295-0.888,0.887c-0.295,0.44-0.442,0.886-0.442,1.329
					s0,0.74,0.442,1.034c0.149,0.149,0.444,0.297,0.74,0.443c-0.59,0-1.182,0-1.92,0c-3.251,0-6.502,0.296-9.458,0.889v-0.148
					c0.444-2.513,1.035-4.876,1.773-7.094c0.443-1.182,1.033-2.363,1.772-3.25c0.738-1.182,1.331-2.217,1.626-3.398
					c0.737-0.593,1.477-1.035,2.217-1.627c0.59-0.591,1.184-1.477,1.329-2.364c0.888-2.215,2.07-4.729,3.103-6.944
					c0.739-0.295,1.184-0.74,1.625-1.478c0.295-0.444,0.885-0.888,1.626-1.182c1.626-0.444,3.104-1.183,4.433-2.217
					c0.441-0.443,0.441-1.182,0.296-1.774c-0.147-0.443-0.296-0.885-0.739-0.885c-0.296,0-0.738,0-1.033-0.147
					c-1.33,0.147-2.218,0.441-3.252,1.032c-1.035,0.296-2.067,0.738-3.103,1.035c-0.147-0.442-0.147-1.035-0.147-1.479
					c0-1.478,0.737-2.658,2.068-3.398c1.92-1.033,3.99-2.069,5.91-3.25c0.441-0.296,0.441-0.591,0.441-1.036
					c0-0.442-0.293-0.885-0.293-1.328c-0.148-0.441-0.443-0.888-1.035-0.888c-1.479,0.298-2.808,0.593-4.287,1.331
					c-1.182,0.442-2.658,0.885-4.135,1.183c0.737-0.887,1.625-1.479,2.66-1.921c1.033-0.444,2.068-0.74,3.249-1.035
					c0.444-0.295,1.183-0.74,1.626-1.034c0.592-0.444,0.887-0.887,1.034-1.626c0-0.295,0-0.591,0.148-0.739
					c0-0.295-0.148-0.593-0.443-0.593c-1.772,0-3.694,0.298-5.321,0.445c-2.512,0.592-4.578,1.626-6.648,3.104
					c0.294-1.625,1.183-2.956,2.363-3.842c1.331-1.033,2.661-2.069,3.694-3.25c0-0.74,0-1.479-0.148-2.219l-0.59-0.59
					c-0.739-0.294-1.478-0.147-2.215,0.442c-0.443,0.444-1.184,0.888-1.774,1.478c-1.625,0.889-3.103,2.069-4.286,3.549
					c-1.035,1.476-2.068,3.103-2.806,4.729c-0.592-0.297-1.036-0.594-1.774-0.594c-0.737,0.297-1.183,0.888-1.331,1.775
					c0,1.478-0.146,2.956-0.591,4.431c-0.443,1.479-0.886,2.958-1.329,4.288c-0.297,1.625-0.297,3.248-0.297,4.874
					c0.148,1.626,0.148,3.251,0,5.024c-0.59,0.592-0.885,1.331-0.885,2.069c0,0.886-0.296,1.625-0.593,2.364
					c-1.624,2.955-3.249,5.91-5.022,8.865c-0.443-1.92-1.035-3.694-1.625-5.316c-0.592-2.366-1.478-4.436-2.513-6.504
					c-0.443-1.922-1.182-3.4-2.216-4.877c-1.036,0.296-1.33,0.592-1.478,1.477c0,0.741-0.148,1.479-0.296,2.217
					c-0.147,2.66,0.147,5.174,1.033,7.39c0.74,2.217,1.479,4.729,1.774,7.093c-0.148,0.443-0.591,0.591-0.887,0.295
					c-0.147-0.295-0.59-0.443-0.737-0.591c-2.808-3.545-5.765-6.797-9.013-9.753c-1.185-1.182-2.218-2.363-3.401-3.694
					c-1.033-1.181-2.215-2.215-3.693-2.956c-0.59,0.889-0.886,1.775-0.886,2.661c-0.147,0-0.295-0.147-0.295-0.147
					c-0.887,0.442-1.774,1.181-2.217,1.922c0.296-1.479,0.592-2.81,1.035-4.138c0.592-2.365,0.887-4.729,1.182-7.242
					c0.295-2.362,0-4.875-0.887-7.092c0-2.217-0.295-4.285-0.739-6.354c-0.444-2.215-1.627-3.989-3.694-5.318
					c-1.183-1.184-2.513-2.218-3.989-3.4c-1.332-1.181-2.663-2.364-3.696-3.842c-0.886-0.737-1.92-0.885-2.954-0.146
					c-0.592,1.33-0.739,2.955-0.592,4.433c0.592,1.478,1.478,2.659,2.513,3.842c1.033,0.885,2.216,1.92,3.397,2.661
					c-0.738,2.067-0.886,4.285-0.443,6.501c0,0.296-0.147,0.443-0.443,0.739c-0.738-0.593-1.478-1.331-2.364-2.068
					c-0.887-0.74-1.922-1.184-2.956-1.035c-1.331,0.59-2.661,1.477-3.546,2.808c-0.738,1.479-1.92,2.217-3.398,2.362
					c-0.887,0-1.773,0.591-2.66,1.479c-0.887,0.887-1.774,1.478-2.659,1.922c-0.74,0.295-1.626-0.148-2.66-1.331
					c-0.443,0-0.738,0.296-0.591,0.887c0,0.593,0,1.034,0,1.331c-0.297,0.885,0,1.772,0.443,2.659
					c0.445,0.739,1.035,1.479,1.772,2.067c1.479,1.332,2.957,2.808,4.582,4.436c-0.443,1.92-0.592,3.988-0.592,6.057
					c0.148,2.216,0,4.435,0,6.354c-0.146,2.216-0.146,4.285,0.148,6.354c0.443,2.069,1.181,3.842,2.66,5.469
					c0.592,4.283,0.592,8.422-0.148,12.854c0,0.296,0,0.59-0.147,0.887c-0.147-0.147-0.147-0.147-0.297-0.297
					c-1.328-1.771-2.806-3.396-4.432-4.727c-0.443-0.296-0.886-0.444-1.331-0.592c-0.148-0.887-0.738-1.624-1.034-2.363
					c-1.182-1.034-2.216-2.217-3.398-3.548c-1.182-1.183-2.365-2.363-3.693-3.398l0.59,0.148c-0.59-0.148-1.036-0.592-1.478-0.886
					c-0.296-0.297-0.887-0.593-1.329-0.74c-0.15,0-0.15,0-0.295,0c0.295-0.443,0.738-0.738,1.033-1.181
					c2.069-2.956,3.399-6.355,4.137-9.9c0.74-3.547,1.331-7.094,1.625-10.64c-0.147-1.479-0.147-3.251,0-5.174
					c0-1.92-0.59-3.544-2.216-4.578c-1.478-0.739-2.955-1.184-4.58-1.037c-1.922,0.15-3.253-0.294-4.434-1.476
					c-0.886-0.739-1.921-0.739-2.956-0.445c-1.035,0.149-2.069,0.149-2.809-0.294c-1.033-0.591-2.068-0.591-2.808,0
					c-1.033,0.443-1.771,0.591-2.659,0.294c-0.739-2.362-0.591-4.431,0.147-6.5c0.886-2.07,1.331-4.284,1.331-6.501
					c-0.148-2.219,0-4.435,0.59-6.65c0.444-2.068,0.59-4.434,0.444-6.501c0.146-2.66-0.74-4.876-2.808-6.945
					c-0.443-0.443-1.035-0.296-1.478,0.443c-0.59,2.512-1.034,4.875-1.479,7.387c-0.295,2.364-1.033,4.581-1.921,6.945
					c-1.773,3.548-3.104,7.39-4.136,11.231c-0.888,3.841-2.513,7.536-4.582,10.933c-1.921,5.025-1.773,9.901,0.59,14.778
					c1.479,4.729,2.513,9.604,3.104,14.777c-0.147,0-0.591,0.295-0.738,0.295c-0.887,0.738-1.921,1.625-2.808,2.364
					c-1.035,0.887-1.921,1.625-2.511,2.512c-0.295,0.591-0.445,1.035-0.59,1.332c-0.297,0.442-0.592,0.885-0.74,1.475
					c-0.738,0.888-1.331,1.923-1.626,3.252c-0.295,1.183-0.442,2.363-0.737,3.546c-0.297,0.592-0.445,1.035-0.59,1.478
					c-0.445-5.614-0.74-11.229-1.332-16.993c0.442-2.659,0.442-5.319,0.442-7.98c1.332-3.546,1.627-7.388,0.74-11.229
					c0-1.183,0.15-2.511,0.295-3.692c0.147-1.478,0.147-2.66,0-3.99c-2.068-2.217-4.579-3.251-7.831-3.104
					c-1.773-1.183-3.694-1.921-5.762-1.921c0.442-1.477,1.033-2.955,1.477-4.433c0.442-1.183,0.739-2.364,0.887-3.694
					c0.146-1.034,0-2.364-0.74-3.397c-1.773-0.444-3.545-1.036-5.466-1.627c-0.443-1.33-1.033-2.363-1.773-3.546
					c-1.625-0.888-3.25-1.183-5.32-1.183c-0.442,0.295-0.738,0.295-1.183,0.295c-0.294,0-0.738,0.148-1.033,0.444
					c-2.661-0.147-4.877,0.443-6.65,1.921c-3.398-0.148-5.909,0.886-7.979,3.104c-0.146,1.328-0.146,2.511,0,3.989
					c0.148,1.181,0.444,2.363,0.444,3.694c-1.035,3.842-0.59,7.534,0.738,11.229c-0.148,2.661,0,5.322,0.296,8.129
					c-0.591,7.685-1.331,15.514-2.069,23.494c-0.591,5.764-0.74,11.674-0.442,17.436c0,2.809,0.294,5.468,0.59,8.129
					c-0.296-1.035-0.444-1.922-0.739-2.956c-0.297-1.181-0.74-2.364-1.627-3.251c-0.145-0.59-0.293-1.034-0.59-1.478
					c-0.295-0.444-0.442-0.739-0.591-1.183c-0.74-1.034-1.477-1.771-2.66-2.659c-0.886-0.738-1.772-1.478-2.809-2.215
					c-0.146-0.297-0.441-0.297-0.886-0.446c0.74-5.022,1.922-10.046,3.399-14.774c2.216-4.728,2.365-9.755,0.444-14.631
					c-2.067-3.397-3.695-7.091-4.581-11.082c-1.036-3.841-2.364-7.684-4.137-11.081c-1.035-2.513-1.625-4.877-1.921-7.094
					c-0.444-2.513-0.74-4.875-1.477-7.389c-0.445-0.738-0.888-0.886-1.478-0.442c-2.071,2.067-2.956,4.283-2.811,6.944
					c-0.145,2.216,0,4.436,0.594,6.503c0.442,2.216,0.591,4.431,0.442,6.649c0.149,2.216,0.592,4.432,1.331,6.354
					c0.887,2.217,1.035,4.285,0.296,6.648c-0.888,0.298-1.773,0.298-2.663-0.295c-0.884-0.591-1.919-0.591-2.806-0.146
					c-1.034,0.589-1.92,0.739-2.809,0.441c-1.181-0.441-2.067-0.147-2.954,0.592c-1.181,1.034-2.661,1.477-4.432,1.477
					c-1.774-0.295-3.253,0-4.582,0.887c-1.625,1.034-2.513,2.513-2.365,4.58c0.15,1.923,0.15,3.696,0,5.023
					c0.295,3.697,1.035,7.243,1.773,10.79c0.74,3.546,1.92,6.798,3.991,9.898c0.442,0.297,0.738,0.741,1.182,1.183
					c-0.15,0-0.297,0-0.444,0.148c-0.443,0-0.886,0.295-1.33,0.739c-0.444,0.146-0.886,0.443-1.329,0.738h0.443
					c-1.33,0.888-2.513,2.068-3.546,3.397c-1.183,1.035-2.365,2.364-3.399,3.4c-0.59,0.738-1.035,1.625-1.183,2.513
					c-0.295,0.887-0.59,1.771-0.886,2.511c-0.148,0.59-0.148,1.183-0.148,1.772c-0.146,0.592-0.295,1.184-0.738,1.627
					c-1.181,1.034-2.363,1.92-3.694,2.955c-0.296-1.479-0.444-2.955-0.738-4.434c-0.74-4.283-0.74-8.423,0-12.561
					c1.329-1.774,2.215-3.546,2.511-5.614c0.148-2.07,0.294-4.285,0.148-6.206c-0.148-2.216-0.148-4.138-0.148-6.354
					c0.148-2.217,0-4.284-0.296-6.206c1.479-1.625,3.104-3.104,4.582-4.433c0.59-0.74,1.181-1.478,1.625-2.216
					c0.592-0.74,0.739-1.479,0.592-2.514c0-0.442,0-0.739,0-1.329c0.147-0.592-0.148-0.887-0.592-0.887
					c-1.034,1.183-2.069,1.625-2.808,1.329c-0.739-0.442-1.625-1.034-2.66-1.771c-0.739-1.036-1.773-1.478-2.66-1.775
					c-1.477-0.146-2.513-0.737-3.398-2.216c-0.888-1.328-2.07-2.363-3.546-2.66c-1.035-0.296-1.921,0-2.956,0.887
					c-0.738,0.74-1.625,1.33-2.365,2.068c-0.294-0.295-0.294-0.441-0.294-0.738c0.443-2.217,0.146-4.432-0.592-6.502
					c1.33-0.738,2.363-1.625,3.546-2.806c1.035-1.036,1.921-2.217,2.364-3.695c0.297-1.477,0-3.103-0.59-4.433
					c-1.034-0.738-2.069-0.738-2.957,0.147c-0.885,1.478-2.215,2.66-3.546,3.842c-1.477,1.182-2.954,2.364-4.137,3.399
					c-1.919,1.329-3.25,3.102-3.694,5.318c-0.592,2.069-0.737,4.286-0.737,6.206c-0.889,2.513-1.184,4.876-0.889,7.241
					c0.295,2.512,0.591,4.876,1.183,7.238c0.886,2.515,1.329,5.322,1.625,8.129c0.295,2.071,0.738,3.694,1.478,5.469
					c-0.444,0-0.739,0-1.035,0c-0.888,0.148-1.626,0.296-2.363,0.441c-2.957,1.774-5.913,3.549-8.866,5.469
					c-0.592,0.442-1.036,0.442-1.478,0c-0.15-1.626,0.147-2.956,1.181-4.138c1.036-1.331,1.773-2.512,2.218-3.695
					c1.033-1.032,2.215-2.068,3.396-2.954c1.036-1.035,1.774-2.217,2.218-3.547c0.59-1.921,0.294-3.84-0.592-5.319
					c-1.479,0.739-2.807,1.624-3.842,2.955c-1.181,1.183-2.216,2.364-3.399,3.694c-3.251,2.808-6.207,6.059-8.866,9.605
					c-0.295,0-0.59,0.295-0.887,0.591c-0.295,0.294-0.59,0.146-0.886-0.296c0.442-2.365,1.033-4.729,1.921-7.093
					c0.886-2.363,1.034-4.876,0.886-7.535c0-0.592-0.295-1.331-0.295-2.069c0-0.888-0.443-1.329-1.329-1.329
					c-1.035,1.329-1.921,2.956-2.365,4.579c-1.034,2.217-1.773,4.286-2.511,6.649c-0.592,1.774-1.183,3.548-1.625,5.173
					c-1.774-2.956-3.251-5.911-4.877-8.865c-0.295-0.592-0.59-1.479-0.59-2.217c-0.148-0.888-0.444-1.478-1.035-2.219
					c-0.148-1.624-0.148-3.25,0-4.874c0.147-1.628,0-3.252-0.148-4.876c-0.59-1.332-1.035-2.809-1.331-4.287
					c-0.442-1.477-0.738-2.955-0.738-4.432c-0.148-0.887-0.592-1.479-1.331-1.922c-0.59,0.148-1.181,0.442-1.773,0.738
					c-0.74-1.625-1.773-3.249-2.808-4.729c-1.181-1.478-2.659-2.658-4.137-3.693c-0.74-0.443-1.331-0.886-1.921-1.33
					c-0.74-0.59-1.478-0.59-2.365-0.442l-0.295,0.589c-0.295,0.74-0.295,1.479-0.147,2.219c1.035,1.181,2.218,2.216,3.398,3.251
					c1.478,0.887,2.218,2.215,2.365,3.84c-1.775-1.476-3.99-2.659-6.354-3.102c-1.773-0.147-3.547-0.295-5.468-0.593
					c-0.294,0.298-0.444,0.298-0.294,0.741c0,0.294,0,0.59,0,0.737c0.147,0.74,0.59,1.33,1.181,1.773
					c0.444,0.296,1.035,0.592,1.625,1.035c1.036,0,2.218,0.441,3.104,0.887c1.035,0.296,1.92,1.033,2.807,2.068
					c-1.477-0.297-2.954-0.738-4.284-1.478c-1.331-0.591-2.807-1.036-4.285-1.181c-0.445,0.145-0.887,0.442-0.887,0.886
					c-0.148,0.441-0.295,0.885-0.443,1.476c0,0.297,0.148,0.593,0.443,1.036c2.068,0.885,3.989,2.069,5.912,3.103
					c1.476,0.739,2.068,1.921,2.216,3.398c0,0.591,0,1.034-0.148,1.478c-1.183-0.294-2.216-0.59-3.104-1.183
					c-1.035-0.442-2.068-0.738-3.251-0.885c-0.294,0.146-0.737,0.146-1.034,0.146c-0.443,0.148-0.738,0.443-0.886,0.738
					c-0.148,0.739,0,1.331,0.295,2.071c1.478,0.885,2.955,1.622,4.433,2.067c0.739,0.147,1.331,0.592,1.625,1.329
					c0.591,0.592,1.034,1.183,1.626,1.478c1.181,2.218,2.216,4.434,3.104,6.945c0.293,0.739,0.738,1.625,1.476,2.217
					c0.592,0.591,1.33,1.183,2.068,1.479c0.297,1.181,0.888,2.362,1.625,3.397c0.74,1.033,1.33,2.216,1.773,3.396
					c0.74,2.218,1.478,4.729,1.773,7.096c0.444,2.51,0.887,5.021,1.627,7.238c1.181,5.911,2.807,11.525,4.875,17.142
					c0.148,0.59,0.295,1.034,0.591,1.626c0,0.59,0.149,1.183,0.149,1.921c-3.103,2.217-5.764,4.877-8.423,7.83
					c-0.297,0.148-0.74,0.297-1.182,0.444c-0.443,0-0.886,0.148-1.183,0.443l-2.659,1.328c-2.956,0.148-5.764,0.297-8.275,0.741
					c-0.591,0-1.035,0-1.33-0.296c-0.59-0.148-1.033-0.297-1.477-0.297c-1.183-0.442-2.217-0.59-3.4-0.59
					c-0.296-0.148-0.443-0.592-0.591-0.739c-0.295-0.442-0.295-0.738-0.147-1.035c0.887-0.885,1.33-1.771,1.921-2.658
					c1.183-1.184,2.217-2.365,2.808-3.843c0.737-1.329,1.181-2.807,1.476-4.433c0.297-0.887,0.74-1.773,0.888-2.511
					c0-1.035,0.294-1.923,0.443-2.811c0-0.885,0.149-1.919,0.149-2.954c0.148-1.182,0.148-2.068,0-3.101
					c-0.592-1.331-0.74-2.812-0.592-4.287c0-0.888,0-1.626-0.296-2.363c-0.443-0.74-0.592-1.628-0.887-2.513
					c-0.295-0.886-0.443-1.774-0.59-2.809c-0.295-0.887-0.59-1.92-1.331-2.661c0-0.441-0.295-0.738-0.59-1.033
					c-0.147-0.441-0.295-0.738-0.443-1.183c-0.444-0.738-1.182-1.328-1.922-1.919c-0.737-0.74-1.478-1.182-2.215-1.923
					c-1.181-0.442-2.069-0.737-3.102-0.737c-1.183,0-2.218,0-3.25-0.296c-0.888-0.148-1.626-0.296-2.513-0.443
					c-0.886-0.147-1.774-0.147-2.659,0c-1.626,0.739-3.251,1.182-5.024,1.33c-1.772,0.294-3.398,0.443-5.173,0.74
					c-0.443,0.147-0.886,0.295-1.033,0.589c-0.295,0.297-0.738,0.443-1.183,0.74h0.445c-1.036,0.738-2.07,1.624-2.956,2.66
					c-0.886,1.033-1.773,1.772-2.661,2.807c-0.443,0.591-0.738,1.181-1.033,1.92c-0.147,0.738-0.295,1.479-0.738,2.07
					c0,0.442-0.149,0.885-0.149,1.328c0,0.592-0.148,1.034-0.443,1.332c-0.59,0.441-1.331,0.886-1.773,1.476
					c1.625-3.988,2.808-8.423,3.398-13.15c0.295-1.624,0.295-3.547,0.443-5.173c0-1.919,0.295-3.693,0.888-5.318
					c3.546-4.879,7.24-9.605,11.229-14.333c0.442-1.035,1.035-2.069,1.33-3.252c0.593-1.181,0.295-2.364-0.295-3.396
					c-0.738-0.298-1.478-0.298-2.218,0c-2.954,2.954-5.762,6.205-8.421,9.455c-1.035,0.591-2.069,1.33-2.956,2.364
					c-0.887,1.183-1.921,1.478-3.398,1.035c-1.035-0.739-1.625-1.774-1.921-2.956c0.443-3.842,1.331-7.535,2.363-11.082
					c0.593-2.365,1.035-4.729,1.774-7.094c0.592-2.364,0.295-4.727-0.443-6.943c-0.59-0.298-1.331-0.592-1.921-0.592
					c-1.33,0.592-2.068,1.478-2.511,2.809c-1.037,3.25-1.922,6.648-2.513,9.751c-0.739,3.4-1.478,6.798-2.513,10.198l-0.295,0.146
					c-0.442,0.295-0.886,0.443-1.331,0.295c-0.59-1.181-0.738-2.512-0.59-3.989c0.295-1.329,0.295-2.658,0.295-3.989
					c0-3.546,0.593-7.092,1.479-10.639c0.887-3.547,1.183-7.093,0.739-10.639c-0.297-0.295-0.739-0.593-1.034-0.593
					c-0.443,0-0.888,0-1.184-0.147c-1.181,0.445-1.921,1.479-2.658,2.514c-0.74,1.183-1.035,2.363-1.331,3.397
					c-1.034,3.399-1.773,6.945-2.364,10.786c-0.443,3.694-0.888,7.389-1.035,10.936l-1.478,1.183c-0.59,0-1.033,0-1.182-0.295
					c-0.296-0.297-0.592-0.74-0.739-1.331c-1.035-5.024-2.808-9.754-5.172-14.482c-0.295-1.771-0.59-3.396-1.183-5.171
					c-0.294-1.92-1.328-3.397-2.511-4.875c-1.035-0.298-1.92-0.147-2.955,0.442c0,1.477,0.147,2.955,0.592,4.433
					c0.443,1.331,0.738,2.809,1.033,4.286c0,2.808,0.295,5.613,1.036,8.423c0.59,2.659,1.478,5.467,2.215,8.128
					c0.739,1.921,1.036,3.842,1.036,5.909c0,1.923,0,4.139-0.297,6.06c-0.148,0.737-0.443,1.033-1.033,1.033
					c-0.593,0-1.331-0.296-1.626-0.442c-1.478-1.774-2.808-3.547-4.284-5.32c-1.33-1.773-2.808-3.397-4.434-4.582
					c-0.886-0.736-1.773-1.034-2.956-1.329c-1.033-0.295-1.92-0.146-2.956,0.593c-0.443,0.884-0.443,1.625,0.147,2.362
					c2.07,1.773,3.991,3.842,5.469,6.207c1.625,2.364,2.806,4.876,3.398,7.389c1.33,2.658,3.104,4.875,5.32,6.796
					c2.068,1.773,3.693,3.989,4.875,6.798c1.035,0.591,1.922,1.479,2.513,2.364c0.888,9.015,0.738,18.028-0.147,27.484
					c-1.036,9.31-1.331,18.619-0.739,27.632c0.295,8.128,2.216,16.108,5.615,23.791c2.511,5.763,5.467,11.379,8.866,16.993v4.138
					l0,0v19.948H740.14v-21.13c3.251-5.615,6.207-11.231,8.719-16.994c3.398-7.685,5.319-15.662,5.614-23.938
					c0.591-9.013,0.297-18.176-0.737-27.483c-0.741-7.24-0.889-14.333-0.591-21.278c0.591-1.923,1.033-3.99,1.182-6.06
					c0-0.295,0.146-0.738,0.146-1.033c0.444-0.592,1.035-1.034,1.625-1.479c1.184-2.808,2.811-5.025,5.025-6.944
					c2.068-1.773,3.694-3.991,5.172-6.649c0.59-2.513,1.772-5.024,3.399-7.388c1.624-2.365,3.396-4.434,5.614-6.207
					c0.296-0.741,0.443-1.478,0-2.363c-0.887-0.74-1.921-1.034-2.956-0.593c-1.182,0.296-2.068,0.593-2.807,1.183
					c-1.772,1.33-3.251,2.955-4.581,4.729c-1.328,1.773-2.807,3.546-4.139,5.171c-0.442,0.296-1.182,0.443-1.625,0.591
					c-0.59,0-1.034-0.295-1.182-1.035c-0.148-2.067-0.297-4.137-0.297-6.056c0-2.07,0.297-3.99,1.034-5.913
					c0.888-2.806,1.627-5.467,2.219-8.274c0.737-2.66,1.035-5.616,1.035-8.422c0.294-1.33,0.59-2.808,1.032-4.285
					c0.444-1.332,0.594-2.809,0.594-4.286c-1.036-0.738-1.924-0.738-2.958-0.442c-1.329,1.476-2.067,2.954-2.512,4.875
					c-0.444,1.774-0.886,3.4-1.181,5.173c-1.772,3.25-3.104,6.796-3.992,10.343c-0.737-7.389-1.329-14.923-1.624-22.461
					c1.329-2.363,2.218-5.023,2.365-7.833c0.294-2.953,0.885-5.613,1.772-8.272c0.442-2.215,0.888-4.579,1.181-7.093
					c0.298-2.511,0-4.876-0.885-7.24c0.146-2.069-0.296-4.137-0.74-6.354c-0.591-2.068-1.771-3.841-3.693-5.171
					c-1.33-1.184-2.66-2.217-3.988-3.548c-1.479-1.034-2.808-2.363-3.694-3.693c-1.037-0.887-1.922-0.887-2.955-0.148
					c-0.739,1.332-0.89,2.808-0.593,4.434c0.593,1.478,1.33,2.512,2.511,3.695c1.037,1.033,2.219,1.919,3.253,2.808
					c-0.739,1.92-0.739,4.135-0.296,6.352c0,0.297-0.148,0.593-0.443,0.739c-0.737-0.59-1.625-1.182-2.514-2.067
					c-0.736-0.739-1.771-1.035-2.808-0.889c-1.476,0.445-2.658,1.331-3.544,2.81c-0.74,1.329-2.069,2.069-3.399,2.215
					c-1.033,0.147-1.922,0.74-2.809,1.479c-0.738,0.887-1.624,1.478-2.511,1.921c-0.887,0.296-1.773,0-2.66-1.329
					c-0.591,0.146-0.739,0.295-0.739,0.886c0,0.593,0,1.035,0,1.479c-0.147,0.886,0,1.625,0.592,2.363
					c0.442,0.887,0.886,1.626,1.625,2.217c1.478,1.329,2.955,2.807,4.58,4.433c-0.296,2.068-0.296,4.14-0.296,6.207
					c0,2.068,0,4.284-0.294,6.354c0,2.067,0,4.139,0.442,6.354c0,1.183,0.298,2.218,0.887,3.251c0-0.148-0.147-0.148-0.147-0.148
					c-0.739,0-1.182,0.296-1.922,0.593c-0.738,2.217-0.887,4.581-0.295,6.797c0.444,2.511,1.035,4.876,1.625,7.239
					c0.592,1.626,0.889,3.399,1.331,5.175c-0.442,2.51-1.033,4.874-1.479,7.388c-2.216-1.627-4.581-2.809-7.092-3.548
					c-2.218-2.659-4.58-5.318-6.945-7.831c-0.738-0.444-1.479-0.444-2.216,0c-0.738,1.035-0.888,2.216-0.443,3.251
					c0.443,1.181,0.737,2.362,1.477,3.399c0,0,0,0.147,0.297,0.294c-5.913,0.295-10.936,2.515-15.368,6.798
					c-4.434,4.433-6.649,10.048-6.649,16.4c0,0.888,0,1.923,0.147,2.81c-0.147,0.444-0.295,0.739-0.592,1.033
					c-0.146,0.296-0.294,0.738-0.441,1.182c-0.295,0.296-0.594,0.593-0.594,0.888c-2.364-0.295-4.874-0.592-7.388-0.592
					c-3.397,0-6.501,0.297-9.456,1.036c0,0,0,0,0-0.15c0.442-2.512,0.886-4.876,1.774-7.092c0.294-1.181,1.033-2.362,1.771-3.398
					c0.738-1.034,1.33-2.216,1.771-3.397c0.741-0.296,1.48-0.887,2.071-1.479c0.59-0.737,1.034-1.475,1.33-2.216
					c0.887-2.511,1.921-4.729,3.251-7.091c0.442-0.296,1.033-0.89,1.477-1.332c0.443-0.738,0.885-1.182,1.626-1.329
					c1.625-0.443,3.104-1.183,4.581-2.216c0.147-0.592,0.147-1.185,0.147-1.922c-0.147-0.444-0.443-0.739-0.741-0.739
					c-0.441,0-0.736,0-1.181-0.146c-1.035,0.146-2.216,0.44-3.103,0.885c-1.035,0.59-2.067,0.886-3.104,1.035
					c-0.296-0.298-0.296-0.888-0.296-1.331c0.146-1.624,0.886-2.66,2.069-3.398c2.217-1.182,4.139-2.216,6.207-3.249
					c0.147-0.297,0.443-0.593,0.295-1.037c-0.147-0.442-0.147-0.887-0.295-1.33c-0.148-0.441-0.594-0.738-1.035-1.033
					c-1.476,0.295-2.955,0.739-4.287,1.33c-1.328,0.738-2.658,1.184-4.137,1.331c0.74-0.887,1.775-1.628,2.661-1.922
					c1.034-0.444,2.068-0.887,3.251-1.035c0.444-0.294,1.036-0.59,1.627-1.033c0.59-0.443,0.885-0.887,1.033-1.773
					c0,0,0-0.297,0.147-0.593c0-0.442-0.147-0.591-0.296-0.737c-1.921,0.295-3.842,0.295-5.615,0.591
					c-2.363,0.442-4.58,1.626-6.502,3.103c0.297-1.624,1.036-2.956,2.513-3.842c1.181-1.033,2.363-2.067,3.398-3.25
					c0.297-0.739,0.297-1.479,0-2.218l-0.442-0.589c-0.888-0.148-1.628-0.148-2.217,0.293c-0.739,0.593-1.33,1.035-1.922,1.478
					c-1.772,1.036-3.103,2.219-4.285,3.696c-1.181,1.476-1.922,3.104-2.807,4.727c-0.591-0.295-1.184-0.591-1.626-0.738
					c-0.887,0.443-1.331,1.035-1.478,1.922c0,1.477-0.147,2.955-0.59,4.432c-0.445,1.479-0.887,2.81-1.331,4.288
					c-0.295,1.622-0.295,3.101-0.295,4.874c0.146,1.478,0.146,3.251,0,4.877c-0.593,0.738-0.887,1.329-0.887,2.216
					c0,0.74-0.296,1.478-0.738,2.217c-1.627,2.955-3.252,5.911-4.73,8.867c-0.738-1.626-1.183-3.548-1.772-5.319
					c-0.591-2.216-1.478-4.287-2.511-6.502c-0.445-1.627-1.186-3.253-2.367-4.729c-0.736,0.149-1.326,0.592-1.326,1.33
					c-0.15,0.738-0.15,1.478-0.297,2.216c-0.148,2.661,0.146,5.173,0.887,7.537c0.884,2.363,1.478,4.727,1.918,7.093
					c-0.293,0.443-0.44,0.59-0.885,0.147c-0.297-0.147-0.591-0.443-0.886-0.443c-2.66-3.547-5.615-6.944-8.866-9.753
					c-1.184-1.183-2.216-2.363-3.397-3.547c-1.036-1.329-2.366-2.363-3.696-3.104c-1.033,1.626-1.182,3.4-0.739,5.32
					c0.443,1.33,1.183,2.661,2.219,3.693c1.181,0.888,2.217,1.923,3.398,2.809c0.59,1.33,1.328,2.511,2.216,3.693
					c1.032,1.184,1.329,2.512,1.329,4.286c-0.443,0.296-1.033,0.296-1.478,0c-3.104-1.921-6.058-3.693-8.867-5.469
					c-0.737-0.147-1.625-0.294-2.511-0.442c-0.442,0-0.738,0-0.888,0c0.739-1.772,1.184-3.546,1.333-5.467
					c0.294-2.956,0.738-5.614,1.771-8.275c0.295-2.216,0.739-4.729,1.035-7.093c0.295-2.364,0-4.876-0.887-7.239
					c0.146-2.071-0.148-4.138-0.591-6.354c-0.59-2.068-1.773-3.842-3.693-5.172c-1.479-1.035-2.81-2.216-4.286-3.547
					C629.462,422.239,628.28,421.056,627.394,419.577z M634.783,468.933c0.442,1.478,1.478,2.955,2.955,3.84
					c2.067,1.48,3.842,2.956,5.468,4.731c0.442,0.146,0.739,0.442,1.181,1.033c-0.295,1.184-0.295,2.218,0,3.548
					c0.296,1.328,0.296,2.509,0.296,3.842c-1.034,0.738-2.216,0.885-3.398,0.738c-1.774-1.479-3.546-2.956-5.173-4.729
					c-0.147-0.147-0.295-0.295-0.59-0.443C635.226,477.207,635.079,473.07,634.783,468.933z M640.545,494.938
					c-0.591,3.696-0.442,7.39,0.147,10.642c-0.887,1.183-1.626,2.364-2.51,3.693c-0.148,0.147-0.148,0.442-0.148,0.591
					c-0.444-6.206-0.887-12.412-1.478-18.322c0-0.443-0.147-1.035-0.147-1.479C637.738,491.836,639.215,493.46,640.545,494.938z
					 M269.653,500.849c0-1.183,0.147-2.363,0.147-3.692c0.443,0.738,0.59,1.478,1.035,2.216c0.295,0.888,0.886,1.774,1.476,2.513
					C271.277,501.441,270.391,501.146,269.653,500.849z M250.444,450.462v2.659c1.475,1.478,2.215,3.251,2.511,5.171
					c0.294,2.069,0.443,3.992,0.443,6.06c-0.295,5.467-1.479,10.934-3.102,16.105c-0.148-0.442-0.148-0.736-0.297-1.181
					c-0.591-5.469-1.773-10.639-3.545-15.96c-1.922-5.171-3.104-10.491-3.4-16.104c0-1.479,0.147-2.956,0.296-4.435
					c0.592,1.035,1.182,1.921,1.774,2.956C247.193,447.212,248.964,448.688,250.444,450.462z M228.573,492.722
					c0.59,2.954,1.183,6.206,1.773,9.163c0,2.362,0.739,4.579,1.625,6.647c0.886,2.218,2.364,3.844,4.432,5.321
					c0.74,0.591,1.331,0.886,1.922,1.478v1.329c-3.4-0.442-6.65-0.147-10.048,0.739c-0.295,0.148-0.592,0.148-0.886,0.296
					c-0.149-1.035-0.592-1.773-0.887-2.661c0.294-1.328,0.737-2.658,0.887-3.988c0.59-1.034,0.886-2.216,1.181-3.251
					c0.148-1.181,0.296-2.216,0.59-3.548c0-1.182,0-2.362,0.297-3.546c0.148-1.329,0.148-2.512-0.149-3.842
					C228.869,495.53,228.573,494.053,228.573,492.722z M148.337,474.547c1.477-1.625,3.249-3.104,5.318-4.581
					c1.479-1.033,2.513-2.362,2.808-3.988c-0.147,4.137-0.295,8.421-0.592,12.56c-0.295,0.147-0.441,0.296-0.591,0.442
					c-1.625,1.775-3.248,3.251-5.022,4.729c-1.33,0.147-2.513,0-3.398-0.591c-0.297-1.33-0.149-2.661,0.146-3.842
					c0.296-1.479,0.296-2.514,0-3.548C147.302,475.139,147.745,474.843,148.337,474.547z M149.814,506.317
					c1.33-4.433,1.772-9.161,1.182-14.333c1.331-1.479,2.659-3.104,3.989-4.729c0,0.296,0,0.888,0,1.331
					c-0.738,7.387-1.33,14.922-1.772,22.606c-0.296,5.468-0.148,10.937,0.294,16.552c0,0,0,0.147,0,0.295h-7.535
					c-0.148-1.034-0.444-2.365-0.738-3.399c-0.592-1.921-0.592-3.545-0.147-5.466C146.562,515.034,148.337,510.75,149.814,506.317z
					 M65.587,499.964c-0.147,0.443-0.147,1.034,0.297,1.478c0.295,0.443,0.59,0.886,1.033,1.182c0.591,0.591,0.738,1.181,0.738,1.92
					s0,1.479-0.147,2.219v0.146c-0.443,0-0.738-0.146-1.034-0.443c-0.295-0.146-0.444-0.442-0.74-0.737
					c-1.033-1.035-2.068-2.069-3.251-3.104c-0.443-0.296-0.886-0.59-1.329-0.886c-0.147-1.036-0.444-2.218-0.74-3.252
					c0.296-0.296,0.445-0.591,0.593-0.738c0.886-1.033,1.773-2.071,2.363-3.104c0.148,0.888,0.295,1.773,0.443,2.809L65.587,499.964
					z M181.732,509.272l1.623,2.217c-0.886,1.33-1.623,2.658-2.067,4.139c-0.74-2.514-1.182-4.878-1.774-7.242
					c0.592-0.738,1.034-1.624,1.625-2.659C181.289,507.057,181.584,508.089,181.732,509.272z M540.065,465.83
					c1.92,1.479,3.842,3.103,5.319,4.58v2.955c1.477,1.33,2.216,3.103,2.51,5.023c0.15,2.068,0.444,3.99,0.444,6.058
					c-0.294,5.615-1.478,10.789-3.249,15.961c-0.148-0.443-0.148-0.741-0.148-1.035c-0.592-5.468-1.772-10.786-3.695-15.959
					c-1.773-5.171-2.955-10.641-3.252-16.255c0-1.477,0.149-2.954,0.297-4.432C538.883,463.907,539.473,464.942,540.065,465.83z
					 M524.253,516.81c-0.443-1.182-0.738-2.514-0.738-3.99c0.738,3.103,1.183,6.057,1.772,9.159c0.148,2.515,0.594,4.582,1.627,6.65
					c0.887,2.071,2.512,3.844,4.433,5.173c0.738,0.59,1.328,1.182,1.921,1.626v1.182c-3.399-0.295-6.797,0-10.048,0.887
					c-0.444,0-0.591,0.147-0.887,0.294c-0.297-1.033-0.592-1.92-1.034-2.807c0.442-1.33,0.886-2.66,1.183-3.988
					c0.441-1.035,0.738-2.07,1.033-3.251c0.147-1.184,0.444-2.219,0.592-3.251c0-1.183,0.146-2.515,0.146-3.842
					C524.401,519.47,524.401,518.139,524.253,516.81z M476.083,525.97c0.146,1.035,0.442,2.217,0.59,3.251l1.627,2.365
					c-0.89,1.33-1.627,2.658-2.07,4.137c-0.737-2.512-1.33-5.022-1.92-7.241C475.047,527.595,475.492,526.857,476.083,525.97z
					 M564.889,517.399c0.148,0.739,0.443,1.329,0.741,2.07c0.441,0.885,1.032,1.625,1.478,2.365c-0.74-0.298-1.775-0.74-2.514-1.038
					C564.594,519.615,564.74,518.435,564.889,517.399z M347.672,440.856c0.15,0.147,0.296,0.442,0.443,0.442
					c1.183,1.038,2.068,2.071,3.251,2.957c0.147,0.442,0.296,0.886,0.443,1.182c-0.295,1.774-0.886,3.398-1.181,5.024
					c-1.478-0.887-2.807-1.774-4.286-2.513c0.147-0.59,0.147-1.033,0.295-1.477C347.082,444.698,347.525,442.777,347.672,440.856z
					 M345.014,461.249c0.146-1.478,0.295-2.957,0.295-4.138c0-0.739,0-1.626,0.148-2.365c0.886,0.887,1.773,1.773,2.659,2.661
					c0.445,0.146,0.592,0.146,0.74,0.442c-0.295,2.219-0.887,4.435-1.625,6.649l-0.295,0.443c-0.445,0.296-1.035,0.296-1.331,0.148
					C345.014,463.907,344.866,462.579,345.014,461.249z"/>
			</g>
		</g>
	</g>
</g>
<g>
	<path d="M73.607,94.533c0,5.221-2.054,9.586-6.163,13.009c-4.108,3.423-9.757,5.135-16.86,5.135c-9.5,0-16.604-3.68-20.455-9.842
		c-3.852-6.163-5.649-13.608-5.649-22.595c0-8.986,1.797-16.518,5.649-22.937c3.851-6.504,11.041-10.356,20.626-10.356
		c15.063,0,22.509,7.532,22.509,18.145h-8.901c0-7.532-3.937-11.212-13.522-11.212c-11.554,0-17.374,8.815-17.374,26.36
		c0,18.23,5.734,25.334,17.032,25.334c9.5,0,14.207-3.68,14.207-11.041H73.607z"/>
	<path d="M108.869,74.677c-10.698,0-16.005,4.108-16.005,12.239v24.563H84.99v-43.82h7.874v5.991
		c1.198-2.14,2.824-3.595,4.964-4.536s5.82-1.455,11.041-1.455V74.677z"/>
	<path d="M152.004,72.452c4.022,3.937,6.077,9.671,6.077,17.117s-2.054,13.18-6.077,17.117s-9.243,5.906-15.491,5.906
		c-6.248,0-11.468-1.969-15.491-5.906c-4.022-3.937-6.077-9.671-6.077-17.117s2.054-13.18,6.077-17.117
		c4.023-3.937,9.244-5.906,15.491-5.906C142.761,66.546,147.982,68.515,152.004,72.452z M146.441,101.722
		c2.311-3.509,3.423-7.532,3.423-12.153s-1.113-8.644-3.423-12.153c-2.311-3.509-5.563-5.306-9.928-5.306
		c-4.365,0-7.617,1.797-9.928,5.306c-2.311,3.509-3.424,7.532-3.424,12.153s1.113,8.644,3.424,12.153
		c2.311,3.509,5.563,5.221,9.928,5.221C140.878,106.943,144.13,105.231,146.441,101.722z"/>
	<path d="M232.456,67.659l-14.807,43.82h-7.874l-11.64-36.375l-11.64,36.375h-7.959l-14.807-43.82h8.473l10.271,34.149
		l10.356-34.149h10.527l10.356,34.149l10.356-34.149H232.456z"/>
	<path d="M279.443,111.479h-7.959v-4.964c-0.428,0.428-0.941,1.027-1.712,1.711c-0.77,0.685-2.225,1.626-4.536,2.739
		c-2.226,1.113-4.451,1.626-6.762,1.626c-5.221,0-9.928-2.14-14.122-6.419c-4.194-4.365-6.248-9.586-6.248-15.748
		c0-10.784,4.708-23.879,18.145-23.879c8.559,0,13.266,3.852,14.464,5.734l0.77,1.113V48.23h7.959V111.479z M271.227,89.911
		c0-4.964-1.284-9.243-3.851-12.752c-2.482-3.595-5.734-5.392-9.586-5.392c-2.653,0-4.964,0.942-6.761,2.825
		c-3.68,3.766-4.878,8.986-4.878,14.806c0,4.708,1.198,8.645,3.509,11.982c2.311,3.338,5.392,4.964,9.158,4.964
		C267.461,106.344,271.227,97.443,271.227,89.911z"/>
	<path d="M367.854,111.479h-11.812L327.628,78.1v33.379h-8.815V48.23h8.815v26.874l26.104-26.874h10.869l-26.874,27.217
		L367.854,111.479z"/>
	<path d="M384.715,56.276h-9.329V48.23h9.329V56.276z M384.03,111.479h-7.874v-43.82h7.874V111.479z"/>
	<path d="M418.179,111.479c-1.883,0.599-4.108,1.027-6.59,1.113c-7.617,0.342-10.955-2.996-10.955-12.582V73.308h-7.874v-5.649
		h7.874v-8.644l7.874-3.252v11.896h9.671v5.649h-9.671v26.703c0,5.05,1.712,6.847,4.793,6.59c1.797-0.085,3.423-0.342,4.878-0.771
		V111.479z"/>
</g>
</svg>
