<?xml version="1.0" encoding="UTF-8" standalone="no"?>
<svg xmlns:rdf="http://www.w3.org/1999/02/22-rdf-syntax-ns#" xmlns="http://www.w3.org/2000/svg" height="1751pt" width="1593pt" version="1.1" xmlns:cc="http://creativecommons.org/ns#" xmlns:dc="http://purl.org/dc/elements/1.1/" viewBox="0 0 1593 1751">
<path fill="#030101" d="m561.12 0h37.19c45.34 11.48 94.01 26.11 124.93 63.75 8.99 9.09 9.63 22.14 11.11 34.01-0.11 8.1-1.2 16.34 0.27 24.37 0.23 10.01 8.36 15.81 16.26 20.02-2.64 8.86-12.93-4.61-14.32 4.35-0.93 18.36 5.18 39.13 21.45 49.48 7.4 2.57 15.39 2.89 23.09 4.09-6.59 11.66-23.3 12.47-31.19 22.91 18.37 8.27 39.78 4.92 57.49 15.02 34.1 6.09 68.78 9.57 103.36 11.78 4.75 0.03 9.57-0.09 14.36 0.02 34.66 2.99 68.83-6.35 103.28-6.38 12-1.65 21.5-14.45 34.2-8.73 12.6-12.03 33.6-4.76 44.8 6.43 18.7 4.37 37.1-3.23 55.8-2.81 38.7-4.81 73.4-24.03 111.5-30.69 11.5 0.49 22.9 0.35 34.3 0.17 11.1 1.71 21.7 5.93 33.1 5.02 4.8-0.39 14.3 0.05 13.6 7.02-19.2 5.92-38.9 11.33-55.4 22.89 6.8 0.84 15.4 0.19 19 7.36-12.8 14.73-33.6 16.96-48.4 27.81-20.8 1.55-40.7 13.2-62.5 9.4-10.6-0.34-21.1-0.35-31.6-0.13-11.9-0.11-23.9-0.9-35.5 1.82 3.4 12.73-1.3 28.03-10.7 36.81-16.5 9.35-31.7-5.76-45.4-12.78-8.2 8.11-9.3 27.56-24.4 25.89-17.7 2.27-29.5-12.98-34.8-27.83-1.6-6.94-10.4-2.92-15.2-3.36-74.85 7.26-150.82 16.01-225.68 3.37-4.32 30.44-19.39 57.74-31.33 85.69-20.48 31.34-46.7 59.86-80.63 76.65 10.48 32.22 26.43 65.17 48.89 90.36 65.07-33.78 132.45-70.56 207.58-74.13 4.54-0.06 9.16-0.03 13.74-0.35 33.67 0.29 67.43 2.32 100.43 9.82 33.2 10.4 65.2 24.97 94.6 43.45 27.7 19.96 61.2 34.16 81.6 62.41 61 60.6 103.2 137.38 132.4 217.68 24.3 62.21 38.9 130.49 83.4 182.54 21.7 23.9 48.2 44.8 79.9 53 22.2 18.1 52.1 13.2 77.3 20.7v1.8c-5.7 18.3-19 33-30.3 48-32.7 17.1-68.3 27.9-101.9 43.2-99.5 25.4-188.1 87.1-252.3 166.6-47.2 43.6-70.8 106.1-85.8 167.2-7 53.5-25.3 110.3-68.9 145.1-55.08 39.2-116.94 69.2-183.15 83.8-37.03 11.2-76.42 10.8-114.48 16.4h-74.2c-12.14-4.2-25.35 0-37.7-3.2-39.4-9.3-80-17.1-116.14-36-21.29-3.1-39.14-15.3-55.79-28.2-56.01-33.6-103.4-78.8-152.24-121.7-14.89-9.4-23.93-24.8-35.3-37.7-29.56-34.3-53.67-73.1-73.13-113.9-21.29-32.5-29.61-70.9-40.08-107.8-13.53-22.7-17.1-50.5-32.2-72.9-18.78-28.6-45.28-50.7-69.12-74.9-34.48-30.2-69.19-68.6-70.27-117.1v-11.2c1.7-16.4 5.66-34.19 17.34-46.52 50.03 1.71 100.11 9.6 150.06 14.75 151.98 7.77 307.76-39.2 425.21-137.02 23.02-27.05 48.22-52.29 67.99-81.98 20.56-23.24 16.94-56.42 20.96-85.07-0.11-17.07 1.03-35.53-5.39-49.84-20.13-8.9-35.75-25.03-54-36.73-15.2 39.07-18.9 82.86-43.4 118.21-11.56-35.76-45.59-55.87-79.05-67.88-18.61-10.54-42.28-11.37-60.23 1.23-25.08 4.4-44.43 22.11-69.26 26.25-25.22-12.38-45.89-32.95-60.34-56.86-16.37 17.24-40.57 42.16-65.83 25.16-13.2-15.02-4.02-35.05 3.57-50.34-18.3 6.2-39.97-13.15-31.45-31.49 3.57-16.23 20.12-23.47 31.2-33.99-7.87-36.84-36.97-63.56-63.34-88.36-29.89-23.66-54.25-56.44-59.96-94.88-2.2-2.58 3.62-9.95 5.15-5.23 11.2 23.47 37.55 31.67 59.34 42.04 0.43-4.9 0.49-9.81 0.8-14.71 13.03 25.16 47.5 30.82 58 58.47 19.59 25.18 28.27 58.14 51.64 80.26 7.8-12.37 18.66 0.56 19.25 10.03 11.46 6.03 14.88 19.88 18.95 27.97 22.05-19.91 49.42-32.63 72.85-50.81 42.66-35.16 72.55-85.46 82.02-140.06-14.38 19.38-27.72 42.54-51.82 51.22-29.27 9.46-65.16 14.58-91.45-4.91-11.48-14.06-6.37-35.39 1.05-50.35-22.51-1.94-38.46-22.67-38.18-44.63-20.97-1.94-43.83-6.8-56.72-25.31-19.28-26.67-17.91-76.13 15.97-89.88-10.09 15.67-5.07 34.69 8.72 46.22 22.22 17.92 52.84 10.26 76.02-1.62 49.5-53.92 73.17-124.84 117.56-182.51 21.08-29.16 52.5-49.92 87.89-57.23m-50.34 31.36c-4.24 1.01-7.87 4.05-10.76 7.17-42.54 33.79-63.1 85.6-88.83 131.69-19.47 30.43-35.05 70.23-73.06 80.87-29.64 16.45-81.18-2.63-78.28-40.19-10.75 9.33-11.19 25.56-9.6 38.75-0.76 24.97 21.56 42.52 42.26 51.79 89.17 11.19 182.83-25.44 238.37-96.53 24.1-27.5 26.23-65.76 36.77-99.24 8.1-24.37 25.16-50.46 53.21-51.7-1.79 30.59 21.31 53.76 47.32 65.85 18.78 14.7 43.58 11.26 65.7 15.35-8.76-19.19-1.33-42.36-11.92-61.12-17.8-21.85-40.11-41.64-68.15-49.87-13.15-4.03-24.61-13.67-39-12.85-35.21-3.79-74.68-2.51-104.03 20.03m103.29 31.13c-5.68 3.61-14 0.69-18.41 6.28-32.35 29.24-24.98 77.61-43.47 114.28 15 14.95 12.7 40.47 27.74 56.04 5.74 4.88 10.78 10.61 17.14 14.73 9.53 11.68 27.19 2.56 34.35-7.41 14.79-18.98 37.62-32.78 45.34-56.58-8.44 3.15-19.28 2.49-22.49-7.42-4.44-15.12 17.56-22.26 26.82-12.35 2.75-6.55 11.53-21.76-3.99-16.22-20.54-3.03-25.68 21.04-29.39 35.85-2.78 5.55-1.48 18.91-10.48 18.31 2.76-14.87 7.05-29.53 13.53-43.23 5.9-14.61 24.51-16.79 38.31-17.1 2.14-3.42 7.08-10.78 0.51-12.28-29.66-11.3-63.62-27.19-72.51-60.65-2.69-2.68 1.77-12.7-3-12.25m85.27 75.74c-10.94 7.76-6.7 22.12-10.3 32.94 5.35 0.32 4.79-8.38 10.59-5.74-2.65 5.88 5.17 12.77-4.77 13.51-14.01 1.38-12.96 16.35-16.8 26.86 25.24 17.48 65.68 22.42 87.7-0.52-27.65-6-40.17-38.23-31.75-63.53-11.58-0.83-23.32-1.44-34.67-3.52m-32.98 32.88c-11.77 8.44 14.39 0.7 0 0m8.05 11.17c-5.53 6.27 9.44-1.86 0 0m-149.25 39.15c1.33 39.82-6.42 79.75-22.57 116.18-2.61 5.93 7.84 4.12 10.74 3.99 22.47-6.56 44.65-14.82 65.67-24.46 10.6-4.49 18.81-13 29.06-18.12-10.3-8.71-13.42-22.33-11.71-35.14-9.58-7.23-19-14.91-24.62-25.91-8.52-16.08-11.81-35.66-22.73-49.81-7.6 10.57-16.91 22-23.84 33.27m147.16-10.27c-9.04 10.62-18.24 21.18-28.92 30.23-9.94 8.87-17.63 23.5-32.33 24.36-19.96-4.66-8.12 24.21 0.79 29.2 9.32-7.63 19.83-14.8 24.92-26.13 19.03-16.99 36.49-39.58 63.57-42.88-9.62-4.51-19.48-9.18-28.03-14.78m608.18 1.32c-14.9-0.85-27.7 7.01-41.6 10.4-46.7 18.97-97.5 24.89-147.5 24.85-3.8-0.14-10.7-2.27-12 3.14-3.4 16.03 9.3 28.64 18.6 39.84 33.3-11.48 70.9-8.77 105.5-7.2 32.1-0.97 62.1-10.95 92.1-21.86 3.5-5.48 12.5-5.23 14.1-11.88-21 1.56-46 12.55-64.7 3.31 16.1-3.08 32.1-7.23 47.5-12.51 12.2-11.29 28.5-15.9 43.5-21.52-17.7-6.53-36.8-8.15-55.5-6.57m-542.03 12.95c-7.75 2.09-15.6 4.6-23.59 1.77-9.83 1.39-18.32 7.74-27.71 10.92-7.38 19.41-10.19 40.7-16.09 60.7 39.8-8.38 82.26-0.37 121.64 9.28 76.66 9.21 156.29 1.42 231.08-8.23-1.4-17.7 2.4-35.82 9-52.07-98.15 15.64-200.38 5.07-294.33-22.37m-219.11 1.91c-8.59 9.98-21.21 16.95-27.48 28.59-13.2 61.37-73.36 110.6-137.05 104.18-9.57 9.31-5.79 24.47-4.1 36.05 1.73 11.24 14.87 11.64 23.22 15.9 26.05 0.81 53.68 1.55 77.23-11.85 48.86-42.61 68.39-111.96 68.18-172.87m558.14 7.15c-19.9 5.34-19.7 30.61-10.5 45.55 10.1 23.58 33.4 41.67 59.3 41.58 2.7 0.05 9.8-4.16 4.6-5.71-29.5-3.37-52.3-29.27-58.9-56.97 1-8.26 2.5-20.39 12.1-22.91-2.1-0.78-4.3-2.48-6.6-1.54m-30.9 7c-8.6 8.88-16.5 19.65-15.4 32.83-0.6 2.38-1 4.81-1.2 7.29-4.2 14.21 0.5 37.02 13.9 48.49 9.3 6.2 23.2 5.13 30.5-3.85-16.8 6.16-28.7-13.69-29.2-28.46-0.9-18.72-4-40.9 9.7-55.98-0.4-4.35-6.1-2.09-8.3-0.32m-370.37 2.01c-32.13 18.4-47.56 55.74-81.57 71.43 0.99 94.25 10.9 193.14-18.98 284.75-2.21 5.24-3.64 11.13-1.04 16.61 4.31 14.91 9.19 33.66 25.48 39.39 21.14-76.69 42.61-157.17 51.49-237.51-2.52-57.27 12.66-113.16 25.07-168.59-1.43-0.16 3.3-8.49-0.45-6.08m-190.74 13c-6.88 5.16-14.59 9.01-22.38 12.58-40.7 30.27-93.24 38.92-142.92 41.13-2.28 19.9 14.26 35.53 32.54 39.98 13.79 9.18 31.18 3.38 46.49 2.24 19.41-7.67 40.98-15.11 52.98-33.25 14.33-17.83 29.47-42.06 33.29-62.68m567.91 1.32c-8.4 13.06-4 28.97-2.6 43.24 5.8-2.75 11.6-4.3 18.3-3.5-6.5-12.7-16.1-24.65-15.7-39.74m59.3 33.77c-4 0.77-17.2 1.24-8.9 6.47 9.2 6.74 29.2 20.69 35.2 3.46 2.1-15.76-16.7-10.48-26.3-9.93m-418.12 7.03c-8.31 4.02-16.23 4.3-25.75 3.84-8.85 26.32-6.74 54.77-10.38 82.03-3.24 27.44-5.48 57.8 10.32 82.06 7.4 1.51 12.36-5.6 18.21-8.6 50.8-31.48 76.95-89.2 92.47-144.48-0.69-1.99-2.52-3.46-4.65-3.46-26.91-2.49-53.18-10.36-80.22-11.39m377.92 3.64c-6.9 2.35-15.4 0.82-21.6 4.84 3.3 8.29 12.4 19.11 22 13.45 5.2-3.8 8.8-18.12-0.4-18.29m-510.04 28.35c0.61 35.41-9.73 69.45-17.16 103.78-12.14 54.24-48.49 98.85-66.48 150.43 23.7-13.29 57.18-20.1 79.16 0.19 0.66 1.06 0.84 2.71 2.19 3.16 4.06 2.76 9.4 20.64 11.37 7.39 20.66-59.95 16.4-124.35 20.58-186.57 0.26-30.31-7.18-60.5-3.85-90.8-8.25 4.83-16.61 9.58-25.81 12.42m-8.05 4.81c-16.65 7.56-34.73 9.96-52.72 12.15-7.92 26.68-11.31 55.1-25.69 79.44-20.37 44.18-60.05 74.86-98.96 102.12 8.41 4.57 15.73 11.57 23.96 16.8 36.83-26.69 69.8-58.71 95.89-96.04 22.54-35.76 43.63-76.75 57.52-114.47m1.98 11.94c-10.85 25.96-24.33 51.18-38.33 75.77-21.45 55.19-70.36 91.15-113.65 128.49 2.41 10.48 7.49 21.62 12.11 31.83 9.02 11.4 27.2 23.17 40.79 11.76 10.59-5.61 17.04-16.01 23.02-25.92 11.57-37.8 39.43-68.32 49.04-106.91 13.87-36.54 22.26-78.74 27.02-115.02m-425.8 13.08c8.96 64.15 81.12 87.08 108.42 140.57 6.74 19.99 17.54 38.2 27.05 56.91 10.67-11.95 20.35-26.47 28.54-39.53-27.92-30.19-34.76-73.72-64.35-102.65-10.17-10.99-24.98-15.88-35.08-26.78 0.17 12.17 17.64 14.89 15.61 27.58-5.82 1.08-7.14-7.77-10.38-10.94-17.12-23.78-51.16-23.02-69.81-45.16m524.63 86.87c-10.98 49.89-22.05 101.28-31.26 152.02 16.97 10.4 32.51 25.77 50.89 32.04-0.08-26.98 15.5-51.66 39.09-64.42-25.39-36.23-46-78.86-58.72-119.64m286.38 46.27c-31.48 1.96-64.28 5.63-92.55 20.58-39.4 8.01-75.3 27.82-110.54 46.41-3.94 2.63 2.57 3.22 4.2 1.36 54.56-24.54 112.78-49.27 173.93-42.49 47.17 3.54 91.56 22.56 132.26 45.61 51.8 28.33 94.5 69.77 137.4 109.68 27 25.16 48.5 55.19 65.8 88.15 26.8 47.57 61 90.93 85.1 139.94 31.3 44.99 62.3 92.59 109.7 122.28-70.3-76.16-83.9-182.86-130.7-272.32-36.8-81.36-95.9-153.02-171-202.04-60.9-37.02-131.4-61.99-203.6-57.16m-638.25 20.59c-13.17 14.49-18.85 35.14-35.39 46.76-7.67 8.74-20.64 15.79-32.01 10.11-5.14-6.58-0.81-14.94 1.08-21.95-10.21 6.07-21.92 20.3-16.07 31.95-0.37 3.66 1.67 7.53 5.12 8.97 8.55 9.93 25.37 6.06 33.8-2.19 21.71-18.59 41.08-40.7 53-66.93-0.25-4.34-4.59-10.92-9.53-6.72m446.67 53.78c-10.2 5.13-22.4-0.34-32.9 3.02-20.48 13.04-39.1 36.54-33.62 62.23 46.92 19.93 93.16 44.33 131.82 77.52 29.32 32.21 59.94 64.88 77.7 105.25 43.51 88.25 59.12 191.23 36.28 287.33-13.63 39.5-27.45 78.9-40.4 118.5-16.11 29-13.36 63.7-9.05 95.4 1.18 32.7 12.42 63.5 19.96 95 15.82 43.7 31.43 88.1 55.97 127.8 21.28 35.3 39.08 74.9 73.02 100.1 5.9 4 13.4 16.9 19.7 6.4 47.7-35.1 58.9-95.7 71.2-149.8 6.3-33.9 20.5-65.3 34.6-96.4 25.3-32.2 45.2-69.9 77-96 17.3-19.1 36-37 57.4-51.6 70.2-60.4 161.2-83.5 245.6-116.4 25.1-7.1 40.8-31.4 50.6-53.9-19.5 2.7-38.1-4.7-56.5-9.8-51.6-17.7-98.9-47.9-136-88.04-71.8-82.88-116.1-184.66-182.3-271.62-64.3-92.27-163-158.06-271.25-186.73-65.94-10.54-130.28 14.02-188.83 41.74m-429.99-36.72c-0.77 13.69 0.8 29.3-7.94 40.95-10.95 21-21.46 49.3-48.72 52.1-14.11 2.98-11.87-15.54-9.2-24.14-10.24 10.93-16.93 30.04-8.41 44.16 6.96 5.21 16.55 7.4 25.05 4.82 28.27-13.1 45.31-42.71 53.89-71.44 5.12-14.74 8.28-36.82-4.67-46.45m-5.52 1.64c-13.08 17.42-25.72 36.45-40.08 51.93 4.17 6.72 9.12 13.45 14.49 19.09 16.61-19.46 28.57-45.16 25.59-71.02m58.97 0.65c-12.7 2.01-21.88 11.8-31.32 19.6 4.14 6.91 8.61 14.23 12.8 20.71 13.04-7.58 25.48-16.31 39.06-23-4.84-7.01-12.13-16.58-20.54-17.31m-124.2 9.66c-4.18 6.53-9.31 13.09-11.28 20.61 4.46 8.23 16.57 1.69 22-1.91-3.41-5.77-4.51-15.93-10.72-18.7m147.11 12.17c-12.56 8.91-25.73 16.94-39.58 23.71-1.9 32.28 13.45 71.82 49.14 79.61 17-16.97 37.17-32.66 49.41-54.43-11.23 6.7-24.93-0.14-34.06-7.53-14.11-9.31-17.07-29.12-24.91-41.36m-61.36 2.77c-4.66 21.58-12.32 42.29-22.75 61.75 12.62 18.54 29.06 34.16 45.01 49.81 13.2 10.26 31.02 2.71 44.02-3.94-21.45-6.54-37.45-24.33-45.36-44.81-6.36-20.86-1.29-48.1-20.92-62.81m182.7 21.31c-20.62 5.42-47.02 8.27-57.26 30.03-11.43 18.26-30.25 30.03-42.92 46.93 12.91-1.91 22.65-12.11 35.75-14.05 32.15-10.04 60.7 12.62 88.45 24.42 10.2-17.83 17.22-37.53 24.06-56.88-6.25-20-26.74-34.35-48.08-30.45m-247.23 7.95c-10.7 6.04-16.35 19.15-12.23 30.99 10.85 7.32 22.64-6.22 28.34-13.12-5.82-5.22-9.47-15.64-16.11-17.87m298.73 32.64c-4.22 18.33-17.73 33.18-20.98 51.59 13.71 9.59 23.74 23.29 30.54 38.55 10.64-14.54 13.01-32.97 19.71-48.93-18.41-4.15-27.22-24.14-29.27-41.21m114.79 19.89c4.93 8.96 15.79 11.47 23 18.07 39.18 29.34 59.69 75.37 83.21 116.79 13.36 23.95 18.19 51.2 25.8 77.21 26.61 112.66 20.62 232.82-19.12 341.72-13.68 33.9-27.27 68.1-47.23 99-26.03 59-62.3 112.2-95.53 167.1-40.53 61.6-79.17 125.3-97.7 197.5-6.94 17.3-16.13 34.7-15.42 53.9 4.4 4 10.64 3.5 16.08 4.6 102.41 40.9 217.34 35.9 322.94 10.4-16-31.2-24.55-65.8-32.23-100-14.65-56.2-25.03-114.3-24.14-172.5 1.64-62.9 16.15-124.4 40.07-182.4 22.87-59 45.85-118.1 62.25-179.1 14.25-65.2 9.78-133.84-7.21-198.03-28.86-80.69-71.7-161.5-146.03-208.93-29.04-16.11-57.64-33.34-88.74-45.33m4.8 12.37c12.21 37.39 7.45 77.49-1.58 114.91-6.49 11.81-11.41 24.52-16.09 37.06-4.75 8.52-6.55 20.06-14.17 27.77-62.53 99.33-171.15 153.2-271.41 205.88-83.38 35.4-167.16 79.9-224.22 152.4-5.88 4.6-6.77 13.2-4.68 20 13.08 55.6 23.92 112.2 44.5 165.5 22.4 33.4 43.61 67.5 59.21 104.8 6.94-31.3 31.3-60 54.8-82.4 40.03-29.5 75.29-64.6 113.16-96.9 30.6-19.5 58.71-42.5 86.63-65.6 45.63-40.7 85-88.5 125.07-134.7 21.22-27.6 37.07-59.6 53.56-89.8 10.79-16.98 20.28-34.55 24.09-54.52 26.93-78.33 46.27-166.44 16.42-246.74-13.68-19.03-23.17-44.37-45.29-57.66m-0.81 20.78c1.09 27.96-1.92 56.15-9.75 83.05-18.05 29.74-34.99 61.37-62.43 83.72-27.32 33-60.67 62.14-100.77 78.22-55.3 29.16-112.96 55.66-174.52 67.8-49.69 7.01-99.28 18.15-149.81 14.25-52.46-0.93-104.79-11-156.74-14.43 24.51 8.75 49.2 21.93 65.36 42.93 37.05 46.8 34.54 109.7 53.55 163.5 13-15.1 26.7-29.5 39.41-44.8 54.25-49.4 122.43-81.6 188.82-112.4 33-15.1 64.89-32.7 96.86-49.92 24.68-9.96 41.97-31.5 65.54-43.43 35.16-25.57 69.33-53.53 95.37-88.69 31.26-54.05 60.74-116.73 49.11-179.8m35.93 8.01c10.03 19.99 23.42 39.23 27.24 61.73 16.38 97.13-12.91 194.4-56.17 280.5-3.44 1.2-4.73 7.5-7.27 10.5-45.01 77.6-104.02 147-171.54 206-56.67 43.8-114.31 86.7-166.07 136.3-35.44 30.2-68.62 65.7-84.92 110 11.35 28.4 38.36 46.7 55.82 70.9 32.51 23 60.06 52.2 91.97 76 27.71 23.6 60.48 40.3 88.24 63.9 10.26 7.7 22.26 4.7 32.9 10.8 8.56-36.3 17.29-76 31.88-111.7 26.74-48.1 50.95-97.9 82.95-142.8 21.81-31.7 44.81-63.6 60.07-99.2 28.07-54.6 64.68-105.9 82.94-164.8 28.2-78.5 41.25-163.3 33.37-246.51-7.39-94.38-36.94-190.4-101.41-261.62m-702.36 307.2c-18.94 19.93-16.66 50.63-8.99 75.13 21.01 82 118.4 112 146.48 189.6-12.98-58.5-26.94-117.3-39.84-176.2-15.19-42.6-52.36-80.16-97.65-88.53m846.51 285.03c-21.46 54.4-35.53 111.5-40.07 169.8 1.77 65.7 9.9 131.2 25.73 194.9 7.77 27.5 14.53 56 29.38 80.8 1.23 3.2 4.91 5.9 8.44 4.9 18.43-5.9 35.99-13.8 54.7-18.8 23.09-6.3 42.52-21.5 63.93-31.9 7.7-6.2 17.8-11 25.4-15.8-34.9-28.1-54.97-69.1-81.66-104.1-0.9-12.7-11.76-21.7-16.48-33.1-15.21-33.3-32.13-66.6-39.6-102.8-17.81-46.4-26.44-96.4-25.77-146.1 1.79-10.9-4.5-1.2-4 2.2z"/>
<path fill="#fee9fd" d="m510.78 31.36c29.35-22.54 68.82-23.82 104.03-20.03 14.39-0.82 25.85 8.82 39 12.85 28.04 8.23 50.35 28.02 68.15 49.87 10.59 18.76 3.16 41.93 11.92 61.12-22.12-4.09-46.92-0.65-65.7-15.35-26.01-12.09-49.11-35.26-47.32-65.85-28.05 1.24-45.11 27.33-53.21 51.7-10.54 33.48-12.67 71.74-36.77 99.24-55.54 71.09-149.2 107.72-238.37 96.53-20.7-9.27-43.02-26.82-42.26-51.79-1.59-13.19-1.15-29.42 9.6-38.75-2.9 37.56 48.64 56.64 78.28 40.19 38.01-10.64 53.59-50.44 73.06-80.87 25.73-46.09 46.29-97.9 88.83-131.69-11.78 19.09-17.19 41.1-25.89 61.58-21.49 41.18-50.33 77.79-74.86 117.1 4.65-1.4 8.16-5.08 11.51-8.43 39.46-46.2 70.03-98.78 101.6-150.36 16.24-15.33 37.97-22.56 56.85-33.89-19.79-1.17-38.79 6.33-58.45 6.83m133.77 11.96c-8.3 6.68-5.39 21.93-3.47 31.53 12.7 26.54 44.2 37.39 71.28 42.03-3.28-11.55 1.11-26.89-5.76-36.78-25.93-1.88-37.64-32.49-62.05-36.78m-81.21 9.13c-24.61 6.44-44.5 28.51-50.98 52.9-11.53 30.93-11.8 66.37-32.51 93.5-18.19 17.36-41.87 26.68-63.71 38.31-12.35 6.6-29.4 6.88-38.82 17 20.92-6.58 42.5-11.2 64.27-14.61 46-7.46 90.14-41.9 97.3-89.78 1.28-35.3 24.62-64.3 43.12-92.71-5.15-4.29-12.18-5.41-18.67-4.61z"/>
<path fill="#fecffe" d="m510.78 31.36c19.66-0.5 38.66-8 58.45-6.83-18.88 11.33-40.61 18.56-56.85 33.89-31.57 51.58-62.14 104.16-101.6 150.36-3.35 3.35-6.86 7.03-11.51 8.43 24.53-39.31 53.37-75.92 74.86-117.1 8.7-20.48 14.11-42.49 25.89-61.58 2.89-3.12 6.52-6.16 10.76-7.17z"/>
<path fill="#fefbff" d="m644.55 43.32c24.41 4.29 36.12 34.9 62.05 36.78 6.87 9.89 2.48 25.23 5.76 36.78-27.08-4.64-58.58-15.49-71.28-42.03-1.92-9.6-4.83-24.85 3.47-31.53z"/>
<path fill="#fefcff" d="m563.34 52.45c6.49-0.8 13.52 0.32 18.67 4.61-18.5 28.41-41.84 57.41-43.12 92.71-7.16 47.88-51.3 82.32-97.3 89.78-21.77 3.41-43.35 8.03-64.27 14.61 9.42-10.12 26.47-10.4 38.82-17 21.84-11.63 45.52-20.95 63.71-38.31 20.71-27.13 20.98-62.57 32.51-93.5 6.48-24.39 26.37-46.46 50.98-52.9z"/>
<path fill="#febfc0" d="m614.07 62.49c4.77-0.45 0.31 9.57 3 12.25 8.89 33.46 42.85 49.35 72.51 60.65 6.57 1.5 1.63 8.86-0.51 12.28-13.8 0.31-32.41 2.49-38.31 17.1-6.48 13.7-10.77 28.36-13.53 43.23 9 0.6 7.7-12.76 10.48-18.31 3.71-14.81 8.85-38.88 29.39-35.85 15.52-5.54 6.74 9.67 3.99 16.22-9.26-9.91-31.26-2.77-26.82 12.35 3.21 9.91 14.05 10.57 22.49 7.42-7.72 23.8-30.55 37.6-45.34 56.58-7.16 9.97-24.82 19.09-34.35 7.41-6.36-4.12-11.4-9.85-17.14-14.73-15.04-15.57-12.74-41.09-27.74-56.04 18.49-36.67 11.12-85.04 43.47-114.28 4.41-5.59 12.73-2.67 18.41-6.28m-6.29 64.97c-3.96 0.84-15.93 3.65-10 8.31 10.49-7.05 22.55-3.55 33.84-1.49 3.22 1.16 10.8 4.96 7.85-1.54-10.08-3.85-20.65-7.93-31.69-5.28m-35.73 6.6c-2.39 7.53 6.29 13.31 10.56 18.35 15.23 11.47 30.27 30.32 51.73 23.99 5.52-14.82-11.58-35.05-27.04-27.2-9.37 2.11-16.83-5.64-22.25-12.16-2.94-2.32-2.35 2.85-3.11 4.56-4.49-0.42-5.73-6.23-9.89-7.54m30.45 81.34c1.3 6.48 7.52 10.38 8.85 17.14 8.2 12.46 24.55 6.04 31.81-3.82-13.33-5.24-27.59-7.35-40.66-13.32z"/>
<path fill="#879c79" d="m734.35 97.76c1.3 8.06 0.46 16.26 0.27 24.37-1.47-8.03-0.38-16.27-0.27-24.37z"/>
<path fill="#060000" d="m607.78 127.46c11.04-2.65 21.61 1.43 31.69 5.28 2.95 6.5-4.63 2.7-7.85 1.54-11.29-2.06-23.35-5.56-33.84 1.49-5.93-4.66 6.04-7.47 10-8.31z"/>
<path fill="#020101" d="m572.05 134.06c4.16 1.31 5.4 7.12 9.89 7.54 0.76-1.71 0.17-6.88 3.11-4.56 5.42 6.52 12.88 14.27 22.25 12.16 15.46-7.85 32.56 12.38 27.04 27.2-21.46 6.33-36.5-12.52-51.73-23.99-4.27-5.04-12.95-10.82-10.56-18.35m36.53 19.02c1.45 2 9.93 3.67 13.95 2.11-4.54-1.71-9.19-2.41-13.95-2.11m-7.86 6.16c0.1 0.28 8.62 10.94 10.3 3.68 3.73-6.59-7.02-3.32-10.3-3.68m22.09 3.6c-7.97 12.74 15.64 7.8 0 0z"/>
<path fill="#fdaaf7" d="m699.34 138.23c11.35 2.08 23.09 2.69 34.67 3.52-8.42 25.3 4.1 57.53 31.75 63.53-22.02 22.94-62.46 18-87.7 0.52 3.84-10.51 2.79-25.48 16.8-26.86 9.94-0.74 2.12-7.63 4.77-13.51-5.8-2.64-5.24 6.06-10.59 5.74 3.6-10.82-0.64-25.18 10.3-32.94m1.74 9.87c9.47 16.16 3.53 36.01 13.6 52.18 0.7 11.91 14.72 7.3 22.27 4.33 1.5-6.91-9.23-5.11-10.87-10.78-8.82-12.16-9.66-27.24-7.23-41.65-5.9-1.48-11.77-3.19-17.77-4.08z"/>
<path fill="#fee8fe" d="m701.08 148.1c6 0.89 11.87 2.6 17.77 4.08-2.43 14.41-1.59 29.49 7.23 41.65 1.64 5.67 12.37 3.87 10.87 10.78-7.55 2.97-21.57 7.58-22.27-4.33-10.07-16.17-4.13-36.02-13.6-52.18z"/>
<path fill="#828282" d="m608.58 153.08c4.76-0.3 9.41 0.4 13.95 2.11-4.02 1.56-12.5-0.11-13.95-2.11z"/>
<path fill="#fefefe" d="m600.72 159.24c3.28 0.36 14.03-2.91 10.3 3.68-1.68 7.26-10.2-3.4-10.3-3.68z"/>
<path fill="#fcfefd" d="m622.81 162.84c15.64 7.8-7.97 12.74 0 0z"/>
<path fill="#adacad" d="m666.36 171.11c14.39 0.7-11.77 8.44 0 0z"/>
<path fill="#9d9d9f" d="m674.41 182.28c9.44-1.86-5.53 6.27 0 0z"/>
<path fill="#ffb1b1" d="m525.16 221.43c6.93-11.27 16.24-22.7 23.84-33.27 10.92 14.15 14.21 33.73 22.73 49.81-15.33 7.53-18.42 28.09-12.49 42.74 6.03 12.42 12.19 24.84 19.76 36.43-21.02 9.64-43.2 17.9-65.67 24.46-2.9 0.13-13.35 1.94-10.74-3.99 16.15-36.43 23.9-76.36 22.57-116.18z"/>
<path fill="#5c6459" d="m1274.7 207.62c11.4-1.68 22.9-0.65 34.3 0.17-11.4 0.18-22.8 0.32-34.3-0.17z"/>
<path fill="#febfc0" d="m1280.5 212.48c18.7-1.58 37.8 0.04 55.5 6.57-15 5.62-31.3 10.23-43.5 21.52-15.4 5.28-31.4 9.43-47.5 12.51 18.7 9.24 43.7-1.75 64.7-3.31-1.6 6.65-10.6 6.4-14.1 11.88-30 10.91-60 20.89-92.1 21.86-34.6-1.57-72.2-4.28-105.5 7.2-9.3-11.2-22-23.81-18.6-39.84 1.3-5.41 8.2-3.28 12-3.14 50 0.04 100.8-5.88 147.5-24.85 13.9-3.39 26.7-11.25 41.6-10.4m-13.9 8c-24.9 4.55-48.8 13.37-73.2 19.95-30.2 15.2-67.3 7.49-98.3 11.42 43.9 7.87 93 12.27 132.9-11.88 13.4-6.6 27.2-12.24 41-17.93 5.6-0.78 1.2-4.24-2.4-1.56z"/>
<path fill="#060101" d="m602.5 215.4c13.07 5.97 27.33 8.08 40.66 13.32-7.26 9.86-23.61 16.28-31.81 3.82-1.33-6.76-7.55-10.66-8.85-17.14z"/>
<path fill="#fedbea" d="m1266.6 220.48c3.6-2.68 8 0.78 2.4 1.56-13.8 5.69-27.6 11.33-41 17.93-39.9 24.15-89 19.75-132.9 11.88 31-3.93 68.1 3.78 98.3-11.42 24.4-6.58 48.3-15.4 73.2-19.95z"/>
<path fill="#ffbfc0" d="m738.47 225.43c93.95 27.44 196.18 38.01 294.33 22.37-6.6 16.25-10.4 34.37-9 52.07-74.79 9.65-154.42 17.44-231.08 8.23-39.38-9.65-81.84-17.66-121.64-9.28 5.9-20 8.71-41.29 16.09-60.7 9.39-3.18 17.88-9.53 27.71-10.92 7.99 2.83 15.84 0.32 23.59-1.77m2.02 10.1c-9.3 3.51-27.56 8.02-22.18 20.88 19.64 11.98 44.25 9.8 66.19 14.2 68.16 3.59 137.83 4.97 204.74-7.55-82.65-6.99-169.5-1.77-248.75-27.53z"/>
<path fill="#fda9f7" d="m519.36 227.34c0.21 60.91-19.32 130.26-68.18 172.87-23.55 13.4-51.18 12.66-77.23 11.85-8.35-4.26-21.49-4.66-23.22-15.9-1.69-11.58-5.47-26.74 4.1-36.05 63.69 6.42 123.85-42.81 137.05-104.18 6.27-11.64 18.89-18.61 27.48-28.59m-28.81 76.19c-27.54 25.1-52.88 52.97-82.51 75.85-11.98 2.89-25.41-8.82-36.88-2.27-6.02 10.29 1.59 25.96 14.28 26.73 20-0.19 38.78-10.37 54.88-21.54 26.06-14.88 34.72-45.16 47.8-70.19 0.25-2.03 5.71-9.44 2.43-8.58z"/>
<path fill="#fa1013" d="m1077.5 234.49c2.3-0.94 4.5 0.76 6.6 1.54-9.6 2.52-11.1 14.65-12.1 22.91 6.6 27.7 29.4 53.6 58.9 56.97 5.2 1.55-1.9 5.76-4.6 5.71-25.9 0.09-49.2-18-59.3-41.58-9.2-14.94-9.4-40.21 10.5-45.55m-11.5 18.78c-4.2 19.7 9 37.09 24.9 46.86-10.6-14.17-19.2-32.12-24.9-46.86z"/>
<path fill="#fedbeb" d="m740.49 235.53c79.25 25.76 166.1 20.54 248.75 27.53-66.91 12.52-136.58 11.14-204.74 7.55-21.94-4.4-46.55-2.22-66.19-14.2-5.38-12.86 12.88-17.37 22.18-20.88z"/>
<path fill="#ffbfc0" d="m559.24 280.71c-5.93-14.65-2.84-35.21 12.49-42.74 5.62 11 15.04 18.68 24.62 25.91-1.71 12.81 1.41 26.43 11.71 35.14-10.25 5.12-18.46 13.63-29.06 18.12-7.57-11.59-13.73-24.01-19.76-36.43z"/>
<path fill="#fb1012" d="m1046.6 241.49c2.2-1.77 7.9-4.03 8.3 0.32-13.7 15.08-10.6 37.26-9.7 55.98 0.5 14.77 12.4 34.62 29.2 28.46-7.3 8.98-21.2 10.05-30.5 3.85-13.4-11.47-18.1-34.28-13.9-48.49-1 12.59 1.8 28.02 12.8 35.56-5-17.72-7.9-36.19-7.1-54.61-1.5 3.91-3.1 7.78-4.5 11.76-1.1-13.18 6.8-23.95 15.4-32.83z"/>
<path fill="#f4ce0f" d="m676.23 243.5c3.75-2.41-0.98 5.92 0.45 6.08-12.41 55.43-27.59 111.32-25.07 168.59-8.88 80.34-30.35 160.82-51.49 237.51-16.29-5.73-21.17-24.48-25.48-39.39-2.6-5.48-1.17-11.37 1.04-16.61 29.88-91.61 19.97-190.5 18.98-284.75 34.01-15.69 49.44-53.03 81.57-71.43m-24.78 39.97c-15.04 12.44-29.44 25.98-44.38 38.68 21.91 54.95 5.27 116.01 7.58 173.12 19.79-52.91 17.75-109.76 29.1-164.56 0.43-15.08 6.56-34.55 7.7-47.24z"/>
<path fill="#889b7d" d="m910.76 249.78c4.69-1.47 9.56-0.36 14.36 0.02-4.79-0.11-9.61 0.01-14.36-0.02z"/>
<path fill="#feacf7" d="m1066 253.27c5.7 14.74 14.3 32.69 24.9 46.86-15.9-9.77-29.1-27.16-24.9-46.86z"/>
<path fill="#fecffe" d="m485.49 256.5c-3.82 20.62-18.96 44.85-33.29 62.68-12 18.14-33.57 25.58-52.98 33.25-15.31 1.14-32.7 6.94-46.49-2.24-18.28-4.45-34.82-20.08-32.54-39.98 49.68-2.21 102.22-10.86 142.92-41.13 7.79-3.57 15.5-7.42 22.38-12.58m-46.99 44.92c-31.13 8.3-63.42 26.86-96.15 18.9-6.96 1.55-12.33 13.25-3.56 16.17 35.56 6.63 71.63-8.63 98.74-30.92 2.01-0.75 5.41-5.92 0.97-4.15z"/>
<path fill="#fdbfc0" d="m1053.4 257.82c-0.4 15.09 9.2 27.04 15.7 39.74-6.7-0.8-12.5 0.75-18.3 3.5-1.4-14.27-5.8-30.18 2.6-43.24z"/>
<path fill="#feadf7" d="m1035.7 262.56c-0.8 18.42 2.1 36.89 7.1 54.61-11-7.54-13.8-22.97-12.8-35.56 0.2-2.48 0.6-4.91 1.2-7.29 1.4-3.98 3-7.85 4.5-11.76z"/>
<path fill="#feef95" d="m651.45 283.47c-1.14 12.69-7.27 32.16-7.7 47.24-11.35 54.8-9.31 111.65-29.1 164.56-2.31-57.11 14.33-118.17-7.58-173.12 14.94-12.7 29.34-26.24 44.38-38.68z"/>
<path fill="#819572" d="m1176.8 287.16c10.5-0.22 21-0.21 31.6 0.13-10.6 1.16-21.1 1.03-31.6-0.13z"/>
<path fill="#bc0104" d="m1112.7 291.59c9.6-0.55 28.4-5.83 26.3 9.93-6 17.23-26 3.28-35.2-3.46-8.3-5.23 4.9-5.7 8.9-6.47z"/>
<path fill="#fdaffd" d="m694.58 298.62c27.04 1.03 53.31 8.9 80.22 11.39 2.13 0 3.96 1.47 4.65 3.46-15.52 55.28-41.67 113-92.47 144.48-5.85 3-10.81 10.11-18.21 8.6-15.8-24.26-13.56-54.62-10.32-82.06 3.64-27.26 1.53-55.71 10.38-82.03 9.52 0.46 17.44 0.18 25.75-3.84m59.93 27.7c-14.51 15.27-30.13 29.7-47.67 41.51-11.83 13.87-25.09 26.74-40.71 36.3 7.86 15.85 30.05 19.62 43.57 8.54 21.72-22.91 32.66-53.2 45.77-81.31 0.48-1.92 2.86-6.65-0.96-5.04z"/>
<path fill="#fee8fe" d="m438.5 301.42c4.44-1.77 1.04 3.4-0.97 4.15-27.11 22.29-63.18 37.55-98.74 30.92-8.77-2.92-3.4-14.62 3.56-16.17 32.73 7.96 65.02-10.6 96.15-18.9z"/>
<path fill="#bd0105" d="m1072.5 302.26c9.2 0.17 5.6 14.49 0.4 18.29-9.6 5.66-18.7-5.16-22-13.45 6.2-4.02 14.7-2.49 21.6-4.84z"/>
<path fill="#fecefe" d="m490.55 303.53c3.28-0.86-2.18 6.55-2.43 8.58-13.08 25.03-21.74 55.31-47.8 70.19-16.1 11.17-34.88 21.35-54.88 21.54-12.69-0.77-20.3-16.44-14.28-26.73 11.47-6.55 24.9 5.16 36.88 2.27 29.63-22.88 54.97-50.75 82.51-75.85z"/>
<path fill="#fcd706" d="m562.46 330.61c9.2-2.84 17.56-7.59 25.81-12.42-3.33 30.3 4.11 60.49 3.85 90.8-4.18 62.22 0.08 126.62-20.58 186.57-1.97 13.25-7.31-4.63-11.37-7.39 4.04-56.83 3.28-116.42 7.21-173.21-17.09 46.74-33.25 93.95-49.1 141.1 20.12-6.29 33.84 12.35 39.7 28.95-21.98-20.29-55.46-13.48-79.16-0.19 17.99-51.58 54.34-96.19 66.48-150.43 7.43-34.33 17.77-68.37 17.16-103.78z"/>
<path fill="#fecefe" d="m754.51 326.32c3.82-1.61 1.44 3.12 0.96 5.04-13.11 28.11-24.05 58.4-45.77 81.31-13.52 11.08-35.71 7.31-43.57-8.54 15.62-9.56 28.88-22.43 40.71-36.3 17.54-11.81 33.16-26.24 47.67-41.51z"/>
<path fill="#e1c102" d="m554.41 335.42c-13.89 37.72-34.98 78.71-57.52 114.47-26.09 37.33-59.06 69.35-95.89 96.04-8.23-5.23-15.55-12.23-23.96-16.8 38.91-27.26 78.59-57.94 98.96-102.12 14.38-24.34 17.77-52.76 25.69-79.44 17.99-2.19 36.07-4.59 52.72-12.15m-19.03 12.97c-7.86 2.1-15.44 5.68-22.16 10.22-10.1 49.81-48.03 87.98-70.22 132.37 41.64-38.31 67.01-89.78 92.75-139.28 0.77-1.12 2.35-4.6-0.37-3.31z"/>
<path fill="#c0a303" d="m556.39 347.36c-4.76 36.28-13.15 78.48-27.02 115.02-9.61 38.59-37.47 69.11-49.04 106.91-5.98 9.91-12.43 20.31-23.02 25.92-13.59 11.41-31.77-0.36-40.79-11.76-4.62-10.21-9.7-21.35-12.11-31.83 43.29-37.34 92.2-73.3 113.65-128.49 14-24.59 27.48-49.81 38.33-75.77m-42.73 117.28c-28.49 34.15-55.07 73.14-92.53 97.48 2.83 11.52 15.89 23.81 28.03 18.13 27.46-29.84 41.66-68.46 60.22-103.86-0.55-4.05 6.12-11.77 4.28-11.75z"/>
<path fill="#f3cd10" d="m535.38 348.39c2.72-1.29 1.14 2.19 0.37 3.31-25.74 49.5-51.11 100.97-92.75 139.28 22.19-44.39 60.12-82.56 70.22-132.37 6.72-4.54 14.3-8.12 22.16-10.22z"/>
<path fill="#febfc0" d="m130.59 360.44c18.65 22.14 52.69 21.38 69.81 45.16 3.24 3.17 4.56 12.02 10.38 10.94 2.03-12.69-15.44-15.41-15.61-27.58 10.1 10.9 24.91 15.79 35.08 26.78 29.59 28.93 36.43 72.46 64.35 102.65-8.19 13.06-17.87 27.58-28.54 39.53-9.51-18.71-20.31-36.92-27.05-56.91-27.3-53.49-99.46-76.42-108.42-140.57m86.61 61.76c-10.75 13.43 1.26 34.77 14.03 43.57 14.71 11.56 25.44 27.41 39.92 38.97-8.09-16.79-24.8-29.59-28.07-48.85-2.74-14.3-14.77-25.58-25.88-33.69z"/>
<path fill="#feef94" d="m567.38 414.96c-3.93 56.79-3.17 116.38-7.21 173.21-1.35-0.45-1.53-2.1-2.19-3.16-5.86-16.6-19.58-35.24-39.7-28.95 15.85-47.15 32.01-94.36 49.1-141.1z"/>
<path fill="#fedbeb" d="m217.2 422.2c11.11 8.11 23.14 19.39 25.88 33.69 3.27 19.26 19.98 32.06 28.07 48.85-14.48-11.56-25.21-27.41-39.92-38.97-12.77-8.8-24.78-30.14-14.03-43.57z"/>
<path fill="#e1c101" d="m655.22 447.31c12.72 40.78 33.33 83.41 58.72 119.64-23.59 12.76-39.17 37.44-39.09 64.42-18.38-6.27-33.92-21.64-50.89-32.04 9.21-50.74 20.28-102.13 31.26-152.02m1.64 30.55c-2.17 21.43-6.08 42.84-6.6 64.35 9.88 15.08 19.73 30.29 28.92 45.84 5.68-8.19 9.65-21.92 21.24-23.1-13.26-29.55-27.96-58.94-43.56-87.09z"/>
<path fill="#927c00" d="m513.66 464.64c1.84-0.02-4.83 7.7-4.28 11.75-18.56 35.4-32.76 74.02-60.22 103.86-12.14 5.68-25.2-6.61-28.03-18.13 37.46-24.34 64.04-63.33 92.53-97.48z"/>
<path fill="#ffe1af" d="m656.86 477.86c15.6 28.15 30.3 57.54 43.56 87.09-11.59 1.18-15.56 14.91-21.24 23.1-9.19-15.55-19.04-30.76-28.92-45.84 0.52-21.51 4.43-42.92 6.6-64.35z"/>
<path fill="#8a987e" d="m929.63 489.65c4.57-0.27 9.12-0.26 13.74-0.35-4.58 0.32-9.2 0.29-13.74 0.35z"/>
<path fill="#fcd706" d="m941.6 493.58c72.2-4.83 142.7 20.14 203.6 57.16 75.1 49.02 134.2 120.68 171 202.04 46.8 89.46 60.4 196.16 130.7 272.32-47.4-29.69-78.4-77.29-109.7-122.28-24.1-49.01-58.3-92.37-85.1-139.94-17.3-32.96-38.8-62.99-65.8-88.15-42.9-39.91-85.6-81.35-137.4-109.68-40.7-23.05-85.09-42.07-132.26-45.61-61.15-6.78-119.37 17.95-173.93 42.49-1.63 1.86-8.14 1.27-4.2-1.36 35.24-18.59 71.14-38.4 110.54-46.41 28.27-14.95 61.07-18.62 92.55-20.58m-11.39 6.36c12.71 7.2 35.09 8.02 51.26 13.61 47.13 8.11 90.93 29.29 130.33 55.6 63.2 54.92 115 121.23 165.6 187.51 4.9 1.18 5.1-8.07 4-10.86-7.4-20.21-17-39.6-24.4-59.85-17-58.35-66.7-99.35-117.5-128.46-64.7-33.27-135.5-59.19-209.29-57.55z"/>
<path fill="#fcf1b3" d="m930.21 499.94c73.79-1.64 144.59 24.28 209.29 57.55 50.8 29.11 100.5 70.11 117.5 128.46 7.4 20.25 17 39.64 24.4 59.85 1.1 2.79 0.9 12.04-4 10.86-50.6-66.28-102.4-132.59-165.6-187.51-39.4-26.31-83.2-47.49-130.33-55.6-16.17-5.59-38.55-6.41-51.26-13.61z"/>
<path fill="#fb2f33" d="m303.35 514.17c4.94-4.2 9.28 2.38 9.53 6.72-11.92 26.23-31.29 48.34-53 66.93-8.43 8.25-25.25 12.12-33.8 2.19 14.15 4.08 32.41-2.58 40.37-14.67-13.43 3.32-36.57 11.72-42.65-6.6-1.75 3.85-2.39 8.11-2.84 12.3-5.85-11.65 5.86-25.88 16.07-31.95-1.89 7.01-6.22 15.37-1.08 21.95 11.37 5.68 24.34-1.37 32.01-10.11 16.54-11.62 22.22-32.27 35.39-46.76z"/>
<path fill="#ceb528" d="m750.02 567.95c58.55-27.72 122.89-52.28 188.83-41.74 108.25 28.67 206.95 94.46 271.25 186.73 66.2 86.96 110.5 188.74 182.3 271.62 37.1 40.14 84.4 70.34 136 88.04 18.4 5.1 37 12.5 56.5 9.8-9.8 22.5-25.5 46.8-50.6 53.9-84.4 32.9-175.4 56-245.6 116.4-21.4 14.6-40.1 32.5-57.4 51.6-31.8 26.1-51.7 63.8-77 96-14.1 31.1-28.3 62.5-34.6 96.4-12.3 54.1-23.5 114.7-71.2 149.8-6.3 10.5-13.8-2.4-19.7-6.4-33.94-25.2-51.74-64.8-73.02-100.1 0.97-1.9 2.11-4 4.11-5 7.82 17.2 21.02 31.2 28.56 48.6 11.85 22.6 31.25 46.1 56.05 54.2 21.9-34.5 46.8-70.1 55.5-110.6-33-2.8-71.9 5.1-99.3-18.9-30.51-38.8-46.91-86-67.94-130.1-17.27-45.7-35.47-91.6-44.2-139.8-1.81-5.5-0.82-11.1 0.34-16.6 12.95-39.6 26.77-79 40.4-118.5 22.84-96.1 7.23-199.08-36.28-287.33-17.76-40.37-48.38-73.04-77.7-105.25-38.66-33.19-84.9-57.59-131.82-77.52-5.48-25.69 13.14-49.19 33.62-62.23 10.5-3.36 22.7 2.11 32.9-3.02m118.61-18.43c-42.4 5.09-83.77 15.82-124.68 27.39-11.79 2.52-17.34 17.49-7.81 25.98 23.19 22.35 56.84 27.63 87.34 32.72 43.86 1.67 76.44 35.39 104.58 65.34-19.51-28.46-41.61-55.22-61.64-83.31 53.61 10.12 116.53 34.68 132.04 92.85 28.54 66.26 67.34 127.96 107.44 187.51-20.2-44.65-41.4-89.85-50.4-138.48-4.1-33.75-11.8-67.9-10.9-101.54 37.2 72.11 74.8 144.99 98.4 223.01 11.9 28.64 39.2 45.78 64.3 61.7 33.8 17.78 69.3 32.86 106.6 41.4-27.2-22.2-48.5-51.23-66.9-81.14-41.2-74.78-73.9-154.14-119.4-226.52-17.3-32.74-41.2-62.4-72.9-82.15-56.02-32.23-121-51.09-186.07-44.76m8.48 196.46c32.79 59.86 53.62 125.52 71.81 191.1 5.09 26.06 14.15 51.88 11.02 78.82-2.94 53.6-14.72 106.2-26.63 158.5-3.76 5.5 2.68 5.4 3.28 2.1 21.11-42.9 41.15-86.9 51.09-133.9 0.55-17.4 5.98-33.9 9.03-50.67 3.59-9.34 15.89-3.53 20.89 1.5 20.1 16.17 46.5 17.87 70.4 24.57 39.3 6.4 79.4 13.7 119.2 13.4-64.8-19.2-132.9-45.92-175-101.64-36.52-65.7-87-122.23-141.64-173.31-3.94-4.03-8.06-8.6-13.45-10.47m500.89 271.12c15 19.5 31.5 38.9 40.8 62.1 4.2 13.9 10.7 33.3-2.8 44-27.7 11.9-53.2 29.3-75 49.8 27.8-13.4 57.3-22.9 87.4-29.6 49.8-5.2 99.3-19.9 141.9-46.5-17.8-2.9-36.4 1.1-54.2-1.9-50.6-16.7-93.2-50.6-138.1-77.9m-334.7 59.8c-28.1 69.4-40.1 153.1-6.1 222.9 27.2 43.6 47.8 92.8 54.8 143.1 3.5-36.1 6.1-73.5 22.1-106.7 12.3-19.3 22.1-40.1 30.9-61.2 7.4-18.1 27.2-23.8 42.1-33.9 37.3-22.3 75.7-43 112-67-31 7.8-61.4 17.6-93 23-23.2 3.2-48.9 11.7-71.1-0.1-46.3-22.7-87.6-67.6-91.7-120.1z"/>
<path fill="#fb2f33" d="m320.03 531.23c12.95 9.63 9.79 31.71 4.67 46.45-8.58 28.73-25.62 58.34-53.89 71.44-8.5 2.58-18.09 0.39-25.05-4.82-8.52-14.12-1.83-33.23 8.41-44.16-2.67 8.6-4.91 27.12 9.2 24.14 27.26-2.8 37.77-31.1 48.72-52.1 8.74-11.65 7.17-27.26 7.94-40.95m-24.73 85.19c-15.32 5.42-30.03 18.96-47.21 12.56-3.94 4.33-2.8 13.16 4.23 12.92 15.65-1.95 30.63-9.68 42.44-20.07 1.67-0.89 3.04-5.46 0.54-5.41z"/>
<path fill="#fdbfc0" d="m314.51 532.87c2.98 25.86-8.98 51.56-25.59 71.02-5.37-5.64-10.32-12.37-14.49-19.09 14.36-15.48 27-34.51 40.08-51.93z"/>
<path fill="#ceb403" d="m373.48 533.52c8.41 0.73 15.7 10.3 20.54 17.31-13.58 6.69-26.02 15.42-39.06 23-4.19-6.48-8.66-13.8-12.8-20.71 9.44-7.8 18.62-17.59 31.32-19.6z"/>
<path fill="#bc0105" d="m249.28 543.18c6.21 2.77 7.31 12.93 10.72 18.7-5.43 3.6-17.54 10.14-22 1.91 1.97-7.52 7.1-14.08 11.28-20.61z"/>
<path fill="#ffe1af" d="m868.63 549.52c65.07-6.33 130.05 12.53 186.07 44.76 31.7 19.75 55.6 49.41 72.9 82.15 45.5 72.38 78.2 151.74 119.4 226.52 18.4 29.91 39.7 58.94 66.9 81.14-37.3-8.54-72.8-23.62-106.6-41.4-25.1-15.92-52.4-33.06-64.3-61.7-23.6-78.02-61.2-150.9-98.4-223.01-0.9 33.64 6.8 67.79 10.9 101.54 9 48.63 30.2 93.83 50.4 138.48-40.1-59.55-78.9-121.25-107.44-187.51-15.51-58.17-78.43-82.73-132.04-92.85 20.03 28.09 42.13 54.85 61.64 83.31-28.14-29.95-60.72-63.67-104.58-65.34-30.5-5.09-64.15-10.37-87.34-32.72-9.53-8.49-3.98-23.46 7.81-25.98 40.91-11.57 82.28-22.3 124.68-27.39z"/>
<path fill="#927c01" d="m396.39 555.35c7.84 12.24 10.8 32.05 24.91 41.36 9.13 7.39 22.83 14.23 34.06 7.53-12.24 21.77-32.41 37.46-49.41 54.43-35.69-7.79-51.04-47.33-49.14-79.61 13.85-6.77 27.02-14.8 39.58-23.71m0.56 27.97c-10 5.29-20.42 10.11-31.58 12.37-3.68 24.76 17.99 44.41 38.33 53.2 3.8-13.37 11.44-25.97 14.02-39.43-6.93-8.26-12.08-21.03-20.77-26.14z"/>
<path fill="#febfc0" d="m335.03 558.12c19.63 14.71 14.56 41.95 20.92 62.81 7.91 20.48 23.91 38.27 45.36 44.81-13 6.65-30.82 14.2-44.02 3.94-15.95-15.65-32.39-31.27-45.01-49.81 10.43-19.46 18.09-40.17 22.75-61.75z"/>
<path fill="#feaefb" d="m223.8 568.74c6.08 18.32 29.22 9.92 42.65 6.6-7.96 12.09-26.22 18.75-40.37 14.67-3.45-1.44-5.49-5.31-5.12-8.97 0.45-4.19 1.09-8.45 2.84-12.3z"/>
<path fill="#f3ce11" d="m517.73 579.43c21.34-3.9 41.83 10.45 48.08 30.45-6.84 19.35-13.86 39.05-24.06 56.88-27.75-11.8-56.3-34.46-88.45-24.42-13.1 1.94-22.84 12.14-35.75 14.05 12.67-16.9 31.49-28.67 42.92-46.93 10.24-21.76 36.64-24.61 57.26-30.03m-5.05 13.04c-19.45 4.93-30.76 25.12-44.47 37.59 19.57 2.88 40.35 11.19 57.42 22.58 4.22 0.99 8.2-1.42 9.91-5.16 6.71-11.95 12.63-25.18 13.25-39.03-8.83-9.8-22.26-18.41-36.11-15.98z"/>
<path fill="#635717" d="m396.95 583.32c8.69 5.11 13.84 17.88 20.77 26.14-2.58 13.46-10.22 26.06-14.02 39.43-20.34-8.79-42.01-28.44-38.33-53.2 11.16-2.26 21.58-7.08 31.58-12.37z"/>
<path fill="#bd0105" d="m270.5 587.38c6.64 2.23 10.29 12.65 16.11 17.87-5.7 6.9-17.49 20.44-28.34 13.12-4.12-11.84 1.53-24.95 12.23-30.99z"/>
<path fill="#feef95" d="m512.68 592.47c13.85-2.43 27.28 6.18 36.11 15.98-0.62 13.85-6.54 27.08-13.25 39.03-1.71 3.74-5.69 6.15-9.91 5.16-17.07-11.39-37.85-19.7-57.42-22.58 13.71-12.47 25.02-32.66 44.47-37.59z"/>
<path fill="#feaefa" d="m295.3 616.42c2.5-0.05 1.13 4.52-0.54 5.41-11.81 10.39-26.79 18.12-42.44 20.07-7.03 0.24-8.17-8.59-4.23-12.92 17.18 6.4 31.89-7.14 47.21-12.56z"/>
<path fill="#f4ce0f" d="m569.23 620.02c2.05 17.07 10.86 37.06 29.27 41.21-6.7 15.96-9.07 34.39-19.71 48.93-6.8-15.26-16.83-28.96-30.54-38.55 3.25-18.41 16.76-33.26 20.98-51.59z"/>
<path fill="#beb774" d="m684.02 639.91c31.1 11.99 59.7 29.22 88.74 45.33 74.33 47.43 117.17 128.24 146.03 208.93 16.99 64.19 21.46 132.83 7.21 198.03-16.4 61-39.38 120.1-62.25 179.1-20.68-27.3-42.93-53.1-66.84-77.6 39.74-108.9 45.73-229.06 19.12-341.72-7.61-26.01-12.44-53.26-25.8-77.21-23.52-41.42-44.03-87.45-83.21-116.79-7.21-6.6-18.07-9.11-23-18.07m156.05 150.08c11.56 27.95 21.07 56.97 24.74 87.16 16.08 84.05 15.05 170.15 15.78 255.25 15.39-55.3 27.39-111.5 33.09-168.69 2.14-27.28-9.87-52.51-18.87-77.53-16.34-33.03-32.53-66.65-54.74-96.19z"/>
<path fill="#d09264" d="m688.82 652.28c22.12 13.29 31.61 38.63 45.29 57.66 29.85 80.3 10.51 168.41-16.42 246.74-3.81 19.97-13.3 37.54-24.09 54.52-4.53-27.91-4.63-56.82-2.08-84.99-6.55-40.66-15.01-81.12-20.37-121.96 4.68-12.54 9.6-25.25 16.09-37.06 9.03-37.42 13.79-77.52 1.58-114.91z"/>
<path fill="#ba714a" d="m688.01 673.06c11.63 63.07-17.85 125.75-49.11 179.8-26.04 35.16-60.21 63.12-95.37 88.69-23.57 11.93-40.86 33.47-65.54 43.43-31.97 17.22-63.86 34.82-96.86 49.92-7.91-12.2-18.51-22.3-27.12-33.9 4.41-1.61 1.38-1.97-2.71-1.93-3.32-4.63-6.88-9.07-10.76-13.22 61.56-12.14 119.22-38.64 174.52-67.8 40.1-16.08 73.45-45.22 100.77-78.22 27.44-22.35 44.38-53.98 62.43-83.72 7.83-26.9 10.84-55.09 9.75-83.05z"/>
<path fill="#cb9e69" d="m723.94 681.07c64.47 71.22 94.02 167.24 101.41 261.62 7.88 83.21-5.17 168.01-33.37 246.51-48.26-43.2-87.86-100.5-96.97-165.9 43.26-86.1 72.55-183.37 56.17-280.5-3.82-22.5-17.21-41.74-27.24-61.73z"/>
<path fill="#bfaa35" d="m877.11 745.98c5.39 1.87 9.51 6.44 13.45 10.47 54.64 51.08 105.12 107.61 141.64 173.31 42.1 55.72 110.2 82.44 175 101.64-39.8 0.3-79.9-7-119.2-13.4-23.9-6.7-50.3-8.4-70.4-24.57-5-5.03-17.3-10.84-20.89-1.5-3.05 16.77-8.48 33.27-9.03 50.67-9.94 47-29.98 91-51.09 133.9-0.6 3.3-7.04 3.4-3.28-2.1 11.91-52.3 23.69-104.9 26.63-158.5 3.13-26.94-5.93-52.76-11.02-78.82-18.19-65.58-39.02-131.24-71.81-191.1z"/>
<path fill="#d5cea0" d="m840.07 789.99c22.21 29.54 38.4 63.16 54.74 96.19 9 25.02 21.01 50.25 18.87 77.53-5.7 57.19-17.7 113.39-33.09 168.69-0.73-85.1 0.3-171.2-15.78-255.25-3.67-30.19-13.18-59.21-24.74-87.16z"/>
<path fill="#b37a4d" d="m656.98 832.02c7.62-7.71 9.42-19.25 14.17-27.77 5.36 40.84 13.82 81.3 20.37 121.96-2.55 28.17-2.45 57.08 2.08 84.99-16.49 30.2-32.34 62.2-53.56 89.8-40.07 46.2-79.44 94-125.07 134.7-32.61-72.1-80.81-135.8-129.4-197.8 100.26-52.68 208.88-106.55 271.41-205.88z"/>
<path fill="#d08551" d="m33.99 985.67c51.95 3.43 104.28 13.5 156.74 14.43 50.53 3.9 100.12-7.24 149.81-14.25 3.88 4.15 7.44 8.59 10.76 13.22-31.07 6.33-62.79 8.43-94.11 13.33-46.58 1.7-94.07 9.7-140.08-1.5 18.05 11.2 33.13 28.4 37.16 49.9 5.83 31 0.99 62.9 3.02 94.3 28.41-44.3 64.99-85.4 112.56-109.2 27.44-16.1 55.06-32 84.16-44.9 8.61 11.6 19.21 21.7 27.12 33.9-66.39 30.8-134.57 63-188.82 112.4-12.71 15.3-26.41 29.7-39.41 44.8-19.01-53.8-16.5-116.7-53.55-163.5-16.16-21-40.85-34.18-65.36-42.93z"/>
<path fill="#9b5e3f" d="m21.58 988.27c45.29 8.37 82.46 45.93 97.65 88.53 12.9 58.9 26.86 117.7 39.84 176.2-28.08-77.6-125.47-107.6-146.48-189.6-7.67-24.5-9.95-55.2 8.99-75.13z"/>
<path fill="#ffe1af" d="m351.3 999.07c4.09-0.04 7.12 0.32 2.71 1.93-29.1 12.9-56.72 28.8-84.16 44.9-47.57 23.8-84.15 64.9-112.56 109.2-2.03-31.4 2.81-63.3-3.02-94.3-4.03-21.5-19.11-38.7-37.16-49.9 46.01 11.2 93.5 3.2 140.08 1.5 31.32-4.9 63.04-7 94.11-13.33z"/>
<path fill="#ffe1af" d="m1378 1017.1c44.9 27.3 87.5 61.2 138.1 77.9 17.8 3 36.4-1 54.2 1.9-42.6 26.6-92.1 41.3-141.9 46.5-30.1 6.7-59.6 16.2-87.4 29.6 21.8-20.5 47.3-37.9 75-49.8 13.5-10.7 7-30.1 2.8-44-9.3-23.2-25.8-42.6-40.8-62.1z"/>
<path fill="#af8555" d="m687.74 1033.8c2.54-3 3.83-9.3 7.27-10.5 9.11 65.4 48.71 122.7 96.97 165.9-18.26 58.9-54.87 110.2-82.94 164.8-15.26 35.6-38.26 67.5-60.07 99.2-38.51-33.6-74.45-70.4-107.63-109.2 2.25-36.2-8.36-72.4-25.14-104.2 67.52-59 126.53-128.4 171.54-206z"/>
<path fill="#d09263" d="m161.35 1190.3c57.06-72.5 140.84-117 224.22-152.4 48.59 62 96.79 125.7 129.4 197.8-27.92 23.1-56.03 46.1-86.63 65.6-37.87 32.3-73.13 67.4-113.16 96.9-23.5 22.4-47.86 51.1-54.8 82.4-15.6-37.3-36.81-71.4-59.21-104.8-20.58-53.3-31.42-109.9-44.5-165.5-2.09-6.8-1.2-15.4 4.68-20m110.21-54.8c-38.06 7-84.12 28.9-89.54 71.7 5.09 44.5 13.58 88.8 24.52 132.2 8.97 23.3 14.08 50.1 33.69 67.3 9.45 10 26.04 7.7 35.65-0.9 33.7-25.9 50.46-69 87.43-91.5 21.2-12.9 43.27-27 64.49-38.5-52.22-4.6-110.58-4.6-160.69-26.9-14.35-6.5-30.84-19.7-26.98-37.5 0.9-27.9 12.79-55.1 34.28-73.1 4.05-1.9-0.89-4.3-2.85-2.8z"/>
<path fill="#ffe1af" d="m1043.3 1076.9c4.1 52.5 45.4 97.4 91.7 120.1 22.2 11.8 47.9 3.3 71.1 0.1 31.6-5.4 62-15.2 93-23-36.3 24-74.7 44.7-112 67-14.9 10.1-34.7 15.8-42.1 33.9-8.8 21.1-18.6 41.9-30.9 61.2-16 33.2-18.6 70.6-22.1 106.7-7-50.3-27.6-99.5-54.8-143.1-34-69.8-22-153.5 6.1-222.9z"/>
<path fill="#e1c100" d="m271.56 1135.5c1.96-1.5 6.9 0.9 2.85 2.8-21.49 18-33.38 45.2-34.28 73.1-3.86 17.8 12.63 31 26.98 37.5 50.11 22.3 108.47 22.3 160.69 26.9-21.22 11.5-43.29 25.6-64.49 38.5-36.97 22.5-53.73 65.6-87.43 91.5-9.61 8.6-26.2 10.9-35.65 0.9-19.61-17.2-24.72-44-33.69-67.3-10.94-43.4-19.43-87.7-24.52-132.2 5.42-42.8 51.48-64.7 89.54-71.7z"/>
<path fill="#a39d67" d="m749.68 1292.7c19.96-30.9 33.55-65.1 47.23-99 23.91 24.5 46.16 50.3 66.84 77.6-23.92 58-38.43 119.5-40.07 182.4-0.89 58.2 9.49 116.3 24.14 172.5-66.84-52.5-130.42-109.6-193.67-166.4 33.23-54.9 69.5-108.1 95.53-167.1z"/>
<path fill="#bfaa35" d="m879.85 1317.2c-4.31-31.7-7.06-66.4 9.05-95.4-1.16 5.5-2.15 11.1-0.34 16.6 8.73 48.2 26.93 94.1 44.2 139.8 21.03 44.1 37.43 91.3 67.94 130.1 27.4 24 66.3 16.1 99.3 18.9-8.7 40.5-33.6 76.1-55.5 110.6-24.8-8.1-44.2-31.6-56.05-54.2-7.54-17.4-20.74-31.4-28.56-48.6-2 1-3.14 3.1-4.11 5-24.54-39.7-40.15-84.1-55.97-127.8-7.54-31.5-18.78-62.3-19.96-95z"/>
<path fill="#cb9e69" d="m350.13 1376.1c51.76-49.6 109.4-92.5 166.07-136.3 16.78 31.8 27.39 68 25.14 104.2 33.18 38.8 69.12 75.6 107.63 109.2-32 44.9-56.21 94.7-82.95 142.8-14.59 35.7-23.32 75.4-31.88 111.7-10.64-6.1-22.64-3.1-32.9-10.8-27.76-23.6-60.53-40.3-88.24-63.9-31.91-23.8-59.46-53-91.97-76-17.46-24.2-44.47-42.5-55.82-70.9 16.3-44.3 49.48-79.8 84.92-110m112.51-50.5c-51.75 27.3-101.16 60-145.55 98.5-11.23 12.9-27.29 26.1-26.16 44.9 11.41 23.8 32.13 41.2 49.48 60.6 49.05 46.2 98.5 92.4 153.5 131.5 9.04 8 22.37 1.5 26.95-8.3 15.77-30.3 22.26-64.2 32.44-96.5 9.14-22.5 20.85-43.8 29.39-66.6-33.59 21.3-64.77 49.2-104.12 59.8-14.25 6.2-32.31 4.7-43.45-6.6-9.62-16.2-13.54-35.1-17.82-53.2-14.2-56.6 8.07-116.1 44.55-159.8 1.49-1.3 5.02-6.4 0.79-4.3z"/>
<path fill="#9e9142" d="m868.09 1273.3c-0.5-3.4 5.79-13.1 4-2.2-0.67 49.7 7.96 99.7 25.77 146.1 7.47 36.2 24.39 69.5 39.6 102.8 0 13 7.88 24.1 11.31 36.2 17.87 40.2 34.68 81.5 61.43 116.8-21.41 10.4-40.84 25.6-63.93 31.9-30.68-24-62.24-47.2-91.88-72.7-0.16 1.5-0.48 4.4-0.64 5.8-15.83-63.7-23.96-129.2-25.73-194.9 4.54-58.3 18.61-115.4 40.07-169.8z"/>
<path fill="#e1c100" d="m462.64 1325.6c4.23-2.1 0.7 3-0.79 4.3-36.48 43.7-58.75 103.2-44.55 159.8 4.28 18.1 8.2 37 17.82 53.2 11.14 11.3 29.2 12.8 43.45 6.6 39.35-10.6 70.53-38.5 104.12-59.8-8.54 22.8-20.25 44.1-29.39 66.6-10.18 32.3-16.67 66.2-32.44 96.5-4.58 9.8-17.91 16.3-26.95 8.3-55-39.1-104.45-85.3-153.5-131.5-17.35-19.4-38.07-36.8-49.48-60.6-1.13-18.8 14.93-32 26.16-44.9 44.39-38.5 93.8-71.2 145.55-98.5z"/>
<path fill="#bfb774" d="m556.45 1657.3c18.53-72.2 57.17-135.9 97.7-197.5 63.25 56.8 126.83 113.9 193.67 166.4 7.68 34.2 16.23 68.8 32.23 100-105.6 25.5-220.53 30.5-322.94-10.4-5.44-1.1-11.68-0.6-16.08-4.6-0.71-19.2 8.48-36.6 15.42-53.9m80-114.8c-26.48 36.7-54.06 76.3-62.13 121.9-3.14 18 12.98 30.6 29.4 31.9 72.03 15.5 145.81 19.9 219.08 25-3.56-27.4-6.33-54.9-9.89-82.3-36.34 15.3-73.5 32.5-113.58 34-25.94-3.6-43.82-27.2-53.43-49.9-11.23-25.3-16.74-54.5-8.2-81.5-0.31 0.2-0.94 0.7-1.25 0.9z"/>
<path fill="#bea935" d="m948.77 1556.2c-3.43-12.1-11.31-23.2-11.31-36.2 4.72 11.4 15.58 20.4 16.48 33.1 26.69 35 46.76 76 81.66 104.1-7.6 4.8-17.7 9.6-25.4 15.8-26.75-35.3-43.56-76.6-61.43-116.8z"/>
<path fill="#d5cea0" d="m636.45 1542.5c0.31-0.2 0.94-0.7 1.25-0.9-8.54 27-3.03 56.2 8.2 81.5 9.61 22.7 27.49 46.3 53.43 49.9 40.08-1.5 77.24-18.7 113.58-34 3.56 27.4 6.33 54.9 9.89 82.3-73.27-5.1-147.05-9.5-219.08-25-16.42-1.3-32.54-13.9-29.4-31.9 8.07-45.6 35.65-85.2 62.13-121.9z"/>
<path fill="#bfaa35" d="m853.75 1638c0.16-1.4 0.48-4.3 0.64-5.8 29.64 25.5 61.2 48.7 91.88 72.7-18.71 5-36.27 12.9-54.7 18.8-3.53 1-7.21-1.7-8.44-4.9-14.85-24.8-21.61-53.3-29.38-80.8z"/>
<path d="m561.12 0h37.19c45.34 11.48 94.01 26.11 124.93 63.75 8.99 9.09 9.63 22.14 11.11 34.01-0.11 8.1-1.2 16.34 0.27 24.37 0.23 10.01 8.36 15.81 16.26 20.02-2.64 8.86-12.93-4.61-14.32 4.35-0.93 18.36 5.18 39.13 21.45 49.48 7.4 2.57 15.39 2.89 23.09 4.09-6.59 11.66-23.3 12.47-31.19 22.91 18.37 8.27 39.78 4.92 57.49 15.02 34.1 6.09 68.78 9.57 103.36 11.78 4.75 0.03 9.57-0.09 14.36 0.02 34.66 2.99 68.83-6.35 103.28-6.38 12-1.65 21.5-14.45 34.2-8.73 12.6-12.03 33.6-4.76 44.8 6.43 18.7 4.37 37.1-3.23 55.8-2.81 38.7-4.81 73.4-24.03 111.5-30.69 11.5 0.49 22.9 0.35 34.3 0.17 11.1 1.71 21.7 5.93 33.1 5.02 4.8-0.39 14.3 0.05 13.6 7.02-19.2 5.92-38.9 11.33-55.4 22.89 6.8 0.84 15.4 0.19 19 7.36-12.8 14.73-33.6 16.96-48.4 27.81-20.8 1.55-40.7 13.2-62.5 9.4-10.6-0.34-21.1-0.35-31.6-0.13-11.9-0.11-23.9-0.9-35.5 1.82 3.4 12.73-1.3 28.03-10.7 36.81-16.5 9.35-31.7-5.76-45.4-12.78-8.2 8.11-9.3 27.56-24.4 25.89-17.7 2.27-29.5-12.98-34.8-27.83-1.6-6.94-10.4-2.92-15.2-3.36-74.85 7.26-150.82 16.01-225.68 3.37-4.32 30.44-19.39 57.74-31.33 85.69-20.48 31.34-46.7 59.86-80.63 76.65 10.48 32.22 26.43 65.17 48.89 90.36 65.07-33.78 132.45-70.56 207.58-74.13 4.54-0.06 9.16-0.03 13.74-0.35 33.67 0.29 67.43 2.32 100.43 9.82 33.2 10.4 65.2 24.97 94.6 43.45 27.7 19.96 61.2 34.16 81.6 62.41 61 60.6 103.2 137.38 132.4 217.68 24.3 62.21 38.9 130.49 83.4 182.54 21.7 23.9 48.2 44.8 79.9 53 22.2 18.1 52.1 13.2 77.3 20.7v1.8c-5.7 18.3-19 33-30.3 48-32.7 17.1-68.3 27.9-101.9 43.2-99.5 25.4-188.1 87.1-252.3 166.6-47.2 43.6-70.8 106.1-85.8 167.2-7 53.5-25.3 110.3-68.9 145.1-55.08 39.2-116.94 69.2-183.15 83.8-37.03 11.2-76.42 10.8-114.48 16.4h-74.2c-12.14-4.2-25.35 0-37.7-3.2-39.4-9.3-80-17.1-116.14-36-21.29-3.1-39.14-15.3-55.79-28.2-56.01-33.6-103.4-78.8-152.24-121.7-14.89-9.4-23.93-24.8-35.3-37.7-29.56-34.3-53.67-73.1-73.13-113.9-21.29-32.5-29.61-70.9-40.08-107.8-13.53-22.7-17.1-50.5-32.2-72.9-18.78-28.6-45.28-50.7-69.12-74.9-34.48-30.2-69.19-68.6-70.27-117.1v-11.2c1.7-16.4 5.66-34.19 17.34-46.52 50.03 1.71 100.11 9.6 150.06 14.75 151.98 7.77 307.76-39.2 425.21-137.02 23.02-27.05 48.22-52.29 67.99-81.98 20.56-23.24 16.94-56.42 20.96-85.07-0.11-17.07 1.03-35.53-5.39-49.84-20.13-8.9-35.75-25.03-54-36.73-15.2 39.07-18.9 82.86-43.4 118.21-11.56-35.76-45.59-55.87-79.05-67.88-18.61-10.54-42.28-11.37-60.23 1.23-25.08 4.4-44.43 22.11-69.26 26.25-25.22-12.38-45.89-32.95-60.34-56.86-16.37 17.24-40.57 42.16-65.83 25.16-13.2-15.02-4.02-35.05 3.57-50.34-18.3 6.2-39.97-13.15-31.45-31.49 3.57-16.23 20.12-23.47 31.2-33.99-7.87-36.84-36.97-63.56-63.34-88.36-29.89-23.66-54.25-56.44-59.96-94.88-2.2-2.58 3.62-9.95 5.15-5.23 11.2 23.47 37.55 31.67 59.34 42.04 0.43-4.9 0.49-9.81 0.8-14.71 13.03 25.16 47.5 30.82 58 58.47 19.59 25.18 28.27 58.14 51.64 80.26 7.8-12.37 18.66 0.56 19.25 10.03 11.46 6.03 14.88 19.88 18.95 27.97 22.05-19.91 49.42-32.63 72.85-50.81 42.66-35.16 72.55-85.46 82.02-140.06-14.38 19.38-27.72 42.54-51.82 51.22-29.27 9.46-65.16 14.58-91.45-4.91-11.48-14.06-6.37-35.39 1.05-50.35-22.51-1.94-38.46-22.67-38.18-44.63-20.97-1.94-43.83-6.8-56.72-25.31-19.28-26.67-17.91-76.13 15.97-89.88-10.09 15.67-5.07 34.69 8.72 46.22 22.22 17.92 52.84 10.26 76.02-1.62 49.5-53.92 73.17-124.84 117.56-182.51 21.08-29.16 52.5-49.92 87.89-57.23m-50.34 31.36c-4.24 1.01-7.87 4.05-10.76 7.17-42.54 33.79-63.1 85.6-88.83 131.69-19.47 30.43-35.05 70.23-73.06 80.87-29.64 16.45-81.18-2.63-78.28-40.19-10.75 9.33-11.19 25.56-9.6 38.75-0.76 24.97 21.56 42.52 42.26 51.79 89.17 11.19 182.83-25.44 238.37-96.53 24.1-27.5 26.23-65.76 36.77-99.24 8.1-24.37 25.16-50.46 53.21-51.7-1.79 30.59 21.31 53.76 47.32 65.85 18.78 14.7 43.58 11.26 65.7 15.35-8.76-19.19-1.33-42.36-11.92-61.12-17.8-21.85-40.11-41.64-68.15-49.87-13.15-4.03-24.61-13.67-39-12.85-35.21-3.79-74.68-2.51-104.03 20.03m103.29 31.13c-5.68 3.61-14 0.69-18.41 6.28-32.35 29.24-24.98 77.61-43.47 114.28 15 14.95 12.7 40.47 27.74 56.04 5.74 4.88 10.78 10.61 17.14 14.73 9.53 11.68 27.19 2.56 34.35-7.41 14.79-18.98 37.62-32.78 45.34-56.58-8.44 3.15-19.28 2.49-22.49-7.42-4.44-15.12 17.56-22.26 26.82-12.35 2.75-6.55 11.53-21.76-3.99-16.22-20.54-3.03-25.68 21.04-29.39 35.85-2.78 5.55-1.48 18.91-10.48 18.31 2.76-14.87 7.05-29.53 13.53-43.23 5.9-14.61 24.51-16.79 38.31-17.1 2.14-3.42 7.08-10.78 0.51-12.28-29.66-11.3-63.62-27.19-72.51-60.65-2.69-2.68 1.77-12.7-3-12.25m85.27 75.74c-10.94 7.76-6.7 22.12-10.3 32.94 5.35 0.32 4.79-8.38 10.59-5.74-2.65 5.88 5.17 12.77-4.77 13.51-14.01 1.38-12.96 16.35-16.8 26.86 25.24 17.48 65.68 22.42 87.7-0.52-27.65-6-40.17-38.23-31.75-63.53-11.58-0.83-23.32-1.44-34.67-3.52m-32.98 32.88c-11.77 8.44 14.39 0.7 0 0m8.05 11.17c-5.53 6.27 9.44-1.86 0 0m-149.25 39.15c1.33 39.82-6.42 79.75-22.57 116.18-2.61 5.93 7.84 4.12 10.74 3.99 22.47-6.56 44.65-14.82 65.67-24.46 10.6-4.49 18.81-13 29.06-18.12-10.3-8.71-13.42-22.33-11.71-35.14-9.58-7.23-19-14.91-24.62-25.91-8.52-16.08-11.81-35.66-22.73-49.81-7.6 10.57-16.91 22-23.84 33.27m147.16-10.27c-9.04 10.62-18.24 21.18-28.92 30.23-9.94 8.87-17.63 23.5-32.33 24.36-19.96-4.66-8.12 24.21 0.79 29.2 9.32-7.63 19.83-14.8 24.92-26.13 19.03-16.99 36.49-39.58 63.57-42.88-9.62-4.51-19.48-9.18-28.03-14.78m608.18 1.32c-14.9-0.85-27.7 7.01-41.6 10.4-46.7 18.97-97.5 24.89-147.5 24.85-3.8-0.14-10.7-2.27-12 3.14-3.4 16.03 9.3 28.64 18.6 39.84 33.3-11.48 70.9-8.77 105.5-7.2 32.1-0.97 62.1-10.95 92.1-21.86 3.5-5.48 12.5-5.23 14.1-11.88-21 1.56-46 12.55-64.7 3.31 16.1-3.08 32.1-7.23 47.5-12.51 12.2-11.29 28.5-15.9 43.5-21.52-17.7-6.53-36.8-8.15-55.5-6.57m-542.03 12.95c-7.75 2.09-15.6 4.6-23.59 1.77-9.83 1.39-18.32 7.74-27.71 10.92-7.38 19.41-10.19 40.7-16.09 60.7 39.8-8.38 82.26-0.37 121.64 9.28 76.66 9.21 156.29 1.42 231.08-8.23-1.4-17.7 2.4-35.82 9-52.07-98.15 15.64-200.38 5.07-294.33-22.37m-219.11 1.91c-8.59 9.98-21.21 16.95-27.48 28.59-13.2 61.37-73.36 110.6-137.05 104.18-9.57 9.31-5.79 24.47-4.1 36.05 1.73 11.24 14.87 11.64 23.22 15.9 26.05 0.81 53.68 1.55 77.23-11.85 48.86-42.61 68.39-111.96 68.18-172.87m558.14 7.15c-19.9 5.34-19.7 30.61-10.5 45.55 10.1 23.58 33.4 41.67 59.3 41.58 2.7 0.05 9.8-4.16 4.6-5.71-29.5-3.37-52.3-29.27-58.9-56.97 1-8.26 2.5-20.39 12.1-22.91-2.1-0.78-4.3-2.48-6.6-1.54m-30.9 7c-8.6 8.88-16.5 19.65-15.4 32.83-0.6 2.38-1 4.81-1.2 7.29-4.2 14.21 0.5 37.02 13.9 48.49 9.3 6.2 23.2 5.13 30.5-3.85-16.8 6.16-28.7-13.69-29.2-28.46-0.9-18.72-4-40.9 9.7-55.98-0.4-4.35-6.1-2.09-8.3-0.32m-370.37 2.01c-32.13 18.4-47.56 55.74-81.57 71.43 0.99 94.25 10.9 193.14-18.98 284.75-2.21 5.24-3.64 11.13-1.04 16.61 4.31 14.91 9.19 33.66 25.48 39.39 21.14-76.69 42.61-157.17 51.49-237.51-2.52-57.27 12.66-113.16 25.07-168.59-1.43-0.16 3.3-8.49-0.45-6.08m-190.74 13c-6.88 5.16-14.59 9.01-22.38 12.58-40.7 30.27-93.24 38.92-142.92 41.13-2.28 19.9 14.26 35.53 32.54 39.98 13.79 9.18 31.18 3.38 46.49 2.24 19.41-7.67 40.98-15.11 52.98-33.25 14.33-17.83 29.47-42.06 33.29-62.68m567.91 1.32c-8.4 13.06-4 28.97-2.6 43.24 5.8-2.75 11.6-4.3 18.3-3.5-6.5-12.7-16.1-24.65-15.7-39.74m59.3 33.77c-4 0.77-17.2 1.24-8.9 6.47 9.2 6.74 29.2 20.69 35.2 3.46 2.1-15.76-16.7-10.48-26.3-9.93m-418.12 7.03c-8.31 4.02-16.23 4.3-25.75 3.84-8.85 26.32-6.74 54.77-10.38 82.03-3.24 27.44-5.48 57.8 10.32 82.06 7.4 1.51 12.36-5.6 18.21-8.6 50.8-31.48 76.95-89.2 92.47-144.48-0.69-1.99-2.52-3.46-4.65-3.46-26.91-2.49-53.18-10.36-80.22-11.39m377.92 3.64c-6.9 2.35-15.4 0.82-21.6 4.84 3.3 8.29 12.4 19.11 22 13.45 5.2-3.8 8.8-18.12-0.4-18.29m-510.04 28.35c0.61 35.41-9.73 69.45-17.16 103.78-12.14 54.24-48.49 98.85-66.48 150.43 23.7-13.29 57.18-20.1 79.16 0.19 0.66 1.06 0.84 2.71 2.19 3.16 4.06 2.76 9.4 20.64 11.37 7.39 20.66-59.95 16.4-124.35 20.58-186.57 0.26-30.31-7.18-60.5-3.85-90.8-8.25 4.83-16.61 9.58-25.81 12.42m-8.05 4.81c-16.65 7.56-34.73 9.96-52.72 12.15-7.92 26.68-11.31 55.1-25.69 79.44-20.37 44.18-60.05 74.86-98.96 102.12 8.41 4.57 15.73 11.57 23.96 16.8 36.83-26.69 69.8-58.71 95.89-96.04 22.54-35.76 43.63-76.75 57.52-114.47m1.98 11.94c-10.85 25.96-24.33 51.18-38.33 75.77-21.45 55.19-70.36 91.15-113.65 128.49 2.41 10.48 7.49 21.62 12.11 31.83 9.02 11.4 27.2 23.17 40.79 11.76 10.59-5.61 17.04-16.01 23.02-25.92 11.57-37.8 39.43-68.32 49.04-106.91 13.87-36.54 22.26-78.74 27.02-115.02m-425.8 13.08c8.96 64.15 81.12 87.08 108.42 140.57 6.74 19.99 17.54 38.2 27.05 56.91 10.67-11.95 20.35-26.47 28.54-39.53-27.92-30.19-34.76-73.72-64.35-102.65-10.17-10.99-24.98-15.88-35.08-26.78 0.17 12.17 17.64 14.89 15.61 27.58-5.82 1.08-7.14-7.77-10.38-10.94-17.12-23.78-51.16-23.02-69.81-45.16m524.63 86.87c-10.98 49.89-22.05 101.28-31.26 152.02 16.97 10.4 32.51 25.77 50.89 32.04-0.08-26.98 15.5-51.66 39.09-64.42-25.39-36.23-46-78.86-58.72-119.64m286.38 46.27c-31.48 1.96-64.28 5.63-92.55 20.58-39.4 8.01-75.3 27.82-110.54 46.41-3.94 2.63 2.57 3.22 4.2 1.36 54.56-24.54 112.78-49.27 173.93-42.49 47.17 3.54 91.56 22.56 132.26 45.61 51.8 28.33 94.5 69.77 137.4 109.68 27 25.16 48.5 55.19 65.8 88.15 26.8 47.57 61 90.93 85.1 139.94 31.3 44.99 62.3 92.59 109.7 122.28-70.3-76.16-83.9-182.86-130.7-272.32-36.8-81.36-95.9-153.02-171-202.04-60.9-37.02-131.4-61.99-203.6-57.16m-638.25 20.59c-13.17 14.49-18.85 35.14-35.39 46.76-7.67 8.74-20.64 15.79-32.01 10.11-5.14-6.58-0.81-14.94 1.08-21.95-10.21 6.07-21.92 20.3-16.07 31.95-0.37 3.66 1.67 7.53 5.12 8.97 8.55 9.93 25.37 6.06 33.8-2.19 21.71-18.59 41.08-40.7 53-66.93-0.25-4.34-4.59-10.92-9.53-6.72m446.67 53.78c-10.2 5.13-22.4-0.34-32.9 3.02-20.48 13.04-39.1 36.54-33.62 62.23 46.92 19.93 93.16 44.33 131.82 77.52 29.32 32.21 59.94 64.88 77.7 105.25 43.51 88.25 59.12 191.23 36.28 287.33-13.63 39.5-27.45 78.9-40.4 118.5-16.11 29-13.36 63.7-9.05 95.4 1.18 32.7 12.42 63.5 19.96 95 15.82 43.7 31.43 88.1 55.97 127.8 21.28 35.3 39.08 74.9 73.02 100.1 5.9 4 13.4 16.9 19.7 6.4 47.7-35.1 58.9-95.7 71.2-149.8 6.3-33.9 20.5-65.3 34.6-96.4 25.3-32.2 45.2-69.9 77-96 17.3-19.1 36-37 57.4-51.6 70.2-60.4 161.2-83.5 245.6-116.4 25.1-7.1 40.8-31.4 50.6-53.9-19.5 2.7-38.1-4.7-56.5-9.8-51.6-17.7-98.9-47.9-136-88.04-71.8-82.88-116.1-184.66-182.3-271.62-64.3-92.27-163-158.06-271.25-186.73-65.94-10.54-130.28 14.02-188.83 41.74m-429.99-36.72c-0.77 13.69 0.8 29.3-7.94 40.95-10.95 21-21.46 49.3-48.72 52.1-14.11 2.98-11.87-15.54-9.2-24.14-10.24 10.93-16.93 30.04-8.41 44.16 6.96 5.21 16.55 7.4 25.05 4.82 28.27-13.1 45.31-42.71 53.89-71.44 5.12-14.74 8.28-36.82-4.67-46.45m-5.52 1.64c-13.08 17.42-25.72 36.45-40.08 51.93 4.17 6.72 9.12 13.45 14.49 19.09 16.61-19.46 28.57-45.16 25.59-71.02m58.97 0.65c-12.7 2.01-21.88 11.8-31.32 19.6 4.14 6.91 8.61 14.23 12.8 20.71 13.04-7.58 25.48-16.31 39.06-23-4.84-7.01-12.13-16.58-20.54-17.31m-124.2 9.66c-4.18 6.53-9.31 13.09-11.28 20.61 4.46 8.23 16.57 1.69 22-1.91-3.41-5.77-4.51-15.93-10.72-18.7m147.11 12.17c-12.56 8.91-25.73 16.94-39.58 23.71-1.9 32.28 13.45 71.82 49.14 79.61 17-16.97 37.17-32.66 49.41-54.43-11.23 6.7-24.93-0.14-34.06-7.53-14.11-9.31-17.07-29.12-24.91-41.36m-61.36 2.77c-4.66 21.58-12.32 42.29-22.75 61.75 12.62 18.54 29.06 34.16 45.01 49.81 13.2 10.26 31.02 2.71 44.02-3.94-21.45-6.54-37.45-24.33-45.36-44.81-6.36-20.86-1.29-48.1-20.92-62.81m182.7 21.31c-20.62 5.42-47.02 8.27-57.26 30.03-11.43 18.26-30.25 30.03-42.92 46.93 12.91-1.91 22.65-12.11 35.75-14.05 32.15-10.04 60.7 12.62 88.45 24.42 10.2-17.83 17.22-37.53 24.06-56.88-6.25-20-26.74-34.35-48.08-30.45m-247.23 7.95c-10.7 6.04-16.35 19.15-12.23 30.99 10.85 7.32 22.64-6.22 28.34-13.12-5.82-5.22-9.47-15.64-16.11-17.87m298.73 32.64c-4.22 18.33-17.73 33.18-20.98 51.59 13.71 9.59 23.74 23.29 30.54 38.55 10.64-14.54 13.01-32.97 19.71-48.93-18.41-4.15-27.22-24.14-29.27-41.21m114.79 19.89c4.93 8.96 15.79 11.47 23 18.07 39.18 29.34 59.69 75.37 83.21 116.79 13.36 23.95 18.19 51.2 25.8 77.21 26.61 112.66 20.62 232.82-19.12 341.72-13.68 33.9-27.27 68.1-47.23 99-26.03 59-62.3 112.2-95.53 167.1-40.53 61.6-79.17 125.3-97.7 197.5-6.94 17.3-16.13 34.7-15.42 53.9 4.4 4 10.64 3.5 16.08 4.6 102.41 40.9 217.34 35.9 322.94 10.4-16-31.2-24.55-65.8-32.23-100-14.65-56.2-25.03-114.3-24.14-172.5 1.64-62.9 16.15-124.4 40.07-182.4 22.87-59 45.85-118.1 62.25-179.1 14.25-65.2 9.78-133.84-7.21-198.03-28.86-80.69-71.7-161.5-146.03-208.93-29.04-16.11-57.64-33.34-88.74-45.33m4.8 12.37c12.21 37.39 7.45 77.49-1.58 114.91-6.49 11.81-11.41 24.52-16.09 37.06-4.75 8.52-6.55 20.06-14.17 27.77-62.53 99.33-171.15 153.2-271.41 205.88-83.38 35.4-167.16 79.9-224.22 152.4-5.88 4.6-6.77 13.2-4.68 20 13.08 55.6 23.92 112.2 44.5 165.5 22.4 33.4 43.61 67.5 59.21 104.8 6.94-31.3 31.3-60 54.8-82.4 40.03-29.5 75.29-64.6 113.16-96.9 30.6-19.5 58.71-42.5 86.63-65.6 45.63-40.7 85-88.5 125.07-134.7 21.22-27.6 37.07-59.6 53.56-89.8 10.79-16.98 20.28-34.55 24.09-54.52 26.93-78.33 46.27-166.44 16.42-246.74-13.68-19.03-23.17-44.37-45.29-57.66m-0.81 20.78c1.09 27.96-1.92 56.15-9.75 83.05-18.05 29.74-34.99 61.37-62.43 83.72-27.32 33-60.67 62.14-100.77 78.22-55.3 29.16-112.96 55.66-174.52 67.8-49.69 7.01-99.28 18.15-149.81 14.25-52.46-0.93-104.79-11-156.74-14.43 24.51 8.75 49.2 21.93 65.36 42.93 37.05 46.8 34.54 109.7 53.55 163.5 13-15.1 26.7-29.5 39.41-44.8 54.25-49.4 122.43-81.6 188.82-112.4 33-15.1 64.89-32.7 96.86-49.92 24.68-9.96 41.97-31.5 65.54-43.43 35.16-25.57 69.33-53.53 95.37-88.69 31.26-54.05 60.74-116.73 49.11-179.8m35.93 8.01c10.03 19.99 23.42 39.23 27.24 61.73 16.38 97.13-12.91 194.4-56.17 280.5-3.44 1.2-4.73 7.5-7.27 10.5-45.01 77.6-104.02 147-171.54 206-56.67 43.8-114.31 86.7-166.07 136.3-35.44 30.2-68.62 65.7-84.92 110 11.35 28.4 38.36 46.7 55.82 70.9 32.51 23 60.06 52.2 91.97 76 27.71 23.6 60.48 40.3 88.24 63.9 10.26 7.7 22.26 4.7 32.9 10.8 8.56-36.3 17.29-76 31.88-111.7 26.74-48.1 50.95-97.9 82.95-142.8 21.81-31.7 44.81-63.6 60.07-99.2 28.07-54.6 64.68-105.9 82.94-164.8 28.2-78.5 41.25-163.3 33.37-246.51-7.39-94.38-36.94-190.4-101.41-261.62m-702.36 307.2c-18.94 19.93-16.66 50.63-8.99 75.13 21.01 82 118.4 112 146.48 189.6-12.98-58.5-26.94-117.3-39.84-176.2-15.19-42.6-52.36-80.16-97.65-88.53m846.51 285.03c-21.46 54.4-35.53 111.5-40.07 169.8 1.77 65.7 9.9 131.2 25.73 194.9 7.77 27.5 14.53 56 29.38 80.8 1.23 3.2 4.91 5.9 8.44 4.9 18.43-5.9 35.99-13.8 54.7-18.8 23.09-6.3 42.52-21.5 63.93-31.9 7.7-6.2 17.8-11 25.4-15.8-34.9-28.1-54.97-69.1-81.66-104.1-0.9-12.7-11.76-21.7-16.48-33.1-15.21-33.3-32.13-66.6-39.6-102.8-17.81-46.4-26.44-96.4-25.77-146.1 1.79-10.9-4.5-1.2-4 2.2z" fill="#030101"/>
<path d="m510.78 31.36c29.35-22.54 68.82-23.82 104.03-20.03 14.39-0.82 25.85 8.82 39 12.85 28.04 8.23 50.35 28.02 68.15 49.87 10.59 18.76 3.16 41.93 11.92 61.12-22.12-4.09-46.92-0.65-65.7-15.35-26.01-12.09-49.11-35.26-47.32-65.85-28.05 1.24-45.11 27.33-53.21 51.7-10.54 33.48-12.67 71.74-36.77 99.24-55.54 71.09-149.2 107.72-238.37 96.53-20.7-9.27-43.02-26.82-42.26-51.79-1.59-13.19-1.15-29.42 9.6-38.75-2.9 37.56 48.64 56.64 78.28 40.19 38.01-10.64 53.59-50.44 73.06-80.87 25.73-46.09 46.29-97.9 88.83-131.69-11.78 19.09-17.19 41.1-25.89 61.58-21.49 41.18-50.33 77.79-74.86 117.1 4.65-1.4 8.16-5.08 11.51-8.43 39.46-46.2 70.03-98.78 101.6-150.36 16.24-15.33 37.97-22.56 56.85-33.89-19.79-1.17-38.79 6.33-58.45 6.83m133.77 11.96c-8.3 6.68-5.39 21.93-3.47 31.53 12.7 26.54 44.2 37.39 71.28 42.03-3.28-11.55 1.11-26.89-5.76-36.78-25.93-1.88-37.64-32.49-62.05-36.78m-81.21 9.13c-24.61 6.44-44.5 28.51-50.98 52.9-11.53 30.93-11.8 66.37-32.51 93.5-18.19 17.36-41.87 26.68-63.71 38.31-12.35 6.6-29.4 6.88-38.82 17 20.92-6.58 42.5-11.2 64.27-14.61 46-7.46 90.14-41.9 97.3-89.78 1.28-35.3 24.62-64.3 43.12-92.71-5.15-4.29-12.18-5.41-18.67-4.61z" fill="#fee9fd"/>
<path d="m510.78 31.36c19.66-0.5 38.66-8 58.45-6.83-18.88 11.33-40.61 18.56-56.85 33.89-31.57 51.58-62.14 104.16-101.6 150.36-3.35 3.35-6.86 7.03-11.51 8.43 24.53-39.31 53.37-75.92 74.86-117.1 8.7-20.48 14.11-42.49 25.89-61.58 2.89-3.12 6.52-6.16 10.76-7.17z" fill="#fecffe"/>
<path d="m644.55 43.32c24.41 4.29 36.12 34.9 62.05 36.78 6.87 9.89 2.48 25.23 5.76 36.78-27.08-4.64-58.58-15.49-71.28-42.03-1.92-9.6-4.83-24.85 3.47-31.53z" fill="#fefbff"/>
<path d="m563.34 52.45c6.49-0.8 13.52 0.32 18.67 4.61-18.5 28.41-41.84 57.41-43.12 92.71-7.16 47.88-51.3 82.32-97.3 89.78-21.77 3.41-43.35 8.03-64.27 14.61 9.42-10.12 26.47-10.4 38.82-17 21.84-11.63 45.52-20.95 63.71-38.31 20.71-27.13 20.98-62.57 32.51-93.5 6.48-24.39 26.37-46.46 50.98-52.9z" fill="#fefcff"/>
<path d="m614.07 62.49c4.77-0.45 0.31 9.57 3 12.25 8.89 33.46 42.85 49.35 72.51 60.65 6.57 1.5 1.63 8.86-0.51 12.28-13.8 0.31-32.41 2.49-38.31 17.1-6.48 13.7-10.77 28.36-13.53 43.23 9 0.6 7.7-12.76 10.48-18.31 3.71-14.81 8.85-38.88 29.39-35.85 15.52-5.54 6.74 9.67 3.99 16.22-9.26-9.91-31.26-2.77-26.82 12.35 3.21 9.91 14.05 10.57 22.49 7.42-7.72 23.8-30.55 37.6-45.34 56.58-7.16 9.97-24.82 19.09-34.35 7.41-6.36-4.12-11.4-9.85-17.14-14.73-15.04-15.57-12.74-41.09-27.74-56.04 18.49-36.67 11.12-85.04 43.47-114.28 4.41-5.59 12.73-2.67 18.41-6.28m-6.29 64.97c-3.96 0.84-15.93 3.65-10 8.31 10.49-7.05 22.55-3.55 33.84-1.49 3.22 1.16 10.8 4.96 7.85-1.54-10.08-3.85-20.65-7.93-31.69-5.28m-35.73 6.6c-2.39 7.53 6.29 13.31 10.56 18.35 15.23 11.47 30.27 30.32 51.73 23.99 5.52-14.82-11.58-35.05-27.04-27.2-9.37 2.11-16.83-5.64-22.25-12.16-2.94-2.32-2.35 2.85-3.11 4.56-4.49-0.42-5.73-6.23-9.89-7.54m30.45 81.34c1.3 6.48 7.52 10.38 8.85 17.14 8.2 12.46 24.55 6.04 31.81-3.82-13.33-5.24-27.59-7.35-40.66-13.32z" fill="#febfc0"/>
<path d="m734.35 97.76c1.3 8.06 0.46 16.26 0.27 24.37-1.47-8.03-0.38-16.27-0.27-24.37z" fill="#879c79"/>
<path d="m607.78 127.46c11.04-2.65 21.61 1.43 31.69 5.28 2.95 6.5-4.63 2.7-7.85 1.54-11.29-2.06-23.35-5.56-33.84 1.49-5.93-4.66 6.04-7.47 10-8.31z" fill="#060000"/>
<path d="m572.05 134.06c4.16 1.31 5.4 7.12 9.89 7.54 0.76-1.71 0.17-6.88 3.11-4.56 5.42 6.52 12.88 14.27 22.25 12.16 15.46-7.85 32.56 12.38 27.04 27.2-21.46 6.33-36.5-12.52-51.73-23.99-4.27-5.04-12.95-10.82-10.56-18.35m36.53 19.02c1.45 2 9.93 3.67 13.95 2.11-4.54-1.71-9.19-2.41-13.95-2.11m-7.86 6.16c0.1 0.28 8.62 10.94 10.3 3.68 3.73-6.59-7.02-3.32-10.3-3.68m22.09 3.6c-7.97 12.74 15.64 7.8 0 0z" fill="#020101"/>
<path d="m699.34 138.23c11.35 2.08 23.09 2.69 34.67 3.52-8.42 25.3 4.1 57.53 31.75 63.53-22.02 22.94-62.46 18-87.7 0.52 3.84-10.51 2.79-25.48 16.8-26.86 9.94-0.74 2.12-7.63 4.77-13.51-5.8-2.64-5.24 6.06-10.59 5.74 3.6-10.82-0.64-25.18 10.3-32.94m1.74 9.87c9.47 16.16 3.53 36.01 13.6 52.18 0.7 11.91 14.72 7.3 22.27 4.33 1.5-6.91-9.23-5.11-10.87-10.78-8.82-12.16-9.66-27.24-7.23-41.65-5.9-1.48-11.77-3.19-17.77-4.08z" fill="#fdaaf7"/>
<path d="m701.08 148.1c6 0.89 11.87 2.6 17.77 4.08-2.43 14.41-1.59 29.49 7.23 41.65 1.64 5.67 12.37 3.87 10.87 10.78-7.55 2.97-21.57 7.58-22.27-4.33-10.07-16.17-4.13-36.02-13.6-52.18z" fill="#fee8fe"/>
<path d="m608.58 153.08c4.76-0.3 9.41 0.4 13.95 2.11-4.02 1.56-12.5-0.11-13.95-2.11z" fill="#828282"/>
<path d="m600.72 159.24c3.28 0.36 14.03-2.91 10.3 3.68-1.68 7.26-10.2-3.4-10.3-3.68z" fill="#fefefe"/>
<path d="m622.81 162.84c15.64 7.8-7.97 12.74 0 0z" fill="#fcfefd"/>
<path d="m666.36 171.11c14.39 0.7-11.77 8.44 0 0z" fill="#adacad"/>
<path d="m674.41 182.28c9.44-1.86-5.53 6.27 0 0z" fill="#9d9d9f"/>
<path d="m525.16 221.43c6.93-11.27 16.24-22.7 23.84-33.27 10.92 14.15 14.21 33.73 22.73 49.81-15.33 7.53-18.42 28.09-12.49 42.74 6.03 12.42 12.19 24.84 19.76 36.43-21.02 9.64-43.2 17.9-65.67 24.46-2.9 0.13-13.35 1.94-10.74-3.99 16.15-36.43 23.9-76.36 22.57-116.18z" fill="#ffb1b1"/>
<path d="m1274.7 207.62c11.4-1.68 22.9-0.65 34.3 0.17-11.4 0.18-22.8 0.32-34.3-0.17z" fill="#5c6459"/>
<path d="m1280.5 212.48c18.7-1.58 37.8 0.04 55.5 6.57-15 5.62-31.3 10.23-43.5 21.52-15.4 5.28-31.4 9.43-47.5 12.51 18.7 9.24 43.7-1.75 64.7-3.31-1.6 6.65-10.6 6.4-14.1 11.88-30 10.91-60 20.89-92.1 21.86-34.6-1.57-72.2-4.28-105.5 7.2-9.3-11.2-22-23.81-18.6-39.84 1.3-5.41 8.2-3.28 12-3.14 50 0.04 100.8-5.88 147.5-24.85 13.9-3.39 26.7-11.25 41.6-10.4m-13.9 8c-24.9 4.55-48.8 13.37-73.2 19.95-30.2 15.2-67.3 7.49-98.3 11.42 43.9 7.87 93 12.27 132.9-11.88 13.4-6.6 27.2-12.24 41-17.93 5.6-0.78 1.2-4.24-2.4-1.56z" fill="#febfc0"/>
<path d="m602.5 215.4c13.07 5.97 27.33 8.08 40.66 13.32-7.26 9.86-23.61 16.28-31.81 3.82-1.33-6.76-7.55-10.66-8.85-17.14z" fill="#060101"/>
<path d="m1266.6 220.48c3.6-2.68 8 0.78 2.4 1.56-13.8 5.69-27.6 11.33-41 17.93-39.9 24.15-89 19.75-132.9 11.88 31-3.93 68.1 3.78 98.3-11.42 24.4-6.58 48.3-15.4 73.2-19.95z" fill="#fedbea"/>
<path d="m738.47 225.43c93.95 27.44 196.18 38.01 294.33 22.37-6.6 16.25-10.4 34.37-9 52.07-74.79 9.65-154.42 17.44-231.08 8.23-39.38-9.65-81.84-17.66-121.64-9.28 5.9-20 8.71-41.29 16.09-60.7 9.39-3.18 17.88-9.53 27.71-10.92 7.99 2.83 15.84 0.32 23.59-1.77m2.02 10.1c-9.3 3.51-27.56 8.02-22.18 20.88 19.64 11.98 44.25 9.8 66.19 14.2 68.16 3.59 137.83 4.97 204.74-7.55-82.65-6.99-169.5-1.77-248.75-27.53z" fill="#ffbfc0"/>
<path d="m519.36 227.34c0.21 60.91-19.32 130.26-68.18 172.87-23.55 13.4-51.18 12.66-77.23 11.85-8.35-4.26-21.49-4.66-23.22-15.9-1.69-11.58-5.47-26.74 4.1-36.05 63.69 6.42 123.85-42.81 137.05-104.18 6.27-11.64 18.89-18.61 27.48-28.59m-28.81 76.19c-27.54 25.1-52.88 52.97-82.51 75.85-11.98 2.89-25.41-8.82-36.88-2.27-6.02 10.29 1.59 25.96 14.28 26.73 20-0.19 38.78-10.37 54.88-21.54 26.06-14.88 34.72-45.16 47.8-70.19 0.25-2.03 5.71-9.44 2.43-8.58z" fill="#fda9f7"/>
<path d="m1077.5 234.49c2.3-0.94 4.5 0.76 6.6 1.54-9.6 2.52-11.1 14.65-12.1 22.91 6.6 27.7 29.4 53.6 58.9 56.97 5.2 1.55-1.9 5.76-4.6 5.71-25.9 0.09-49.2-18-59.3-41.58-9.2-14.94-9.4-40.21 10.5-45.55m-11.5 18.78c-4.2 19.7 9 37.09 24.9 46.86-10.6-14.17-19.2-32.12-24.9-46.86z" fill="#fa1013"/>
<path d="m740.49 235.53c79.25 25.76 166.1 20.54 248.75 27.53-66.91 12.52-136.58 11.14-204.74 7.55-21.94-4.4-46.55-2.22-66.19-14.2-5.38-12.86 12.88-17.37 22.18-20.88z" fill="#fedbeb"/>
<path d="m559.24 280.71c-5.93-14.65-2.84-35.21 12.49-42.74 5.62 11 15.04 18.68 24.62 25.91-1.71 12.81 1.41 26.43 11.71 35.14-10.25 5.12-18.46 13.63-29.06 18.12-7.57-11.59-13.73-24.01-19.76-36.43z" fill="#ffbfc0"/>
<path d="m1046.6 241.49c2.2-1.77 7.9-4.03 8.3 0.32-13.7 15.08-10.6 37.26-9.7 55.98 0.5 14.77 12.4 34.62 29.2 28.46-7.3 8.98-21.2 10.05-30.5 3.85-13.4-11.47-18.1-34.28-13.9-48.49-1 12.59 1.8 28.02 12.8 35.56-5-17.72-7.9-36.19-7.1-54.61-1.5 3.91-3.1 7.78-4.5 11.76-1.1-13.18 6.8-23.95 15.4-32.83z" fill="#fb1012"/>
<path d="m676.23 243.5c3.75-2.41-0.98 5.92 0.45 6.08-12.41 55.43-27.59 111.32-25.07 168.59-8.88 80.34-30.35 160.82-51.49 237.51-16.29-5.73-21.17-24.48-25.48-39.39-2.6-5.48-1.17-11.37 1.04-16.61 29.88-91.61 19.97-190.5 18.98-284.75 34.01-15.69 49.44-53.03 81.57-71.43m-24.78 39.97c-15.04 12.44-29.44 25.98-44.38 38.68 21.91 54.95 5.27 116.01 7.58 173.12 19.79-52.91 17.75-109.76 29.1-164.56 0.43-15.08 6.56-34.55 7.7-47.24z" fill="#f4ce0f"/>
<path d="m910.76 249.78c4.69-1.47 9.56-0.36 14.36 0.02-4.79-0.11-9.61 0.01-14.36-0.02z" fill="#889b7d"/>
<path d="m1066 253.27c5.7 14.74 14.3 32.69 24.9 46.86-15.9-9.77-29.1-27.16-24.9-46.86z" fill="#feacf7"/>
<path d="m485.49 256.5c-3.82 20.62-18.96 44.85-33.29 62.68-12 18.14-33.57 25.58-52.98 33.25-15.31 1.14-32.7 6.94-46.49-2.24-18.28-4.45-34.82-20.08-32.54-39.98 49.68-2.21 102.22-10.86 142.92-41.13 7.79-3.57 15.5-7.42 22.38-12.58m-46.99 44.92c-31.13 8.3-63.42 26.86-96.15 18.9-6.96 1.55-12.33 13.25-3.56 16.17 35.56 6.63 71.63-8.63 98.74-30.92 2.01-0.75 5.41-5.92 0.97-4.15z" fill="#fecffe"/>
<path d="m1053.4 257.82c-0.4 15.09 9.2 27.04 15.7 39.74-6.7-0.8-12.5 0.75-18.3 3.5-1.4-14.27-5.8-30.18 2.6-43.24z" fill="#fdbfc0"/>
<path d="m1035.7 262.56c-0.8 18.42 2.1 36.89 7.1 54.61-11-7.54-13.8-22.97-12.8-35.56 0.2-2.48 0.6-4.91 1.2-7.29 1.4-3.98 3-7.85 4.5-11.76z" fill="#feadf7"/>
<path d="m651.45 283.47c-1.14 12.69-7.27 32.16-7.7 47.24-11.35 54.8-9.31 111.65-29.1 164.56-2.31-57.11 14.33-118.17-7.58-173.12 14.94-12.7 29.34-26.24 44.38-38.68z" fill="#feef95"/>
<path d="m1176.8 287.16c10.5-0.22 21-0.21 31.6 0.13-10.6 1.16-21.1 1.03-31.6-0.13z" fill="#819572"/>
<path d="m1112.7 291.59c9.6-0.55 28.4-5.83 26.3 9.93-6 17.23-26 3.28-35.2-3.46-8.3-5.23 4.9-5.7 8.9-6.47z" fill="#bc0104"/>
<path d="m694.58 298.62c27.04 1.03 53.31 8.9 80.22 11.39 2.13 0 3.96 1.47 4.65 3.46-15.52 55.28-41.67 113-92.47 144.48-5.85 3-10.81 10.11-18.21 8.6-15.8-24.26-13.56-54.62-10.32-82.06 3.64-27.26 1.53-55.71 10.38-82.03 9.52 0.46 17.44 0.18 25.75-3.84m59.93 27.7c-14.51 15.27-30.13 29.7-47.67 41.51-11.83 13.87-25.09 26.74-40.71 36.3 7.86 15.85 30.05 19.62 43.57 8.54 21.72-22.91 32.66-53.2 45.77-81.31 0.48-1.92 2.86-6.65-0.96-5.04z" fill="#fdaffd"/>
<path d="m438.5 301.42c4.44-1.77 1.04 3.4-0.97 4.15-27.11 22.29-63.18 37.55-98.74 30.92-8.77-2.92-3.4-14.62 3.56-16.17 32.73 7.96 65.02-10.6 96.15-18.9z" fill="#fee8fe"/>
<path d="m1072.5 302.26c9.2 0.17 5.6 14.49 0.4 18.29-9.6 5.66-18.7-5.16-22-13.45 6.2-4.02 14.7-2.49 21.6-4.84z" fill="#bd0105"/>
<path d="m490.55 303.53c3.28-0.86-2.18 6.55-2.43 8.58-13.08 25.03-21.74 55.31-47.8 70.19-16.1 11.17-34.88 21.35-54.88 21.54-12.69-0.77-20.3-16.44-14.28-26.73 11.47-6.55 24.9 5.16 36.88 2.27 29.63-22.88 54.97-50.75 82.51-75.85z" fill="#fecefe"/>
<path d="m562.46 330.61c9.2-2.84 17.56-7.59 25.81-12.42-3.33 30.3 4.11 60.49 3.85 90.8-4.18 62.22 0.08 126.62-20.58 186.57-1.97 13.25-7.31-4.63-11.37-7.39 4.04-56.83 3.28-116.42 7.21-173.21-17.09 46.74-33.25 93.95-49.1 141.1 20.12-6.29 33.84 12.35 39.7 28.95-21.98-20.29-55.46-13.48-79.16-0.19 17.99-51.58 54.34-96.19 66.48-150.43 7.43-34.33 17.77-68.37 17.16-103.78z" fill="#fcd706"/>
<path d="m754.51 326.32c3.82-1.61 1.44 3.12 0.96 5.04-13.11 28.11-24.05 58.4-45.77 81.31-13.52 11.08-35.71 7.31-43.57-8.54 15.62-9.56 28.88-22.43 40.71-36.3 17.54-11.81 33.16-26.24 47.67-41.51z" fill="#fecefe"/>
<path d="m554.41 335.42c-13.89 37.72-34.98 78.71-57.52 114.47-26.09 37.33-59.06 69.35-95.89 96.04-8.23-5.23-15.55-12.23-23.96-16.8 38.91-27.26 78.59-57.94 98.96-102.12 14.38-24.34 17.77-52.76 25.69-79.44 17.99-2.19 36.07-4.59 52.72-12.15m-19.03 12.97c-7.86 2.1-15.44 5.68-22.16 10.22-10.1 49.81-48.03 87.98-70.22 132.37 41.64-38.31 67.01-89.78 92.75-139.28 0.77-1.12 2.35-4.6-0.37-3.31z" fill="#e1c102"/>
<path d="m556.39 347.36c-4.76 36.28-13.15 78.48-27.02 115.02-9.61 38.59-37.47 69.11-49.04 106.91-5.98 9.91-12.43 20.31-23.02 25.92-13.59 11.41-31.77-0.36-40.79-11.76-4.62-10.21-9.7-21.35-12.11-31.83 43.29-37.34 92.2-73.3 113.65-128.49 14-24.59 27.48-49.81 38.33-75.77m-42.73 117.28c-28.49 34.15-55.07 73.14-92.53 97.48 2.83 11.52 15.89 23.81 28.03 18.13 27.46-29.84 41.66-68.46 60.22-103.86-0.55-4.05 6.12-11.77 4.28-11.75z" fill="#c0a303"/>
<path d="m535.38 348.39c2.72-1.29 1.14 2.19 0.37 3.31-25.74 49.5-51.11 100.97-92.75 139.28 22.19-44.39 60.12-82.56 70.22-132.37 6.72-4.54 14.3-8.12 22.16-10.22z" fill="#f3cd10"/>
<path d="m130.59 360.44c18.65 22.14 52.69 21.38 69.81 45.16 3.24 3.17 4.56 12.02 10.38 10.94 2.03-12.69-15.44-15.41-15.61-27.58 10.1 10.9 24.91 15.79 35.08 26.78 29.59 28.93 36.43 72.46 64.35 102.65-8.19 13.06-17.87 27.58-28.54 39.53-9.51-18.71-20.31-36.92-27.05-56.91-27.3-53.49-99.46-76.42-108.42-140.57m86.61 61.76c-10.75 13.43 1.26 34.77 14.03 43.57 14.71 11.56 25.44 27.41 39.92 38.97-8.09-16.79-24.8-29.59-28.07-48.85-2.74-14.3-14.77-25.58-25.88-33.69z" fill="#febfc0"/>
<path d="m567.38 414.96c-3.93 56.79-3.17 116.38-7.21 173.21-1.35-0.45-1.53-2.1-2.19-3.16-5.86-16.6-19.58-35.24-39.7-28.95 15.85-47.15 32.01-94.36 49.1-141.1z" fill="#feef94"/>
<path d="m217.2 422.2c11.11 8.11 23.14 19.39 25.88 33.69 3.27 19.26 19.98 32.06 28.07 48.85-14.48-11.56-25.21-27.41-39.92-38.97-12.77-8.8-24.78-30.14-14.03-43.57z" fill="#fedbeb"/>
<path d="m655.22 447.31c12.72 40.78 33.33 83.41 58.72 119.64-23.59 12.76-39.17 37.44-39.09 64.42-18.38-6.27-33.92-21.64-50.89-32.04 9.21-50.74 20.28-102.13 31.26-152.02m1.64 30.55c-2.17 21.43-6.08 42.84-6.6 64.35 9.88 15.08 19.73 30.29 28.92 45.84 5.68-8.19 9.65-21.92 21.24-23.1-13.26-29.55-27.96-58.94-43.56-87.09z" fill="#e1c101"/>
<path d="m513.66 464.64c1.84-0.02-4.83 7.7-4.28 11.75-18.56 35.4-32.76 74.02-60.22 103.86-12.14 5.68-25.2-6.61-28.03-18.13 37.46-24.34 64.04-63.33 92.53-97.48z" fill="#927c00"/>
<path d="m656.86 477.86c15.6 28.15 30.3 57.54 43.56 87.09-11.59 1.18-15.56 14.91-21.24 23.1-9.19-15.55-19.04-30.76-28.92-45.84 0.52-21.51 4.43-42.92 6.6-64.35z" fill="#ffe1af"/>
<path d="m929.63 489.65c4.57-0.27 9.12-0.26 13.74-0.35-4.58 0.32-9.2 0.29-13.74 0.35z" fill="#8a987e"/>
<path d="m941.6 493.58c72.2-4.83 142.7 20.14 203.6 57.16 75.1 49.02 134.2 120.68 171 202.04 46.8 89.46 60.4 196.16 130.7 272.32-47.4-29.69-78.4-77.29-109.7-122.28-24.1-49.01-58.3-92.37-85.1-139.94-17.3-32.96-38.8-62.99-65.8-88.15-42.9-39.91-85.6-81.35-137.4-109.68-40.7-23.05-85.09-42.07-132.26-45.61-61.15-6.78-119.37 17.95-173.93 42.49-1.63 1.86-8.14 1.27-4.2-1.36 35.24-18.59 71.14-38.4 110.54-46.41 28.27-14.95 61.07-18.62 92.55-20.58m-11.39 6.36c12.71 7.2 35.09 8.02 51.26 13.61 47.13 8.11 90.93 29.29 130.33 55.6 63.2 54.92 115 121.23 165.6 187.51 4.9 1.18 5.1-8.07 4-10.86-7.4-20.21-17-39.6-24.4-59.85-17-58.35-66.7-99.35-117.5-128.46-64.7-33.27-135.5-59.19-209.29-57.55z" fill="#fcd706"/>
<path d="m930.21 499.94c73.79-1.64 144.59 24.28 209.29 57.55 50.8 29.11 100.5 70.11 117.5 128.46 7.4 20.25 17 39.64 24.4 59.85 1.1 2.79 0.9 12.04-4 10.86-50.6-66.28-102.4-132.59-165.6-187.51-39.4-26.31-83.2-47.49-130.33-55.6-16.17-5.59-38.55-6.41-51.26-13.61z" fill="#fcf1b3"/>
<path d="m303.35 514.17c4.94-4.2 9.28 2.38 9.53 6.72-11.92 26.23-31.29 48.34-53 66.93-8.43 8.25-25.25 12.12-33.8 2.19 14.15 4.08 32.41-2.58 40.37-14.67-13.43 3.32-36.57 11.72-42.65-6.6-1.75 3.85-2.39 8.11-2.84 12.3-5.85-11.65 5.86-25.88 16.07-31.95-1.89 7.01-6.22 15.37-1.08 21.95 11.37 5.68 24.34-1.37 32.01-10.11 16.54-11.62 22.22-32.27 35.39-46.76z" fill="#fb2f33"/>
<path d="m750.02 567.95c58.55-27.72 122.89-52.28 188.83-41.74 108.25 28.67 206.95 94.46 271.25 186.73 66.2 86.96 110.5 188.74 182.3 271.62 37.1 40.14 84.4 70.34 136 88.04 18.4 5.1 37 12.5 56.5 9.8-9.8 22.5-25.5 46.8-50.6 53.9-84.4 32.9-175.4 56-245.6 116.4-21.4 14.6-40.1 32.5-57.4 51.6-31.8 26.1-51.7 63.8-77 96-14.1 31.1-28.3 62.5-34.6 96.4-12.3 54.1-23.5 114.7-71.2 149.8-6.3 10.5-13.8-2.4-19.7-6.4-33.94-25.2-51.74-64.8-73.02-100.1 0.97-1.9 2.11-4 4.11-5 7.82 17.2 21.02 31.2 28.56 48.6 11.85 22.6 31.25 46.1 56.05 54.2 21.9-34.5 46.8-70.1 55.5-110.6-33-2.8-71.9 5.1-99.3-18.9-30.51-38.8-46.91-86-67.94-130.1-17.27-45.7-35.47-91.6-44.2-139.8-1.81-5.5-0.82-11.1 0.34-16.6 12.95-39.6 26.77-79 40.4-118.5 22.84-96.1 7.23-199.08-36.28-287.33-17.76-40.37-48.38-73.04-77.7-105.25-38.66-33.19-84.9-57.59-131.82-77.52-5.48-25.69 13.14-49.19 33.62-62.23 10.5-3.36 22.7 2.11 32.9-3.02m118.61-18.43c-42.4 5.09-83.77 15.82-124.68 27.39-11.79 2.52-17.34 17.49-7.81 25.98 23.19 22.35 56.84 27.63 87.34 32.72 43.86 1.67 76.44 35.39 104.58 65.34-19.51-28.46-41.61-55.22-61.64-83.31 53.61 10.12 116.53 34.68 132.04 92.85 28.54 66.26 67.34 127.96 107.44 187.51-20.2-44.65-41.4-89.85-50.4-138.48-4.1-33.75-11.8-67.9-10.9-101.54 37.2 72.11 74.8 144.99 98.4 223.01 11.9 28.64 39.2 45.78 64.3 61.7 33.8 17.78 69.3 32.86 106.6 41.4-27.2-22.2-48.5-51.23-66.9-81.14-41.2-74.78-73.9-154.14-119.4-226.52-17.3-32.74-41.2-62.4-72.9-82.15-56.02-32.23-121-51.09-186.07-44.76m8.48 196.46c32.79 59.86 53.62 125.52 71.81 191.1 5.09 26.06 14.15 51.88 11.02 78.82-2.94 53.6-14.72 106.2-26.63 158.5-3.76 5.5 2.68 5.4 3.28 2.1 21.11-42.9 41.15-86.9 51.09-133.9 0.55-17.4 5.98-33.9 9.03-50.67 3.59-9.34 15.89-3.53 20.89 1.5 20.1 16.17 46.5 17.87 70.4 24.57 39.3 6.4 79.4 13.7 119.2 13.4-64.8-19.2-132.9-45.92-175-101.64-36.52-65.7-87-122.23-141.64-173.31-3.94-4.03-8.06-8.6-13.45-10.47m500.89 271.12c15 19.5 31.5 38.9 40.8 62.1 4.2 13.9 10.7 33.3-2.8 44-27.7 11.9-53.2 29.3-75 49.8 27.8-13.4 57.3-22.9 87.4-29.6 49.8-5.2 99.3-19.9 141.9-46.5-17.8-2.9-36.4 1.1-54.2-1.9-50.6-16.7-93.2-50.6-138.1-77.9m-334.7 59.8c-28.1 69.4-40.1 153.1-6.1 222.9 27.2 43.6 47.8 92.8 54.8 143.1 3.5-36.1 6.1-73.5 22.1-106.7 12.3-19.3 22.1-40.1 30.9-61.2 7.4-18.1 27.2-23.8 42.1-33.9 37.3-22.3 75.7-43 112-67-31 7.8-61.4 17.6-93 23-23.2 3.2-48.9 11.7-71.1-0.1-46.3-22.7-87.6-67.6-91.7-120.1z" fill="#ceb528"/>
<path d="m320.03 531.23c12.95 9.63 9.79 31.71 4.67 46.45-8.58 28.73-25.62 58.34-53.89 71.44-8.5 2.58-18.09 0.39-25.05-4.82-8.52-14.12-1.83-33.23 8.41-44.16-2.67 8.6-4.91 27.12 9.2 24.14 27.26-2.8 37.77-31.1 48.72-52.1 8.74-11.65 7.17-27.26 7.94-40.95m-24.73 85.19c-15.32 5.42-30.03 18.96-47.21 12.56-3.94 4.33-2.8 13.16 4.23 12.92 15.65-1.95 30.63-9.68 42.44-20.07 1.67-0.89 3.04-5.46 0.54-5.41z" fill="#fb2f33"/>
<path d="m314.51 532.87c2.98 25.86-8.98 51.56-25.59 71.02-5.37-5.64-10.32-12.37-14.49-19.09 14.36-15.48 27-34.51 40.08-51.93z" fill="#fdbfc0"/>
<path d="m373.48 533.52c8.41 0.73 15.7 10.3 20.54 17.31-13.58 6.69-26.02 15.42-39.06 23-4.19-6.48-8.66-13.8-12.8-20.71 9.44-7.8 18.62-17.59 31.32-19.6z" fill="#ceb403"/>
<path d="m249.28 543.18c6.21 2.77 7.31 12.93 10.72 18.7-5.43 3.6-17.54 10.14-22 1.91 1.97-7.52 7.1-14.08 11.28-20.61z" fill="#bc0105"/>
<path d="m868.63 549.52c65.07-6.33 130.05 12.53 186.07 44.76 31.7 19.75 55.6 49.41 72.9 82.15 45.5 72.38 78.2 151.74 119.4 226.52 18.4 29.91 39.7 58.94 66.9 81.14-37.3-8.54-72.8-23.62-106.6-41.4-25.1-15.92-52.4-33.06-64.3-61.7-23.6-78.02-61.2-150.9-98.4-223.01-0.9 33.64 6.8 67.79 10.9 101.54 9 48.63 30.2 93.83 50.4 138.48-40.1-59.55-78.9-121.25-107.44-187.51-15.51-58.17-78.43-82.73-132.04-92.85 20.03 28.09 42.13 54.85 61.64 83.31-28.14-29.95-60.72-63.67-104.58-65.34-30.5-5.09-64.15-10.37-87.34-32.72-9.53-8.49-3.98-23.46 7.81-25.98 40.91-11.57 82.28-22.3 124.68-27.39z" fill="#ffe1af"/>
<path d="m396.39 555.35c7.84 12.24 10.8 32.05 24.91 41.36 9.13 7.39 22.83 14.23 34.06 7.53-12.24 21.77-32.41 37.46-49.41 54.43-35.69-7.79-51.04-47.33-49.14-79.61 13.85-6.77 27.02-14.8 39.58-23.71m0.56 27.97c-10 5.29-20.42 10.11-31.58 12.37-3.68 24.76 17.99 44.41 38.33 53.2 3.8-13.37 11.44-25.97 14.02-39.43-6.93-8.26-12.08-21.03-20.77-26.14z" fill="#927c01"/>
<path d="m335.03 558.12c19.63 14.71 14.56 41.95 20.92 62.81 7.91 20.48 23.91 38.27 45.36 44.81-13 6.65-30.82 14.2-44.02 3.94-15.95-15.65-32.39-31.27-45.01-49.81 10.43-19.46 18.09-40.17 22.75-61.75z" fill="#febfc0"/>
<path d="m223.8 568.74c6.08 18.32 29.22 9.92 42.65 6.6-7.96 12.09-26.22 18.75-40.37 14.67-3.45-1.44-5.49-5.31-5.12-8.97 0.45-4.19 1.09-8.45 2.84-12.3z" fill="#feaefb"/>
<path d="m517.73 579.43c21.34-3.9 41.83 10.45 48.08 30.45-6.84 19.35-13.86 39.05-24.06 56.88-27.75-11.8-56.3-34.46-88.45-24.42-13.1 1.94-22.84 12.14-35.75 14.05 12.67-16.9 31.49-28.67 42.92-46.93 10.24-21.76 36.64-24.61 57.26-30.03m-5.05 13.04c-19.45 4.93-30.76 25.12-44.47 37.59 19.57 2.88 40.35 11.19 57.42 22.58 4.22 0.99 8.2-1.42 9.91-5.16 6.71-11.95 12.63-25.18 13.25-39.03-8.83-9.8-22.26-18.41-36.11-15.98z" fill="#f3ce11"/>
<path d="m396.95 583.32c8.69 5.11 13.84 17.88 20.77 26.14-2.58 13.46-10.22 26.06-14.02 39.43-20.34-8.79-42.01-28.44-38.33-53.2 11.16-2.26 21.58-7.08 31.58-12.37z" fill="#635717"/>
<path d="m270.5 587.38c6.64 2.23 10.29 12.65 16.11 17.87-5.7 6.9-17.49 20.44-28.34 13.12-4.12-11.84 1.53-24.95 12.23-30.99z" fill="#bd0105"/>
<path d="m512.68 592.47c13.85-2.43 27.28 6.18 36.11 15.98-0.62 13.85-6.54 27.08-13.25 39.03-1.71 3.74-5.69 6.15-9.91 5.16-17.07-11.39-37.85-19.7-57.42-22.58 13.71-12.47 25.02-32.66 44.47-37.59z" fill="#feef95"/>
<path d="m295.3 616.42c2.5-0.05 1.13 4.52-0.54 5.41-11.81 10.39-26.79 18.12-42.44 20.07-7.03 0.24-8.17-8.59-4.23-12.92 17.18 6.4 31.89-7.14 47.21-12.56z" fill="#feaefa"/>
<path d="m569.23 620.02c2.05 17.07 10.86 37.06 29.27 41.21-6.7 15.96-9.07 34.39-19.71 48.93-6.8-15.26-16.83-28.96-30.54-38.55 3.25-18.41 16.76-33.26 20.98-51.59z" fill="#f4ce0f"/>
<path d="m684.02 639.91c31.1 11.99 59.7 29.22 88.74 45.33 74.33 47.43 117.17 128.24 146.03 208.93 16.99 64.19 21.46 132.83 7.21 198.03-16.4 61-39.38 120.1-62.25 179.1-20.68-27.3-42.93-53.1-66.84-77.6 39.74-108.9 45.73-229.06 19.12-341.72-7.61-26.01-12.44-53.26-25.8-77.21-23.52-41.42-44.03-87.45-83.21-116.79-7.21-6.6-18.07-9.11-23-18.07m156.05 150.08c11.56 27.95 21.07 56.97 24.74 87.16 16.08 84.05 15.05 170.15 15.78 255.25 15.39-55.3 27.39-111.5 33.09-168.69 2.14-27.28-9.87-52.51-18.87-77.53-16.34-33.03-32.53-66.65-54.74-96.19z" fill="#beb774"/>
<path d="m688.82 652.28c22.12 13.29 31.61 38.63 45.29 57.66 29.85 80.3 10.51 168.41-16.42 246.74-3.81 19.97-13.3 37.54-24.09 54.52-4.53-27.91-4.63-56.82-2.08-84.99-6.55-40.66-15.01-81.12-20.37-121.96 4.68-12.54 9.6-25.25 16.09-37.06 9.03-37.42 13.79-77.52 1.58-114.91z" fill="#d09264"/>
<path d="m688.01 673.06c11.63 63.07-17.85 125.75-49.11 179.8-26.04 35.16-60.21 63.12-95.37 88.69-23.57 11.93-40.86 33.47-65.54 43.43-31.97 17.22-63.86 34.82-96.86 49.92-7.91-12.2-18.51-22.3-27.12-33.9 4.41-1.61 1.38-1.97-2.71-1.93-3.32-4.63-6.88-9.07-10.76-13.22 61.56-12.14 119.22-38.64 174.52-67.8 40.1-16.08 73.45-45.22 100.77-78.22 27.44-22.35 44.38-53.98 62.43-83.72 7.83-26.9 10.84-55.09 9.75-83.05z" fill="#ba714a"/>
<path d="m723.94 681.07c64.47 71.22 94.02 167.24 101.41 261.62 7.88 83.21-5.17 168.01-33.37 246.51-48.26-43.2-87.86-100.5-96.97-165.9 43.26-86.1 72.55-183.37 56.17-280.5-3.82-22.5-17.21-41.74-27.24-61.73z" fill="#cb9e69"/>
<path d="m877.11 745.98c5.39 1.87 9.51 6.44 13.45 10.47 54.64 51.08 105.12 107.61 141.64 173.31 42.1 55.72 110.2 82.44 175 101.64-39.8 0.3-79.9-7-119.2-13.4-23.9-6.7-50.3-8.4-70.4-24.57-5-5.03-17.3-10.84-20.89-1.5-3.05 16.77-8.48 33.27-9.03 50.67-9.94 47-29.98 91-51.09 133.9-0.6 3.3-7.04 3.4-3.28-2.1 11.91-52.3 23.69-104.9 26.63-158.5 3.13-26.94-5.93-52.76-11.02-78.82-18.19-65.58-39.02-131.24-71.81-191.1z" fill="#bfaa35"/>
<path d="m840.07 789.99c22.21 29.54 38.4 63.16 54.74 96.19 9 25.02 21.01 50.25 18.87 77.53-5.7 57.19-17.7 113.39-33.09 168.69-0.73-85.1 0.3-171.2-15.78-255.25-3.67-30.19-13.18-59.21-24.74-87.16z" fill="#d5cea0"/>
<path d="m656.98 832.02c7.62-7.71 9.42-19.25 14.17-27.77 5.36 40.84 13.82 81.3 20.37 121.96-2.55 28.17-2.45 57.08 2.08 84.99-16.49 30.2-32.34 62.2-53.56 89.8-40.07 46.2-79.44 94-125.07 134.7-32.61-72.1-80.81-135.8-129.4-197.8 100.26-52.68 208.88-106.55 271.41-205.88z" fill="#b37a4d"/>
<path d="m33.99 985.67c51.95 3.43 104.28 13.5 156.74 14.43 50.53 3.9 100.12-7.24 149.81-14.25 3.88 4.15 7.44 8.59 10.76 13.22-31.07 6.33-62.79 8.43-94.11 13.33-46.58 1.7-94.07 9.7-140.08-1.5 18.05 11.2 33.13 28.4 37.16 49.9 5.83 31 0.99 62.9 3.02 94.3 28.41-44.3 64.99-85.4 112.56-109.2 27.44-16.1 55.06-32 84.16-44.9 8.61 11.6 19.21 21.7 27.12 33.9-66.39 30.8-134.57 63-188.82 112.4-12.71 15.3-26.41 29.7-39.41 44.8-19.01-53.8-16.5-116.7-53.55-163.5-16.16-21-40.85-34.18-65.36-42.93z" fill="#d08551"/>
<path d="m21.58 988.27c45.29 8.37 82.46 45.93 97.65 88.53 12.9 58.9 26.86 117.7 39.84 176.2-28.08-77.6-125.47-107.6-146.48-189.6-7.67-24.5-9.95-55.2 8.99-75.13z" fill="#9b5e3f"/>
<path d="m351.3 999.07c4.09-0.04 7.12 0.32 2.71 1.93-29.1 12.9-56.72 28.8-84.16 44.9-47.57 23.8-84.15 64.9-112.56 109.2-2.03-31.4 2.81-63.3-3.02-94.3-4.03-21.5-19.11-38.7-37.16-49.9 46.01 11.2 93.5 3.2 140.08 1.5 31.32-4.9 63.04-7 94.11-13.33z" fill="#ffe1af"/>
<path d="m1378 1017.1c44.9 27.3 87.5 61.2 138.1 77.9 17.8 3 36.4-1 54.2 1.9-42.6 26.6-92.1 41.3-141.9 46.5-30.1 6.7-59.6 16.2-87.4 29.6 21.8-20.5 47.3-37.9 75-49.8 13.5-10.7 7-30.1 2.8-44-9.3-23.2-25.8-42.6-40.8-62.1z" fill="#ffe1af"/>
<path d="m687.74 1033.8c2.54-3 3.83-9.3 7.27-10.5 9.11 65.4 48.71 122.7 96.97 165.9-18.26 58.9-54.87 110.2-82.94 164.8-15.26 35.6-38.26 67.5-60.07 99.2-38.51-33.6-74.45-70.4-107.63-109.2 2.25-36.2-8.36-72.4-25.14-104.2 67.52-59 126.53-128.4 171.54-206z" fill="#af8555"/>
<path d="m161.35 1190.3c57.06-72.5 140.84-117 224.22-152.4 48.59 62 96.79 125.7 129.4 197.8-27.92 23.1-56.03 46.1-86.63 65.6-37.87 32.3-73.13 67.4-113.16 96.9-23.5 22.4-47.86 51.1-54.8 82.4-15.6-37.3-36.81-71.4-59.21-104.8-20.58-53.3-31.42-109.9-44.5-165.5-2.09-6.8-1.2-15.4 4.68-20m110.21-54.8c-38.06 7-84.12 28.9-89.54 71.7 5.09 44.5 13.58 88.8 24.52 132.2 8.97 23.3 14.08 50.1 33.69 67.3 9.45 10 26.04 7.7 35.65-0.9 33.7-25.9 50.46-69 87.43-91.5 21.2-12.9 43.27-27 64.49-38.5-52.22-4.6-110.58-4.6-160.69-26.9-14.35-6.5-30.84-19.7-26.98-37.5 0.9-27.9 12.79-55.1 34.28-73.1 4.05-1.9-0.89-4.3-2.85-2.8z" fill="#d09263"/>
<path d="m1043.3 1076.9c4.1 52.5 45.4 97.4 91.7 120.1 22.2 11.8 47.9 3.3 71.1 0.1 31.6-5.4 62-15.2 93-23-36.3 24-74.7 44.7-112 67-14.9 10.1-34.7 15.8-42.1 33.9-8.8 21.1-18.6 41.9-30.9 61.2-16 33.2-18.6 70.6-22.1 106.7-7-50.3-27.6-99.5-54.8-143.1-34-69.8-22-153.5 6.1-222.9z" fill="#ffe1af"/>
<path d="m271.56 1135.5c1.96-1.5 6.9 0.9 2.85 2.8-21.49 18-33.38 45.2-34.28 73.1-3.86 17.8 12.63 31 26.98 37.5 50.11 22.3 108.47 22.3 160.69 26.9-21.22 11.5-43.29 25.6-64.49 38.5-36.97 22.5-53.73 65.6-87.43 91.5-9.61 8.6-26.2 10.9-35.65 0.9-19.61-17.2-24.72-44-33.69-67.3-10.94-43.4-19.43-87.7-24.52-132.2 5.42-42.8 51.48-64.7 89.54-71.7z" fill="#e1c100"/>
<path d="m749.68 1292.7c19.96-30.9 33.55-65.1 47.23-99 23.91 24.5 46.16 50.3 66.84 77.6-23.92 58-38.43 119.5-40.07 182.4-0.89 58.2 9.49 116.3 24.14 172.5-66.84-52.5-130.42-109.6-193.67-166.4 33.23-54.9 69.5-108.1 95.53-167.1z" fill="#a39d67"/>
<path d="m879.85 1317.2c-4.31-31.7-7.06-66.4 9.05-95.4-1.16 5.5-2.15 11.1-0.34 16.6 8.73 48.2 26.93 94.1 44.2 139.8 21.03 44.1 37.43 91.3 67.94 130.1 27.4 24 66.3 16.1 99.3 18.9-8.7 40.5-33.6 76.1-55.5 110.6-24.8-8.1-44.2-31.6-56.05-54.2-7.54-17.4-20.74-31.4-28.56-48.6-2 1-3.14 3.1-4.11 5-24.54-39.7-40.15-84.1-55.97-127.8-7.54-31.5-18.78-62.3-19.96-95z" fill="#bfaa35"/>
<path d="m350.13 1376.1c51.76-49.6 109.4-92.5 166.07-136.3 16.78 31.8 27.39 68 25.14 104.2 33.18 38.8 69.12 75.6 107.63 109.2-32 44.9-56.21 94.7-82.95 142.8-14.59 35.7-23.32 75.4-31.88 111.7-10.64-6.1-22.64-3.1-32.9-10.8-27.76-23.6-60.53-40.3-88.24-63.9-31.91-23.8-59.46-53-91.97-76-17.46-24.2-44.47-42.5-55.82-70.9 16.3-44.3 49.48-79.8 84.92-110m112.51-50.5c-51.75 27.3-101.16 60-145.55 98.5-11.23 12.9-27.29 26.1-26.16 44.9 11.41 23.8 32.13 41.2 49.48 60.6 49.05 46.2 98.5 92.4 153.5 131.5 9.04 8 22.37 1.5 26.95-8.3 15.77-30.3 22.26-64.2 32.44-96.5 9.14-22.5 20.85-43.8 29.39-66.6-33.59 21.3-64.77 49.2-104.12 59.8-14.25 6.2-32.31 4.7-43.45-6.6-9.62-16.2-13.54-35.1-17.82-53.2-14.2-56.6 8.07-116.1 44.55-159.8 1.49-1.3 5.02-6.4 0.79-4.3z" fill="#cb9e69"/>
<path d="m868.09 1273.3c-0.5-3.4 5.79-13.1 4-2.2-0.67 49.7 7.96 99.7 25.77 146.1 7.47 36.2 24.39 69.5 39.6 102.8 0 13 7.88 24.1 11.31 36.2 17.87 40.2 34.68 81.5 61.43 116.8-21.41 10.4-40.84 25.6-63.93 31.9-30.68-24-62.24-47.2-91.88-72.7-0.16 1.5-0.48 4.4-0.64 5.8-15.83-63.7-23.96-129.2-25.73-194.9 4.54-58.3 18.61-115.4 40.07-169.8z" fill="#9e9142"/>
<path d="m462.64 1325.6c4.23-2.1 0.7 3-0.79 4.3-36.48 43.7-58.75 103.2-44.55 159.8 4.28 18.1 8.2 37 17.82 53.2 11.14 11.3 29.2 12.8 43.45 6.6 39.35-10.6 70.53-38.5 104.12-59.8-8.54 22.8-20.25 44.1-29.39 66.6-10.18 32.3-16.67 66.2-32.44 96.5-4.58 9.8-17.91 16.3-26.95 8.3-55-39.1-104.45-85.3-153.5-131.5-17.35-19.4-38.07-36.8-49.48-60.6-1.13-18.8 14.93-32 26.16-44.9 44.39-38.5 93.8-71.2 145.55-98.5z" fill="#e1c100"/>
<path d="m556.45 1657.3c18.53-72.2 57.17-135.9 97.7-197.5 63.25 56.8 126.83 113.9 193.67 166.4 7.68 34.2 16.23 68.8 32.23 100-105.6 25.5-220.53 30.5-322.94-10.4-5.44-1.1-11.68-0.6-16.08-4.6-0.71-19.2 8.48-36.6 15.42-53.9m80-114.8c-26.48 36.7-54.06 76.3-62.13 121.9-3.14 18 12.98 30.6 29.4 31.9 72.03 15.5 145.81 19.9 219.08 25-3.56-27.4-6.33-54.9-9.89-82.3-36.34 15.3-73.5 32.5-113.58 34-25.94-3.6-43.82-27.2-53.43-49.9-11.23-25.3-16.74-54.5-8.2-81.5-0.31 0.2-0.94 0.7-1.25 0.9z" fill="#bfb774"/>
<path d="m948.77 1556.2c-3.43-12.1-11.31-23.2-11.31-36.2 4.72 11.4 15.58 20.4 16.48 33.1 26.69 35 46.76 76 81.66 104.1-7.6 4.8-17.7 9.6-25.4 15.8-26.75-35.3-43.56-76.6-61.43-116.8z" fill="#bea935"/>
<path d="m636.45 1542.5c0.31-0.2 0.94-0.7 1.25-0.9-8.54 27-3.03 56.2 8.2 81.5 9.61 22.7 27.49 46.3 53.43 49.9 40.08-1.5 77.24-18.7 113.58-34 3.56 27.4 6.33 54.9 9.89 82.3-73.27-5.1-147.05-9.5-219.08-25-16.42-1.3-32.54-13.9-29.4-31.9 8.07-45.6 35.65-85.2 62.13-121.9z" fill="#d5cea0"/>
<path d="m853.75 1638c0.16-1.4 0.48-4.3 0.64-5.8 29.64 25.5 61.2 48.7 91.88 72.7-18.71 5-36.27 12.9-54.7 18.8-3.53 1-7.21-1.7-8.44-4.9-14.85-24.8-21.61-53.3-29.38-80.8z" fill="#bfaa35"/>
</svg>
