<?xml version="1.0" encoding="UTF-8" standalone="no"?>
<!-- Created with Inkscape (http://www.inkscape.org/) -->

<svg
   xmlns:dc="http://purl.org/dc/elements/1.1/"
   xmlns:cc="http://creativecommons.org/ns#"
   xmlns:rdf="http://www.w3.org/1999/02/22-rdf-syntax-ns#"
   xmlns:svg="http://www.w3.org/2000/svg"
   xmlns="http://www.w3.org/2000/svg"
   xmlns:sodipodi="http://sodipodi.sourceforge.net/DTD/sodipodi-0.dtd"
   xmlns:inkscape="http://www.inkscape.org/namespaces/inkscape"
   id="svg51057"
   version="1.1"
   inkscape:version="0.91 r13725"
   width="468.75"
   height="570"
   viewBox="0 0 468.75 570"
   sodipodi:docname="DancingMan_Silhouette.svg">
  <metadata
     id="metadata51063">
    <rdf:RDF>
      <cc:Work
         rdf:about="">
        <dc:format>image/svg+xml</dc:format>
        <dc:type
           rdf:resource="http://purl.org/dc/dcmitype/StillImage" />
        <dc:title></dc:title>
      </cc:Work>
    </rdf:RDF>
  </metadata>
  <defs
     id="defs51061" />
  <sodipodi:namedview
     pagecolor="#ffffff"
     bordercolor="#666666"
     borderopacity="1"
     objecttolerance="10"
     gridtolerance="10"
     guidetolerance="10"
     inkscape:pageopacity="0"
     inkscape:pageshadow="2"
     inkscape:window-width="1600"
     inkscape:window-height="837"
     id="namedview51059"
     showgrid="false"
     inkscape:zoom="0.5877193"
     inkscape:cx="5.903681"
     inkscape:cy="541.18051"
     inkscape:window-x="-8"
     inkscape:window-y="-8"
     inkscape:window-maximized="1"
     inkscape:current-layer="svg51057" />
  <path
     style="fill:#000000"
     d="m 211.98828,0.2578125 c -2.16035,0.00593 -4.29955,0.58300116 -8.7168,1.9824219 -4.29108,1.3594513 -9.27929,3.0675017 -11.08398,3.796875 -1.80469,0.7293732 -4.51251,1.5949859 -6.01758,1.921875 -5.2523,1.1407595 -20.36807,19.5973146 -25.71289,31.3964846 -0.82222,1.815144 -1.5989,3.463799 -1.72656,3.662109 -0.12766,0.198311 -1.53376,-0.179597 -3.12305,-0.83789 -4.42677,-1.83363 -7.19336,0.0024 -7.19336,4.771484 0,2.723096 0.28539,3.427319 1.11328,2.740234 0.61265,-0.508452 1.45891,-0.612713 1.88086,-0.230468 0.42195,0.382244 0.46511,0.167968 0.0937,-0.476563 -0.41709,-0.724762 -0.11682,-1.171875 0.78711,-1.171875 0.80387,0 1.46094,0.466318 1.46094,1.037109 0,0.570794 0.6122,0.804299 1.35938,0.517579 0.90799,-0.348428 1.18436,-0.07205 0.83593,0.835937 -0.28672,0.747177 -1.27439,1.359375 -2.19531,1.359375 -0.92092,0 -1.91609,0.632812 -2.21289,1.40625 -0.29679,0.773437 -1.39787,1.40625 -2.44531,1.40625 -2.03485,0 -2.70031,1.801134 -0.73242,1.982422 3.04514,0.280529 5.05782,-0.424166 6.54296,-2.291016 1.82966,-2.299892 2.15972,-1.526468 0.66016,1.542969 -0.94029,1.924669 -0.89543,1.915089 0.76172,-0.136719 l 1.76367,-2.18164 1.15039,4.52539 c 0.63248,2.489719 1.50003,5.85209 1.92774,7.470703 1.73645,6.571277 5.63214,9.604702 16.79492,13.078125 l 7.15625,2.226563 -1.15235,0.851562 c -0.77921,-0.44042 -2.43057,-0.977294 -4.04687,-1.279297 -4.71805,-0.881523 -9.34415,1.300331 -14.94336,7.048829 -5.50999,5.656895 -6.59454,5.605768 -13.29297,-0.615235 C 149.25467,84.343599 146.42016,82.5 145.38477,82.5 c -1.03541,0 -3.32414,1.265625 -5.08594,2.8125 -3.74832,3.291073 -4.72646,3.397656 -9.91602,1.074219 -3.67906,-1.647164 -8.50781,-1.714687 -8.50781,-0.119141 0,1.354607 -6.63802,4.669922 -9.34961,4.669922 -2.00681,0 -3.42649,-0.942098 -5.65039,-3.75 -3.19355,-4.032177 -6.72197,-4.971954 -8.271484,-2.203125 -0.892059,1.594015 -1.465484,1.535146 -7.708985,-0.783203 C 85.731017,82.283845 82.896777,80.095488 80.005859,75.791016 78.541282,73.610313 76.968003,71.800834 76.509766,71.771484 76.051528,71.742128 73.258394,69.292969 70.302734,66.328125 65.356264,61.366288 61.875,59.536406 61.875,61.898438 c 0,0.528387 -1.054688,1.361461 -2.34375,1.851562 -1.4349,0.545548 -2.34375,1.626936 -2.34375,2.789062 0,1.044012 -0.255841,1.898438 -0.568359,1.898438 -1.336118,0 -7.556641,-5.651262 -7.556641,-6.865234 0,-4.062939 -4.622035,-15.087036 -7.841797,-18.701172 -1.533611,-1.721456 -2.972895,-3.045355 -3.650391,-3.404297 -0.786305,-0.668635 -1.67123,-1.286699 -2.623046,-1.832031 -0.249085,-0.338028 -0.703012,-0.782099 -1.382813,-1.339844 -1.726892,-1.416836 -2.892383,-3.657499 -4.095703,-6.023438 -0.777129,-1.527972 -0.424652,-5.454052 -1.603078,-5.667414 -0.843503,-0.152722 -0.340802,-0.540754 -1.356315,0.180794 -3.164154,1.400748 -2.920218,5.744597 -2.285302,9.171964 4.635459,12.690921 -15.1339318,6.47874 -3.67718,-4.52714 0.624076,-0.399894 1.424191,-1.260354 2.421875,-2.101563 1.110572,-1.601443 5.007402,-3.520533 4.82159,-5.582061 C 27.707326,19.742905 27.624627,18.75 27.125,18.75 c -0.06052,0 -0.114548,0.01416 -0.166016,0.03125 l 0,-0.171875 -1.861328,1.064453 -4.896484,3.896484 c -5.628939,3.81009 -7.017166,7.031813 -8.589844,12.523438 L 10.693359,33.75 C 10.188146,32.460937 9.9317123,28.828266 10.125,25.677734 10.39138,21.33581 10.651733,19.208143 9.5537162,18.296871 9.2000138,18.003324 7.8509104,18.424482 7.5830026,18.29297 7.0844727,17.717054 6.8923194,17.235855 6.1367188,17.234375 c -0.678401,1.92e-4 -1.3305267,0.26608 -1.8203126,0.742187 -0.058734,-0.03419 -0.1149054,-0.05475 -0.1699218,-0.05469 -0.7193727,8.25e-4 -2.4816434,3.049201 -1.6074219,11.236328 0.6377069,8.652239 0.7261063,17.352862 2.9052622,23.511723 1.4827753,4.10357 1.2936739,5.252967 4.9482533,8.970699 2.125648,2.16238 4.238609,3.984375 4.761719,3.984375 0.523111,0 1.651724,0.802162 2.507812,1.783203 0.856089,0.981041 5.603558,3.529258 10.548829,5.662109 6.126789,2.642433 9.642496,4.76017 11.037109,6.646485 1.125669,1.52255 3.745034,3.634632 5.820312,4.693359 4.580862,2.336981 5.313829,3.921745 3.259766,7.056641 -3.5085,5.354649 1.109417,11.349476 7.023437,9.117186 1.059283,-0.39981 1.738984,-0.54858 2.273438,-0.4082 -0.304048,0.84019 -0.475829,1.99197 -0.476562,3.19531 7.9e-5,0.88364 0.09251,1.74743 0.265624,2.48243 0.177876,2.29544 3.083253,7.21369 4.832032,7.88476 0.69881,0.26815 3.180285,-0.19928 5.515625,-1.03906 l 4.246093,-1.52734 2.667969,2.85351 c 1.467135,1.56937 4.167752,3.56585 6.001953,4.43555 2.29018,1.0859 3.707948,2.61003 4.523438,4.86523 1.41974,3.92622 4.6654,6.27848 8.265625,5.99024 1.44486,-0.11568 3.292047,0.0788 4.105469,0.43164 0.813422,0.35285 2.536014,0.2393 3.828124,-0.25196 1.3998,-0.53218 2.88649,-0.55385 3.67773,-0.0527 0.73042,0.46232 2.88239,0.84847 4.78126,0.85547 2.52665,0.0105 3.59947,0.47799 4.00195,1.74609 1.12284,3.53774 7.95085,4.59245 11.52344,1.7793 0.78566,-0.61864 2.20636,-0.42402 4.35937,0.59766 3.94128,1.87026 7.06145,1.92875 9.55859,0.17968 1.2431,-0.8707 2.37736,-1.0383 3.25586,-0.48242 0.74139,0.46911 4.32628,0.86019 7.9668,0.86719 6.81286,0.0148 11.41754,-1.36055 23.00195,-6.86719 2.88569,-1.37171 5.95157,-2.49414 6.8125,-2.49414 1.7432,0 3.37951,3.29049 5.82618,11.71875 0.89809,3.09375 4.56108,11.74219 8.14062,19.21875 5.74848,12.00681 6.66576,14.6882 7.84961,22.96875 1.6004,11.19403 1.78814,27.11817 0.4043,34.11328 -0.54946,2.77741 -0.99805,5.21631 -0.99805,5.42188 0,0.20558 -0.78849,-0.0469 -1.75195,-0.5625 -0.96345,-0.51562 -2.04127,-0.6482 -2.39453,-0.29493 -0.35326,0.35263 -2.13333,0.51258 -3.95704,0.35547 -2.88509,-0.24857 -3.85234,0.2754 -7.44921,4.0293 -2.27364,2.3729 -4.13477,4.74307 -4.13477,5.26758 -0.29334,0.45613 -0.63962,1.09414 -0.87891,1.57617 -0.4032,0.88492 -0.73127,1.7978 -1.03711,2.71875 l -1.49609,3.15625 c -1.94728,4.10829 -2.81822,12.639 -1.38086,13.52734 1.9049,1.17728 1.09548,2.3378 -4.94141,7.08204 -4.02637,3.16421 -6.15134,5.54647 -6.49414,7.28124 -0.69994,3.54238 1.55763,6.79688 4.71485,6.79688 1.37837,0 4.21654,1.14402 6.30664,2.54297 2.09021,1.39897 3.93224,2.6222 4.09375,2.7168 0.16151,0.0946 -1.69684,2.21815 -4.13086,4.7207 -15.54064,15.97818 -27.94589,34.2418 -33.72461,49.65039 -1.33307,3.55455 -3.15786,7.30664 -4.05469,8.33789 -4.59581,5.28467 -8.04324,14.71956 -7.29883,19.97656 1.76888,12.49154 1.74915,12.42918 5.04883,15.00781 1.77014,1.38334 4.34892,3.46352 5.73047,4.62305 1.38156,1.15953 2.85584,2.10875 3.27735,2.10938 0.42142,6.2e-4 0.51319,0.80041 0.20312,1.77734 -1.01012,3.18259 1.84069,4.78711 8.50977,4.78711 9.9366,0 15.9951,4.11434 14.80664,10.05664 -0.47693,2.38471 -0.0816,3.0155 3.28906,5.24609 2.10732,1.39456 3.83203,3.29013 3.83203,4.21094 0,0.92081 0.43787,2.1117 0.97266,2.64649 0.67144,0.67144 0.67144,1.76324 0,3.52929 -0.53479,1.4066 -0.97552,3.47887 -0.97852,4.60547 -0.0133,5.2025 -1.89141,8.69526 -6.54297,12.16797 -2.58588,1.93054 -4.70117,4.06423 -4.70117,4.74023 0,0.67607 -1.05058,3.30286 -2.33398,5.8379 -2.83246,5.59482 -2.36781,7.63238 1.92382,8.4375 4.76299,0.89355 10.56509,-0.24734 17.19922,-3.38477 3.23378,-1.52935 6.41662,-2.78125 7.07422,-2.78125 2.43245,0 5.97139,-3.85651 8.84961,-9.64453 2.42738,-4.88138 3.63642,-6.25205 6.71289,-7.60938 2.75157,-1.21399 4.4925,-2.9467 6.5293,-6.49804 1.5275,-2.6633 2.78015,-5.83183 2.78515,-7.04297 0.017,-4.26447 -6.38222,-15.14258 -8.9082,-15.14258 -0.65707,0 -1.43757,-0.63281 -1.73437,-1.40625 -0.29679,-0.77344 -1.50139,-1.39958 -2.67774,-1.39258 -0.53333,0.004 -0.89815,0.0273 -1.13867,0.0742 l -1.48437,-1.33594 c 2.47362,-2.20833 2.68067,-2.76239 1.66015,-4.39648 -0.64446,-1.03195 -1.91158,-2.11127 -2.81641,-2.39844 -1.24366,-0.39475 -1.5261,-1.19988 -1.15624,-3.29883 0.66407,-3.76948 -0.94419,-6.4707 -3.85352,-6.4707 -1.33867,0 -2.11493,0.40709 -1.78711,0.9375 0.31867,0.51562 -0.25565,0.9375 -1.27734,0.9375 -3.04312,0 -4.35829,-5.51263 -2.62891,-11.01953 0.76847,-2.44702 1.64936,-6.88657 1.95898,-9.86524 0.48114,-4.62861 0.3238,-5.5044 -1.08789,-6.02539 -4.682,-1.72791 -4.10683,-6.1406 1.49219,-11.43945 2.50301,-2.36882 5.42934,-5.79137 6.50391,-7.60547 1.07457,-1.8141 5.66538,-6.66566 10.20117,-10.78125 4.53577,-4.11559 9.94148,-9.22967 12.01172,-11.36523 3.88877,-4.01145 13.09265,-10.64844 14.76758,-10.64844 0.52285,0 5.01235,-2.19837 9.97461,-4.88477 11.78669,-6.38088 23.77631,-12.17331 23.17187,-11.19531 -0.26315,0.42577 0.32856,3.43717 1.31445,6.69336 1.09211,3.60676 1.49035,6.50689 1.01758,7.41992 -0.42683,0.82428 -1.05259,4.87305 -1.38867,8.99805 -0.33608,4.125 -0.82994,8.76562 -1.09961,10.3125 -0.28698,1.64623 0.32321,5.14505 1.47266,8.4375 4.79364,13.73074 5.67059,17.61379 4.32617,19.16211 -2.46331,3.70453 -6.03246,17.02179 -3.36524,23.36133 1.01992,2.24772 1.85352,4.40194 1.85352,4.78711 0,0.38517 -1.47656,2.63451 -3.28125,4.99804 -2.45226,3.21162 -3.28125,5.21951 -3.28125,7.94727 0,2.00743 -0.48953,6.08695 -1.08789,9.06641 -0.84374,4.2013 -0.8264,6.43647 0.0762,9.95703 0.89252,3.48241 0.91594,5.73143 0.10156,9.65429 -0.88566,4.26619 -0.81584,5.70339 0.42774,8.67969 0.81982,1.96211 2.09833,4.23932 2.83984,5.05859 1.09731,1.2125 1.28583,4.70734 1.01172,18.78321 -0.27843,14.29659 -0.69826,18.59503 -2.42383,24.79492 -3.33445,11.98057 -3.39695,12.41435 -1.56445,10.90039 1.34027,-1.1073 1.55664,-1.07462 1.55664,0.23438 0,0.83657 -0.5273,1.53553 -1.17188,1.55273 -0.64451,0.0172 -0.22266,0.82318 0.9375,1.79102 2.62579,2.19051 2.62227,2.2664 -0.23437,5.12304 -2.80816,2.80816 -2.92654,3.92574 -0.56836,5.39844 1.72492,1.07723 1.71813,1.15761 -0.23437,2.80664 l -2.00977,1.69922 2.26172,1.77344 2.26367,1.77148 -2.0293,1.08594 c -1.22344,0.65477 -2.02734,1.9874 -2.02734,3.35937 0,1.25083 -0.78673,3.02876 -1.74805,3.95118 -3.13627,3.00938 -3.99548,5.87861 -4.05468,13.52929 l -0.0586,7.53125 4.53516,4.60547 c 3.22589,3.27513 5.27432,4.60547 7.08789,4.60547 3.14263,0 3.57624,1.24534 3.4707,9.95508 l -0.082,6.67187 c 10.77938,5.599 22.88103,10.48657 37.34766,2.97461 1.75334,-1.64717 2.24666,-3.06811 2.22656,-6.40625 -0.023,-3.82139 -0.38565,-4.54493 -3.31641,-6.63281 -3.38023,-2.40808 -13.5332,-15.48895 -13.5332,-17.43555 0,-0.59873 -1.12385,-3.54329 -2.49805,-6.54492 -1.71751,-3.75156 -2.54705,-7.23027 -2.65234,-11.12891 -0.0842,-3.11925 -0.48001,-6.82153 -0.87891,-8.22656 -0.62148,-2.18907 -0.37176,-2.71527 1.73633,-3.67578 2.07733,-0.9465 2.4204,-1.64295 2.20508,-4.47656 -0.21496,-2.82875 0.0644,-3.40149 1.78516,-3.64649 3.83457,-0.546 4.56426,-2.60154 2.73046,-7.70117 -1.61577,-4.49331 -1.60779,-4.70684 0.39063,-10.01758 4.7688,-12.67289 8.52826,-26.20769 8.30469,-29.89453 -0.16893,-2.78579 0.33237,-4.56107 1.82226,-6.45507 1.31709,-1.67442 2.05469,-3.92585 2.05469,-6.26954 0,-2.01111 0.66815,-4.67425 1.48438,-5.91992 1.48642,-2.2686 1.10356,-6.10742 -0.60938,-6.10742 -1.85088,0 -0.865,-7.5531 1.46875,-11.25 1.28906,-2.04201 2.34375,-4.38164 2.34375,-5.19922 0,-0.81759 0.37551,-2.19805 0.83398,-3.0664 0.76806,-1.45489 0.55473,-3.59768 -1.35742,-13.6211 -0.60126,-3.15183 -0.38959,-3.85942 1.6875,-5.625 1.30677,-1.1108 2.84459,-3.45431 3.41797,-5.20703 1.31376,-4.01606 1.36867,-24.42976 0.0742,-27.83398 -0.95851,-2.52105 -0.87985,-3.1024 2.91406,-21.47852 0.53227,-2.57813 1.21958,-8.17979 1.52735,-12.44727 0.21046,-2.91833 0.29726,-4.70602 0.23828,-5.80664 l 0.38086,-4.56445 c 0.0743,0.64454 0.18759,0.77291 0.32031,0.084 0.22346,-1.16017 0.22346,-3.05859 0,-4.21876 -0.003,-0.015 -0.005,-0.0208 -0.008,-0.0351 l 1.26367,-22.33008 c 0.92967,-1.82725 0.003,-9.80728 -2.55469,-21.93164 -1.76705,-8.37499 -3.11154,-13.22169 -3.69922,-13.51367 -0.0707,-0.0352 -0.12568,0.0203 -0.17383,0.11914 l -1.33007,-3.35742 c 2.62081,1.25467 4.59352,-1.51904 2.92968,-7.54492 -0.85347,-3.09102 -0.73255,-3.8211 0.91993,-5.58008 4.69838,-5.0012 6.99089,-17.72379 4.82226,-26.76368 -1.38556,-5.77565 -5.72461,-15.0169 -9.17383,-19.53906 -2.45341,-3.21659 -2.45862,-3.2563 -0.92578,-7.58984 2.70943,-7.65993 -0.12759,-22.98964 -6.06445,-32.76367 -1.03436,-1.7029 -1.61752,-3.36101 -1.29492,-3.6836 0.32259,-0.3226 4.58571,0.54286 9.47461,1.92383 4.8889,1.38096 11.03968,2.51172 13.66796,2.51172 4.50712,0 5.03572,0.26646 9.29688,4.6875 4.64658,4.82093 7.32541,5.75216 9.39062,3.26367 0.81451,-0.98142 2.09871,-1.25391 4.12891,-0.87305 2.24669,0.42152 3.36059,0.0953 4.68945,-1.37304 1.91679,-2.11803 4.63567,-1.91162 9.17579,0.69531 2.35472,1.35207 2.6861,1.32611 4.55078,-0.36133 1.67101,-1.51218 3.46383,-1.829 10.58593,-1.875 6.90555,-0.0446 10.01519,-0.56651 15.98633,-2.68164 7.17674,-2.5422 7.51755,-2.57637 10.67578,-1.07031 1.95541,0.93248 4.28481,1.33011 5.81446,0.99414 2.47971,-0.54464 6.41707,-4.03589 6.88672,-5.70898 l 2.77148,-2.45899 0.0625,-0.14258 c 1.95919,-1.89613 4.34375,-6.49549 4.34375,-8.82812 0,-2.04643 0.99208,-3.37745 4.45312,-5.97852 2.44924,-1.84064 5.67733,-3.63875 7.17383,-3.99609 3.87692,-0.92577 7.87734,-5.58626 11.51172,-13.41016 1.78393,-3.840329 4.05219,-7.251144 5.23828,-7.876954 3.8917,-2.053356 6.4952,-5.579467 5.89258,-7.980468 -0.3818,-1.521217 -0.18137,-2.148988 0.63281,-1.984375 0.69756,0.141034 1.16079,-0.634075 1.11719,-1.869141 -0.0409,-1.160156 0.2604,-2.109375 0.66992,-2.109375 1.35901,0 2.80027,-3.791124 2.18164,-5.740234 -0.48734,-1.535492 -1.10749,-1.794713 -3.09961,-1.298828 -2.25158,0.560456 -2.17636,0.407887 0.79102,-1.591797 2.15892,-1.454881 3.38261,-3.08379 3.57812,-4.763672 0.39412,-3.386196 -1.83877,-4.170672 -5.18554,-1.822266 -1.43627,1.007821 -4.14956,2.33004 -6.0293,2.939453 -4.94706,1.603833 -16.2191,12.715817 -17.68555,17.433594 -0.6411,2.0625 -1.76903,4.910156 -2.50585,6.328125 -0.11818,0.227416 -0.16703,0.347824 -0.26172,0.537109 -2.63234,4.055486 -4.30126,9.192259 -5.46289,13.156249 -0.50333,0.0356 -1.12526,0.27874 -2.03125,0.75 -2.34168,1.21814 -2.3966,1.16859 -3.07618,-2.73437 -0.69229,-3.975976 -2.653,-6.318363 -5.28711,-6.318363 -1.54493,0 -5.74023,3.590313 -5.74023,4.912113 0,0.45906 -0.88616,2.89691 -1.9707,5.41797 -1.74564,4.05786 -2.47168,4.74591 -6.32813,5.99414 -7.73135,2.50245 -15.34666,2.85854 -20.33594,0.95312 l -4.43554,-1.69336 -1.88281,2.28516 c -1.23461,1.50014 -2.02138,1.88418 -2.29102,1.11524 -0.22601,-0.64455 -0.96337,-1.17188 -1.63867,-1.17188 -0.67531,0 -1.47077,-0.63281 -1.76758,-1.40625 -0.70425,-1.83525 -4.34961,-1.83525 -4.34961,0 0,2.12869 -2.23259,1.68863 -5.14844,-1.01367 -1.57631,-1.46087 -3.30153,-2.2385 -4.35547,-1.96289 -0.95992,0.25103 -1.74609,0.1362 -1.74609,-0.25586 0,-0.39206 -1.03439,-1.82899 -2.29883,-3.19336 -2.94807,-3.18101 -7.73145,-3.33582 -11.46094,-0.37109 -4.9621,3.9445 -6.15017,4.28051 -11.91211,3.37695 -6.48495,-1.01694 -12.08559,-3.76024 -20.13867,-9.867192 -10.54549,-7.997058 -12.28353,-8.839643 -17.00195,-8.238282 -5.56383,0.709109 -9.68164,-1.104861 -15,-6.609375 -5.60179,-5.797864 -12.37173,-9.264017 -16.71875,-8.558593 -2.96942,0.462268 -5.11132,1.941069 -7.10547,3.34375 -1.57528,1.307362 -6.03023,-0.314401 -12.80859,-4.664063 -2.37178,-1.521972 -5.37641,-2.767578 -6.67774,-2.767578 -2.06723,0 -2.30859,-0.325591 -1.9082,-2.578125 0.51592,-2.902341 3.6707,-6.796875 5.50586,-6.796875 0.66542,0 1.65278,-0.825853 2.19336,-1.835938 0.54058,-1.010083 4.56345,-3.561808 8.93945,-5.669921 7.42631,-3.577585 9.81586,-5.619141 6.58008,-5.619141 -1.11355,0 -1.02344,-0.595155 0.47266,-3.130859 1.73359,-2.938217 1.75521,-3.31519 0.34375,-6.144532 -1.37145,-2.749133 -1.60873,-2.869514 -2.69727,-1.380859 -1.11526,1.525227 -1.23444,1.504889 -1.8125,-0.316406 -0.62331,-1.963872 -3.0391,-3.052562 -6.82812,-3.076172 -2.30341,-0.01436 -3.85883,-1.778386 -2.37891,-2.697266 0.52999,-0.329071 1.04992,-1.863281 1.15625,-3.410156 0.29527,-4.295297 0.0824,-5.322254 -0.9668,-4.673828 -0.52839,0.326569 -0.90007,0.247311 -0.82617,-0.177734 0.38583,-2.221071 -0.319,-3.117188 -2.45312,-3.117188 -2.32852,0 -2.34132,0.04016 -0.82618,2.578125 l 1.53907,2.578125 -1.93946,-2.34375 c -1.16645,-1.409067 -1.74739,-3.119986 -1.45703,-4.289062 0.82949,-3.339751 -1.70279,-4.446879 -8.50195,-3.71875 l -6.06445,0.648437 0.50781,-4.523437 c 0.45004,-4.0034532 0.20371,-4.8751141 -2.14453,-7.5820318 -2.05653,-2.3706578 -3.85115,-3.2925417 -7.97657,-4.09960932 -1.80824,-0.35375258 -3.11199,-0.55629244 -4.4082,-0.55273438 z"
     id="path6262"
     inkscape:connector-curvature="0"
     sodipodi:nodetypes="cssssssssscssssscsssscccscccsscssssssssscsssssssccssscccccsccccccssccccccsssssssccccccccsssscccssssscsssssssccssccccsscscssssssscssssssscssssssssscsccccsccscsssssssssscccsssccsssscsscsssssssscccccsscccscccsssscssssssscscssscssscssccccccccccsssssscsssccssssssscccssssssscssssssssccccsssssccccscssssssssssccssssssssssssssccscccscccsssc" />
</svg>
