<?xml version="1.0" encoding="UTF-8" standalone="no"?>
<!-- Created with Inkscape (http://www.inkscape.org/) -->

<svg
   xmlns:dc="http://purl.org/dc/elements/1.1/"
   xmlns:cc="http://creativecommons.org/ns#"
   xmlns:rdf="http://www.w3.org/1999/02/22-rdf-syntax-ns#"
   xmlns:svg="http://www.w3.org/2000/svg"
   xmlns="http://www.w3.org/2000/svg"
   xmlns:sodipodi="http://sodipodi.sourceforge.net/DTD/sodipodi-0.dtd"
   xmlns:inkscape="http://www.inkscape.org/namespaces/inkscape"
   id="svg3406"
   version="1.1"
   inkscape:version="0.91 r13725"
   width="302.26099"
   height="652.77234"
   viewBox="0 0 302.26099 652.77234"
   sodipodi:docname="silhouette-danse-45.svg">
  <title
     id="title3340">Silhouette Danse 45</title>
  <metadata
     id="metadata3412">
    <rdf:RDF>
      <cc:Work
         rdf:about="">
        <dc:format>image/svg+xml</dc:format>
        <dc:type
           rdf:resource="http://purl.org/dc/dcmitype/StillImage" />
        <dc:title>Silhouette Danse 45</dc:title>
        <cc:license
           rdf:resource="http://creativecommons.org/publicdomain/zero/1.0/" />
        <dc:date>2017-03-01</dc:date>
        <dc:creator>
          <cc:Agent>
            <dc:title>JLouis</dc:title>
          </cc:Agent>
        </dc:creator>
        <dc:rights>
          <cc:Agent>
            <dc:title>Domaine pubic</dc:title>
          </cc:Agent>
        </dc:rights>
        <dc:publisher>
          <cc:Agent>
            <dc:title>inkscape</dc:title>
          </cc:Agent>
        </dc:publisher>
        <dc:subject>
          <rdf:Bag>
            <rdf:li>Silhouette</rdf:li>
            <rdf:li>dance</rdf:li>
            <rdf:li>dancer</rdf:li>
            <rdf:li>woman</rdf:li>
            <rdf:li>danse</rdf:li>
            <rdf:li>danseuse</rdf:li>
            <rdf:li>femme</rdf:li>
          </rdf:Bag>
        </dc:subject>
        <dc:description>Silhouette of dancer - Silhouette de danseuse.</dc:description>
      </cc:Work>
      <cc:License
         rdf:about="http://creativecommons.org/publicdomain/zero/1.0/">
        <cc:permits
           rdf:resource="http://creativecommons.org/ns#Reproduction" />
        <cc:permits
           rdf:resource="http://creativecommons.org/ns#Distribution" />
        <cc:permits
           rdf:resource="http://creativecommons.org/ns#DerivativeWorks" />
      </cc:License>
    </rdf:RDF>
  </metadata>
  <defs
     id="defs3410" />
  <sodipodi:namedview
     pagecolor="#ffffff"
     bordercolor="#666666"
     borderopacity="1"
     objecttolerance="10"
     gridtolerance="10"
     guidetolerance="10"
     inkscape:pageopacity="0"
     inkscape:pageshadow="2"
     inkscape:window-width="1235"
     inkscape:window-height="756"
     id="namedview3408"
     showgrid="false"
     fit-margin-top="0"
     fit-margin-left="0"
     fit-margin-right="0"
     fit-margin-bottom="0"
     inkscape:zoom="0.82783883"
     inkscape:cx="164.11456"
     inkscape:cy="318.53677"
     inkscape:window-x="0"
     inkscape:window-y="0"
     inkscape:window-maximized="1"
     inkscape:current-layer="svg3406" />
  <g
     id="g3416"
     transform="translate(-14.131016,-14.262206)">
    <path
       style="fill:#e7d9e4"
       d="m 207.69917,666.41126 c -6.65948,-0.87489 -7.2201,-1.30353 -10.83711,-8.28626 -2.09874,-4.05166 -7.48972,-3.82797 -13.00421,0.53959 -4.44429,3.51993 -5.62466,3.83541 -14.35023,3.83541 -7.6176,0 -9.97188,-0.46426 -11.84302,-2.3354 -5.13756,-5.13756 -4.72374,-29.81906 1.11356,-66.4146 2.02874,-12.71875 4.57764,-28.75 5.66421,-35.625 1.72994,-10.94569 7.00819,-39.80315 8.74528,-47.8125 0.87572,-4.03778 -0.99515,-3.49663 -7.56265,2.1875 -6.28014,5.43542 -7.09316,5.6654 -12.8874,3.64552 -4.61341,-1.60825 -5.3211,-3.4211 -4.65704,-11.9297 0.65734,-8.42217 4.43799,-15.21851 10.30245,-18.52025 5.28499,-2.9755 5.03386,-1.29677 3.81846,-25.52578 -0.38035,-7.58228 -0.0471,-9.7324 1.89033,-12.1954 2.95591,-3.75784 6.56659,-5.736 12.1582,-6.66105 l 4.375,-0.72378 1.38775,-11.85727 c 0.77237,-6.59932 0.92265,-12.769 0.33889,-13.91332 -0.57688,-1.13081 -2.8237,-2.67472 -4.99295,-3.43093 -7.94477,-2.76955 -16.04293,-10.32459 -20.2459,-18.88804 -3.78967,-7.72133 -3.98085,-8.80815 -3.8482,-21.875 0.108,-10.64286 0.76505,-15.58604 2.90747,-21.875 2.87854,-8.44981 9.70865,-21.65325 14.549,-28.125 1.54259,-2.0625 3.75866,-6.68789 4.92463,-10.27863 1.81965,-5.60392 1.90166,-7.46293 0.57903,-13.125 -2.80907,-12.02546 -15.735,-35.37747 -34.86177,-62.9814 -4.81515,-6.94926 -9.46235,-14.26176 -10.32711,-16.25 -0.86475,-1.98823 -2.95569,-5.86497 -4.64653,-8.61497 -3.44333,-5.6003 -12.52781,-23.92379 -15.18337,-30.625 -0.95354,-2.40625 -3.65339,-7.75 -5.99965,-11.875 -2.34626,-4.125 -6.426749,-11.79099 -9.067748,-17.03554 -2.640998,-5.24454 -6.649453,-11.48017 -8.907678,-13.85695 C 77.333535,125.56561 65.740724,108.46676 55.631524,89.375 52.355207,83.1875 48.218981,77 46.439911,75.625 41.995619,72.190115 37.515666,67.555446 33.446546,62.182904 31.560896,59.693243 26.67687,55.875394 22.593155,53.698796 18.509439,51.522199 14.866772,48.955792 14.49834,47.995672 c -0.856215,-2.231259 -0.808658,-2.225671 6.892681,0.809913 10.804964,4.258919 11.476478,2.595924 2.455996,-6.082247 C 14.797883,34.017596 15.561108,32.421193 25.14902,40 31.16668,44.756687 33.75,46.008752 33.75,44.168664 33.75,43.711429 30.336495,39.782516 26.164434,35.437747 19.488904,28.485876 17.82326,25 21.177002,25 c 0.566203,0 4.571834,3.648672 8.901402,8.10816 7.849101,8.084632 11.389882,9.932666 6.588967,3.438966 -4.186495,-5.662636 -6.94627,-11.768227 -5.825795,-12.888702 1.40972,-1.40972 2.640495,-0.403088 8.517785,6.966576 C 44.717519,37.343713 52.33718,45 53.665593,45 c 0.448742,0 1.474717,-2.463263 2.279944,-5.473916 1.372243,-5.130664 4.186272,-7.864707 6.575174,-6.388284 0.574809,0.355251 0.591559,2.227341 0.03722,4.1602 -0.554336,1.932857 -1.410351,8.599349 -1.902257,14.814424 -0.739249,9.340202 -0.532685,11.999563 1.190964,15.332731 4.116018,7.959504 33.629503,48.093965 40.945012,55.679845 1.98899,2.0625 5.01373,6 6.72164,8.75 8.19442,13.19427 18.58072,31.37919 25.5232,44.6875 4.21408,8.07812 8.03919,14.68827 8.50024,14.68923 0.46104,9.6e-4 3.36951,2.30419 6.46326,5.11832 7.44942,6.77611 18.49697,13.93388 20.037,12.98208 0.67693,-0.41837 2.09308,-2.42817 3.147,-4.46622 2.58353,-4.996 1.27933,-11.23171 -3.64728,-17.43853 -10.16119,-12.80164 -9.79562,-11.97725 -11.32422,-25.53654 -1.16656,-10.34785 -1.13292,-13.85339 0.16903,-17.614 4.13619,-11.94708 14.4,-18.88359 26.14759,-17.67113 7.38188,0.76188 16.87346,5.81993 19.17216,10.21684 1.10311,2.11001 6.34625,16.97266 7.50786,21.28245 1.18458,4.39496 -0.26037,10.82124 -3.12917,13.91673 -1.74353,1.8813 -2.86853,4.20628 -2.5,5.16663 0.36851,0.96037 0.67003,7.56618 0.67003,14.67959 0,10.12234 0.4294,13.36288 1.97555,14.90904 1.80075,1.80074 2.27428,1.7991 5.35127,-0.0185 1.85663,-1.09674 5.5695,-5.38225 8.25081,-9.52335 2.6813,-4.1411 5.50422,-8.17072 6.27315,-8.95469 4.48596,-4.57377 11.03474,-17.9861 14.24229,-29.16913 2.01036,-7.00903 4.59528,-14.60278 5.74428,-16.875 1.14899,-2.27221 2.81728,-8.91254 3.7073,-14.75629 0.97314,-6.38951 3.88855,-16.42222 7.3135,-25.16768 3.13242,-7.998477 7.36732,-20.092227 9.4109,-26.875004 2.04357,-6.782801 4.95874,-15.426096 6.47811,-19.207346 2.82593,-7.032834 2.89731,-10.959499 0.50564,-27.8125 -1.04231,-7.344688 0.92352,-7.909953 4.34715,-1.25 l 2.40965,4.6875 1.30034,-3.125 c 5.60612,-13.472814 6.49611,-15.112901 7.77275,-14.323896 1.3087,0.808817 0.86725,6.260411 -0.93934,11.600163 -0.39053,1.154303 1.18932,-0.567568 3.5108,-3.826381 4.49231,-6.306184 6.83426,-7.658601 5.6909,-3.286344 -0.39311,1.503253 0.0821,3.44217 1.09086,4.450947 1.54988,1.549871 1.45695,2.435155 -0.69925,6.66166 -3.18302,6.239242 -3.22749,8.531756 -0.11075,5.711157 1.42216,-1.287034 2.68368,-1.652185 3.14259,-0.909637 1.36159,2.203087 -7.31959,21.934965 -11.73606,26.675493 -1.29474,1.389734 -3.95174,9.610359 -6.30642,19.511694 -5.09858,21.439374 -11.91056,47.853684 -14.24457,55.235144 -0.97824,3.09375 -3.84061,13.21875 -6.36081,22.5 -2.5202,9.28125 -6.55142,22.21875 -8.95825,28.75 -2.40684,6.53125 -6.86778,18.94882 -9.91318,27.59461 l -5.53711,15.7196 4.08145,9.2804 4.08146,9.28039 -0.35799,24.60396 -0.35798,24.60396 -5.63412,17.84702 c -5.29572,16.77515 -5.64763,18.77356 -5.8594,33.27428 -0.18113,12.40355 0.1358,15.65828 1.61709,16.60588 1.01333,0.64824 12.81115,5.47526 26.2174,10.72673 34.94579,13.68887 46.68471,19.46553 49.75945,24.48635 3.09853,5.05967 3.47036,7.55438 2.19508,14.72682 -1.45962,8.2091 -3.47935,11.40775 -12.16817,19.27069 -14.24615,12.89204 -50.62841,36.22234 -74.4157,47.71944 -6.32738,3.05821 -11.86007,6.13598 -12.29487,6.8395 -0.43479,0.70351 -1.32066,7.30151 -1.9686,14.66223 -1.34346,15.26206 -3.06749,23.997 -9.39361,47.59372 -4.23433,15.79422 -4.43788,17.43931 -3.71182,30 0.4225,7.30918 1.09905,16.55905 1.50344,20.55526 0.58571,5.78804 0.19443,8.52303 -1.92384,13.44706 -3.15331,7.3301 -2.74232,8.47209 5.77479,16.0461 3.31036,2.94381 7.87919,7.03183 10.15293,9.08446 2.27375,2.05264 6.4925,4.53663 9.375,5.51999 10.66652,3.63886 15.62293,11.19729 11.04768,16.84749 -2.01913,2.49353 -3.59015,2.8797 -12.80415,3.14731 -5.77643,0.16777 -13.50673,-0.0896 -17.17843,-0.57199 z M 241.21072,422.1875 c 0.0216,-0.51563 -1.36697,-0.9375 -3.08572,-0.9375 -2.51528,0 -3.125,0.62111 -3.125,3.18335 0,3.15796 0.0246,3.16545 3.08572,0.9375 1.69714,-1.23521 3.10339,-2.66773 3.125,-3.18335 z"
       id="path3430"
       inkscape:connector-curvature="0" />
    <path
       style="fill:#cca8ca"
       d="m 209.375,666.44217 c -7.80643,-1.0763 -9.19505,-1.95617 -11.39431,-7.21977 -0.97034,-2.32231 -2.55444,-4.2224 -3.52023,-4.2224 -0.9658,0 -2.53215,-0.29784 -3.48077,-0.66186 -0.94864,-0.36403 -4.30633,1.3494 -7.46154,3.8076 -5.53084,4.30903 -6.06246,4.45618 -14.81093,4.09936 -8.30285,-0.33864 -9.29765,-0.67044 -11.7032,-3.90339 -2.41025,-3.23925 -2.60713,-4.97292 -2.36597,-20.83316 0.18322,-12.04996 1.41999,-24.63366 4.0755,-41.46671 2.09685,-13.29177 4.14212,-26.41684 4.54506,-29.16684 0.40294,-2.75 2.92834,-17.0745 5.612,-31.83223 2.68366,-14.75772 4.87939,-26.9921 4.87939,-27.1875 0,-1.47417 -3.73416,0.35488 -8.20663,4.01973 -6.06711,4.97154 -12.56096,5.86614 -15.87892,2.1875 -1.59013,-1.76297 -1.793,-3.70819 -1.0454,-10.02334 0.51019,-4.3097 1.59211,-8.50032 2.40429,-9.3125 0.81216,-0.81216 1.47666,-2.42092 1.47666,-3.57501 0,-1.15409 1.64684,-2.78049 3.65964,-3.61421 6.77495,-2.80629 8.04211,-5.32454 7.0848,-14.07973 -0.98005,-8.96301 -0.9669,-20.53539 0.027,-23.8171 0.90905,-3.00139 9.6504,-8.39061 13.60961,-8.39061 4.07526,0 5.02737,-2.5727 6.13537,-16.57841 l 0.86653,-10.95343 -5.85831,-2.51116 c -27.67692,-11.86373 -33.24762,-43.1096 -14.03232,-78.707 2.78333,-5.15625 6.06867,-10.5 7.30075,-11.875 1.23209,-1.375 3.2027,-5.46924 4.37914,-9.0983 3.66526,-11.30663 0.14989,-22.71746 -14.71876,-47.7767 -8.08485,-13.626 -14.49013,-23.5108 -19.8995,-30.70946 C 134.52687,224.35446 122.64906,202.59645 110.73407,177.5 99.339333,153.49935 91.647507,140.23231 84.217769,131.76405 73.771493,119.8576 64.091946,104.96904 54.344859,85.815147 52.246044,81.690789 48.30546,76.582804 45.302279,74.093694 42.374781,71.667314 38.031212,67.027916 35.649903,63.783924 32.78924,59.886922 28.778089,56.530799 23.827577,53.892203 13.170799,48.2122 11.982111,45.160929 22.067804,49.375 27.053974,51.458355 31.25,51.82213 31.25,50.171053 c 0,-0.593422 -2.849294,-3.744128 -6.331763,-7.001572 -3.482469,-3.257442 -5.983135,-6.27125 -5.557033,-6.697351 0.426101,-0.426101 1.166018,-0.225319 1.644262,0.446182 C 22.455409,38.954174 30.991956,45 32.416598,45 34.814955,45 33.846511,43.452214 26.875,36.143312 23.09375,32.179068 20,28.331335 20,27.592796 c 0,-3.222136 4.040232,-0.790289 10.444445,6.286597 3.797311,4.196165 7.478154,7.43054 8.17965,7.1875 C 39.32559,40.823851 38.042642,37.8125 35.773101,34.375 30.56404,26.485237 29.542927,23.75 31.806601,23.75 c 0.950478,0 4.537248,3.515625 7.9706,7.8125 3.433353,4.296875 7.962663,9.446292 10.065133,11.44315 l 3.822672,3.630649 1.292498,-3.399524 C 55.668376,41.367036 56.25,39.1173 56.25,38.23736 c 0,-0.87994 1.089555,-2.585925 2.421234,-3.791078 2.942086,-2.662552 5.617601,-1.538751 3.914197,1.644087 -0.64423,1.203757 -1.56046,8.341495 -2.036066,15.86164 L 59.684627,65.625 l 8.501232,12.5 c 8.334391,12.25468 23.721928,32.62006 35.889721,47.5 6.18818,7.56749 16.43663,24.73259 29.85261,50 6.55258,12.34104 8.28662,14.56915 16.92241,21.74399 5.29194,4.3967 11.56504,9.14058 13.94021,10.54197 l 4.31849,2.54798 3.08366,-3.58498 c 2.64293,-3.07257 2.97298,-4.39253 2.30922,-9.23518 -0.4659,-3.39907 -1.95823,-6.91792 -3.74562,-8.832 -1.63413,-1.74998 -3.89357,-5.0099 -5.02096,-7.24428 -1.12739,-2.23437 -2.55424,-4.0625 -3.17076,-4.0625 -1.81323,0 -3.62911,-7.38077 -4.54058,-18.45544 -1.06362,-12.92352 1.11208,-19.54053 8.50594,-25.8694 9.74123,-8.33813 19.85273,-8.81635 30.6249,-1.44841 5.57536,3.81343 6.23538,4.86197 9.98689,15.86578 4.80312,14.0883 5.04338,18.38106 1.29551,23.14621 -2.63693,3.35266 -2.78629,4.55319 -2.39255,19.23107 0.64363,23.99404 4.05526,24.76662 18.5186,4.19365 12.85847,-18.29015 14.05892,-20.55955 17.48064,-33.04656 1.72823,-6.30696 4.49672,-14.5299 6.15218,-18.2732 1.65547,-3.7433 3.5231,-10.83635 4.1503,-15.76235 0.67609,-5.31 3.45151,-14.90228 6.81712,-23.56106 3.12222,-8.032585 7.34044,-20.126335 9.37381,-26.874996 2.03338,-6.748661 4.94145,-15.364044 6.46239,-19.145294 2.81624,-7.001577 2.92512,-13.70056 0.48252,-29.6875 -0.95694,-6.263145 0.95038,-7.156516 3.2786,-1.53568 0.86043,2.07725 2.06043,4.083374 2.66666,4.458051 0.60624,0.374679 2.75948,-3.01239 4.78497,-7.526819 C 288.23822,18.693624 290.27269,15 290.73376,15 c 0.46108,0 0.49211,2.953125 0.069,6.5625 -0.76227,6.502339 -0.74942,6.534226 1.40146,3.4784 1.19394,-1.696255 3.44651,-4.508755 5.00572,-6.25 l 2.83492,-3.1659 -0.81661,3.571668 c -0.53591,2.343966 -0.25755,3.917185 0.80983,4.576859 1.2942,0.799854 1.09255,2.238555 -0.98712,7.042869 -2.66686,6.160853 -2.6783,8.310953 -0.0301,5.66277 1.97103,-1.971042 3.47916,-1.871716 3.47916,0.229143 0,3.019812 -5.3285,14.975055 -9.60644,21.553425 -3.42835,5.271918 -5.7844,12.799459 -13.49767,43.124996 -12.69533,49.91299 -18.47115,69.96769 -25.88092,89.86327 -3.45665,9.28125 -7.95592,21.93471 -9.99837,28.11881 l -3.71358,11.24381 4.16099,10.63119 4.16099,10.63119 -0.3905,22.87299 -0.3905,22.873 -5.63431,17.127 c -5.31403,16.15338 -5.66088,18.06316 -6.10159,33.5949 -0.33314,11.74081 -0.039,16.81987 1.02481,17.69413 0.82065,0.67444 14.2889,6.33055 29.92945,12.56914 48.08569,19.18008 50.7721,21.19779 49.06185,36.84948 -0.83044,7.59996 -0.93037,7.75986 -11.04362,17.67083 -15.21387,14.9096 -52.84714,39.33104 -79.14328,51.35864 -10.05092,4.5972 -9.53521,3.52548 -11.07476,23.01489 -0.87334,11.05581 -1.81596,15.65544 -8.37902,40.88634 -4.75769,18.29031 -4.92032,19.5703 -4.28803,33.75 0.36147,8.10626 1.03125,17.13521 1.48841,20.06433 0.61881,3.96497 0.11088,7.36614 -1.98812,13.31173 l -2.8193,7.98602 4.71234,5.75079 c 2.59177,3.16294 5.07611,5.75079 5.52072,5.75079 0.44461,0 3.61123,2.42109 7.03693,5.38021 3.42568,2.95912 8.97566,6.40938 12.33328,7.66727 3.35763,1.25787 7.1545,3.33678 8.4375,4.61978 2.97539,2.97539 3.00058,8.84088 0.0494,11.51163 -2.65431,2.40211 -17.24429,3.62099 -27.0917,2.26328 z m 29.83142,-241.5329 C 243.34981,421.65009 243.39607,420 239.34406,420 c -2.23752,0 -3.5107,0.93309 -4.375,3.20637 -0.67049,1.7635 -1.21906,3.451 -1.21906,3.75 0,1.26363 2.38511,0.3688 5.45642,-2.0471 z"
       id="path3428"
       inkscape:connector-curvature="0" />
    <path
       style="fill:#c28cbc"
       d="m 209.86556,666.31685 c -8.58627,-1.16275 -9.46046,-1.67761 -11.61866,-6.84291 -1.27994,-3.06333 -2.73354,-4.30876 -5.7279,-4.90764 -3.38914,-0.67783 -4.80566,-0.12375 -9.11584,3.56559 -4.73116,4.0497 -5.7145,4.36811 -13.48967,4.36811 -10.63024,0 -13.20423,-1.91054 -14.90408,-11.06252 -1.13595,-6.11588 0.22215,-38.53788 1.84046,-43.93748 0.30907,-1.03125 2.84754,-16.21875 5.64105,-33.75 2.7935,-17.53125 6.46372,-39.1875 8.15602,-48.125 1.6923,-8.9375 3.0828,-16.67187 3.08999,-17.1875 0.03,-2.14955 -3.61295,-0.65844 -8.39814,3.4375 -5.49627,4.7046 -10.62889,5.64153 -14.67949,2.67965 -1.81151,-1.32461 -2.26768,-3.132 -2.08599,-8.26514 0.31086,-8.7831 3.80469,-15.98175 9.71899,-20.02492 l 4.8327,-3.30376 -0.34534,-16.16792 c -0.2518,-11.78815 0.0927,-16.71762 1.2721,-18.19718 2.65321,-3.32875 10.08892,-7.33605 13.62163,-7.34105 3.73567,-0.005 4.07661,-1.10184 5.52386,-17.76609 l 0.8369,-9.63641 -6.89615,-3.26517 c -10.26936,-4.86232 -16.2165,-10.5762 -20.3693,-19.57041 -3.26567,-7.07287 -3.62925,-9.12359 -3.50439,-19.7666 0.20293,-17.29756 5.6998,-32.40546 18.77402,-51.59949 8.90167,-13.06837 6.93742,-24.92225 -8.64161,-52.15051 -8.06245,-14.09114 -15.27876,-25.3577 -21.61713,-33.75 -6.0921,-8.06621 -13.87509,-22.04142 -24.36498,-43.75 -4.15262,-8.59375 -8.04201,-16.53739 -8.64309,-17.65251 -0.60109,-1.11514 -4.62727,-8.70889 -8.947071,-16.875 C 94.900729,146.16474 88.842152,136.9983 83.586371,130.90479 74.880484,120.81126 64.093042,104.08656 55.187133,86.875 51.621074,79.983234 48.598656,75.914915 45.463229,73.786155 42.96099,72.08729 38.667954,67.722836 35.923149,64.087369 32.546799,59.615425 28.558039,56.211804 23.591298,53.564558 19.553584,51.412479 16.25,49.197854 16.25,48.64317 c 0,-0.554684 3.04654,0.03965 6.770089,1.320735 9.045966,3.112269 10.970768,1.428735 4.852606,-4.244346 -4.304138,-3.991023 -2.893454,-5.650588 1.719079,-2.02237 6.113127,4.808586 4.643768,0.365058 -2.612185,-7.899585 C 23.140815,31.425181 20,27.488252 20,27.048873 c 0,-2.678324 4.455947,0.213016 10.327351,6.701127 3.732911,4.125 7.504966,7.5 8.382345,7.5 1.160668,0 1.038407,-0.766169 -0.448801,-2.8125 -3.78005,-5.201178 -7.490711,-13.374381 -6.513845,-14.347575 0.532711,-0.530709 2.738169,1.285075 4.901016,4.035075 2.162849,2.75 6.86018,8.091394 10.438515,11.869764 5.817554,6.142765 6.600062,6.605754 7.394289,4.375 C 57.376393,36.23709 58.831696,33.75 60.694952,33.75 c 1.334746,0 1.814696,0.671881 1.348251,1.887415 -0.398348,1.038077 -1.074212,8.491203 -1.501922,16.5625 L 59.76363,66.875 69.961673,81.25 c 11.581952,16.325739 16.616483,22.89598 30.397987,39.67047 5.35407,6.51683 11.19882,14.73814 12.98833,18.26958 1.78952,3.53145 5.85581,10.64274 9.0362,15.80288 3.18038,5.16015 8.58563,14.92058 12.01167,21.68988 5.61154,11.08754 7.2206,13.13555 16.22914,20.65639 16.96079,14.15984 19.3156,15.06875 22.59751,8.72224 2.7956,-5.4061 1.4688,-12.78432 -3.26941,-18.18083 -2.0367,-2.31969 -3.7031,-4.87037 -3.7031,-5.66821 0,-0.79782 -1.43716,-2.95067 -3.19369,-4.78409 -2.6804,-2.79775 -3.41887,-5.25788 -4.59487,-15.30741 -2.15084,-18.38001 1.61384,-26.85935 14.61247,-32.91231 7.45297,-3.47055 9.60948,-3.59619 17.21942,-1.00323 8.87793,3.02502 13.83645,8.67028 16.52997,18.81933 1.25538,4.73017 2.83828,9.30882 3.51758,10.17477 1.83162,2.33492 0.22287,11.3999 -2.57079,14.4859 -2.24103,2.47555 -2.37355,3.97264 -1.66496,18.80854 1.17885,24.68166 4.30852,24.57235 21.71702,-0.75847 9.11134,-13.25778 11.01561,-16.97187 13.91121,-27.13245 1.84515,-6.47462 4.72344,-15.19337 6.39619,-19.375 1.67275,-4.18164 3.61528,-11.65038 4.31671,-16.5972 0.70144,-4.94682 3.0391,-13.38432 5.1948,-18.75 7.34603,-18.284757 18.84485,-53.48956 19.48838,-59.665595 0.35301,-3.387899 -0.0299,-10.324046 -0.85098,-15.413662 -0.82103,-5.089617 -1.18618,-9.560468 -0.81142,-9.935225 0.37475,-0.374757 1.88479,1.358266 3.35564,3.851162 1.47085,2.492897 3.15098,4.53254 3.73365,4.53254 0.58265,0 2.29626,-3.392277 3.80801,-7.538394 3.58029,-9.819283 5.42817,-10.950391 4.28265,-2.621459 C 290.16211,24.615566 290.02294,27.5 290.3377,27.5 c 0.31476,0 2.13155,-2.25 4.0373,-5 3.7944,-5.475329 5.77666,-6.474966 4.70373,-2.372053 -0.39984,1.528992 0.0279,3.069899 1.02278,3.684792 1.40089,0.865795 1.20733,2.091532 -1.07075,6.780492 C 295.73235,37.382355 295.71692,37.5 298.125,37.5 c 1.03125,0 1.875,-0.5625 1.875,-1.25 0,-0.6875 0.5625,-1.25 1.25,-1.25 0.6875,0 1.24314,0.703125 1.23474,1.5625 -0.0277,2.839045 -8.57713,21.233606 -11.1338,23.955056 -1.37977,1.468694 -3.3849,6.312448 -4.45587,10.763898 -1.07096,4.451451 -2.78796,11.187296 -3.81556,14.968546 -1.0276,3.78125 -2.99391,11.65625 -4.3696,17.5 -3.37664,14.34363 -6.31341,25.27551 -11.58525,43.125 -2.43662,8.25 -5.34511,18.65625 -6.46328,23.125 -1.93668,7.73986 -11.41268,34.2352 -13.18826,36.875 -0.46243,0.6875 -2.41226,6.26348 -4.33296,12.39105 l -3.49217,11.14106 2.84182,7.60894 c 6.07856,16.2753 6.36784,18.60752 5.1299,41.35895 -1.10841,20.37104 -1.39086,21.9608 -6.82847,38.4344 -5.50925,16.6906 -5.67182,17.6304 -5.65745,32.70624 l 0.0147,15.52183 12.11322,5.05199 c 6.66226,2.77859 20.83196,8.50226 31.48821,12.71926 24.6398,9.75074 30.85595,13.14943 34.71464,18.9803 2.70339,4.0851 2.99744,5.54018 2.25326,11.15008 -0.47072,3.54851 -1.63195,7.95264 -2.5805,9.78692 -6.07318,11.74425 -45.32833,39.33324 -82.096,57.69805 -16.42211,8.20255 -15.31842,6.56523 -16.73463,24.82593 -0.85762,11.05815 -4.51734,28.8703 -9.88785,48.125 -3.57184,12.80592 -4.28465,31.94763 -1.66248,44.64297 1.38079,6.6851 1.25714,8.01244 -1.48245,15.91284 l -2.98889,8.61936 4.64092,5.66363 c 2.55251,3.11499 6.45398,6.9067 8.66995,8.42601 2.21597,1.51933 5.43528,4.00438 7.15403,5.52236 1.71875,1.51798 5.82444,3.76443 9.12377,4.99212 9.56667,3.55977 13.82518,11.34944 8.68873,15.89342 -2.68958,2.37937 -16.93926,3.59054 -26.69693,2.26914 z M 240.625,423.75 l 3.59272,-3.75 -3.93988,0 c -2.61593,0 -4.3747,0.81249 -5.23387,2.41782 -3.2445,6.06241 0.25003,6.89654 5.58103,1.33218 z"
       id="path3426"
       inkscape:connector-curvature="0" />
    <path
       style="fill:#b88ab7"
       d="m 210.5337,666.32144 c -9.18633,-1.08968 -10.09374,-1.59875 -12.31172,-6.90714 -2.72733,-6.5274 -7.72704,-6.97973 -15.08328,-1.36459 -5.25951,4.01468 -6.60257,4.45029 -13.72096,4.45029 -5.67685,0 -8.63085,-0.61375 -10.5285,-2.1875 -4.07922,-3.38295 -5.29975,-13.05559 -3.95764,-31.36367 1.15496,-15.75502 9.52202,-70.69869 15.61727,-102.55334 1.76063,-9.20124 3.20113,-17.21686 3.20113,-17.8125 0,-2.28159 -3.50012,-0.91169 -8.41121,3.29201 -5.26313,4.50505 -9.70547,5.47089 -14.17097,3.08102 -1.94212,-1.03939 -2.41782,-2.65147 -2.41782,-8.19358 0,-9.66438 3.60759,-17.0699 10.09056,-20.71353 l 5.10451,-2.86891 -0.88615,-16.02278 c -0.87013,-15.73326 -0.83236,-16.08036 2.08997,-19.20877 3.77788,-4.0443 8.8555,-6.69845 12.81471,-6.69845 3.57111,0 3.9605,-1.28124 5.2272,-17.19976 l 0.82157,-10.32475 -5.48188,-2.4249 c -13.14754,-5.81579 -20.20008,-13.84659 -24.31278,-27.68528 -4.81251,-16.19344 2.01904,-40.67202 17.86336,-64.00746 5.18285,-7.63328 6.15648,-12.94378 4.26303,-23.25229 -2.09605,-11.41162 -15.06273,-35.31662 -32.60278,-60.10556 -9.57093,-13.52638 -17.09617,-26.81249 -26.90394,-47.5 -3.74829,-7.90625 -8.02884,-16.625 -9.51235,-19.375 -1.4835,-2.75 -5.35254,-10.12894 -8.597858,-16.39763 C 95.356126,146.46581 89.139502,137.30725 84.225797,131.6134 75.194464,121.14816 63.869459,103.70117 55.185675,86.875 52.007419,80.716636 48.572459,75.914591 46.244276,74.375 44.16499,73 39.691411,68.467545 36.30299,64.302879 32.04029,59.063648 27.942195,55.617645 23.001344,53.117801 15.015529,49.077348 15.813177,47.514319 24.372581,50.4308 c 3.070656,1.046279 5.876078,1.428133 6.23427,0.848565 1.024668,-1.657947 -0.674167,-4.977432 -3.253912,-6.35807 C 26.058823,44.228705 25,43.073454 25,42.354071 c 0,-0.719384 1.96875,-0.09121 4.375,1.395929 6.822269,4.216394 5.619034,0.225484 -2.5,-8.292045 C 23.09375,31.491116 20,27.796529 20,27.24776 c 0,-2.629786 3.542382,-0.326444 10,6.50224 7.040323,7.444872 12.495867,10.535315 8.274824,4.6875 -3.464119,-4.799176 -7.388004,-13.490986 -6.494034,-14.384956 0.468216,-0.468218 2.352781,1.100292 4.187921,3.485576 4.490795,5.83706 16.704603,18.71188 17.751184,18.71188 0.461639,0 1.64164,-2.671545 2.622225,-5.936768 1.199595,-3.9945 2.55821,-6.08072 4.152766,-6.376778 1.784293,-0.331287 2.170288,0.08014 1.562114,1.665007 -0.444275,1.157761 -1.175238,8.538889 -1.624361,16.402506 l -0.816588,14.297487 7.935399,11.536774 c 11.626689,16.903306 28.028866,38.365312 36.82355,48.183082 2.0625,2.30243 5.16123,6.81141 6.88607,10.01996 5.96978,11.105 11.63368,20.84178 13.20973,22.70873 0.87056,1.03125 4.75589,8.17212 8.63405,15.86861 6.5677,13.03406 7.75297,14.58246 17.28567,22.58138 16.78339,14.08298 20.67273,15.4317 23.48685,8.14455 1.84232,-4.77065 0.43634,-13.83704 -2.54112,-16.38639 -1.33813,-1.14574 -3.45183,-3.82645 -4.69711,-5.95714 -1.24528,-2.1307 -3.31408,-5.3664 -4.59733,-7.19045 -1.46804,-2.08669 -2.79542,-7.282 -3.57972,-14.01079 -2.05157,-17.60113 2.04551,-26.73955 14.61182,-32.59118 7.43993,-3.46448 8.33789,-3.52507 16.38671,-1.10555 9.13716,2.74666 13.72903,7.76186 16.93933,18.50097 1.48317,4.96155 3.25454,9.7295 3.93635,10.59545 1.90167,2.41526 0.15621,11.8787 -2.60304,14.11301 -2.21395,1.79274 -2.37741,3.25758 -1.88458,16.88778 0.69487,19.21789 0.99081,20.54975 4.56627,20.54975 3.33854,0 6.80376,-3.53491 15.3075,-15.61534 10.52184,-14.94735 13.06279,-19.40517 14.85605,-26.06334 2.08833,-7.75362 4.33464,-14.68013 8.67047,-26.73535 1.78807,-4.97146 3.25103,-11.05508 3.25103,-13.51917 0,-2.46408 3.31892,-13.58402 7.37537,-24.71097 C 275.56854,59.059166 276.75742,55.052035 276.81826,45 c 0.0312,-5.15625 -0.3996,-12.046875 -0.95735,-15.3125 -1.17812,-6.89793 0.95531,-8.324365 3.27171,-2.1875 2.08547,5.525016 3.98578,4.613582 7.1671,-3.4375 4.09193,-10.355562 5.3123,-10.976737 4.29764,-2.1875 l -0.86582,7.5 4.00202,-5.9375 c 4.23414,-6.281855 6.48725,-7.676916 5.34516,-3.309553 -0.39983,1.528992 0.0279,3.069899 1.02279,3.684792 1.39941,0.864883 1.19454,2.117846 -1.12794,6.8982 -3.08243,6.344586 -2.73911,8.180771 1.08328,5.79365 1.34374,-0.839175 2.44617,-1.099133 2.44987,-0.577682 0.0194,2.729308 -7.98523,20.245248 -10.6907,23.393782 -1.72513,2.007663 -3.46996,5.091201 -3.87738,6.852305 -3.90993,16.900424 -17.67513,69.784346 -21.13457,81.195976 -2.41138,7.95443 -5.22641,18.1286 -6.25561,22.6093 -1.0292,4.4807 -5.19236,16.59839 -9.25149,26.92822 -4.05912,10.32981 -8.3488,22.26527 -9.53262,26.52324 l -2.1524,7.74176 4.25652,10.97676 4.25653,10.97675 -0.3553,21.25 c -0.37609,22.49354 -0.49699,23.13699 -9.55756,50.87018 -2.68099,8.20612 -3.14007,11.90838 -3.12322,25.18751 l 0.0197,15.56734 10.25817,4.35598 c 5.64197,2.3958 20.42675,8.3666 32.85503,13.26847 26.19627,10.33208 32.96394,14.20638 36.00297,20.61067 2.37707,5.0093 1.85907,13.61121 -1.18079,19.6079 -5.83858,11.51769 -46.14679,39.75208 -82.63996,57.88618 -15.6974,7.80032 -14.68044,6.25121 -16.09734,24.52077 -0.85761,11.05815 -4.51734,28.8703 -9.88785,48.125 -3.57184,12.80592 -4.28465,31.94763 -1.66248,44.64298 1.38079,6.68509 1.25714,8.01243 -1.48245,15.91283 l -2.98888,8.61937 4.64091,5.66362 c 2.55251,3.11499 6.45399,6.9067 8.66995,8.42601 2.21597,1.51933 5.43529,4.01232 7.15404,5.54 1.71875,1.52768 5.32251,3.54657 8.00836,4.48639 10.02225,3.507 14.99447,11.80821 9.80414,16.36815 -2.69709,2.3695 -15.70118,3.51214 -26.0288,2.28709 z m 30.62169,-243.08167 3.0304,-3.23977 -3.92391,0 c -3.986,0 -6.51188,2.65191 -6.51188,6.8368 0,2.52994 3.06859,1.03944 7.40539,-3.59702 z"
       id="path3424"
       inkscape:connector-curvature="0" />
    <path
       style="fill:#b16fad"
       d="m 215,666.68858 c -1.71875,-0.25959 -5.52833,-0.78209 -8.46573,-1.16111 -4.64105,-0.59883 -5.62359,-1.28705 -7.5,-5.25326 -1.50348,-3.17799 -3.3384,-4.90102 -6.04171,-5.67336 -3.40249,-0.9721 -4.61192,-0.5524 -9.78325,3.39496 -5.08574,3.88204 -6.82909,4.50419 -12.62124,4.50419 -14.16775,0 -16.35528,-3.59828 -15.89882,-26.15189 0.3471,-17.14984 5.31806,-51.54059 15.43391,-106.77702 1.99476,-10.89215 3.62684,-20.31403 3.62684,-20.9375 0,-2.24695 -3.22754,-1.02782 -8.61341,3.25355 -5.82294,4.62877 -10.58717,5.51205 -14.45929,2.68067 -1.96124,-1.43409 -2.19859,-2.86285 -1.60933,-9.6875 0.89128,-10.32249 3.63924,-15.54751 9.84073,-18.71127 l 4.94709,-2.52382 -0.36539,-17.04348 -0.3654,-17.0435 5.40967,-4.15412 c 3.20702,-2.46268 6.85656,-4.15412 8.96318,-4.15412 4.13315,0 4.44423,-0.95741 5.69606,-17.53093 l 0.80488,-10.65592 -7.01378,-2.90705 c -9.41562,-3.90256 -17.15892,-11.64886 -20.87504,-20.88316 -3.67963,-9.14367 -3.89201,-24.62814 -0.49577,-36.14794 2.53842,-8.61015 10.72127,-25.59074 15.21003,-31.56299 11.49979,-15.3004 8.84678,-28.27237 -13.10189,-64.06201 -4.42704,-7.21875 -11.27945,-17.625 -15.2276,-23.125 -7.59104,-10.57478 -15.70508,-24.73298 -23.64028,-41.25 -2.64235,-5.5 -6.83684,-14.21875 -9.32109,-19.375 C 99.933066,153.82389 92.43045,140.96727 86.031881,133.47744 79.707884,126.07489 78.607465,124.75752 75.59336,120.98088 74.888457,120.09765 72.023212,115.71875 69.226149,111.25 64.419337,103.57036 61.077421,97.672654 53.28115,83.110764 c -1.84459,-3.445329 -5.033109,-7.382829 -7.085597,-8.75 -2.052488,-1.36717 -6.504142,-5.893219 -9.892563,-10.057885 -4.2627,-5.239231 -8.360795,-8.685234 -13.301646,-11.185078 -7.985815,-4.040453 -7.188166,-5.603482 1.371237,-2.687001 3.070657,1.046279 5.876078,1.428133 6.23427,0.848565 1.024668,-1.657947 -0.674167,-4.977432 -3.253912,-6.35807 C 26.058823,44.228705 25,43.138302 25,42.498177 c 0,-0.640124 1.96875,-0.0022 4.375,1.417449 6.812556,4.019507 5.652504,0.09496 -2.5,-8.457671 C 23.09375,31.491116 20,27.796529 20,27.24776 c 0,-2.500946 3.171831,-0.418004 9.901378,6.50224 4.01133,4.125 7.924518,7.5 8.695974,7.5 1.886391,0 1.766467,-1.267446 -0.345503,-3.651574 C 35.961371,35.012789 31.25,26.510035 31.25,24.96198 c 0,-2.552266 2.152359,-0.995033 6.531462,4.72552 5.041948,6.586444 14.644807,16.5625 15.942909,16.5625 0.459178,0 1.637164,-2.671545 2.617749,-5.936768 1.199595,-3.9945 2.55821,-6.08072 4.152766,-6.376778 1.802495,-0.334667 2.172115,0.07536 1.543835,1.712641 -0.454327,1.183959 -1.160992,8.694135 -1.570365,16.689279 L 59.724043,66.875 69.025015,80.081219 c 12.866639,18.269016 26.723499,36.285221 35.341095,45.949241 2.05761,2.30746 5.79561,7.94145 8.30667,12.51996 2.51106,4.57852 6.56107,11.69958 9.00003,15.82458 2.43895,4.125 7.60523,13.54057 11.4806,20.92351 6.65558,12.67944 7.71618,13.98129 19.13386,23.48604 14.01659,11.66822 17.04736,12.93435 20.5656,8.59139 3.2208,-3.97578 2.34644,-15.11907 -1.44031,-18.356 -1.3801,-1.17972 -3.52814,-3.88824 -4.77342,-6.01893 -1.24528,-2.1307 -3.33339,-5.39587 -4.64025,-7.25595 -1.59824,-2.27479 -2.76754,-7.14485 -3.57175,-14.87601 -1.06479,-10.2362 -0.9261,-12.17801 1.26725,-17.74405 2.82931,-7.1799 10.08127,-13.54505 17.80025,-15.62356 6.73373,-1.8132 14.80987,0.39646 21.08706,5.7695 4.24222,3.63118 5.55775,6.06 8.9004,16.43252 4.23844,13.15225 4.26151,19.27543 0.0811,21.51273 -2.12945,1.13965 -2.27928,2.56153 -1.74682,16.57768 0.74862,19.70598 1.02295,20.95613 4.5986,20.95613 3.43501,0 6.68115,-3.42329 16.59436,-17.5 11.23866,-15.95883 11.6375,-16.72875 15.42351,-29.77383 1.93164,-6.65565 4.98697,-16.16873 6.78962,-21.1402 1.80266,-4.97146 3.27756,-11.06271 3.27756,-13.53611 0,-2.47339 2.89641,-12.18708 6.43646,-21.58597 3.54002,-9.39889 7.98122,-22.15139 9.8693,-28.33889 1.88808,-6.1875 4.6783,-14.34375 6.20049,-18.125 2.39304,-5.944524 2.66389,-8.313009 2.00126,-17.5 -0.42149,-5.84375 -1.11119,-12.171875 -1.53267,-14.0625 -1.03625,-4.648281 1.32111,-4.40487 3.28622,0.33932 0.86043,2.07725 2.05525,4.080181 2.65519,4.450955 0.59992,0.370775 3.0117,-3.438169 5.3595,-8.464319 4.06435,-8.700915 5.80012,-8.745173 3.31629,-0.08456 -1.71491,5.979562 0.0466,5.80735 4.28545,-0.418969 4.16998,-6.125108 6.205,-7.204859 4.34152,-2.303553 -1.58881,4.178893 -1.55762,4.345083 0.65594,3.495658 2.64385,-1.014541 2.33065,1.38596 -0.9171,7.029054 -3.02999,5.264712 -2.29079,7.70268 1.59895,5.273502 3.17222,-1.981087 3.08594,-1.017516 -0.75546,8.436232 -3.22965,7.948208 -6.0808,13.060146 -8.9708,16.084088 -0.86727,0.90745 -1.93084,3.15745 -2.3635,5 -4.56565,19.443214 -17.55063,69.246812 -21.10836,80.960652 -2.48723,8.18919 -5.35623,18.54569 -6.37557,23.01444 -1.01934,4.46875 -5.16377,16.57666 -9.20987,26.90649 -4.04609,10.32981 -8.32259,22.25616 -9.50332,26.503 l -2.14676,7.72151 3.84154,10.372 c 5.09677,13.76106 5.45719,17.11772 4.20066,39.122 -0.74892,13.11522 -1.82821,21.00391 -3.59139,26.25 -8.89262,26.4589 -9.18144,27.91145 -8.80561,44.2836 l 0.35659,15.53361 30,12.02293 c 48.01522,19.24278 50.186,20.72368 49.78786,33.96535 -0.11662,3.88052 -1.06865,8.71181 -2.1155,10.7362 -6.05738,11.7137 -48.61094,41.5097 -83.61172,58.54495 -6.31904,3.07553 -11.9968,6.09952 -12.61726,6.71998 -0.62046,0.62045 -1.86437,8.06153 -2.76427,16.53573 -1.72066,16.20321 -4.68715,30.65025 -10.03246,48.85892 -2.94772,10.04135 -3.16182,12.32629 -2.57679,27.5 0.35093,9.1018 1.00009,18.79873 1.44258,21.54873 0.59046,3.66956 0.11375,6.60748 -1.79145,11.04114 -1.42779,3.32261 -2.59599,6.89792 -2.59599,7.94511 0,5.437 14.98575,18.83039 29.80587,26.63875 6.83453,3.60095 8.50673,5.1071 9.45133,8.51285 1.68371,6.0705 -1.42504,8.52817 -11.7572,9.29483 -4.46875,0.33158 -9.53125,0.39048 -11.25,0.1309 z m 26.15539,-243.44881 3.0304,-3.23977 -4.4471,0 c -4.40367,0 -5.91423,1.82926 -5.97163,7.23148 -0.0226,2.13516 3.37395,0.30006 7.38833,-3.9917 z"
       id="path3422"
       inkscape:connector-curvature="0" />
    <path
       style="fill:#a654a4"
       d="m 212.5,666.2311 c -10.64609,-1.18247 -12.11945,-1.91549 -13.74394,-6.83773 -1.09241,-3.31003 -2.2137,-4.2948 -5.61721,-4.9333 -3.60156,-0.67566 -5.13831,-0.1215 -10.04135,3.62109 -4.96868,3.79268 -6.74129,4.41884 -12.50943,4.41884 -13.96503,0 -16.37436,-3.98793 -15.85903,-26.25 0.33165,-14.3271 8.88061,-73.16683 15.88368,-109.32208 3.98005,-20.54813 3.99127,-21.21445 0.32478,-19.28858 -1.54688,0.8125 -4.6602,3.0823 -6.9185,5.04397 -4.46518,3.87869 -9.61894,4.60665 -13.3417,1.8845 -1.95878,-1.43228 -2.19975,-2.87144 -1.6221,-9.6875 0.8523,-10.05705 3.31564,-14.81626 9.33651,-18.03832 l 4.73329,-2.53301 -0.41178,-16.63387 c -0.3643,-14.71638 -0.14816,-16.92536 1.875,-19.1625 2.85047,-3.15195 10.7612,-7.26261 13.97647,-7.26261 2.93218,0 3.491,-2.05321 4.61663,-16.96281 l 0.85599,-11.33783 -5.62657,-2.1488 c -9.89205,-3.77781 -16.36649,-9.89685 -21.05477,-19.89902 -3.84692,-8.2072 -4.21467,-9.99098 -4.05143,-19.65154 0.12636,-7.47835 1.09203,-13.45296 3.26072,-20.17393 C 159.77779,341.12019 170.5837,320 172.465,320 c 0.59625,0 2.0441,-2.89035 3.21746,-6.42301 3.42573,-10.3139 1.99479,-19.1337 -5.54074,-34.15105 -5.9327,-11.82313 -20.68846,-35.85325 -29.91362,-48.71506 -6.12398,-8.53812 -18.0907,-30.44754 -25.97271,-47.55247 -3.8101,-8.26837 -8.47635,-17.56466 -10.36943,-20.65841 -1.89309,-3.09375 -5.169011,-9.28125 -7.279836,-13.75 C 94.495297,144.28125 89.411482,136.8337 85.308755,132.19987 75.803999,121.46475 68.503984,110.55771 58.011891,91.415278 52.13004,80.68406 48.313015,75.193059 45.138056,72.895551 42.655875,71.099362 38.65625,66.906809 36.25,63.578766 33.188873,59.344975 29.43495,56.22062 23.75,53.175133 15.603988,48.811229 16.150225,47.107911 24.567804,50.625 c 2.468128,1.03125 4.981311,1.875 5.584851,1.875 2.383519,0 0.91201,-4.964334 -2.196229,-7.409275 -3.930253,-3.091537 -2.918664,-3.442646 1.526736,-0.529909 2.076607,1.360645 3.565846,1.640176 4.383279,0.822743 0.817434,-0.817434 -0.934171,-3.534899 -5.1555,-7.998316 C 21.676192,29.947055 19.170795,26.25 21.16488,26.25 c 0.689061,0 4.757963,3.620468 9.042004,8.045484 C 37.228064,41.54771 40,43.166763 40,40.015515 40,39.417696 39.279448,38.185268 38.398771,37.276786 36.264979,35.075621 31.25,26.413134 31.25,24.92855 c 0,-2.416858 1.999976,-0.919255 6.25,4.680062 C 42.283124,35.91028 52.426409,46.25 53.825232,46.25 c 0.482889,0 1.499448,-2.468072 2.259019,-5.484605 0.759573,-3.016532 2.313109,-5.842273 3.452305,-6.279423 1.139195,-0.43715 2.201308,-0.640953 2.360249,-0.452896 0.158943,0.188059 -0.161754,3.435674 -0.712656,7.216924 -0.550903,3.78125 -1.042705,11.15588 -1.092895,16.388066 -0.08013,8.35333 0.316613,10.105784 3.254391,14.375 1.840105,2.674064 5.587342,8.236934 8.327194,12.361934 5.037068,7.583589 12.503218,17.26841 28.662631,37.18016 4.87871,6.01158 10.63438,14.16783 12.79037,18.12499 7.26461,13.33367 10.9402,19.68505 12.48261,21.56985 0.84392,1.03125 4.7942,8.20312 8.7784,15.9375 3.9842,7.73437 7.61089,14.0625 8.0593,14.0625 0.73634,0 6.0278,4.41054 13.42349,11.18874 4.08922,3.74778 10.71515,7.55128 13.16405,7.55658 6.53678,0.0141 8.06006,-15.97986 2.05307,-21.55685 -1.66672,-1.54741 -3.78634,-4.6416 -4.71024,-6.87597 -0.9239,-2.23438 -2.20278,-4.0625 -2.84196,-4.0625 -2.14212,0 -4.46876,-8.03436 -5.34229,-18.44801 -0.78333,-9.33857 -0.57492,-10.95863 2.18549,-16.98815 3.28155,-7.16785 7.70328,-11.05667 15.83343,-13.92514 5.69001,-2.00756 10.84381,-1.44334 17.53881,1.9201 7.02384,3.52862 9.79092,7.5225 13.81646,19.94197 4.04031,12.46509 4.02598,17.15785 -0.0641,20.99184 -2.07158,1.94185 -2.20124,3.69606 -1.45108,19.63239 0.79419,16.87155 0.92409,17.51425 3.61696,17.89691 5.01783,0.71303 7.27533,-1.80596 23.56559,-26.29512 3.8778,-5.8295 6.66321,-12.13935 9.1067,-20.62964 1.9361,-6.72729 4.70363,-14.9068 6.15005,-18.1767 1.44644,-3.2699 3.2114,-10.12626 3.92215,-15.23634 0.71075,-5.11008 3.30703,-14.52637 5.7695,-20.92508 2.46243,-6.39872 7.8688,-21.75903 12.01411,-34.13403 7.43451,-22.194184 7.52734,-22.644414 6.83048,-33.125 -0.38855,-5.84375 -1.06914,-11.890625 -1.51241,-13.4375 -1.27644,-4.454272 1.30508,-3.268596 3.6669,1.684183 1.78151,3.73587 2.45516,4.238705 3.98151,2.971943 1.01046,-0.838606 1.84444,-2.158987 1.85329,-2.934182 0.009,-0.775194 1.41786,-4.221944 3.13115,-7.659444 l 3.11506,-6.25 -0.6978,5 c -0.38379,2.75 -0.98696,5.984375 -1.34039,7.1875 -1.14743,3.90613 1.3056,2.241204 5.58449,-3.790308 4.0939,-5.770731 4.16852,-5.811265 3.47985,-1.890173 -0.55876,3.181441 -0.32618,3.862126 1.1289,3.303765 2.4214,-0.929182 2.32855,-0.273363 -0.90311,6.378352 -2.95255,6.077246 -2.35585,8.375083 1.54261,5.940453 1.34374,-0.839175 2.44315,-1.260858 2.44315,-0.937072 0,2.563232 -6.27361,16.440269 -10.122,22.389542 -2.60858,4.032631 -5.10893,9.095131 -5.55634,11.25 -2.74312,13.211792 -11.79654,48.621101 -18.06981,70.673881 -4.02783,14.15923 -8.23014,29.28862 -9.33847,33.62085 -1.10833,4.33223 -2.79769,9.67598 -3.75413,11.875 -8.01004,18.41636 -15.6321,40.52263 -15.6497,45.38878 -0.005,1.45233 1.76105,6.79608 3.92511,11.875 3.9302,9.22393 3.93447,9.25855 3.74725,30.44682 -0.17466,19.7676 -0.45156,22.10891 -4.0655,34.375 -2.13295,7.23943 -4.80357,15.3905 -5.93475,18.11346 -1.58747,3.8214 -2.05666,9.09566 -2.05666,23.11945 l 0,18.1686 31.25,12.55963 c 33.85845,13.60796 38.4834,15.73941 42.93126,19.78518 6.47317,5.88799 7.34374,11.18142 3.76667,22.90264 -3.24793,10.64271 -44.5242,40.10206 -82.93053,59.18848 -7.29517,3.62541 -13.72787,7.48795 -14.29489,8.58341 -0.56702,1.09547 -1.43448,7.33551 -1.92771,13.86676 -0.91444,12.10894 -4.38296,29.23328 -10.00089,49.375 -2.52157,9.04049 -3.1409,14.11593 -3.15338,25.84214 -0.009,8.02567 0.63535,17.41189 1.43086,20.85824 1.28522,5.56788 1.13395,7.123 -1.35764,13.95641 -1.54221,4.22966 -2.48559,8.9591 -2.09637,10.50984 0.38921,1.55074 3.67202,5.47058 7.29515,8.71077 3.62311,3.24017 8.27497,7.44075 10.33747,9.33461 2.0625,1.89385 6.41268,4.43579 9.66705,5.64875 7.4012,2.75855 10.63069,5.45538 11.63798,9.71841 1.13216,4.79162 -2.96558,8.54583 -9.32779,8.54583 -2.69378,0 -5.6469,0.1988 -6.5625,0.44177 -0.91561,0.24298 -5.32099,0.0356 -9.78974,-0.46067 z m 27.46856,-241.54939 4.34358,-4.05671 -4.21249,-0.40523 c -4.56389,-0.43903 -6.29928,1.12838 -6.33051,5.71773 -0.0256,3.76587 1.05762,3.54645 6.19942,-1.25579 z"
       id="path3420"
       inkscape:connector-curvature="0" />
    <path
       style="fill:#932091"
       d="m 206.25,665.3408 c -4.05986,-0.73887 -7.5,-3.86504 -7.5,-6.81547 0,-4.74808 -9.78983,-6.25264 -14.11476,-2.16925 -5.31523,5.01836 -9.32703,6.33093 -16.89502,5.52768 -12.83786,-1.36257 -14.06412,-4.88306 -12.253,-35.1773 0.41655,-6.9677 2.17528,-21.31145 3.90825,-31.875 1.73299,-10.56355 4.02765,-24.83146 5.09927,-31.70646 1.0716,-6.875 3.57111,-20.9375 5.55447,-31.25 5.57161,-28.96967 5.58489,-28.91299 -4.8408,-20.67195 -6.96127,5.50258 -9.4486,6.06506 -13.68827,3.09548 -2.49139,-1.74504 -2.72504,-2.75738 -2.20865,-9.5695 0.31762,-4.1899 1.16497,-8.20549 1.883,-8.92352 0.71804,-0.71803 1.30551,-2.30657 1.30551,-3.53011 0,-1.33376 1.98549,-3.23751 4.9582,-4.75407 5.00047,-2.55105 8.24914,-6.61557 6.95775,-8.70507 -0.38481,-0.62265 -0.93959,-6.97222 -1.23284,-14.11017 -0.4905,-11.9394 -0.31257,-13.25474 2.22304,-16.4347 1.63367,-2.04883 5.54862,-4.40039 9.61254,-5.77389 l 6.85631,-2.31726 0.96446,-9.15263 c 0.53047,-5.03393 0.81171,-11.3589 0.625,-14.05546 -0.31464,-4.54439 -0.72109,-5.02954 -5.55917,-6.63574 -6.9202,-2.29743 -16.07508,-10.51877 -19.69002,-17.68222 -4.86347,-9.63755 -6.26943,-18.4457 -4.53452,-28.40825 2.75093,-15.79699 10.89255,-34.893 18.33821,-43.01185 4.22173,-4.60344 6.53703,-14.97495 5.26136,-23.56855 C 175.73338,287.24442 158.32216,255.2553 142.49204,233.75 135.92185,224.82437 123.97116,203.48412 116.88846,188.02991 114.39177,182.58221 111.0323,175.59375 109.42296,172.5 91.116805,137.30864 93.027187,140.48526 84.612349,131.24438 75.506146,121.24427 65.345853,105.42093 53.75,83.180291 52.03125,79.883759 48.375,75.471052 45.625,73.374276 42.875,71.2775 38.65625,66.857663 36.25,63.552415 33.359879,59.582516 29.405661,56.222032 24.599416,53.651186 c -8.21541,-4.394396 -8.784071,-6.05516 -1.007979,-2.943785 2.834419,1.13411 6.059319,1.714419 7.166444,1.289574 1.831965,-0.70299 1.837386,-1.040396 0.0603,-3.75258 -1.822725,-2.78183 -1.799534,-2.940095 0.348508,-2.378369 3.685053,0.963663 4.225852,-1.837126 0.981226,-5.081752 C 26.709621,35.345985 19.67885,26.25 20.913595,26.25 c 0.668112,0 4.727762,3.71436 9.021444,8.254134 9.808693,10.370879 12.634947,9.411391 5.643363,-1.91587 C 29.991415,23.536629 30.454691,21.48567 36.404381,28.931591 44.050195,38.500177 51.565676,46.25 53.199112,46.25 c 0.883854,0 2.286438,-2.109375 3.116852,-4.6875 0.830413,-2.578125 2.067912,-5.390625 2.749996,-6.25 2.069514,-2.607435 3.443525,-1.750198 2.245468,1.400934 -0.619683,1.629888 -1.277543,8.801764 -1.461912,15.9375 -0.258573,10.007719 0.123313,13.831454 1.670288,16.724066 3.465821,6.480582 21.131684,30.623892 34.122455,46.63396 6.865511,8.46117 13.824081,17.74243 15.463501,20.625 1.63942,2.88256 6.47148,11.14729 10.73791,18.36604 4.26643,7.21875 10.37338,18.1875 13.57102,24.375 5.20862,10.07885 6.92246,12.15371 16.46297,19.93102 10.93749,8.91612 16.83598,12.28725 19.02615,10.87392 0.68605,-0.44272 2.19214,-2.64874 3.34688,-4.90227 2.71231,-5.2932 1.57647,-11.73757 -2.99389,-16.98635 -1.87556,-2.15397 -4.34632,-5.74445 -5.49056,-7.97882 -1.14424,-2.23438 -2.58488,-4.0625 -3.2014,-4.0625 -1.90671,0 -3.62718,-7.71659 -3.74363,-16.79084 -0.0611,-4.7662 -0.34056,-8.89519 -0.62088,-9.17551 -0.28033,-0.28031 0.31302,-2.84148 1.31855,-5.69145 4.70198,-13.32683 19.82807,-20.53231 32.22702,-15.3517 7.5001,3.13374 12.0956,9.19637 15.26208,20.1345 3.69011,12.74699 3.79411,18.26165 0.40227,21.33121 -2.40286,2.17458 -2.56505,3.50894 -2.24752,18.49205 0.26696,12.59675 0.78422,16.6942 2.35186,18.63016 1.90914,2.35769 2.20722,2.37963 5.96047,0.43875 2.17295,-1.12367 4.58783,-3.23329 5.36639,-4.68805 0.77856,-1.45476 4.64094,-7.04823 8.58306,-12.42997 8.90017,-12.15035 11.58448,-17.52946 15.85615,-31.77415 1.85549,-6.1875 4.59485,-14.0625 6.08747,-17.5 1.49261,-3.4375 3.08245,-9.7841 3.53298,-14.10356 0.45584,-4.37036 3.08534,-13.79516 5.92872,-21.25001 2.81025,-7.368035 6.77993,-18.74018 8.8215,-25.27143 2.04157,-6.53125 4.92772,-14.96875 6.41367,-18.75 2.82571,-7.190485 3.79006,-24.026305 1.95109,-34.0625 -1.08705,-5.932589 0.38482,-6.021324 3.1652,-0.190817 2.73332,5.731845 4.48745,4.485728 8.26345,-5.870294 3.18521,-8.735766 4.8206,-8.980034 2.65942,-0.397223 -1.57033,6.236377 -0.71682,8.910489 1.60494,5.028393 0.77875,-1.302093 2.72281,-3.833343 4.32016,-5.625 l 2.90425,-3.257559 -0.78025,3.595601 c -0.63228,2.913718 -0.41262,3.454532 1.15824,2.851732 2.49561,-0.957658 2.44645,-0.511004 -0.5615,5.101186 -2.47084,4.610044 -3.28816,9.076481 -1.66093,9.076481 0.46149,0 1.96313,-0.984375 3.33695,-2.1875 2.40103,-2.102677 2.46127,-2.09056 1.55328,0.3125 -0.51955,1.375 -2.05801,5.443552 -3.41881,9.041226 -1.3608,3.597675 -4.43832,9.396553 -6.8389,12.886394 -3.11249,4.524759 -5.05243,9.461902 -6.76179,17.208774 -2.41658,10.951933 -10.86051,44.289066 -14.14964,55.863606 -0.97684,3.4375 -3.80874,13.25176 -6.29311,21.80946 C 262.03267,162.24217 260,169.99858 260,170.92091 c 0,0.92234 -2.60559,8.54558 -5.79019,16.94054 C 244.07076,214.58904 240,226.75366 240,230.3245 c 0,1.91135 1.54687,6.97962 3.4375,11.26284 3.41577,7.73842 3.4353,7.94175 3.09039,32.16266 -0.36665,25.74631 -0.76433,28.00583 -9.24,52.5 -1.97223,5.69959 -2.31774,9.75514 -2.02093,23.72095 l 0.35804,16.84594 12.5,5.14043 c 6.875,2.82724 20.90896,8.46532 31.18659,12.52905 30.42876,12.03145 36.26762,16.60158 35.86174,28.06934 -0.29324,8.2847 -2.10963,11.61675 -11.00474,20.18733 -9.97838,9.61433 -12.41808,11.47632 -31.04359,23.69257 -17.5002,11.47818 -36.56597,22.32699 -49.02745,27.89761 -4.2776,1.9122 -8.0304,4.39137 -8.33955,5.50925 -0.30916,1.11789 -0.94641,7.09503 -1.41614,13.28253 -0.99276,13.07746 -4.127,28.39162 -9.59358,46.875 -4.95832,16.76489 -6.06094,34.49245 -2.93799,47.23592 1.93451,7.89397 1.93977,8.95427 0.0699,14.08777 -4.54825,12.48652 -4.5486,11.98818 0.0125,17.4473 2.31667,2.77286 7.00822,7.25176 10.42568,9.95311 3.41746,2.70135 6.55054,5.45676 6.96237,6.12315 0.41185,0.66637 3.41408,2.1108 6.67162,3.20981 8.51082,2.87135 11.67912,5.6811 11.81552,10.4784 0.18049,6.34775 -2.69984,7.65638 -16.51773,7.50455 -6.53124,-0.0718 -13.28125,-0.3864 -15,-0.69921 z m 33.9303,-240.64431 4.1947,-4.05353 -3.54309,-0.4147 c -5.34022,-0.62504 -7.08191,0.53885 -7.08191,4.73251 0,4.81819 1.22281,4.76794 6.4303,-0.26428 z"
       id="path3418"
       inkscape:connector-curvature="0" />
  </g>
</svg>
