<?xml version="1.0" encoding="utf-8"?>

<!DOCTYPE svg PUBLIC "-//W3C//DTD SVG 1.1//EN" "http://www.w3.org/Graphics/SVG/1.1/DTD/svg11.dtd">
<svg version="1.1" id="Layer_1" xmlns="http://www.w3.org/2000/svg" xmlns:xlink="http://www.w3.org/1999/xlink" x="0px" y="0px"
	 viewBox="0 0 1752 1983.3962" enable-background="new 0 0 1752 1983.3962" xml:space="preserve">
<g>
	<path d="M922.0416,32.3333c9.7238-0.6503,19.4772-0.8562,29.2196-0.6141c13.3158,0.3309,29.7079-0.1409,42.4839,3.9812
		c23.1118,7.4569,42.9384,19.3469,61.8348,34.5822c12.1321,9.7816,23.0201,20.9623,35.9855,29.906
		c10.7269,7.3997,17.8986,18.0816,15.8164,32.25c-2.2202,15.1094,0.7415,29.5528,5.4847,43.5951
		c8.9777,26.5781,10.1488,53.5683,5.6899,80.9808c-0.7167,4.4068-0.6932,7.8115,2.879,11.2511
		c3.3989,3.2727,3.0613,7.6257-0.1858,11.1918c-1.7026,1.87-3.2776,3.7318-4.3483,6.03
		c-9.9993,21.4629-12.5807,43.9217-8.9952,67.1932c1.9052,12.3653,3.1135,24.647-1.0139,36.8902
		c-5.4065,16.0371-10.9639,32.042-15.7163,48.2773c-10.702,36.5605-21.6826,73.0045-37.6036,107.7259
		c-6.5299,14.2407-14.9695,26.7681-30.9153,31.9722c-0.5833,0.1904-1.5746,0.4301-1.616,0.7463
		c-0.1425,1.0878,1.1309,0.9408,1.6393,1.4481c3.22,3.2125,8.1971,3.0151,11.4469,5.4467
		c8.4713,6.3388,18.6024,9.5601,27.2263,15.524c9.3634,6.4752,20.5367,9.185,30.7025,14.0335
		c5.6143,2.6777,12.0044,4.847,18.5854,5.1667c4.2537,0.2067,7.0177-2.0775,9.4069-5.3116
		c2.2922-3.1027-1.4865-3.4142-2.2111-5.0801c-2.3015-5.2908-5.4563-11.1343-0.7183-15.8003
		c7.6719-7.5552,6.7089-14.6362,1.2783-22.4798c-0.8447-1.2198-1.4497-2.6297-2.0151-4.0131
		c-0.8464-2.071-1.4648-5.0084-0.0132-6.1917c4.8679-3.9681,6.5889-12.2578,15.1649-11.2997
		c2.8195,0.3151,2.4707-1.9459,2.5676-3.7744c0.1095-2.0639-0.5326-3.1494-2.8304-2.8257
		c-6.9005,0.9719-10.2242-3.7298-13.2419-8.642c-4.033-6.565-5.8873-14.0872-8.8949-21.1083
		c-3.3792-7.8885-0.9412-14.9227,5.5315-20.4962c6.0972-5.2502,13.8407-7.1097,20.4932-11.1273
		c8.3966-5.0711,15.9679-11.5156,25.0229-15.4615c3.8834-1.6923,3.6235-3.5236,1.3236-6.2489
		c-2.7858-3.3008-6.5853-5.7503-8.5302-9.7292c-1.3348-2.7308-2.4446-5.8083,0.4385-8.2229
		c2.6187-2.1931,5.3151-1.1025,7.7515,0.7079c2.983,2.2165,6.2554,3.8571,9.9204,4.463c3.3896,0.5603,5.5544-0.4285,5.0411-4.5363
		c-0.5339-4.2724-1.1322-8.5779-1.1302-12.8686c0.007-15.7141,2.5409-31.1026,7.6001-45.9421
		c4.3723-12.8243,9.285-25.3929,17.7369-36.4074c5.0291-6.5538,8.889-13.9904,14.7261-20.0228
		c9.641-9.9636,20.0662-18.9778,31.7369-26.4637c3.1522-2.0218,2.7294-4.7857,2.3027-7.4687
		c-0.4214-2.6489-2.949-1.6512-4.5665-1.6156c-6.1055,0.1342-8.3137-4.1931-10.1099-8.7649
		c-4.5496-11.5808-5.2059-23.7111-5.2476-36.0218c-0.0311-9.2073,1.8562-18.1336,2.72-27.2002
		c1.3137-13.789,5.3331-26.2256,13.9105-37.8727c17.6608-23.981,52.8029-24.5819,77.8844-13.1157
		c13.4614,6.154,27.4668,11.3141,37.8206,22.4623c6.7733,7.293,13.5198,14.7334,19.2679,22.8254
		c7.4579,10.499,16.8058,17.9697,28.3248,23.6598c9.2963,4.5921,18.6522,9.2537,27.0785,15.6917
		c4.8135,3.6776,9.3047,8.056,14.7164,10.8334c9.4404,4.845,14.2048,12.5803,15.8909,22.7194
		c1.3501,8.1197,3.3778,15.576,10.9089,20.9103c23.6205,16.7298,44.4797,36.5016,61.8013,59.7446
		c9.1472,12.2742,18.0236,24.9703,19.1135,41.0228c1.0344,15.2358,2.3199,30.5021,2.2766,45.7515
		c-0.0526,18.5815-1.6997,37.1534-2.0481,55.7409c-0.265,14.131-0.0375,28.2753,0.415,42.4283
		c0.6157,19.2568,0.1588,38.5643,2.712,57.7049c2.7037,20.2678,6.4965,40.3688,13.1982,59.7361
		c6.5448,18.9137,13.976,37.5212,20.4935,56.4438c6.2839,18.2449,10.3573,36.9548,12.8682,56.218
		c3.141,24.0977-4.1329,44.5444-17.5125,63.6432c-1.3231,1.8887-1.4695,2.4462,0.1729,4.254
		c5.032,5.5388,13.645,8.3167,13.9836,17.6015c0.014,0.3845,0.5953,0.7762,0.958,1.1159
		c6.3495,5.9462,10.9844,13.1221,15.9673,20.2269c13.2941,18.9554,23.5231,39.1238,30.1089,61.3177
		c5.0939,17.1661,15.0114,32.3928,20.1017,49.7339c3.2115,10.9408,9.7858,20.868,14.5507,31.3861
		c5.6877,12.5562,10.2172,25.6139,16.7765,37.8082c2.5779,4.7924,4.6782,9.9843,6.077,15.2389
		c1.4496,5.4456,2.6749,11.0005,4.8408,16.2224c3.1179,7.5168,8.7959,11.5293,9.5542,20.1163
		c0.9982,11.3037-1.7006,21.0953-3.0264,32.0336c-1.908,14.8385-4.4839,29.5402-10.5254,43.334
		c-5.1691,11.8018-12.5157,22.1798-20.7009,32.187c-6.6174,8.0905-14.0844,10.6755-23.9836,8.9674
		c-15.7792-2.7228-31.1289-6.9376-46.2148-12.2291c-0.9727-0.3413-2.1438-1.3342-3.1173-0.249
		c-0.1593,0.1775,0.95,1.5298,1.5114,2.3114c7.9655,11.0912,15.5905,22.3884,21.7716,34.6102
		c5.7079,11.2863,11.9121,22.7002,14.2963,34.9478c3.587,18.4277,2.6752,37.3558-4.8126,54.8955
		c-9.4585,22.1561-20.0227,43.7542-35.1244,62.9486c-15.4103,19.5868-29.7413,39.9993-47.6769,57.5103
		c-14.8701,14.5183-29.386,29.2565-46.6003,41.2697c-22.9329,16.0039-46.0688,31.3077-74.2365,36.0125
		c-6.9288,1.1573-11.9919,4.3057-17.0153,8.4354c-1.1417,0.9386-2.4834,2.3837-3.7007,2.3518
		c-5.5076-0.1436-7.4263,4.1022-10.2172,7.5018c-6.0156,7.3276-12.2775,7.2352-18.9507,0.3175
		c-3.032-3.1428-2.6268-7.0289-3.2825-10.6924c-1.4932-8.3403-2.931-9.3408-10.828-6.748
		c-6.1707,2.0259-12.3458,4.1846-18.8541,4.5814c-9.0878,0.5542-17.7299,2.5477-25.7997,6.7733
		c-9.2955,4.8676-19.2327,7.3058-29.6432,7.7257c-2.6149,0.1053-3.6455,1.0551-4.6642,3.3441
		c-2.772,6.2294-3.156,13.1171-5.6721,19.3734c-2.8115,6.9906-4.6508,14.6727-11.7784,18.9359
		c-1.9717,1.1791-2.5239,2.9834-3.1646,4.8539c-2.8048,8.1901-3.9658,16.7393-5.776,25.1536
		c-2.2909,10.6483-2.3268,20.8064,1.6925,30.7856c6.1206,15.196,12.8611,30.0415,20.5165,44.6344
		c10.9517,20.8762,21.2428,42.2098,27.8118,65.2087c7.5917,26.5797,13.4835,53.457,16.1884,80.8656
		c2.4523,24.8474,1.167,49.8805,0.037,74.8171c-0.2133,4.7073-0.8981,9.6729-4.5675,13.4019c-3.3334,0-6.6666,0-10,0
		c-0.165-2.9128-1.405-4.6362-4.6217-4.551c-3.311,0.0878-6.0031-1.5074-8.6429-3.3551c-4.6014-3.2206-10.124-4.329-15.1796-6.4629
		c-5.6864-2.4-12.2921-1.6447-17.3492-5.2595c-8.1429-5.8203-17.8911-8.725-27.0254-9.7578
		c-11.5085-1.3013-21.2787-7.5485-33.0339-8.1683c-9.4036-0.4958-18.738-4.5684-28.4709-5.5641
		c-4.0194-0.4113-8.0093-1.9253-11.8159-3.4341c-8.145-3.2284-16.5366-5.8186-25.2422-5.8771
		c-37.3274-0.2507-74.6573-0.1162-111.9865-0.0831c-3.0233,0.0027-5.9314-0.4524-8.886-1.0654
		c-11.2544-2.3361-22.2045-6.5508-34.0432-5.4418c-2.0707,0.1941-4.2715-0.4984-6.3539-1.0161
		c-10.1747-2.5295-20.2354-5.6354-30.5168-7.5864c-11.3528-2.1545-21.3378-6.5592-30.7225-13.3156
		c-6.9191-4.9814-14.7822-8.6995-22.3882-12.6667c-9.0701-4.7307-18.3111-9.1085-27.1515-14.3048
		c-6.2254-3.6592-10.5457-9.4812-16.4887-13.4384c-2.5728-1.713-6.0981-2.1802-7.6982-5.1852
		c-2.0522-3.8541-5.686-4.5952-9.4518-5.5139c-22.9403-5.5964-44.5752-13.5431-60.1819-32.7629
		c-5.2414-6.455-8.9166-12.9315-7.0643-21.7321c1.6985-8.0706,5.8274-14.7977,10.3803-21.344
		c7.7871-11.1962,18.1559-20.3468,25.506-31.9089c0.4378-0.6888,1.1023-1.251,1.7222-1.8038
		c9.1815-8.1907,10.3661-19.1421,2.8954-29.0106c-8.714-11.5107-19.8023-20.4937-33.2986-25.1904
		c-21.3174-7.4185-42.5758-15.0298-65.3201-17.9447c-12.128-1.5543-24.2593-4.2922-36.3253-6.7322
		c-10.9322-2.2108-22.0095-3.1025-32.9681-4.4646c-18.2341-2.2665-36.7079-2.9171-55.1043-3.4843
		c-22.6271-0.6975-45.2825-0.9785-67.9174-0.7181c-12.4005,0.1426-24.842,0.9661-37.1488,3.0824
		c-7.1389,1.2278-11.8311,4.564-13.5047,11.9377c-1.3052,5.7505-3.7503,11.0062-8.6064,14.8171
		c-5.2275,4.1023-10.4711,8.1938-15.5245,12.5049c-3.5161,2.9994-7.4297,4.1327-11.5314,2.2877
		c-4.1948-1.887-4.3038-6.2338-4.8963-10.2384c-0.9018-6.0955,2.4737-11.2911,3.1826-16.9833
		c2.7343-21.9546,7.1541-43.554,13.2763-64.7932c7.5025-26.0282,16.5844-51.6874,22.5143-78.0613
		c7.5505-33.5817,19.527-65.91,26.4136-99.6659c2.117-10.3766,4.008-20.8479,5.5446-31.2424
		c2.8031-18.9611,0.9057-38.1014-0.8639-57.1715c-0.5388-5.8064-3.3529-12.0334,0.9396-17.8973
		c1.0125-1.3832,0.5142-3.9441-1.1061-5.545c-3.3355-3.2957-4.0407-7.4519-4.2061-11.9072
		c-0.0803-2.1632,0.2228-5.0117-2.6907-5.7006c-3.789-0.8959-5.5772-3.9386-7.9453-6.4441
		c-14.8726-15.7351-24.9872-34.7908-36.6618-52.736c-12.8838-19.804-25.3024-39.9115-37.866-59.9229
		c-13.3778-21.308-25.5684-43.298-34.9431-66.6516c-9.3506-23.2936-17.7402-46.9722-26.6255-70.4538
		c-4.8255-12.7526-10.6407-25.0447-16.9683-37.1351c-2.5258-4.8262-3.4401-5.5261-7.7579-2.1693
		c-9.4231,7.3262-18.4638,15.3019-28.8612,21.1653c-26.9261,15.1846-49.3917,35.9241-71.9522,56.5833
		c-12.1633,11.1381-22.5707,23.9833-34.2398,35.5933c-4.2693,4.2476-8.9529,9.1913-15.9527,7.6028
		c-11.9429-2.71-24.2628-4.506-34.4642-12.2468c-2.9511-2.2394-6.1304-2.6652-9.7383-1.0225
		c-7.5614,3.4426-15.1202,6.975-22.9303,9.7715c-22.7737,8.1543-46.6262,7.9478-70.362,8.5365
		c-3.0255,0.0751-5.3461-0.6666-7.5712-2.8536c-3.8856-3.819-7.133-2.9801-12.2074-10.8967s-2.875-229,3.477-241.6226
		c5.6842-11.2958,18.0371-17.7791,26.3267-27.3043c10.2384-11.7645,20.131-23.8411,29.0818-36.6866
		c5.6573-8.119,11.5793-16.3718,22.6134-18.2266c3.2826-0.5517,6.0922-2.6924,8.4572-5.0974
		c1.6918-1.7205,3.6153-2.6128,5.8179-1.6432c2.2543,0.9924,3.5245,2.9172,3.6762,5.5145
		c0.2493,4.2676-0.9067,8.2044-2.4582,12.1154c-4.9282,12.4221-12.0649,23.6705-12.6589,38.1135
		c-0.416,10.1166-0.6957,19.9848,0.5305,30.0046c1.3961,11.4084,4.2841,22.4567,7.2772,33.5038
		c0.3796,1.4012-0.1453,3.4727,1.36,3.9906c1.8796,0.6467,2.85-1.4304,3.7927-2.6566c6.8887-8.959,13.5037-18.134,20.5675-26.9504
		c3.1057-3.8763,3.9338-7.8803,3.2287-12.5379c-0.2971-1.9625-0.1758-4.001-0.5903-5.9307
		c-1.3749-6.4007,1.1032-13.5922-3.5195-19.2637c-2.5264-3.0995-3.9165-6.4335-4.6527-10.2928
		c-5.7191-29.9821-13.4991-59.5409-18.1366-89.7542c-2.3414-15.2542-7.7014-29.9371-9.3066-45.3466
		c-0.5798-5.5659-2.1316-11.8495,0.866-16.6074c2.3878-3.7899,2.7688-7.2172,2.7821-11.1515
		c0.018-5.3328-0.7298-10.7956,0.1819-15.968c1.365-7.744,1.4035-15.672,7.8544-22.3412
		c6.0282-6.2321,12.7599-13.2587,10.442-23.8677c-1.798-8.2297,3.2734-14.3275,8.4862-19.2449
		c11.7669-11.0999,21.5278-23.9482,32.5891-35.6392c7.379-7.799,11.0393-17.6732,15.3533-27.2242
		c2.9175-6.4592,4.8676-6.9308,11.3802-4.626c20.9116,7.4005,39.6128,18.8392,57.3888,31.8191
		c6.1482,4.4893,13.6627,7.3398,18.3728,13.5392c7.3078,9.6185,13.9609,19.6933,16.5561,31.8253
		c0.5508,2.5748,1.44,5.0844,1.8823,7.6738c1.8484,10.8214,3.1011,21.6939-1.0314,32.2725
		c-1.2635,3.2344-1.1177,6.6935,1.3164,7.9964c1.6121,0.8629,5.45-0.5573,7.0883-3.201c1.0446-1.6857,2.3161-3.5025,2.5394-5.3735
		c0.6268-5.2503,4.0055-9.3428,5.5043-14.0795c3.813-12.0505,13.4512-19.076,21.8459-27.2345
		c2.9779-2.8941,6.8213-3.891,10.8199-4.6052c8.3612-1.4935,16.8407-1.7357,25.2608-2c15.7673-0.495,31.1839-4.3394,47.1058-3.8069
		c13.5547,0.4534,27.1567-0.9941,40.6575-2.8364c13.1353-1.7925,26.2766-3.6602,39.4731-4.8594
		c21.9766-1.9973,44.0653-2.9824,66.0818-3.7264c24.6085-0.8315,48.2217-6.3329,72.0597-11.1173
		c3.353-0.673,6.9414-1.2927,10.0098-2.6492c8.6425-3.8207,17.7794-6.1229,26.7853-8.4761
		c13.4594-3.5169,25.0501-10.1054,36.1624-18.0449c13.5163-9.657,27.3466-18.8845,40.6757-28.7893
		c8.3094-6.1747,15.7443-13.977,19.1947-23.6135c1.9064-5.3247,3.181-11.3559,4.5491-17.1142
		c0.3765-1.585,0.0888-3.3198,0.1826-4.9815c0.4673-8.28-0.0299-16.5393,0.8632-24.8839
		c0.9016-8.4236,0.1324-17.4743-4.1295-25.1425c-4.0536-7.2936-7.9907-14.6105-10.933-22.3762
		c-6.8214-18.0033-13.6998-36.1191-12.9033-55.8105c0.5428-13.4218,1.7017-26.8547,6.5336-39.6349
		c0.6292-1.6642,1.5816-3.3299,1.0961-5.2873c-2.4323-9.8047-1.5276-19.8688-1.8477-29.7844
		c-0.6385-19.7762,0.7026-39.5608,1.1657-59.3419c0.4483-19.1483,7.6299-35.8331,18.415-50.7079
		c8.3286-11.4868,18.225-22.1769,28.9162-31.5128c10.2044-8.9109,20.1354-18.2759,31.1462-26.2669
		c5.1181-3.7144,8.6965-7.1345,14.7394-9.0973c6.969-2.2636,14.043-4.2293,21.1593-5.9718
		c13.8654-3.3951,27.9606-5.8498,42.156-7.3541C913.7916,32.9655,917.9139,32.6093,922.0416,32.3333z"/>
</g>
</svg>
