<?xml version="1.0" encoding="utf-8"?>
<svg version="1.1" id="Layer_1" xmlns="http://www.w3.org/2000/svg" xmlns:xlink="http://www.w3.org/1999/xlink" x="0px" y="0px"
	 viewBox="684 1340.7 1045.8 1780.7" enable-background="new 684 1340.7 1045.8 1780.7" xml:space="preserve">
<path d="M876.4,1431.6c2.3-0.9,4.9-0.4,7.2,0.3c2.1,1.9,4.5,3.4,7,4.5c1.6,0.3,3.2,0.1,4.8-0.4c0.7-0.2,1.5-0.4,2-1
	c1-0.4,1.8,0.4,2.7,0.8c2.3,0.5,4.5,1.6,6.7,2.3c0.6,0.2,1.2,0.4,1.9,0.6c1.6,0.5,3.3,1.1,5,1c3.6,0.2,7.4-0.7,10.8,0.8
	c0.6,1.5,2.3,2.4,3.9,2.4c2.1,0,4.3,0.2,6.3-0.6c1.4-0.5,2.7,0.3,4,0.7c1.3,0.4,2.4,1.4,3.8,1.7c1.1,0.3,2.2,0.5,3.2,0.9
	c2.7,1.1,5.5,2,8.3,2.5c1.8,0.1,3.7-0.1,5.4,0.7c1.5,0.2,3.3,0.4,4.3,1.8c1,1.3,2,2.5,3.4,3.4c2.4,1.7,4.6,3.8,7.3,5.2
	c2.8,1.4,5.4,3.1,8.4,4.1c2.5,1.1,5.3,1.6,7.9,2.3c4.1,1.1,8.3,1.6,12.4,2.2c1.4,0.3,2.8,0.1,4.1,0.1c0.9,0.8,1.8,1.7,2.7,2.4
	c2,1.8,3.2,4.3,4.2,6.7c0.5,1.5,0.5,3.1,1.4,4.4c0.5,0.9,1.4,1.5,2.3,1.9c3.9,1,7.8,1.5,11.7,2.4c2.5,0.3,4.8,1,7.3,1.4
	c8.6,1.9,17.4,3.1,25.9,5.5c1.3,0.3,2.6,0.6,3.9,0.9c0.5,0.2,0.9,0.3,1.4,0.5c0.9,0.3,1.8,0.8,2.8,0.7c0.8-0.3,1.8-0.6,2.2-1.5
	c0.7-0.1,0.5-0.8,0.5-1.3c0-0.5,0.1-1.2-0.5-1.4c-0.3-1.5-2.7-1.6-2.3-3.3c0.4-1.6,1-3.3,0.4-5c-0.1-0.6-0.7-1.5-0.1-2
	c1.5-1.5,3.3-2.8,4.8-4.4c1,0,2-0.2,2.9,0.3c3.1,1.3,6.3,2.4,9.4,3.6c3.1,1.1,5.6,3.4,8.7,4.3c5.3,1.3,10.7,2.4,16,3.6
	c0.5,0.1,1,0.2,1.5,0.4c1.5,0.2,3.1-0.1,4.1-1.3c0.9-0.8,1.3-2.3,2.7-2.5c2.3-0.3,4.6-0.2,6.9,0c1.5,0.7,2.7,2,3.8,3.3
	c0,1,0.2,1.9,0.4,2.8c0.7,1.6,2.5,2.2,4.1,2.4c1.6,0.2,3.2,0.4,4.7,0.7c1.3,0.2,2.6,0.5,4,0.6c0.2,0,0.5,0.1,0.6,0.2
	c9.4,0.2,18.7-0.1,28.1,0.2c1.5,0.4,3.1,0.2,4.6,0.6c2-0.1,3.9,0.4,5.9,0.4c1,1.1,2.1,2.1,3.5,2.5c1.6,0.4,2.7,1.7,3.9,2.7
	c1.3,1.2,3.1,1.8,4.8,2.3c1.1,0.4,1.7,1.5,2.5,2.3c1.2,1.3,2.4,2.7,4.2,3.2c1.2,0.3,1.5,1.7,2.4,2.3c0.8,0.7,1.8,0.7,2.8,1
	c0.5,0,1,0.1,1.5,0.1c1.2,1.7,2.8,3,4.2,4.6c2.1,2.5,4.2,5,6.1,7.6c1.3,1.7,2.8,3.3,3.8,5.2c1.5,2.7,2.7,5.6,4.2,8.3
	c0.8,1.3,1,2.9,1.5,4.3c0,0.2,0.1,0.6,0.1,0.7c0.9,1.4,0.7,3.1,0.3,4.6c-0.3,1.2,0.5,2.3,1.2,3.2c0.9,1.1,1.3,2.4,1.9,3.6
	c1,2.7,1,5.6,1.8,8.3c0.1,0.6,0.2,1.2,0.3,1.8c0.2,1,0.4,1.9,0.7,2.9c0.2,1,0.4,1.9,0.7,2.8c0.6,3.2,1,6.4,1.5,9.7
	c0.1,4.1,0,8.2,0.2,12.2c0.6,3.2-0.2,6.5,0.4,9.7c0.4,1.7,0.7,3.3,1.1,5c0.5,2.1,0.9,4.2,1.4,6.3c1.1,3.5,0.3,7.3,0.6,10.9
	c0.4,1.3,0.7,2.7,1.4,3.9c0.6,1,0.3,2.2,0.4,3.3c0.4,0.8,0.8,1.6,1.6,2.1c1.6,1.1,2.8,2.7,4.6,3.4c0.7,0.2,1.4,0.5,2,0.9
	c0,0.7,0,1.5,0.3,2.2c0.6,1.1,1.8,1.8,2.3,3c0.5,1.4,1.6,2.6,2.9,3.2c1.4,0.4,2.7,1.2,3.2,2.6c0.6,1.7,0.7,3.6,1.7,5.2
	c1.4,2.2,0.5,5,1.1,7.4c0,2.2,1.2,4.1,2.1,6c0.1,0.6,0.1,1.2,0.3,1.8c0.3,2.3,0,4.6,0.1,6.8c0.1,1.4-0.9,2.4-1.7,3.4
	c-0.8,1-1.1,2.4-2,3.4c-0.9,1-1.8,2.1-3.1,2.8c-0.7,0.4-1.4,0.8-2,1.3c-1.4,0.2-2.9-0.2-4.3,0.1c-1,0.7-2.2,0.9-3.3,0.5
	c-0.8-0.5-1.7-0.1-2.6,0.1c-1.6,0.7-2.6,2.2-3.5,3.6c-0.5,1.4-0.8,2.9-0.7,4.4c0,1.4-0.4,2.9,0.4,4.1c0.5,0.9,1.4,1.3,2.2,1.7
	c1.3,0.1,2.6-0.1,3.9,0.1c0.9,0.4,1.9,0.9,2.9,1.2c1,1.5,1.5,3.3,2.6,4.7c0.2,2.6,0.3,5.5-1,7.8c-0.2,0.6-0.5,1.2-0.7,1.8
	c0,0.4-0.1,0.8-0.1,1.2c-0.6,2.7,0.2,5.5-0.6,8.2c0,3-0.5,6.2,0.5,9.1c0.3,1.1,1.1,1.8,2,2.5c0.6,0.1,1.3,0.2,1.9,0.4
	c0,1.4,0.1,2.8-0.2,4.1c-0.4,0.8-0.8,1.6-1.3,2.4c-0.6,0.7-1.6,1.1-2.2,1.8c-0.9,1.2-1.1,2.7-1.5,4.2c-0.4,1.6-0.3,3.3,0,4.9
	c0.3,1.5,0.5,3.3,1.7,4.4c1.6,1.6,3,3.4,4.4,5.2c0.1,0.4,0.2,0.8,0.3,1.2c0.5,1.5,0.5,3.1,1.3,4.5c0.3,0.7,0.9,1.4,1,2.3
	c0.2,1.2-0.3,2.4-0.3,3.7c0,2.1,0,4.3,0.3,6.4c-1.9,2.4-1.8,5.8-0.8,8.6c0.1,2.1,1.5,4,1.2,6.2c-0.4,1.9-0.2,3.8-0.7,5.7
	c-0.5,2.2,0.3,4.3,0.4,6.5c0,1.6,1,3.1,0.6,4.7c-0.4,1.5-0.3,3.1-0.4,4.7c-0.2,0.3-0.2,0.7-0.1,1c0.1,0.5,0.2,1,0.4,1.5
	c0.1,2.9,0.3,5.8-0.1,8.6c0.1,0.6,0.2,1.2,0.3,1.8c1,2.4,3.8,3,5.6,4.6c0.6,1.9,1.6,3.9,0.5,5.8c-0.1,0.9-0.2,1.8-0.5,2.6
	c-0.6,1.2-0.1,2.5,0.4,3.6c0.2,1.7-0.2,3.5,0.2,5.3c0.5,1.3,2.1,2.2,1.7,3.8c-0.8,0.7-1.6,1.4-2,2.4c-0.4,1-0.2,2.1-0.3,3.2
	c0,2.4,0,4.8,0.1,7.2c0.1,0.8-0.4,1.7-0.1,2.5c0.2,0.9,0.6,1.7,1.2,2.4c1.3,1.3,2.2,3,3.5,4.4c1.9,2,3.4,4.5,5.8,6
	c0.8,0.5,1.8,0.8,2.3,1.7c1.1,2,2.4,3.9,4.3,5.3c1,0.8,2.4,1,3.6,0.7c1.6-0.4,3.3-0.4,4.8,0.2c0.9,1.3,0.5,2.9,0.5,4.4
	c-0.6,3.1-0.1,6.2-0.5,9.3c-0.3,1.4,0,2.9-0.3,4.4c-0.3,1.5,0.2,3.2-0.6,4.5c-0.7,1.4-0.7,3-0.7,4.5c-0.5,1.6,0,3.4-0.5,5
	c-0.1,1.2-0.1,2.4-0.2,3.6c-0.5,1.5-0.1,3.1-0.4,4.7c-0.4,1.8,0,3.6-0.4,5.4c-0.1,1.8-0.7,3.5-1.1,5.3c-0.2,1-0.7,1.9-1.1,2.8
	c-1.2,3.2-3,6-4.7,8.9c-0.7,1.3-1.7,2.6-2.1,4.1c-0.3,1.5-1.8,2.2-2.3,3.6c-0.8,2,0.6,4.2,2.6,4.8c0.4,0.1,0.8,0.2,1.2,0.3
	c2.1,0.1,4.8,0.9,5.4,3.2c0.4,1.3,1.3,2.4,2.2,3.4c0.9,1,1,2.4,1.6,3.6c0.9,1.8,0.7,4,1.5,5.9c0.1,0.3,0.3,0.7,0.4,1.1
	c0.1,1.1,0.1,2.3,0,3.4c-0.6,2.4,0.1,5-0.5,7.4c-0.5,1.8-2.2,3-2.6,4.9c-0.2,1-1.1,1.9-2.1,2.1c-1.8,0.3-3.2,1.6-5,1.6
	c-1.7,0.2-3.8,0.1-5,1.6c-0.5,0.7-1,1.5-0.7,2.4c0.4,1.5,2,2.4,3.5,2.4c1.8,0.2,3.7-0.9,5.4,0.2c1,0.7,2.7,0.7,2.8,2.2
	c0.2,0.7,0.5,1.4,0.9,2c1.2,1.7,1.3,3.8,1.9,5.7c0.8,1.4,1,3,1.3,4.5c0.2,1.3,1.1,2.3,1.1,3.6c0,0.8,0.1,1.6,0.3,2.4
	c0.2,1.6-0.1,3.2,0.4,4.7c0.2,1.6-0.1,3.2,0.4,4.7c0.1,1,0,1.9,0.3,2.9c0.5,2-0.3,3.9-0.5,5.8c-0.7,1.3-0.7,3.1,0.2,4.3
	c0.4,0.6,1,1.2,1.4,1.8c0.5,1,0.3,2.2,0.8,3.3c0.1,2.6,0.5,5.5-0.5,8c-0.3,1.5-0.7,3.1-0.9,4.7c-0.1,0.1-0.2,0.2-0.3,0.2
	c-0.1,0.2-0.2,0.5-0.2,0.7c-0.5,1.7-1.3,3.2-2.1,4.7c-0.2,0.4-0.6,0.7-1,0.9c-1.5,0-2.9-0.2-4.4,0.2c-0.8,0.5-1.3,1.2-1.7,2
	c-5.7,0.1-11.1-1.7-16.7-2.6c-2.5-0.6-5-1.1-7.6-1.4c-3.2-0.4-6.3-1.4-9.6-1.3c-0.7,0.5-1.4,1.2-2,1.9c0,0.4,0,0.9,0,1.4
	c0.5,0.7,1.1,1.4,1.7,2c0.2,0,0.5,0.1,0.7,0.1c2.9,0.7,6,1,8.9,1.6c0.7,0.1,1.4,0.2,2.1,0.4c2.3,0.4,4.5,1,6.8,1.3
	c3.3,0.9,6.9,1.2,10.1,2.5c1.6,0.6,3.3,0.7,4.7,1.9c0.8,0.7,1.8,1.2,2.8,1.6c2.8,0.6,5.6,1.1,8.4,1.8c1.9,0.1,2.9-1.7,4.1-2.7
	c1.2-0.8,2.6-1.7,4.1-1.4c2.2,0.8,5.1,0.8,6.7,2.8c1.2,1.6,2.8,3,3.5,4.9c0.1,0.3,0.2,0.7,0.3,1c0.2,0.7,0.4,1.5,0.7,2.2
	c1,2.5,0.4,5.3,0.5,7.9c0.4,5.3-1.7,10.3-2.3,15.6c-0.5,0.8-1.3,1.2-1.9,1.8c-1.1,0.2-2.3,0.3-3.3,1c-0.6,0.6-1.4,1.2-1.5,2
	c-0.1,0-0.3,0-0.3,0c0.4,0.4,0.7,0.9,0.8,1.4c1.5,1.4,1.7,3.6,2.3,5.4c0.1,1,0.5,2,0.9,3c0.2,0.6,0.5,1.2,0.8,1.8
	c0.5,1.9,0.6,4.1-0.4,5.9c-0.4,0.7-0.4,1.5-0.4,2.3c0.7,1.1,1.5,2.2,2.7,2.7c2.2,0.9,4.5,1.1,6.9,1.6c1.1,0.3,2.3,0.1,3.5,0.2
	c2.4,0.3,4.5,1.7,6.8,2.5c0.2,0,0.6,0.1,0.8,0.1c2.6,1.2,5.3,2.1,7.8,3.5c0,1.6,0.1,3.2-0.1,4.8c-0.3,0.5-0.4,1-0.1,1.6
	c-0.1,0-0.3-0.1-0.4-0.1c0.1,1.6,1.3,2.8,2.4,3.8c0,0.6,0,1.3,0,1.9c-0.7,0.6-0.8,1.6-0.9,2.5c-1,4.5-1.8,9.1-2.7,13.7
	c-0.6,2.9-0.8,6-2.3,8.6c-0.7,1.1-1.5,2.1-2,3.4c-0.4,1-1.3,1.7-2.3,2.1c-1,0.4-1.8,1.3-2.9,1.2c-0.7,0-1.4,0.1-2,0.2
	c-1.1,0.2-2.3,0.3-3.4,0.7c-2.1,0.4-4.3-0.1-6.3,0.3c-2.2,0.1-3.7,2.1-3.7,4.2c0,2.3,2.1,4,4.3,4.3c1.1,0.4,2.4,0.2,3.6,0.3
	c3.4,0,6.7-0.1,10.1,0c2.1,0.5,4.2,0.7,6.3,1.2c0.7,0.3,1.2,0.9,1.8,1.4c0,0.3,0,0.9,0,1.1c-1.1,0.3-1.7,1.3-2.7,1.9
	c-2.2,0.2-4.3,0.8-6.5,0.8c-1.3,0-2.1,1.1-3.3,1.6c-3.6,0.5-7.3,0-11,0.2c-0.1,0.2-0.4,0.5-0.5,0.6c-0.2,0-0.5,0.1-0.7,0.1
	c-1.2,2.1-0.9,4.6-0.9,6.9c0,2.6,0.1,5.3,0.1,7.9c-0.1,2.2,0.5,4.3,0.3,6.4c0.2,3.1-0.2,6.2,0.3,9.3c0.2,1.8-0.1,3.6,0.3,5.4
	c0.3,1.9-0.2,4,0.3,5.9c0.3-2.1,0.2-4.1,0.2-6.2c0,1.8,0,3.6,0.1,5.4c-0.3,1.9-0.2,3.8-0.2,5.8c0,2.9,0,5.8,0.1,8.6
	c0.1,1.3-0.1,2.6,0.2,3.8c0.2,3.8-0.1,7.7,0.4,11.6c0.1,3.4,0,6.8,0.2,10.2c0.4,2,0.2,4,0.2,6.1c0,2.5,0.1,5,0,7.5
	c-0.9,0.9-0.9,2.3-0.6,3.5c0.5,1.3,1.9,1.9,3.1,2.2c1.1,0.2,1.5,1.3,2,2.1c0.9,1.4,1.4,3,2.4,4.3c1,1.5,1.7,3.1,2.3,4.8
	c0.5,1.4,1.6,2.5,2.4,3.8c0.3,2.6,1.3,5.1,2,7.7c0.3,1.2,1.3,1.9,1.8,2.9c0.6,1.4,1.1,2.8,1.7,4.2c0,0.2,0.1,0.5,0.1,0.7
	c1.1,1.5,2.9,2,4.3,3.1c0.7,0.4,1.5,0.7,2.2,1.1c1.3,0.4,2.6,1.1,3.6,2.1c0.8,0.9,2.3,0.8,2.9,2c0.4,1.5,0.5,3.1,1.3,4.4
	c0.6,1,0.9,2.2,1.3,3.3c0.4,0.9,1.3,1.3,2.1,1.8c0.5,0,0.9,0,1.4,0c1-0.6,2.1-1.2,2.3-2.4c0.4-1.4,1.2-2.5,2-3.7
	c1.7-0.3,3.4,0.7,5.2,0.4c0.4,0.3,0.8,0.7,1.2,1.1c0.8,0,1.6,0,2.3,0c0.6-0.6,1.1-1.1,1.5-1.9c1.2-3.5,1.6-7.2,2.3-10.9
	c0.3-1.3,0.5-2.6,0.7-3.9c0.1-0.5,0.2-1,0.3-1.5c0.7-2.2,1.5-4.3,2.2-6.5c0.2-0.5,0.3-0.9,0.5-1.4c0.9-2.7,1.8-5.3,2.7-8
	c0.2-0.6,0.5-1.2,0.7-1.8c1-2.1,2-4.2,2.9-6.4c1.3-0.2,1.4,1.4,2.5,1.7c0.2,1.7-0.8,3.1-1.2,4.6c-1.3,3.9-3,7.6-4.4,11.5
	c-1.4,3.1-2,6.6-3,9.8c-0.7,2.6-1.7,5.2-2.1,7.9c-0.2,1.1-1.2,2.1-0.8,3.2c0.4,0.6,1.1,1.2,1.9,0.8c1.3-0.8,1.7-2.5,2.4-3.8
	c3.1-5.6,6.1-11.3,9.3-16.9c0.4,0,0.8,0,1.3,0c1-1.3,1.4-3,1.8-4.5c4.6-15.6,9.2-31.1,13.9-46.7c2.2-7.6,4.5-15.2,6.9-22.8
	c0.9-2.8,2-5.5,2-8.5c0-2.6,0.1-5.3,0.1-7.9c0.1-2.9-1.8-5.3-2.8-8c-1.1-1.9-1.6-4.1-3.1-5.7c-2.2-2.3-4.6-4.5-6.8-6.9
	c-2-2.5-3.9-5-5.8-7.5c-0.8-1.6-0.9-3.5-0.9-5.2c2.2-0.2,4.3,0.6,6.4,1c1.8,0.3,3.7,0.2,5.3,1.1c1.7,2.2,4.2,3.5,6.4,5.1
	c11.2,7.9,22.5,15.8,33.7,23.7c7.4,5.5,14.7,11,22.1,16.5c0.5,0.2,1,0.3,1.5,0.4c-0.3,0-0.8,0-1.1,0.1c2.6,1.5,4.8,3.5,7.3,5.2
	c11.4,8.5,23.2,16.4,34.7,24.6c11.7,8.4,23.4,16.8,35.1,25.2c22.1,16.4,44.2,32.7,66.4,49c5,3.6,10.3,6.8,14.7,11.1
	c1.2,1,2.1,2.3,3,3.6c0,0.8,0.2,1.7-0.2,2.5c-0.4,1.2-0.9,2.3-1.3,3.5c-0.8,0-1.6-0.1-2.2-0.5c-0.7-0.3-1.4-0.5-2.2-0.7
	c-1.1-0.3-2.2-0.7-3.3-1.3c-2.4-1.3-5-2.4-7.4-3.8c-1.4-0.8-2.8-1.6-4.2-2.2c-1.5-0.6-3.2-0.8-4.8-1.3c-0.5-0.1-1-0.3-1.4-0.3
	c-0.5-0.1-1-0.2-1.5-0.3c-2.4-0.4-4.9-0.2-7.2,0.1c-2.4,0.1-4.8-0.1-7.1,0.6c-1.9,0.6-3.8,0.8-5.7,1.4c-1.7,0.6-3.4,0.7-5.1,1.4
	c-5.1,1.9-10.1,4.1-14.3,7.6c-2.4,1.6-4.5,3.7-6.5,5.7c-2.6,2.7-4.7,5.9-7.1,8.8c-2,2.4-4.3,4.6-6.3,7.1c-1.5,2.1-2.3,4.6-4.1,6.6
	c-0.5,0-1,0-1.4,0c-0.2,0.1-0.7,0.4-1,0.5c-2.2,2.4-4.4,4.8-6,7.6c-1.7,3.6-3.3,7.1-5,10.7c-0.9,2.2-2.2,4.2-2.9,6.5
	c-0.6,1.8-2.4,2.6-3.4,4.1c-0.7,1.8-1.1,3.7-0.8,5.6c0.1,0.9,0.9,1.4,1.6,1.9c-1.9-0.3-2-2.5-2-4.1c-0.1,1.3-0.1,2.7,0.9,3.7
	c0.7,0.6,1.7,0.7,2.6,0.9c0.8,0.3,1.6,0.2,2.5,0.2c-0.3,1.3-1.4,2.1-1.8,3.3c-0.9,1.8-1.4,3.7-1.8,5.6c-0.1,0.4-0.2,0.9-0.3,1.4
	c-1,1.5-2.1,3-2.8,4.7c-0.6,1.1-0.8,2.6-1.8,3.4c-2,1.3-3,3.5-4.7,5.1c-0.6,0-1.3,0-1.9-0.1c-0.8-1-1.7-1.7-2.7-2.4
	c-0.3-0.1-0.7-0.3-1-0.4c-1.4-0.2-2.6,0.4-3.6,1.2c-0.4,0.6-0.5,1.4-0.5,2.1c-0.1-0.4-0.2-0.8-0.2-1.2c-0.8,4.1-1.9,8.2-2.9,12.3
	c-0.9,4.1-2,8.2-3,12.2c-0.7,3.5-1.8,6.9-2.2,10.4c-0.7,4.7-1.5,9.3-2.1,14c-0.4,2.4-0.8,4.8-1.1,7.2c-0.3,0.9-0.2,1.9-0.5,2.8
	c-0.7,4.5-1.4,9.1-2.1,13.6c-0.3,1.7-1.6,3-2.4,4.5c-0.6,0.9-0.4,2.1-0.4,3.1c0.5,1,1.3,1.7,2.4,2c0.5,0.1,1,0.2,1.5,0.3
	c0,0.2,0,0.7,0,0.9c0.5,0.9,1.3,1.7,2,2.5c0.6,0.7,0.5,1.6,0.6,2.4c0.2,1.3,0.5,2.6,1.2,3.7c1.1,2,1.8,4.3,3,6.3
	c1,1.8,1.4,3.7,1.7,5.7c0.3,1.8,0.4,3.6,0.7,5.4c0.1,0.7,0.1,1.5,0.2,2.2c0.3,0.8,0.3,1.6,0.4,2.5c0.2,1.1,0.5,2.4,1.3,3.3
	c0.4,1.9-0.9,3.6-0.8,5.5c-0.6,0.5-1.4,1-1.9,1.7c-0.7,1.1-0.6,2.5-0.7,3.7c-0.3,0.9-0.3,1.9-0.4,2.9c-0.4,1-0.3,2.1-0.3,3.2
	c-0.4,2.2-0.6,4.5-0.7,6.8c-0.4,1.2-0.2,2.4-0.4,3.6c-0.4,1.2-0.2,2.4-0.4,3.6c-0.4,1.2-0.3,2.4-0.4,3.6c-0.4,2.2-0.4,4.5-0.9,6.8
	c-0.2,1.8-0.4,3.6-0.7,5.4c-0.8,7.3-2,14.6-2.7,21.9c-0.4,1-0.2,2.1-0.5,3.2c-0.3,3.6-1,7.2-1.3,10.8c-0.3,1-0.3,2.1-0.3,3.2
	c-0.3,1-0.3,2.1-0.4,3.2c-0.4,1-0.3,2.1-0.4,3.2c-0.4,1.2-0.2,2.4-0.4,3.6c-0.4,2-0.6,4.1-0.7,6.1c-0.4,1.3-0.2,2.6-0.5,4
	c-0.2,0.8-0.2,1.7-0.3,2.5c-0.4,1.1-0.2,2.4-0.4,3.6c-0.3,1-0.3,2.2-0.3,3.3c-0.3,0.9-0.3,1.9-0.4,2.9c-0.4,1.1-0.3,2.4-0.4,3.6
	c-0.4,1.1-0.2,2.4-0.4,3.6c-0.3,0.8-0.3,1.7-0.3,2.5c-0.4,1.2-0.3,2.4-0.4,3.6c-0.4,1.4-0.2,2.8-0.4,4.2c-0.5,3-0.7,6-1,9.1
	c-0.3,0.9-0.3,1.9-0.3,2.9c-0.4,1.2-0.2,2.4-0.3,3.6c-0.4,1-0.3,2.1-0.4,3.2c-0.3,0.9-0.3,1.9-0.4,2.9c-0.4,1.1-0.3,2.4-0.4,3.6
	c-0.4,1.2-0.2,2.6-0.5,3.8c-1.1,4.2-2.4,8.4-3.5,12.7c-1.1,2.8-2.9,5.2-4.3,7.9c-1,2-2.5,3.7-2.9,5.9c-0.2,1.1-0.7,2.3-0.3,3.5
	c0.3,1.8,2,2.8,2.8,4.4c0.7,1.1,0.5,2.6,0.5,3.9c-1,0.7-2.1,1.3-2.9,2.3c-1.3,1.6-3.5,2.4-4.3,4.5c0,1.3,0,2.6-0.1,4
	c-0.5,1.3-0.5,2.7-0.9,4c-1.4,9.1-2.8,18.2-4.3,27.3c-0.2,2.2-0.7,4.3-0.9,6.5c-0.4,1.9-0.6,3.8-0.9,5.7c-0.4,2.5,1.4,4.8,3.7,5.5
	c0.7,0,1.3,0,2,0c0,1.7-0.1,3.5,0.3,5.1c0.6,2.4-0.4,4.7-1.3,6.9c-0.3,1-0.6,1.9-0.9,2.9c-0.1,0.3-0.3,0.7-0.4,1
	c-0.6,1.7-1.2,3.4-1.8,5.1c-0.3,0.7-0.3,1.4-0.3,2.1c-0.1-0.3-0.2-0.5-0.3-0.7c-0.1,0.6-0.3,1.3-0.5,1.9c-0.1,0.3-0.3,0.7-0.4,1.1
	c-1.3,3.7-2.5,7.5-3.8,11.2c-0.7,1.7-1,3.6-2,5.2c-1.8,3-3.5,6.1-5.3,9.1c-1.9,3.1-3.2,6.7-6.3,8.9c-2.4,2.2-5.5,3.8-7.2,6.7
	c-1.8,3.2-4.5,5.8-6.8,8.6c-0.6,0.8-1.5,1.4-2.3,2.1c-3.3,2.8-6.6,5.6-10,8.3c-2.5,2.1-4.9,4.4-7.7,6c-3.7,2.4-7.5,4.7-11.2,7.1
	c-2.5,1.6-5,3.3-7.7,4.6c-7.3,3.7-14.5,7.6-21.8,11.3c-1.4,0.8-3,1-4.5,1.5c-3.3,1.2-6.7,2.1-9.9,3.4c-1.6,0.4-3.1,0.9-4.6,1.5
	c-0.2,0-0.6,0.1-0.8,0.1c-0.9,0.3-1.9,0.5-2.8,0.9c-1.3,0.5-2.8,0.6-3.6,1.9c-0.9,0-2.3-0.4-2.7,0.8c-1.6,4.3-2.8,8.7-4.8,12.9
	c-1.4,3.1-3.6,5.7-5.5,8.4c-1.6,2.3-3.4,4.5-5.2,6.7c-1.5,1.7-3.5,2.7-5.1,4.2c-1.9,1.4-4.1,2.3-6.1,3.5c-3.7,2-7.3,4.1-11,6
	c-0.7,0.3-1,1-1.2,1.7c-2.4,0.7-4.9,1.2-7.3,1.7c-4.6,0.2-9.1,1.2-13.7,0.7c-4.5-0.5-9-0.4-13.5-1.3c-4.3-1.2-8.8-1.9-12.9-3.7
	c-3.3-1.5-6.8-2.8-10.2-4.1c-2.7-0.9-5.1-2.5-7.6-3.9c-2.7-1.7-5.7-3-8-5.3c-2-1.8-4.1-3.6-6.1-5.4c-2.3-2.5-4.2-5.4-6.4-8
	c-1.7-2.3-3.7-4.4-4.8-7.1c-1.8-3.8-3.5-7.6-5.3-11.3c-1.8-4-2.2-8.5-3.8-12.5c0.1-1.2,0.6-2.3,0.4-3.5c0.1-1.7-1.1-3.1-1.3-4.8
	c-0.5-1.5,0-3.1-0.8-4.5c-0.3-0.7-0.8-1.4-0.9-2.2c0.1-1,0.6-2.1,0.3-3.1c-0.3-1.3-1-2.7-0.4-4c0.5-1.4,0.8-3,0.5-4.5
	c-1.5-1.6-3.3-2.9-5-4.3c-3.8-3-7.4-6.2-11.1-9.3c-1.6-1.4-2.8-3.2-4.1-4.9c-2.5-3.4-5-6.7-7.6-10.1c-0.8-1.1-1.7-2.1-2.2-3.3
	c-0.9-0.2-2-0.2-2.5,0.7c-2.7-1.1-3.3-4.3-3.8-6.8c-1.1-1.3-0.9-3.2-1.8-4.6c-1.2-0.7-2.7-0.5-3.9,0.1c-1,0.6-2.1,0.9-2.8,1.9
	c-1.2,1.5-3.2,1.5-4.8,2.3c-3.2,1.5-6.7,2.2-10,3.3c-3.8,1.1-7.7,2.2-11.5,3.2c-3,0.6-5.9,2-9,1.9c-2.7,0-5.8,0.3-8.1-1.4
	c-1.1-0.9-2.3-1.5-3.2-2.5c-2.2-3.8-3.4-8.1-4.2-12.4c-0.2-2.6-0.5-5.1-0.6-7.6c-0.1,0.7-0.1,1.5-0.2,2.2c0-2.5,0.1-5-0.2-7.5
	c-0.3-2.1-0.1-4.3-0.3-6.4c-0.3-2.3-0.2-4.6-0.3-6.8c0.1-2.1-0.3-4.1-0.3-6.1c-0.1-2.8,0-5.5-0.3-8.3c0-1.8-1.5-3-2-4.7
	c-0.7-2-1.4-4-1.9-6.1c-0.8-4.4-1.6-8.8-2.2-13.3c-0.4-4.1-0.7-8.2-0.8-12.2c-0.2-1.1-1-2-1.5-3c-1.3-3-3.3-5.6-4.2-8.7
	c-1.4-4.5-3.2-8.8-4-13.5c-0.3-1.9-1-3.8-0.9-5.7c0.1-1.8-0.2-3.7,0.6-5.3c0.6-1.5,1.2-3,2.2-4.3c0.6-0.6,1.4-1.1,2.1-1.8
	c2.9-0.1,5.8,0,8.7,0.1c1.4,0,3,0.3,4.2-0.8c0-0.6,0-1.1,0-1.7c-0.7-0.6-1.6-0.8-2.4-0.8c1.3-1.7,3.6-2.1,5.5-2.9
	c0.9,1.1,2.3,1,3.5,1.4c1.5,0.8,3.3,0.4,4.9,0.5c0.1,1.3-0.3,3.2,1.1,3.9c1.2,0.3,2.5,0.1,3.7,0.1c1.6-0.1,3.3,0.3,4.7-0.5
	c0.6-1,0.4-2.2,0.1-3.3c0.5-1.7,0.6-3.4,0.3-5.1c0.7-0.3,1.3-0.7,2-0.8c0.6,0.1,1.2,0.4,1.8,0.7c0.9-0.2,1.6-0.7,1.9-1.5
	c-0.7-1.9-0.3-3.9-0.3-5.8c0.4-2.7,0.1-5.5,0.4-8.2c0.3-2.4,0.1-4.8,0.3-7.2c-0.1-1.7,0.3-3.4,0.3-5c0-3.5,0.1-7,0.7-10.4
	c0.3-1.7-0.4-3.4-1.4-4.8c-0.9-1.1-1.1-2.5-1.5-3.9c-0.3-1.7,1.4-2.6,2-4c0.8-1.1,0.4-2.5,0.1-3.7c1-0.9,2.3-1,3.6-0.9
	c1.2,0.1,1.9-1.1,2.7-1.7c0.8,0.3,1.6,0.2,2.3-0.1c0.9-1.6,0.3-3.5-0.4-5c-3.5-4-3-10.2,0-14.3c1-2,3.4-2.5,4.5-4.3
	c2,0.6,4.1,0.2,6.2,0.4c2,0.2,2.9-1.9,3.9-3.2c0.4-1.8,0-3.7,0.3-5.5c0.3-2.2,0.1-4.5,0.4-6.7c0.3-2.1,0.1-4.2,0.3-6.3
	c0.4-2.4,0.1-4.9,0.5-7.3c0.2-2.4,0.1-4.8,0.4-7.2c-0.1-2.3,0.6-4.7-0.5-6.8c-0.4-0.8-0.5-1.8-0.8-2.6c-0.6-1.2-2.2-1.3-3.4-1.1
	c-1.4,0.3-2.9-0.2-4.3,0c-2.3,0.1-4.6-0.2-6.8,0.2c-1.4,0.1-1.7,1.7-2.9,2c-1.1,1.5-3,2.1-4.2,3.5c-1.1,0.1-2.4,0.2-3.4-0.3
	c-1.2-1.5-2.5-2.9-3.9-4.2c-0.5-0.5-0.5-1.2-0.7-1.8c-0.2-1.1-1.1-2.1-0.9-3.3c0.1-1.5-0.3-3.2,0.5-4.6c0.5-0.9,0.6-2,1.5-2.6
	c0.8-0.6,1.7-1.5,1.5-2.6c-0.4-1.3-1.8-1.8-3-2.1c-0.3-0.5-0.6-1-0.9-1.5c0.5-0.9,1-1.8,1.7-2.5c1.6-0.3,3-1.6,3.3-3.2
	c0.2-2.5,0-5,0.3-7.5c0-3.7,0.1-7.4,0.1-11.1c0.5-5.3,0-10.6,0.6-15.8c0.1-3.9,0.1-7.9,0.4-11.8c0.1-2.2,0-4.4,0.3-6.5
	c0.1-3.5,0-7,0.4-10.5c-0.1-5.5,0.6-11,0.4-16.6c-0.8-1.2-2.5-1.3-3.6-2.1c-2-1.5-4.6-2-7-2.5c-2.6-0.2-5.3-0.2-7.8,0.8
	c-1.4,0.4-3.1,0-4.1,1.2c-1.3,1.5-3.3,1.5-5.1,1.5c-0.2-1.6,0.5-3.3,1.8-4.3c0.6-0.4,1.3-0.9,1.8-1.4c2-0.4,3.9-1.4,6-1.8
	c2.3-0.2,4.6-0.2,6.8,0.3c1.6,0.3,3.3,0.2,4.8,1c1.3,0.6,2.7,0.8,3.9,1.6c0.7,0.6,1.7,0.3,2.5,0.2c0.4-3,0.5-6.1,0.5-9.1
	c0.1,0.2,0.2,0.4,0.2,0.7c-0.2-4.9,0.4-9.8,0.4-14.7c0-1.2,0-2.4,0.2-3.6c0.3-2.7,0-5.5,0.4-8.2c0.3-1.9-0.2-3.8,0.5-5.6
	c0.2-0.7,0.3-1.6-0.4-2.1c-1.4-1.1-3-2.3-3.3-4.2c1.9-1,2.7-3,3.7-4.7c0.5-2.9,0.3-5.8,0.4-8.7c-0.1-2.1,0.4-4.1,0.3-6.1
	c-0.1-4.7,0.5-9.3,0.4-14c-0.1-2.5,0.4-5,0.3-7.6c0-4.1,0.4-8.1,0.4-12.2c0.2-1.5-2-2-1.8-3.6c-0.3-1.9-0.4-3.9-0.7-5.8
	c1-1.6,1.9-3.2,3.2-4.6c1.6-1,3.5-1.6,5.3-1.4c2,0.1,3.8,1.3,5.7,1.8c1.1,0,1.9-0.9,2.5-1.6c0.6-0.8,0.2-1.8,0-2.6
	c0.4-1.7,0.9-3.4,2.1-4.7c1.5-1,3.4-1.3,5-2.2c0.7-0.5,0.9-1.5,0.9-2.3c-0.1-3.5,0-6.9,0-10.4c-0.1-1.6,0.5-3,0.7-4.5
	c0.5-1.8,1.3-3.5,2.8-4.7c0.9-1,0.1-2.1-0.5-3c0.2-4.3,0.2-8.7,0.3-13c1.5,0.3,3,0,4.4-0.2c1.3-0.5,0.9-2.1,0.6-3.2
	c0.3-0.8,0.4-1.7-0.3-2.3c-0.8-1-2.1-0.8-3.2-1.1c-0.5-0.7-0.8-1.6-1.7-1.8c0.8-1.9,0.7-3.9,1-5.8c0.1-1.6,0.4-3.2,0.5-4.9
	c0.1-1.2-1.1-2.3-2.3-2.1c-0.8,0.3-1.4,0.9-2.3,1c-2.9,0.5-5.6-0.8-8.1-2c-4.4-2.4-6-8.1-4.3-12.6c1.2-1.4,2.3-3.1,4-3.8
	c1.8-1,3.8-1.2,5.8-1.1c2.1,0.3,4.1,0.7,6.2,0.9c1.4,0.3,2.6-0.9,4-0.4c0.6-0.3,1.1-0.5,1.7-0.8c0.9,1.2,2.5,1,3.8,0.8
	c0.8-0.2,1.2-1.1,1.4-1.8c-0.2-8.4-0.5-16.8-0.9-25.2c-0.1-1.1,0.2-2.4-0.6-3.3c-0.7-0.8-1.8-0.8-2.8-0.8c0.2-2.8,0-5.6-0.1-8.5
	c-0.3-2.2,0.4-4.6-0.4-6.7c-0.3-1-1.5-1.7-2.5-1.3c-1.8,0.7-3.5,1.7-5.3,2.3c-1.8,0.2-3.6,0.1-5.4-0.3c-1.8-1-3.9-1.5-5.9-2.1
	c-1.9-1.2-3.7-2.8-5.2-4.5c-1-1.1-1.3-2.6-1.7-4c-1-3.2-0.5-6.7,0-9.9c0.8-2.1,1.9-4.1,2.7-6.2c0.8-1.1,1.9-2.1,3.3-2.3
	c1.7-0.3,3-1.5,4.7-1.9c1.1-0.3,2.4-0.4,3.1-1.4c0.7-1.1,0-2.8-1.3-3c-1.5-0.2-3-0.8-4.4-1.4c-0.1-1.5-1.2-2.8-0.8-4.3
	c1.1-1.1,2.7-2,4.4-2c2,0,3.9-1.6,4.5-3.5c0.3-0.9,0.7-1.8,0.7-2.8c0-0.9-0.4-1.8-0.8-2.7c-1.4-0.1-2.9,0.2-4.3,0.2
	c1.1-3.2,0.6-6.7,1-10.1c0.3-2.7,0.1-5.4,0.5-8.1c0.1-1.1,0.3-2.4-0.7-3.1c-1.1-0.7-2.5-0.4-3.7-0.2c-1.4,0.3-1.7,1.8-2.7,2.6
	c-0.8,0.5-1.7-0.1-2.5-0.5c-1.1-0.6-2.5-0.9-3.2-2.1c-1.5-2.1-1.7-4.9-0.9-7.2c0.8-1.4,1.8-2.8,3.5-3.2c2.4-0.8,5-0.6,7.3-1.5
	c0.8-1.7,0.7-3.6,0.8-5.4c0.6-8,1.1-16.1,1.8-24.1c0.2-2.8-1.2-5.5-1.4-8.3c-0.1-2.4-0.1-4.8-0.1-7.2c-0.3-2.4-0.2-4.8-0.3-7.2
	c0-1.2,0.5-2.2,0.6-3.4c0.3-3.1,0.5-6.4,2.1-9.2c0.3-0.7,0.4-1.5,0.7-2.3c0.4-0.8,1.1-1.5,1.2-2.4c0.2-1.6,1.2-3,2-4.4
	c0.9-1.5,1.6-3,3-4.1c0.8-0.9,1.8-1.6,2.6-2.5c1-1.9,3.2-2.8,5.1-3.5c1.8-1.4,4.1-1.6,6.1-2.6c0.7-0.4,0.5-1.3,0.4-2
	c-1.2-1.3-3.1-1.5-4.8-1.6c-1-0.1-2.2-0.7-2.9,0.2c-0.9,1-1.7,2.2-3.1,2.3c-1.8,0.5-3.4-0.7-5.1-0.8c-0.5-1.6-2-2.5-3.5-2.6
	c-1.7-0.1-3.8-1.3-3.7-3.2c0.8-1.2,2-2.1,2.8-3.4c0.7-1.2,2-2.1,2.4-3.4c0.3-0.8-0.1-1.5-0.3-2.2c-0.8-0.4-1.7-0.4-2.4-0.8
	c-0.6-1.5-0.1-3.1,0.1-4.5c0-2.5,0-4.9,0.2-7.4c-0.1-0.1-0.3-0.3-0.5-0.5c0.7-0.9,0.9-2,0.3-3c-1.2-0.8-2.5-0.3-3.3,0.7
	c-1.4,0.1-2.9,0.1-4-0.9c-1.1-1.1-2.8-2.2-2.5-4c0.3-1.6-0.1-3.7,1.3-4.8c2.8-1.9,6.4-2.4,9.6-1.4c0.6-0.5,1.2-1.1,1.1-2
	c0-2.5,0.4-5.1,0.4-7.6c0.6-4,0.1-8.2,0.6-12.2c0.1-5,0.1-10.1,0.2-15.1c0.4-2.5,0.1-5.1,0.3-7.7c0.6-4.5,0.8-9.1,2-13.5
	c1-5.1,2.6-10,4.2-14.8c0.6-1.7,1.7-3.1,2.4-4.7c0.7-1.5,2.1-2.6,2.6-4.2c0.5-1.1,0.2-2.3-0.2-3.3c-0.6,0-1.1-0.1-1.6-0.1
	c-0.7,1.2-2,0.5-2.9-0.1c-1.2-0.8-1.8-2.3-2.4-3.6c-1.6-3.5-2.7-7.4-2.8-11.3c-0.6-3.4,0.4-6.8,0-10.2c-0.4-1.4-2.2-1.3-3.3-1.4
	c-1.5,0.1-2.7-1-3.7-1.9c-0.6-0.6-1.6-0.8-2-1.6c-0.9-2.4-1.6-4.9-1.4-7.5c0-1.9-0.1-3.8,0.3-5.7c0.8-4.5,1.4-9,3-13.3
	c0.7-1.4,1.3-2.9,1.7-4.4c0.2-0.8,1.1-1.3,1.3-2.1c0.5-1.3,0.7-2.8,1.6-3.9c0.9-1,1.1-2.4,2.3-3.1c1.3-0.8,1.6-2.4,2.8-3.2
	c1.5-1,2.5-2.6,3.8-3.8c1.2-1.9,3.3-3.1,4.3-5.1c0.4-1,0.5-2,1-2.9c0.6-1,0.6-2.2,1.1-3.3c0.7-2.9,1.2-5.9,2.3-8.8
	c0.5-1.3,0.3-2.7,1.2-3.8c0.6-0.8,0.5-1.7,0-2.5c-0.6,0-1.1,0-1.7,0c-0.5,0.5-1,0.9-1.5,1.2c-2.9-0.1-6.1,0.3-8.4-1.7
	c-1.2-1.3-2.4-2.7-2.9-4.4c-0.5-3.4,0.3-7.1,2.5-9.9c0.8-0.8,0.9-2,0.5-3.1c-0.5-1,0.8-2.2-0.2-3.1c-1.6-0.8-3.9-0.8-4.7-2.7
	c-0.4-1.6,0-3.2,0.3-4.8c1.4-1.2,3.2-1.6,4.8-2.5c0-1.6,0-3.2,0-4.7c-0.4-0.5-0.8-1-1.1-1.6c-0.6-0.6-1.4-0.9-2-1.6
	c-0.7-0.9-1.3-1.9-1.9-3c0-0.4-0.1-0.7-0.1-1c-0.2-0.3-0.3-0.7-0.4-1.1c1.5-2.2,3.6-3.8,5.4-5.7c0-2.5-0.1-5,0-7.5
	c0.4-0.5,0.3-1.1,0.3-1.7c0-2.3-0.1-4.6,0-7c0.4-0.5,0.3-1.1,0.3-1.6c0-1.9,0-3.8,0-5.7c0-0.6-0.1-1.2,0.3-1.6
	c0.1-2.7,0-5.5,0.1-8.2c0.5-0.7,0.3-1.6,0.3-2.3c0-0.7,0.1-1.4-0.3-2c0-0.2-0.1-0.5-0.1-0.7c-0.5-0.8-0.9-1.6-1.1-2.5
	c-0.3-0.5-0.6-1-1-1.4c0-0.2-0.1-0.5-0.1-0.7c-0.6-0.9-0.2-1.9-0.3-2.9c0.4-0.4,0.7-0.9,1.1-1.4c0.3-2.2-1.1-4.5,0-6.5
	c0-0.5,0-0.9,0-1.4c-0.4-0.4-0.4-1-0.1-1.5c0.1-1.5,2-1.5,2.6-2.7c0.2-0.4,0.4-0.9,0.7-1.3c0-0.4,0.1-0.7,0.1-1
	c0.5-0.7,0.3-1.5,0.3-2.2c-1-0.3-1.5-1.2-2.3-1.8c-0.7-0.6-1.3-1.3-1.7-2.1c0-0.2-0.1-0.5-0.1-0.7c-0.7-0.9,0.1-2,0.4-2.9
	c0-0.2,0.1-0.5,0.1-0.7c1.5-1.4,2.8-2.9,3.9-4.6c0-1.5-0.2-3,0.3-4.5c0.3-3.3-0.3-6.8,0.4-10.1c0-2.1,0-4.2,0-6.3
	c-0.4-0.8-1.1-1.4-1.7-2.1c-0.4-0.7-0.7-1.5-1.1-2.2c-0.3-0.8-0.8-1.5-1.3-2.2c-0.5-0.8-0.6-1.6-0.7-2.5c-0.5-0.8-0.3-1.7-0.3-2.5
	c1-1.4,1.4-3.5,3-4.4c0.9-0.4,1.5-1.2,1.9-2.1c0.9-2.8,0.1-5.9,0.5-8.8c0.4-1.5,0.4-3.2,0-4.7c-0.3-1,0.2-2.2-0.4-3.1
	c-0.1-0.6,0-1.3-0.4-1.8c0-0.2-0.1-0.5-0.1-0.7c-0.4-0.4-0.7-0.9-0.9-1.4c-0.6-1-1.3-2-1.9-2.9c0.2-1.7,1.4-3.2,3.1-3.6
	c0.6-0.3,0.9-0.8,1.3-1.4c-0.7-0.6-1-1.4-1.3-2.1c-0.1-0.2-0.3-0.5-0.4-0.7c-0.2-0.5-0.5-1-0.8-1.5c0-0.2-0.1-0.5-0.1-0.7
	c-0.5-1.1-0.5-2.5,0-3.6c0-0.2,0.1-0.5,0.1-0.7c0.3-0.6,0.5-1.2,0.7-1.8c1-1.7,2.2-3.5,4-4.4c0.5,0,1,0,1.5-0.3
	c0.2,0,0.5-0.1,0.7-0.1c0.5-0.4,1.3-0.4,1.8,0c1,0.1,2-0.2,2.9,0.3c0.2,0,0.5,0.1,0.7,0.1c0.5,0.3,1,0.6,1.6,0.8
	c0-2.9,0.1-5.7,0-8.6c-2.2-1.7-4.5-3.2-6.4-5.3c-1.5-1.2-2.4-3.1-3.2-4.8c-0.1-0.5-0.1-1-0.3-1.5c0-0.2-0.1-0.5-0.2-0.7
	c-1-2.6-0.6-5.4-0.6-8.1c0.1-0.1,0.2-0.4,0.3-0.6c0.1-0.7-0.1-1.5,0.4-2.2c0-0.5,0-0.9,0.1-1.4c0.3-0.5,0.5-1,0.8-1.5
	c0.1-0.2,0.3-0.5,0.4-0.7c0.5-1.4,1.7-2.5,2.4-3.8c1-1.3,1.8-2.7,2.9-3.9c0.9-1,2.2-1.6,3.3-2.5c4.6-3.3,9.2-6.6,13.8-9.9
	c0.5-0.3,0.5-0.8,0.1-1.2c0-0.2-0.1-0.5-0.1-0.7c-0.2-0.5-0.4-1-0.6-1.5c0-0.2-0.1-0.5-0.1-0.7c-0.5-0.9-1-1.7-1.5-2.5
	c-0.2-0.6-0.5-1.2-0.8-1.8c-0.5-0.7-1-1.4-1.3-2.2c-0.4-0.7-0.9-1.4-1.3-2.1c-0.3-0.6-0.7-1.2-1.1-1.8c-0.3-0.5-0.6-1-0.9-1.5
	c-1.5-2.6-3.4-5-4.5-7.8c-2.5-6.2-6.7-11.6-11-16.6c-2-1.9-3.6-4.3-5.8-6c-4.7-3.5-9.4-7-14.4-10c-1.9-1.3-3.9-2.5-6.2-3.2
	c-12-4.2-23.9-8.5-35.9-12.6c-0.8-0.3-1.6-0.6-2.5-0.9c-0.4-0.1-0.7-0.2-1.1-0.4c-5.1-1.6-10.1-3.5-15.2-5c-2-0.6-4-1.1-6.1-1.7
	c-9.7-2.8-19.4-5.5-29.2-8.2c-0.4-0.1-0.8-0.3-1.3-0.4c-1.8-0.5-3.7-1.1-5.5-1.6c-3.3-0.8-6.5-1.9-9.8-2.7c-0.6-0.2-1.2-0.3-1.8-0.5
	c-5.9-1.7-11.8-3.3-17.7-5.1c-0.7,0-1.4,0-2.1,0c-0.9,0.4-1.9,0.8-2.5,1.6c-1.3,1.6-2.5,3.3-4.3,4.4c-1.6,0.6-3,1.8-4.7,1.5
	c-1.5-0.5-3.1-0.8-4.7-1.1c-2.6-0.6-5.2-1.3-7.9-1.8c-4.3-1.2-8.7-1.9-13-3.2c-2.6-1.2-5.4-1.8-8.2-2.4c-0.3,0-0.8,0-1.1,0l0-0.1
	c-1.5,0.1-3,0.6-4.3,1.5c-0.9,0.6-1.7,1.5-2.9,1.5c-2.4,0.1-4.9,0.1-7.3-0.1c-4.7-1-9.4-2.3-14.1-3.3c-1.6-0.3-3.2-1.1-4.9-0.9
	c-1.1,0-1.9,0.9-2.8,1.4c-1.6,0.1-3.2-0.5-4.8-0.3c-0.7,0.6-1.5,1.1-1.9,1.9c-0.3,1.6,0.6,3.1,1,4.6c0.9,1.7,2.4,3.1,3.6,4.7
	c0.1,1.4,0.1,2.8,0,4.2c-1.1,1.2-2.9,1.9-4.5,1.4c-1-0.5-2-1-2.5-2c-0.5-1.1-1-2.2-1.8-3.1c-1.9-2.1-3.6-4.6-6.2-5.9
	c-1.3-0.6-1.7-2.1-2.3-3.2c-1.9-3.2-1.7-7.4-4.5-10.1c-1.7-1.7-4.4-0.9-6.3-2.3c-1.2-0.9-2.6-1.3-4-1.7c-1.6,0.4-2.9,1.9-2.6,3.5
	c1,1.8,1.9,3.7,2.3,5.8c0.2,0.7,0.4,1.4,0.7,2.1c0.4,1.1,1.4,2,1.2,3.3c0,0.9-0.4,1.9-1.2,2.3c-1.6,0.1-3.2,0.1-4.8,0
	c-0.5-1.3-1.6-2.1-2.3-3.2c-0.6-0.9-1.4-1.6-2.4-2c-0.4-0.1-0.8-0.1-1.1-0.2c-0.6-0.2-1.3-0.2-1.9-0.2c-0.3-0.8-0.3-1.6-0.5-2.4
	c-1.3-1.9-2-4-2.8-6.2c-0.4-1-0.8-2-1.5-2.8c-0.8-0.5-1.8-0.8-2.3-1.7c-0.1-0.9-0.2-1.7-0.3-2.6c-0.1-1.2-0.8-2.1-1.8-2.7
	c-1.1,0-1.9-0.9-2.9-1.3c-1.1-0.3-2-0.9-3-1.4c-1.9-0.8-3.9-1.6-5.8-2.3c-1.8-0.7-3.6-1.4-5.4-2.2c-0.6-0.2-1.2-0.5-1.9-0.7
	c-0.7-0.3-1.5-0.6-2.2-0.9c-1-0.4-2.1-0.8-3.1-1.2c-2.4-0.9-4.8-1.9-7.2-2.9c-2.4-0.9-4.8-1.9-7.2-2.9c-2.6-1-5.1-2-7.6-3.1
	c-2.4-0.9-4.8-1.9-7.2-2.9c-1.6-0.7-3.3-1.3-4.9-2c-1.1-0.3-2.2-0.9-2.8-1.9c-4.6-6.1-9.1-12.3-13.8-18.4c-1.5-2.1-3.3-4.1-4-6.6
	c-0.1-0.4-0.3-0.7-0.4-1.1c0-0.3-0.1-0.9-0.2-1.2c1-0.3,2.1-0.4,3.1-0.5c3.1-0.7,6.2-0.9,9.3-1.6c0.6-0.1,1.2-0.1,1.9-0.2
	c4.4-0.9,8.8-1.4,13.2-2.2c6-0.9,12-2,18-2.8c0.6-0.2,1.2-0.2,1.8-0.3c3.2-0.8,6.4-0.7,9.6-1.3c2.9-0.2,5.8-0.7,8.7-0.9
	c1.5-0.4,3.1-0.1,4.6-0.6c2.5-0.1,5-0.7,7.5-1c2.7-0.3,5.4-0.8,8-1.6C875.2,1431.9,875.8,1431.7,876.4,1431.6 M1091.6,1493
	c-0.2,0.6-0.4,1.3-0.8,1.8c0.3,0.8,0.6,1.6,1.2,2.2c0.8,0.7,1.9,0.8,2.8,1.2c2.5,0.6,5,1.3,7.6,2c1.8,0.6,3.6,0.9,5.4,1.5
	c0.9,0.3,1.9,0.2,2.9,0.2c0.4-0.7,1-1.1,1.6-1.6c0.1-0.8,0.2-1.6-0.4-2.2c-1.2-1.5-2.7-3.1-4.8-3.2c-1.7-0.1-3.4-0.1-5,0
	c0.4-0.1,0.8-0.2,1.2-0.3c-3.5-0.4-6.7-2.2-10.2-2.2C1092.6,1492.6,1092.1,1492.8,1091.6,1493 M1132.7,1501.2
	c-0.3,0.3-0.7,0.6-1,0.9c-0.1,1-0.1,2,0,3c1.2,1.1,2.8,1.6,4.1,2.5c1.8,0.6,3.6,1.4,5.4,2.2c0.4,0.1,0.7,0.3,1.1,0.4
	c0.2,0,0.6,0.1,0.8,0.1c1.7,0.7,3.6,1,5.3,1.6c3.9,1.3,7.9,2.1,11.8,3.3c4,1.7,7.9,3.5,11.9,5.4c1.1,0.4,2.1,1,3.2,1.4
	c1.4,0.7,3.3,1.4,4.9,0.5c1.7-1,1.2-3.2,1.2-4.9c0.1-1.8-1.4-3.2-2.9-3.9c-1.8-0.8-3.5-1.9-5.3-2.5c-0.5-0.2-0.9-0.3-1.3-0.5
	c-0.5-0.2-1-0.4-1.5-0.6c-2.5-0.9-5-1.9-7.5-2.7c-0.4-0.1-0.7-0.2-1.1-0.3c-0.4-0.1-0.7-0.2-1.1-0.4c-0.4-0.1-0.7-0.2-1.1-0.4
	c-1.1-0.4-2.2-0.7-3.2-1.1c-0.4-0.1-0.7-0.2-1.1-0.4c-2.4-0.5-4.8-1-7.1-1.4c-0.6-0.1-1.2-0.2-1.8-0.4c-1.2-0.2-2.4-0.4-3.5-0.6
	c-1.4-0.4-2.8-0.5-4.1-0.8C1136.7,1501.1,1134.7,1500.9,1132.7,1501.2 M1181.7,1629c-1.8,1.2-2.1,3.4-2.7,5.3
	c-0.5,1.7,0.1,3.5-0.7,5.1c-0.9,1.6-1,3.6-0.3,5.3c0.1,1.2-0.2,2.4-0.6,3.6c-0.2,1.7-0.1,3.4,0,5.1c0.3,0.6,0.7,1.3,1.3,1.8
	c0.8,0.3,1.7,0.2,2.6,0.2c0.4-0.4,0.7-0.7,1.1-1.1c0.6-1.1,1-2.3,1.4-3.5c0-1.8,0.3-3.6,0.5-5.4c0.5-1.5-0.2-3.3,0.6-4.7
	c0.9-1.7,1.7-3.6,1.5-5.6c0.1-1.8-0.7-3.4-1.3-5c-0.4-0.3-0.7-0.6-1-0.9C1183.3,1629,1182.5,1629,1181.7,1629 M1181.3,1708.7
	c-0.4,0.2-0.7,0.4-1.1,0.7c-0.2,0-0.5,0.1-0.7,0.1c-0.7,0.5-1.6,0.1-2.2,0.6c-0.7,0-1.4,0-2.1,0.1c-0.1,0.1-0.4,0.2-0.6,0.3
	c-1.5,0-2.9-0.1-4.3,0.5c0,1.5,0,3,0,4.5c0.2,0.2,0.5,0.5,0.7,0.6c0.1,2.2-0.3,4.5,0.4,6.6c0.1,0.5-0.6,0.7-1,0.9
	c-0.1,0.2-0.3,0.6-0.4,0.8c-0.1,2.2,0.1,4.5-0.1,6.7c-0.5,1.5-0.3,3.1-0.3,4.6c0,5.4,0,10.8,0,16.3c0.5,0,0.9-0.2,1.3-0.4
	c1.5,0.1,2.8-0.5,4.3-0.5c0.7-0.5,1.7-0.2,2.5-0.3c0.9-0.6,2.2-0.2,3.2-0.4c1-0.7,2.3-0.2,3.4-0.3c0.1-3-0.3-6,0.3-9
	c0.1-3.4,0-6.9,0-10.3c-0.8-0.7-1.8-1.1-2.2-2.1c0-0.2,0-0.6,0-0.8c-0.4-0.3-0.7-0.7-1.1-1c0-0.2,0-0.6,0-0.8
	c-0.2-0.4-0.5-0.7-0.8-1.1c0.1-0.2,0.2-0.5,0.3-0.7c0.1-0.4,0.2-0.7,0.4-1.1c0-0.2,0.1-0.5,0.1-0.7c0.5-0.8,0-1.8,0.6-2.6
	c0-0.2,0.1-0.5,0.2-0.7c0.3-0.6,0.3-1.3,0.6-1.8c0-0.2,0.1-0.5,0.1-0.7c0.2-0.4,0.4-0.7,0.7-1.1c0-0.7,0.2-1.5-0.3-2.2
	c0-0.2-0.1-0.5-0.1-0.7c-0.2-0.5-0.4-1-0.6-1.5c0-0.2-0.1-0.5-0.1-0.7c-0.4-0.6-0.3-1.3-0.3-2
	C1181.9,1708.6,1181.5,1708.7,1181.3,1708.7 M1179.9,1761.5c-0.5,0.4-1.2,0.3-1.8,0.4c-0.6,0.4-1.4,0.3-2.2,0.3
	c-0.5,0.4-1.2,0.3-1.8,0.4c-0.6,0.4-1.4,0.3-2.2,0.3c-0.5,0.4-1.2,0.3-1.8,0.3c-0.7,0.3-1.3,0.9-1.6,1.6c0,0.2-0.1,0.5-0.1,0.7
	c-0.1,0.1-0.2,0.4-0.3,0.6c-0.1,2,0,3.9,0,5.9c0.5,0.9,1,1.7,1.5,2.5c0.3,0.8,0.9,1.4,1.3,2.1c0,1.5,0,3,0,4.5
	c0,0.6,0.1,1.2-0.3,1.6c0,0.2-0.1,0.5-0.1,0.7c-0.4,0.5-0.3,1.2-0.3,1.8c-0.3,0.5-0.5,1-0.8,1.5c-0.6,1.2-1.2,2.4-2,3.6
	c0,0.5,0,0.9-0.1,1.4c-0.1,0.1-0.2,0.4-0.3,0.6c-0.1,2.8,0,5.6-0.1,8.4c-0.4,0.5-0.3,1.1-0.3,1.6c0,2.3,0,4.6,0,6.9
	c-0.7,2.9-0.2,6-0.4,9c-0.8,3,0,6.2-0.4,9.2c-0.4,1.1-0.3,2.3-0.2,3.5c0.8,1.2,1.8,2.3,2.5,3.6c-0.1,1.1,0.3,2.3-0.3,3.3
	c-0.1,0.9,0.2,2-0.4,2.9c-0.2,1.2,0.3,2.5-0.3,3.6c0,0.2-0.1,0.5-0.1,0.7c-0.2,0.2-0.5,0.5-0.7,0.6c-0.2,0.6-0.3,1.2-0.5,1.8
	c-0.2,0.4-0.3,0.9-0.3,1.4c-0.4,0.6-0.3,1.2-0.3,1.8c0.3,0.3,0.6,0.6,0.9,0.9c0.8,0,1.7,0,2.5,0c0.8,0.5,1.5,1,2.3,1.5
	c0-1.7-0.2-3.4,0.3-5.1c0.2-3.6-0.1-7.2,0.1-10.8c0.3-1,0.4-2,0.3-3c-0.2-0.4-0.5-0.7-0.7-1.1c0-0.4-0.1-0.7-0.1-1.1
	c-0.1-0.4-0.3-1.1-0.4-1.5c0.2,0.2,0.4,0.5,0.6,0.7c-0.3-0.9,0.5-1.7,0-2.6c0.2,0.2,0.7,0.5,0.9,0.6c0-0.2,0.1-0.6,0.2-0.9
	c-0.2,0-0.6,0-0.8,0c0-0.3-0.1-0.8-0.1-1c0.3,0,0.9,0,1.1,0c-0.5-0.1-1.1-0.2-1.6-0.3c-0.3,0.7-0.4,1.6,0.3,2.2
	c-0.3,0.4-0.6,0.8-0.9,1.2c0.3-1.1-0.5-2.3,0.2-3.3c0-0.2,0.1-0.5,0.1-0.7c0.2-0.4,0.3-0.7,0.4-1.1c0.6-1.6,2.2-2.5,3.7-3.1
	c0.9-0.3,1.9-1.5,2.7-0.6c0-0.6-0.1-1.3,0.1-1.9c0.6-1.9-0.1-3.9,0.5-5.8c0.4-1.7-0.4-3.6,0.4-5.2c0.1-1.7,0-3.3,0.1-5
	c0.8-1.6,0-3.5,0.4-5.2c0.6-1.9-0.1-3.9,0.5-5.8c0.4-1.7-0.4-3.6,0.4-5.2c0.3-1.8-0.4-3.7,0.4-5.4c0.1-1.6-0.1-3.2,0.2-4.8
	c0.5-1.6,0-3.4,0.3-5.1c0.6-1.8,0.1-3.7,0.3-5.6c0.4-0.5,0.3-1.1,0.3-1.6c0-1.3,0-2.7,0-4
	C1180.9,1761.4,1180.4,1761.5,1179.9,1761.5 M1253.7,1846.8c-1,1.1-1.2,2.7-1.9,4c-0.3,1.6-0.2,3.2-0.1,4.8c0.5,1.5,0.1,3.1,0.4,4.6
	c0.3,0.3,0.6,0.6,0.8,1c1,0.1,2,0.1,3,0c0.3-0.3,0.5-0.7,0.8-1c0-1.5,0.4-3.3-0.7-4.6c0-0.5,0-1,0.3-1.5c0-0.2,0.1-0.6,0.1-0.7
	c0.4-0.6,0.3-1.4,0.4-2.2c0.7-1.4,0.3-3,0.3-4.5C1255.9,1846.7,1254.8,1846.7,1253.7,1846.8 M1251.7,1879.3
	c-0.1,1.1,0.2,2.2-0.2,3.2c-0.1,0.2-0.4,0.6-0.5,0.7c0,0.5,0,1,0,1.5c0.5,0.6,1,1.3,1.6,1.8c2.1,0.8,4.6-0.8,4.8-3
	c0-0.3-0.1-0.7-0.1-1c-0.3-0.5-0.7-0.9-1-1.3c0-0.2,0-0.7,0-0.9l-0.3-0.1c-0.2-0.6-0.3-1.2-0.5-1.8c-0.2,0-0.7,0-1,0l0-0.4
	C1253.4,1877.8,1252.5,1878.5,1251.7,1879.3 M1267.1,1895.1c-0.2,1.8,1.3,3,1.5,4.7c0.2,1,0.3,2.1,0.4,3.2c0.3,1.7,1,3.2,1.9,4.7
	c1.3,2.3,1.1,5,1.7,7.5c0.3,1.3-0.2,2.5-0.6,3.7c-0.6,1.7-0.4,3.5-0.5,5.3c-0.2,0.7-0.3,1.4-0.5,2.1c-0.2,1.2,0.1,2.5-0.7,3.5
	c-1,1.2-1.6,2.6-2.3,3.9c-0.6,1.1-1.7,2-2.1,3.3c-0.2,1.2-0.2,2.4,0,3.6c0.6,1.3,2,1.7,3.1,2.3c1.2,0.7,2.9,0.7,4-0.1
	c1-0.8,2.3-0.8,3.5-1.3c0.4-0.4,0.7-0.8,1.1-1.2c0.3-0.8,0.5-1.6,0.7-2.5c1.6-7.8,3.1-15.7,4.7-23.5c0.5-3.2,1.7-6.4,1.6-9.6
	c-0.4-0.8-0.9-1.6-1.6-2.2c-1.5-1.2-3.1-2.4-4.1-4c-2-2.8-5.4-3.7-8-5.8c-0.7,0-1.3,0-2,0C1268,1893.4,1267.1,1894.1,1267.1,1895.1
	 M1263.1,2014.5c-1.3,0.4-1.9,1.7-3.1,2.3c-0.8,0.4-1.7,0.7-2.3,1.5c-0.7,1-1.2,2.2-2,3.2c0,0.7,0,1.4,0,2c0.5,0.4,0.9,0.9,1.4,1.3
	c0.8,0.3,1.7,0.3,2.5,0c1-0.4,1.5-1.4,2.7-1c0.7,0.7,1.7,0.7,2.5,1c0.8,0.3,1.6,0.6,2.5,0.7c1.3-0.2,2.6-1,3-2.3
	c0.4-2.1-0.3-4.3,0.4-6.4c-0.2-0.4-0.3-0.7-0.4-1c-0.7-0.9-1.7-1.7-2.9-1.7C1265.9,2014.2,1264.4,2014.1,1263.1,2014.5
	 M1251.8,2090.5c-1-0.3-2-0.2-3,0.2c0,1.3-0.1,2.6-0.4,3.8c-0.2,1.9-0.3,3.8-0.1,5.7c0.1,1.5-0.2,3.1,0.2,4.6
	c2.4-0.4,3.8-2.7,6.2-3.2c2.6-0.4,5.3-0.5,7.9-0.1c2.3-0.1,4.2,1,6.2,1.9c1.6,0.7,2.4,2.3,3.7,3.5c2,2,3.2,4.5,4.6,6.9
	c1.6,2.5,2.3,5.4,3.3,8.1c0.6,1.8,1.3,3.6,1.5,5.6c0.4,3.6,1,7.1,1.4,10.6c3.3,0.9,6.9,0.9,10.3,1.6c0.5,0.2,1.1-0.1,1.1-0.7
	c-0.2-2-0.1-4,0.7-5.8c0.4-1,0-2.2,0.8-3c1.5-1.3,2.7-3,4.7-3.7c0.3-2-0.8-3.9-1.5-5.7c-0.9-0.3-2.1-0.6-2.3-1.6
	c-0.8-3.2-1.4-6.4-1.4-9.7c-0.2-1.9-0.3-3.9,0.2-5.8c0.4-1.1,0.2-2.3-0.2-3.3c-1.9-1.6-4.4-2.2-6.7-2.9c-5.3-1.4-10.6-3.3-16-4.3
	c-3.5-0.3-7.1-0.5-10.5-1.3c-3.3-0.8-6.7-1.2-10-2C1252.3,2090.2,1251.9,2090.4,1251.8,2090.5 M1283,2147.5
	c-1.2,1.3-1.2,3.1-1.8,4.7c-0.9,2.9-1.3,6-2.9,8.6c-1,1.7-1.8,3.9-3.7,4.9c-1,0.4-1.2,1.7-2.3,2.1c-1,0.4-1.9,1-2.4,2
	c-3,0-6.1,0.1-9.1,0.1c-1.2,0-2.4,0.4-3.6,0.2c-0.9-0.2-1.7-0.5-2.5-0.7c-1-0.9-2.1-1.7-3.3-2.1c-0.2-0.3-0.4-0.7-0.6-1
	c-0.5,0-1-0.1-1.5-0.1c-1.2,1.3-0.7,3-0.5,4.6c0.1,0.6,0.2,1.4,0.9,1.6c3.5,0.2,7,0.9,10.5,0.6c2.9,0.1,5.7-0.3,8.6-0.3
	c1.2-0.1,2.4,0.1,3.6-0.3c2.1,0.6,4.6,0.8,6.5-0.7c2.4-0.3,4.9,0.2,7.3-0.3c1.5-0.3,3.3,0,4.4-1.4c0.1-2.3,0-4.6,0-6.9
	c-0.1-2,0.3-4.1,0.2-6.1c-0.1-1.6,0.3-3.2-0.4-4.6c-0.4-0.9-0.2-2-0.4-2.9c-0.4-1-1.4-1.9-2.5-1.9
	C1286,2147.5,1284.5,2147.4,1283,2147.5 M1305.4,2158.1c-1.3,1.7-0.9,4.1,0.4,5.7c0.8,0.7,1.9,0.6,2.9,0.6c0.9,1,2.1,1.6,3.4,1.6
	c0.6,1,1.9,1.6,2.2,2.8c0.3,0.9,1.1,1.6,1.8,2.3c-0.3,1.2-0.7,2.3-0.9,3.5c0,1.2,0.9,2.2,1.8,2.9c-0.2,0.9-1,1.6-1.4,2.4
	c-1.4,0.5-2.4,1.9-2.2,3.4c0.1,3.6-0.2,7.2,0,10.7c0.3,2,2.7,1.8,4.2,2c1.6-0.1,3.5,0.5,4.9-0.6c1.1-1.4,1.7-3.1,2.1-4.8
	c1.4-6.3,2.7-12.6,4.1-18.8c0.1-1.7-0.1-3.3-0.1-5c-0.4-1.4-1.6-2.5-2.6-3.5c-1.5-1.3-3.5-1.5-5.3-2.2c-4-1.3-8-2.5-12.1-3.7
	C1307.6,2157,1306.1,2157,1305.4,2158.1 M1248.1,2176.6c-0.7,1.1-0.4,2.5-0.4,3.8c0,0.9-0.1,1.8,0.1,2.8c0.5,0.6,1,1.2,1.1,2.1
	c0.5,0.2,1,0.4,1.6,0.5c0.6-1,1.5-1.8,2.3-2.6c1.1-1.1,2.7-1.5,4-2.4c2.8-0.9,5.7-1.9,8.8-1.7c2.3-0.2,4.4,0.7,6.5,1.5
	c1.4,0.7,2.5,2.2,4,2.8c5.1,0,10.3,0.7,15.4,0.4c0.8-0.4,0.5-1.6,0.1-2.1c-1.1-0.4-2.2-0.7-3.3-0.9c-3.3,0.1-6.6,0.5-9.9,0.2
	c-0.6-1.1-1.2-2.2-1.4-3.5c-0.1-0.6-0.9-0.4-1.3-0.4c-3.6,0.1-7.2-0.1-10.8-0.3c-3.2,0-6.4-0.1-9.7-0.1
	C1252.8,2176.4,1250.4,2176,1248.1,2176.6 M1283,2189.9c-0.6,3.3,1.6,6,2.7,8.8c0.5,1,0.3,2.1,0.4,3.2c0.4,0.4,1.3,0.5,1.7-0.1
	c0.7-1,0.2-2.4,0.5-3.5c0.2-1.1,0.6-2.3,0-3.3c-0.3-0.9-1.5-0.9-1.8-1.8c-0.5-0.9,0.1-2-0.4-2.8
	C1285.2,2189.8,1284,2189.7,1283,2189.9 M1289.8,2201.3c0.1,1.7,0.2,3.4,0.7,5c-1.1,1-0.9,3,0.6,3.3c1.7,0.5,2.9-1.7,1.9-3
	c0.3-0.5,0.8-1.1,0.7-1.7c-0.1-1.6,0.3-3.6-1.1-4.8C1291.6,2199.1,1289.8,2199.9,1289.8,2201.3 M1290.7,2212.1
	c-0.9,0.4-1.1,1.5-1.1,2.4c0,4.4,0,8.9,0,13.3c0.1,5.3-0.3,10.5-0.1,15.8c0.2,0.9,1,1.6,1.9,1.7c1.1,0,2-1,2-2
	c0.1-8,0-16.1,0.2-24.1c0-1.8,0.1-3.6,0-5.4C1293.5,2212.5,1292,2211.3,1290.7,2212.1 M1260.3,2222.1c-0.1,6.4-0.4,12.9-0.5,19.3
	c0,1.4-0.4,3.1,0.8,4.1c1,0.9,2.6,0.2,2.9-1c0.4-1.8,0.2-3.7,0.4-5.6c0-3.2,0.1-6.5,0.1-9.7c0.1-2.4,0.3-4.8,0.2-7.2
	c-0.1-1.1-1.1-1.6-2-2C1261.4,2220.5,1260.4,2221,1260.3,2222.1 M1271.5,2222.5c-0.8,6.9-1.5,13.9-2.2,20.8c-0.1,1.1-0.1,2.6,1,3.2
	c0.7,0.5,1.6,0,2.3-0.3c0.6,0.2,1.1,0.8,1.8,0.6c1.1-0.2,1.6-1.3,1.7-2.3c0.4-3,1.1-6,1.7-9c0.4-1.3-0.2-2.7,0.1-4
	c0.6-2.7-0.3-5.5,0.1-8.3c0.2-1-0.3-2.1-1.3-2.5c-0.7-0.4-1.5,0.1-2.2,0.4C1273.3,2220.3,1271.6,2221.1,1271.5,2222.5
	 M1285.8,2228.5c0,0.6-0.6,0.8-0.9,1.1c-0.3-0.7-0.2-1.5-0.2-2.2c-0.1-0.2-0.4-0.5-0.6-0.6c0.1-1.2,0.3-2.5-0.6-3.5
	c-0.2,0.1-0.5,0.4-0.7,0.5c0.5,2.1,0,4.3-0.4,6.4c-0.3,2.2-0.9,4.3-1,6.5c0.8,0.9-0.1,1.9-0.1,2.9c-0.3,1.4,1,2.4,1.5,3.7
	c-0.9,0.8-2,1.6-2.2,2.9c0.5,0.7,1,1.6,2,1.5c0.9-0.1,1.7-0.8,2.5-1.2c0.6,0.2,1.3,0.8,2,0.4c1-0.3,1.6-1.3,1.5-2.3
	c-0.1-2.2-0.3-4.4-0.4-6.5c0-1-0.6-1.8-0.6-2.8c-0.1-1.2,0-2.4,0.1-3.7c-0.8-2.7-0.5-5.5-0.1-8.2c0.2-0.8-0.6-1-1.2-1
	C1286,2224.5,1286,2226.5,1285.8,2228.5 M1259.2,2253.5c-1.1,0.2-2.1,1.5-1.4,2.6c0.4,0.9,1.5,1.2,2.4,1.3c2.1,0.1,4.3,0.2,6.5,0.2
	c5.3,0,10.5,0.4,15.8,0.4c1.6-0.1,3.4,0.5,4.7-0.6c1-1,0.4-2.8-0.9-3c-1.8-0.4-3.7-0.3-5.6-0.4
	C1273.5,2253.9,1266.3,2253.2,1259.2,2253.5 M1291.3,2254.5c-0.9,0.2-1.7,1.2-1.5,2.2c0.2,0.9,1.2,1.7,2.2,1.5
	c0.9-0.2,1.7-1.2,1.5-2.2C1293.2,2255.1,1292.2,2254.3,1291.3,2254.5 M1144.9,2257.4c-1.2,0.4-2.4,0.4-3.7,0.6
	c-1.1,0.5-1.9,1.5-2.9,2.2c-1.3,0.9-1.9,2.4-2.8,3.7c-1.2,1.6-0.9,3.7-1.1,5.6c-0.3,2.2,1.4,4,2.3,5.8c0.6,1.3,2,1.9,3.2,2.6
	c1.1,0.7,2.5,0.8,3.8,1.1c0.7,0.1,1.5,0.3,2.2-0.1c1.1-0.6,2.4-0.6,3.4-1.3c1.2-0.8,1.6-2.2,2.5-3.2c0.8-0.9,2-1.7,1.8-3
	c0.2-2.7-0.6-5.3-1.3-7.9c-0.9-1.7-2.4-3-3.3-4.7C1148,2257.7,1146.4,2256.7,1144.9,2257.4 M1263.7,2270.1c-1.8,0.1-3.7-0.3-5.3,0.5
	c-0.9,0.5-1.9,0.8-2.8,1.2c-0.8,0.7-0.4,2.1,0.4,2.6c-0.9,0.8-2,1.7-2.3,3c-0.7,2.5-2,5.2-0.9,7.7c0.9,1.7,1.4,3.6,1.4,5.5
	c0,5,0.8,9.9,1.2,14.9c0.1,1.1,1,2,2.2,1.8c1.5-0.2,3-0.6,4.6-0.2c2.3,0.2,4.6,1.3,6.9,0.7c1.7-0.4,3.4,0,5.1,0.6
	c1.4-0.7,3-0.8,4.5-0.9c4-1.2,8.3-0.3,12.3,0.4c2,0,3.8,0.8,5.8,0.8c1.4,0,2.6,1.2,4,1.1c0.6-0.3,1.2-0.8,1.1-1.6c0-2.2,0-4.5,0-6.7
	c-0.4-3.6-0.1-7.3-0.2-10.9c-0.1-5.9,0.1-11.8-0.1-17.6c-0.5-0.3-1-0.5-1.6-0.5c-1.7,0.1-3.4-0.2-5-0.5c-1.5-0.3-2.3-2.3-4-2.1
	C1281.9,2270.1,1272.8,2270.1,1263.7,2270.1 M1270.5,2317.9c-1.5,0.6-2.3,2-3.7,2.7c-1,0.6-2.1,1.8-1.5,3c0.8,1.3,2.7,0.9,3.9,0.7
	c1.8-0.9,3.3-2.7,5.4-2.9c2-0.1,4-0.3,6.1-0.1c1.8,0.3,3,1.7,4.7,2.4c0.2,1.4,0.9,2.7,1.6,3.9c-0.4,1.1-0.4,2.3-0.2,3.4
	c0.3,1.5-0.5,3-1.3,4.2c-0.8,1.3-2.7,1.7-3.2,3.3c-0.2,0.9-0.2,1.8-0.5,2.7c-0.3,1.1-0.4,2.8,0.8,3.3c1.4,0.5,3.1,0.3,4.5-0.3
	c1.2-0.3,2.5-0.3,3.7,0.1c1.7,1.1,2.2,3.3,3,5c0.8,1.6,0.3,3.4,0.3,5.1c0,1.8-2.4,2.5-2.4,4.3c0,4.1,0,8.2,0,12.2
	c0,1.3-0.2,2.8,0.5,4c0.5,0.1,1,0.1,1.5,0.2c0.8,1.5,1.9,3,2,4.8c-0.8,0.1-1.6,0.3-2.1,1c-0.8,0.8-0.6,2-0.4,3
	c0.4,1.3-0.2,2.7,0.3,4c1.3,0.8,2.9,0.5,4.4,0.4c2-0.6,4.3-2.1,4.2-4.5c-0.1-16-0.1-32.1-0.1-48.1c-0.5-4.8-0.1-9.6-0.3-14.4
	c0-0.6-0.4-1.1-0.9-1.4c-1.6-1-3.3-1.6-5.1-2.1c-1.1-0.3-2-1.3-3.2-1.3c-1.5-0.1-3-0.2-4.4-0.8c-1-0.5-2.1-0.2-3.1-0.2
	c-2.2,0.1-4.3-0.3-6.5-0.1C1275.7,2315.8,1273,2316.8,1270.5,2317.9 M1314.9,2336.6c0.1,2.8,0,5.5,0.3,8.3c0.2,2.4,0,4.8,0.3,7.3
	c0.3,2.7,0,5.4,0.4,8.1l-0.7,0.3c0.4,0.2,0.6,0,0.8-0.3c-0.3,1.5,0,2.9,0,4.4c0.1,1.6-0.1,3.3,0.5,4.8c0.4,0.9,1.4,0.5,2.2,0.5
	c0.4-0.9,0.2-2.1,1-2.8c0.7-0.6,0.5-1.6,0.6-2.4c-0.1-2,1.3-3.7,1-5.7c-0.2-1.8-0.4-3.6-0.3-5.4c-0.1-1.9,0.9-4-0.2-5.9
	c-0.8-1.3-0.4-2.9-0.8-4.3c-0.6-1.6-1.7-3-2.3-4.6c-0.1-1.1,0-2.3-0.9-3.1C1316.2,2335.7,1315.4,2335.8,1314.9,2336.6
	 M1260.5,2365.3c-2.1-0.5-4.5-0.7-6.3,0.7c0,0.8-0.3,1.8,0.7,2.2c1.3,0.6,2.8,0.1,4.2,0.2c0.9-0.2,1.1,1,1.9,1.2
	c1.6,0.4,3.4,0.7,4.8,1.6c1.2,0.7,2.2,1.7,3.6,2.1c1.1,0.4,2.3-0.7,2.1-1.8c0.4-3-2.1-6.3-5.3-5.9c-0.6-0.4-1-1.2-1.8-1.2
	C1263.1,2364.4,1261.5,2364.2,1260.5,2365.3 M1245.9,2367.8c0,0.6,0,1.2,0,1.8c1.4,0.1,3.2,0.2,4.3-0.9c0.3-0.7,0-1.4-0.4-2
	C1248.4,2366.4,1247.3,2367.6,1245.9,2367.8 M1326,2376.8c-1,0.9-1.9,2.1-1.7,3.5c-2.4,1.1-5,1.9-6.8,3.9c-0.6,1.1-0.4,2.4-0.4,3.6
	c-0.2,0.3-0.5,0.6-0.7,0.9c-0.6,1.5-0.3,3.2-0.4,4.8c0,16.6,0.1,33.3,0.1,49.9c0.4,2.3,0.2,4.6,0.3,6.8c0,17.7,0.1,35.5,0.1,53.2
	c0,1.4-0.2,2.8,0.2,4.2c0.2,1.4,1.1,2.6,2.4,3.3c2.1,1.4,4.8,1.3,7.2,1.3c1.4,0.1,2.6-0.6,4-0.4c1.1,0.9,2.2,1.7,3.6,2.1
	c1.2,0.2,1.2,1.7,2.1,2.4c0.9,1.2,2.3,1.6,3.7,1.6c0.1,0.2,0.3,0.6,0.4,0.9c0,0.2,0.1,0.6,0.1,0.8c0.9,0.2,1.4,1.2,2.4,1.3
	c0.1,0.1,0.3,0.4,0.4,0.6c0.4,0,0.8,0,1.3,0c0.9-0.6,1.9-1.2,2.2-2.4c0.4-2.5,0.8-5,0.9-7.5c0.4-2.1,0.6-4.3,0.7-6.5
	c0.4-2,0.6-4.1,0.7-6.1c0.3-0.9,0.3-1.9,0.4-2.9c0.4-1.3,0.1-2.6,0.5-3.9c0.1-0.9,0.1-1.7,0.2-2.5c0.3-1.1,0.3-2.2,0.4-3.2
	c0.7-3.3,0.6-6.7,1.3-10c0.2-3.1,0.7-6.2,1.1-9.3c1.3-6.9,2.7-13.8,3.9-20.8c0.4-1.3,0.5-2.7,0.8-4c0.9-4.9,1.9-9.8,2.8-14.7
	c0.5-2,0.8-4.1,1.2-6.1c0.2-1.1,0.4-2.2,0.6-3.3c0.4-1.4,0.5-2.9,0.8-4.3c0.3-2,0.9-4,1-6.1c0.6-2.6,1.4-5.3,0.7-8
	c-0.4-1.6,0.3-3.1,0.4-4.7c0.3-1.4,0.3-2.9,0-4.2c-0.2-1.2-1.3-2.1-2.4-2.3c0,0-0.1-0.1-0.2-0.1c-1.2,0.2-2.4,0.5-3.1,1.6
	c0.5-0.5,1.1-0.9,1.8-1c-0.8,0.4-1.5,0.9-1.9,1.6c-0.1,1-0.2,2-0.4,3c-1.7,7.5-3.7,14.8-5.5,22.3c-1.3,4.6-2.1,9.3-2.9,14
	c-0.8,3.9-1.4,7.9-2.3,11.8c-0.2,1.3-0.4,2.6-0.7,3.9c-0.5,2.9-1.1,5.8-1.6,8.7c-0.6,3.5-1.6,6.9-1.5,10.4c-0.7,0.2-1.2,0.7-1.7,1.2
	c-0.1,0.4-0.2,0.8-0.2,1.3c-0.7-2.2-0.8-4.5-1.2-6.8c-0.1-1.5,0.4-2.9,0.6-4.3c0.2-1.5,0.4-3.1,0.7-4.6c0.5-4,1.1-7.9,1.8-11.9
	c0.4-3.7,1.2-7.4,1.7-11.2c1.4-8.4,2.8-16.9,4.9-25.2l0.2-0.3c0.4-2.2,1-4.4,1.6-6.6c0.5-1.5,1.2-2.9,2-4.3c0-0.4,0.1-0.8,0.2-1.1
	c-0.1-0.4-0.1-0.8-0.2-1.2c-0.3-0.5-0.7-1-1-1.5c0.2-2.2-1.3-4.4-3.3-5.2c-1.8-0.6-3.1-2-4.8-2.8c-0.6-1.5-2.1-2.4-3.6-2.6
	c-1.7-0.1-3.3,0-5,0c-1.1,0-2.3,0.1-3.3-0.6c-1.9-1.2-4.2-1-6.3-0.9C1326.7,2376.6,1326.4,2376.7,1326,2376.8 M1269.1,2389.8
	c0.5,1.2,1,2.4,1.1,3.7c0.2,2.2,1.3,4.1,1.8,6.2c0.8,0.1,1.5,0.1,2.3,0c0.3-2,1.5-4.3,0.2-6.2c-0.5-1,0.1-2.2-0.3-3.3
	c-0.4-1.8-2.4-2.5-4-2.4C1269.2,2387.8,1268.7,2389,1269.1,2389.8 M1298.5,2396.8c-0.5,1-1,2-1.4,3.1c-0.4,1.1-1.5,1.6-2.2,2.5
	c-1,1.2-2.7,1.9-3.3,3.5c-0.3,2.4-0.5,4.9-0.8,7.4c-0.3,1.3,1.2,2,1,3.2c-0.1,1.9,0.3,3.9,0.5,5.8c-1.7,1.8-1.6,4.5-1.6,6.8
	c0.4,1.2,0.4,2.5,0.5,3.9c1.1,1.8,2.6,3.4,3.6,5.3c0.7,1.7,0.9,3.6,1.6,5.2c0.7,2.1,1.7,4.2,1.8,6.5c0.3,2.3-0.6,4.5-1.2,6.7
	c-0.6,0.6-1.5,0.9-2.2,1.4c-1.1,0.8-2.8,0.9-3.1,2.3c-0.2,2.3-0.1,4.5,0.3,6.8c-0.1,4.1,0.1,8.2,0,12.2c-0.2,1.9,2,2.6,3.5,2.6
	c0.6-0.3,1.2-0.9,1.2-1.6c0-2.8,0-5.5-0.1-8.3c-0.2-1.1,0.9-2.1,0.3-3.2c-0.7-0.5-1.8-0.6-1.9-1.6c-0.2-1.7-0.7-3.6,0.6-5
	c1.5-2,4.5,0.8,6-1.2c0.3-1.1,0-2.2,0.1-3.3c-0.2-2.8,0.1-5.5-0.3-8.2c-0.2-4.4,0.1-8.9,0-13.3c0.4-5,0.1-10.1,0.2-15.1
	c0.1-1-0.3-2.2,0.4-3.1c-0.7-0.1-0.6,0.8-0.6,1.3c0.2,5.1-0.1,10.2,0.1,15.2c-0.1-1-0.2-2-0.2-3c0.3-4.5,0.1-9.1,0.1-13.6
	c0.6-1.3,0.4-2.7,0.4-4c0-5.4,0.1-10.7,0-16C1300.9,2396.9,1299.7,2396.7,1298.5,2396.8 M1279.4,2398.6c0.4,0.8,1.4,0.3,2.1,0.4
	c0-0.6,0-1.3,0-1.9c-0.3,0-1,0-1.3,0C1279.4,2397,1279.2,2398,1279.4,2398.6 M1279.1,2415.5c0.4,0.1,0.8,0.3,1.2,0.4
	c0.7-0.2,1.4-0.5,2-1c-0.1-1.6,0.5-3.5-0.5-5c-0.9-0.3-1.9-0.4-2.9-0.4C1277.3,2411.1,1277.8,2413.8,1279.1,2415.5 M1270.4,2410.5
	c-1,1.5-0.7,3.5-0.8,5.2c-0.3,2.2,0,4.3-0.3,6.5c0,1.1-0.5,2.4,0.5,3.2c0.5,0.3,1.2,0.6,1.8,0.3c1.2-0.4,1.3-1.9,1.7-2.9
	c0.5-1.2,0.6-2.6,0.5-3.9c-0.1-1.4,0.8-2.6,1.1-3.9c0.3-1.3-0.8-2.4-0.7-3.7c-0.8-0.3-1.6-0.5-2.2-1.2
	C1271.5,2410.2,1270.7,2409.9,1270.4,2410.5 M1276.7,2423.3c-1.1,0.5-1.2,2.3-0.3,3.1c0.5,0.5,1.2,0.5,1.8,0.7
	c1.4,1.3,3.5,1.2,5,0.2c0.6-1.4,0.9-3.6-0.7-4.4C1280.6,2422.5,1278.5,2422.6,1276.7,2423.3 M1275.2,2444.9c-2.6,0.8-5.3,0.3-7.9,1
	c-1.2,0.3-2.4,0.1-3.7,0.2c-0.9,0-1.8-0.5-2.6,0c-0.7,0.6-0.3,1.6,0.1,2.2c1.3,0.2,2.5-0.5,3.7-0.3c1.1,1.5,3,1.8,4.6,2.6
	c1.2,0.7,1.9,2,2.7,3c1,1.3,0.9,3.1,2.1,4.3c0.7,0.2,1.8,0.3,2.2-0.4c0.3-1,0-2-0.4-2.9c0.7,1,1.4,1.9,1.7,3.1
	c0.2,0.9,0.3,1.8,0.5,2.7c-0.1,0.2-0.4,0.5-0.6,0.6c-1,1-0.1,2.4-0.2,3.6c-0.2,1.9,1.1,3.4,1.5,5.3c0.4,1.5,0.3,3.1,0.8,4.6
	c0.7,1.7-0.2,3.8,1.2,5.2c0.5,0,1.1,0,1.6,0c1.2-1.1,0.7-3,2-4c1.6-1.4,0.9-3.7,1-5.6c-0.7-3.1-1.2-6.4-3.2-9
	c-0.2-1.7,0.2-3.4-0.3-5c-0.8-2.2,0.1-4.7-1-6.8c0.2-1.1,0.4-2.2,0.2-3.3c-0.3-0.7-1.1-1.4-1.9-1.1
	C1278.1,2445.2,1276.7,2444.4,1275.2,2444.9 M1298.9,2469.2c-0.1,0.2-0.4,0.5-0.5,0.7c0,4.2,0.4,8.4,0.4,12.7c0,1.3,0.2,2.6,0.2,4
	c0,5.5,0.4,11,0.1,16.6c0,1.3,1.6,0.9,2.4,0.9c0.3-0.6,0.8-1.2,0.8-2c0-1.8,0.1-3.6-0.2-5.4c-0.3-4.7,0-9.4-0.4-14
	c-0.1-3.4-0.1-6.7-0.1-10.1c-0.1-1.4,0-3.1-1.5-3.8C1299.7,2468.8,1299.3,2469,1298.9,2469.2 M1294.8,2485.2
	c-0.2,0.2-0.5,0.5-0.7,0.7c-0.1,0.4-0.1,0.9-0.1,1.3c-0.7,0.3-1.6,0.6-1.7,1.5c-0.2,6.1,0.2,12.2-0.3,18.3c0.2,1.1,0.7,2.1,0.6,3.2
	c-0.2,3.6,0.1,7.2,0,10.8c0.1,1.7-0.3,3.5,0.5,5.1c0.4,1.2,0.9,2.3,1.6,3.4c0.1,1.6,0,3.2,0.1,4.8c-0.9,1.3-2.9,2.4-2.4,4.2
	c0.5,1.7,0.3,3.4,0.2,5.2c0.9,1.2,2.5,1.4,3.9,1.5c0.4-0.4,0.8-0.8,1.1-1.2c-0.1-2.6-0.2-5.2-0.4-7.8c-0.5-2.2-0.2-4.4-0.2-6.6
	c0.5-2,0.2-4.1,0.2-6.1c0-2.6,0-5.3,0-7.9c-0.4-4.8-0.2-9.6-0.3-14.4c-0.1-4.2,0.1-8.4-0.2-12.6c0.2-1.1,0.6-2.5-0.4-3.3
	C1295.8,2485.2,1295.3,2485.2,1294.8,2485.2 M1281.6,2492.6c-1.6,1.3-0.9,3.6-1.3,5.4c-0.6,2.4-0.6,5-1.6,7.3
	c-0.2,1.1-0.6,2.9,0.9,3.4c1.4,0.4,2.9,0.2,4.1-0.5c1.3-0.8,1-2.5,0.9-3.7c-0.4-2.3,0.1-4.7-0.9-6.8c0.6-1.6,1.1-3.5,0.2-5.1
	C1283.2,2492.2,1282.3,2491.9,1281.6,2492.6 M1134.9,2507.9c-1.1,0.3-2.2,0.1-3.2,0.4c-1.4,0.4-2,2.1-1.4,3.4
	c0.4,1.1,1.6,1.4,2.7,1.6c1.3,0.1,2.9,0.1,3.7-1.1c0.6-0.9,1.2-2.1,0.6-3.2C1137,2508.2,1135.9,2507.6,1134.9,2507.9 M1299.1,2513.5
	c0,4.2,0.1,8.4,0.1,12.6c-0.1,2.3,0.3,4.5,0.2,6.8c0.2,4.1-0.4,8.4,0.9,12.4c0.6,0,1.3,0,1.9,0c0.2-0.6,0.5-1.3,0.5-2
	c0.1-9.9-0.2-19.7,0-29.6c-0.5-0.7-1-1.3-1.5-1.8c-0.3,0-0.9,0-1.2,0C1299.6,2512.3,1299.1,2512.8,1299.1,2513.5 M1130.9,2514.7
	c-0.7,0.6-0.9,1.6-0.9,2.5c-0.2,4.6-0.1,9.2-0.4,13.8c-0.2,2.8,0.1,5.6-0.3,8.3c-0.3,1.3,1,2.1,1.7,3c1.3,1.8,1.5,4.1,2.7,5.9
	c1.1,1.2,3,0.4,3.3-1c0.3-1.7,0-3.4,0.2-5.1c0-3.1,0.4-6.2,0.3-9.4c0-1.9,0-3.8,0.4-5.7c0-1.1,0.9-1.8,1.4-2.7
	c0.5-0.8,1.6-1,2.1-1.8c0.6-0.9,0.5-2.1,0.5-3.1c0-1-0.5-2-1.4-2.4c-2-1.1-4.4-0.9-6.4-2C1133.1,2514.7,1131.9,2513.8,1130.9,2514.7
	 M1275.9,2516.3c0,1.7-1.2,3.1-1.7,4.6c-0.6,1.7-1.7,3.2-2.7,4.7c0.2,0.4,0.3,0.8,0.5,1.2c1,0.7,2.2,0.4,3.3,0.5
	c2.4,0,4.9-0.2,7.2,0.7c1.1-0.4,1.9-1.5,1.9-2.6c0.1-2.2-0.3-4.5,0.6-6.5c0.3-1-0.4-2-0.6-2.9c-1.2-0.9-2.7-0.4-4-0.6
	c-1-0.1-1.9-0.7-2.9-0.6C1276.5,2514.6,1275.9,2515.5,1275.9,2516.3 M1318.4,2519.4c-0.3,0.4-0.7,0.8-1,1.2c-0.1,1.3-0.2,2.7-0.1,4
	c0.1,4.8,0,9.6,0.2,14.3c0.6,3.8-0.1,7.8,0.5,11.6c0.2,3.6,0.1,7.2,0.1,10.8c0.6,4.8,0.2,9.6,0.4,14.4c0.3,1.3,0.2,2.6,0.2,3.9
	c0,2.9,0,5.8,0.1,8.7c0.5,4.3,0.2,8.7,0.4,13.1c0.4,2.3,0.2,4.7,0.3,7c0.1,4.8-0.1,9.6,0.4,14.4c0,5.4,0.1,10.8,0.1,16.1
	c0.3,0.9,0.7,1.8,1.2,2.6c0.9,1.4,0.6,3.1,0.6,4.6c0,1.8-0.3,3.7,0.5,5.4c0.9,2.3,2.8,4.1,3.3,6.5c0.4,1.5,1.2,2.9,2.5,3.8
	c1.2,0.8,2.1,2,3.3,2.8c0.2,0,0.7,0,0.9,0c1.2,0.2,1.9-1.1,2.7-1.8c0-0.2,0.1-0.6,0.1-0.8c0.4-1.5,0.2-3.1,0.3-4.7
	c0.1-2.9,0.1-5.8,0.1-8.7c0.4-3,0.3-6,0.3-9c-0.1-1.7,0.4-3.3,0.3-5c0.1-2.8,0-5.5,0.1-8.3c0.6-4,0-8.2,0.6-12.2
	c0.1-2.9,0-5.7,0.1-8.6c0.3-1.7,0.2-3.4,0.3-5.1c-0.1-2.7,0.5-5.4,0.4-8.1c0.1,0.8,0.2,1.6,0.3,2.4c-0.3-2.6,0.2-5.1,0.4-7.7
	c0.4-1.4,0.2-2.9,0.4-4.3c0.4-1.2,0.2-2.4,0.4-3.6c0.4-1.4,0.2-2.9,0.4-4.3c0.3-1.1,0.3-2.2,0.3-3.3c0.4-1.2,0.3-2.4,0.4-3.6
	c0.2-0.7,0.3-1.4,0.3-2c0-1.7,0.5-3.4,0.5-5.1c0.3-1.1,0.3-2.2,0.4-3.2c0.3-0.9,0.3-1.9,0.4-2.9c0.3-2.1,0.6-4.3,0.7-6.5
	c0.4-2.3,0.8-4.7,0.7-7.1c0-1.4-1.2-2.5-2.1-3.4c-1-1-2.4-1.6-3-2.9c-0.7-1.4-1.5-2.7-2.6-3.7c-1.5-1.3-2.7-2.8-4.3-4
	c-2.3-2.3-4.7-4.8-7.9-5.7c-0.6-0.7-1.2-1.4-1.8-2C1320.3,2519.3,1319.3,2519.3,1318.4,2519.4 M1277.3,2536.5
	c-1.8,0.3-3.6-0.1-5.5,0.2c-1.2,0.4-2.2,1-3.4,1.3c-0.9,0.1-1.7,0.9-1.5,1.8c0.3,0.8,1.1,1.3,1.9,1.3c3.8,0.5,7.7,1.1,11.5,1.6
	c1.3,0.3,2.3-1.1,2.3-2.3c0.1-1.4,0-3.3-1.4-4.1C1279.9,2536,1278.6,2536.3,1277.3,2536.5 M1293.2,2556.8c-2,1.6-2.1,4.5-2,6.9
	c0,11.3,0,22.5,0,33.8c0,1.2-0.3,2.8,0.9,3.6c0.8,0.9,2.2,0.2,3.2,0.7c0.5,0.9,1.2,1.8,2.1,2.4c-0.7,2-1.4,4.1-2.9,5.6
	c-1.1,1.1-1.1,2.8-1.1,4.2c0,1.4,1.3,2.8,0.6,4.2c-0.9,1.8-0.3,3.9-0.1,5.8c-1,0.7-1.6,1.9-1.2,3.2c0.6,1.4,0.7,3.1,2.2,3.9
	c0,1,0.1,2.1,0.5,3.1c0.5,1.6-1,2.8-1,4.4c-0.4,0.2-0.8,0.4-1.3,0.5c-1.1,0.9-1.1,2.5-0.6,3.7c0.3,0.9,0.2,1.9,0.2,2.8
	c-0.1,0.9,0.8,1.6,1.6,1.6c2.4,0.3,4.9,0.4,7.3,0.8c0.5-0.5,1.2-0.9,1.1-1.6c0-2.3-0.1-4.6-0.1-6.9c-0.1-4.2,0.2-8.4-0.2-12.6
	c-0.1-7.8-0.1-15.6-0.1-23.4c-0.1-3.6,0.2-7.2-0.2-10.8c0-5,0-10.1-0.1-15.1c-0.5-1.4-1.8-2.4-2.8-3.5c-0.1-0.5-0.3-1.1-0.4-1.6
	c0.4-0.6,0.8-1.2,1.2-1.8c0.8-0.1,1.8,0.2,2.3-0.6c0.4-0.4,0.5-1,0.5-1.5c-0.1-3.2,0-6.5-0.3-9.7c0.2-1-0.6-2-1.6-1.9
	C1298.2,2557,1295.7,2556.5,1293.2,2556.8 M1259.5,2559.4c1.3,0.8,2.7,1.4,4.3,1.3c3,0,6,0,9,0.2c2,0.3,4.1,0,6.1,0.2
	c1.1,1.4,3.1,1.5,4.7,1.2c0.9-0.2,1.3-1,1.6-1.7c-0.3-1-0.5-2-0.8-2.9c-0.8-0.5-1.6-1-2.6-0.9c-7.1,0-14.1,0-21.2,0
	C1259.2,2556.7,1258.3,2558.5,1259.5,2559.4 M1268.2,2567.2c-1.2,0.4-1.1,2.5,0.1,2.8c1.4,0.5,3,0.9,4.3,1.7
	c1.1,0.7,1.6,1.9,2.5,2.9c0.9,1.2,2.4,1.8,3,3.2c1,1.5,1.7,3.2,2,5c0.3,0.2,0.6,0.4,1,0.6c0.1,0.8-0.1,1.7,0.4,2.4
	c0.6,1,1.1,2.2,0.8,3.4c-0.5,1.9,0.8,3.7,1.7,5.2c0.8,0,1.9,0.2,2.2-0.8c0.7-2.2-0.2-4.4-0.2-6.6c0-4.4-0.1-8.8-0.4-13.1
	c-0.8-1.4-1.6-3.1-3.2-3.8c-1.1-0.4-2.3-0.6-3.4-0.9c-1.5-0.4-3.2,0-4.5-0.9C1272.7,2567.2,1270.4,2566.8,1268.2,2567.2
	 M1282.9,2622.5c0,0.7,0,1.4,0.3,2c0.3,1.4-1.3,2.7-0.3,4.1c0.7,0.2,1.5,0.6,2-0.1c1-0.7,0-1.9,0.3-2.8c0.3-1.1-0.4-2.1-0.3-3.2
	C1284.3,2622.5,1283.6,2622.5,1282.9,2622.5 M1280.5,2639.1c-0.7,0.8-1.9,1-2.1,2.1c-0.4,1.8-1.6,3.4-1.1,5.3c1.7,1.6,4,0.2,5.9,0.4
	c1.3,0.2,2.6-0.9,2.3-2.2c-0.2-1.8,0.3-3.7-0.4-5.4c-0.4-0.2-0.8-0.3-1.1-0.4C1282.8,2639.2,1281.6,2639.2,1280.5,2639.1
	 M1272.5,2660.2c-0.4,0.4-0.6,0.9-0.7,1.5c0.9,0.9,2,1.4,3.2,1.9c1.1,0.7,2.1,1.7,3.2,2.5c1.8,1.4,3,3.3,4.3,5c1,1.2,0.8,3,2.2,3.8
	c0.1,1,0.3,2,0.5,3c0.3,0.3,0.6,0.6,1,0.9c0.2,0,0.6,0,0.8,0c0.3-0.4,0.9-0.7,1-1.2c0.2-2.1-0.3-4.1-0.3-6.1c0-2.3-0.4-4.5-0.4-6.8
	c-0.1-1.1,0.1-2.5-0.9-3.3c-1.6-1-3.6-0.8-5.4-0.8c-1.7,0-3.3-0.4-5-0.1C1274.8,2660.5,1273.7,2660,1272.5,2660.2 M1294.1,2660.9
	c-1.6,1.3-0.7,3.3-0.7,5c0,5.2,0.5,10.4,0.5,15.7c0.3,2.7,0.3,5.5,0.3,8.3c0,1.6,0.5,3.1,0.1,4.7c-0.4,1.8-0.1,3.6-0.5,5.4
	c0.7,2.9-0.6,5.9,0.4,8.7c0.6,0.2,1.4,0.7,2,0.2c1-0.8,2.1-1.4,3-2.1c0.8-0.7,1.1-2.2,0.3-2.9c-0.9-0.9-1.5-2.1-2.2-3.2
	c-0.5-0.8-0.3-1.8-0.3-2.7c-0.1-2,0.5-4.1,1.9-5.5c0.8-0.8,1-1.8,1.7-2.6c0.8-0.6,1.8-0.8,2.3-1.6c0.8-0.9,0.4-2.1,0.5-3.2
	c0-7.5,0-14.9,0.1-22.3c0-1-1.1-1.6-2-1.5c-1.9,0.1-3.9-0.2-5.8,0.1C1295.1,2661.1,1294.6,2661,1294.1,2660.9 M1312.8,2665.2
	c-0.4,1.6,0.2,3.1,0.5,4.6c0.1,1,0.1,2-0.1,3.1c-0.2,1.9-0.8,3.6-0.9,5.5c-0.5,2.3-0.4,4.6-0.3,7c0.4,1,1,1.9,1.9,2.6
	c1.6,0.1,3.2,0.2,4.7,0c0.8-0.5,1.7-1,2.5-1.4c1.4-0.7,3.1-0.7,4.5-1.2c1.3-0.5,2.3-1.8,2.2-3.3c0-1.9,0.4-4.2-1.1-5.6
	c-1.2-1.1-2.1-2.5-2.9-3.9c-1-1.7-3.1-2.2-4.1-4c-0.5-0.7-1.1-1.2-1.5-2c-0.1-0.4-0.2-0.8-0.2-1.2c-0.7-0.9-1.4-2.1-2.6-1.9
	C1314.3,2663.2,1313.2,2664.1,1312.8,2665.2 M1316.2,2701.5c-0.4,0-0.9,0-1.3,0c-0.3,0.4-0.8,0.7-0.8,1.3c-0.1,2.5,0,5,0,7.5
	c0.1,0.9-0.3,2.2,0.6,2.9c1.2,0.7,2.5,1.5,4,1.3c0.7-0.6,1.5-1.1,1.8-2c0.2-0.7,0.1-1.5,0.1-2.2c0.4-0.4,0.7-0.9,1.1-1.3
	c0.1-1.5,0-3,0-4.5c1-0.7,1.1-2,0.7-3c-0.4-0.5-0.9-0.9-1.3-1.3c-0.3-0.1-0.7-0.3-1-0.4C1318.5,2699.5,1317.1,2700.4,1316.2,2701.5
	 M1293.4,2720.1c0.1,1.5,1.2,2.8,1.4,4.3c0.1,1,0,1.9,0,2.9c0,1.3-0.7,2.4-0.9,3.6c-0.5,1.5-2.5,1.2-3.7,1.6c-0.5,0.7-1,1.4-0.9,2.3
	c0.1,2,0.3,4.1-0.3,6c-0.8,2.3-1.8,4.6-2.9,6.8c-0.5,0.8-0.2,1.6,0.2,2.4c1.8,0.9,3.8,1,5.7,0.7c1.1-0.4,1.6-1.5,1.9-2.6
	c0.5-1.9,1.1-3.8,0.8-5.7c-0.3-2.2,0.6-4.2,1.8-6c0.5-1.1,2-1.1,2.7-2.1c1.6-1.6,0.7-4,1.1-6c0.4-2.4,0.1-4.8,0.6-7.2
	c-0.5-1.1-0.7-2.9-2.2-3c-1.1,0-1-1.7-2.2-1.5C1294.4,2716.2,1293.6,2718.5,1293.4,2720.1 M1322.9,2721.8c-0.6,1.5-2.8,2.3-4.1,1.3
	c-1.2,0-2.4,0-3.6,0.1c-0.8,0.1-1.4,1-1.2,1.8c0.1,4.1,0,8.2,0.1,12.3c0.1,1.2,0.2,2.4,0,3.6c0.1,1.6,1,3.4,2.7,3.9
	c1.6,0.5,3.1,1.4,4.8,1.3c-0.9,2.1-1,4.3-0.7,6.6c0.2,0.9,0.7,1.7,0.7,2.6c0.1,0.8-0.8,1.1-0.9,1.8c0-0.2-0.1-0.6-0.1-0.8
	c-1-0.8-2.1-1-3.3-0.8c-0.4,0.4-0.9,0.9-1.3,1.3c0,0.7,0,1.5-0.1,2.2c0.4,0.5,0.8,1,1.2,1.5c1,0,2.1,0.1,3.1-0.1
	c0.1-0.2,0.2-0.6,0.3-0.8c0,0.2,0.1,0.7,0.1,0.9c0.9,0.1,1.8,0.4,2.6,0.8c1.1,0.6,2.5,0.3,3.7,0.3c1.2-1.5,1.7-3.5,2.7-5.1
	c0.8-1.6,1.6-3.2,2.4-4.8c0.3-1.1,0.6-2.3,0.3-3.4c-0.6-2.1-1.7-4.1-1.7-6.4c-0.3-1.6-1.2-3-1.1-4.6c0-1.7-0.4-3.3-0.4-5
	c-0.4-2.4-0.2-4.8-0.3-7.2c0.6-1.3,1.2-2.6,1-4.1c-0.5-0.7-1.2-1.4-2-1.9C1325.7,2719,1323.8,2720,1322.9,2721.8 M1278.3,2759.4
	c-0.6,0.5-1.1,1.2-1.4,2c-0.2,0.8,0,1.7-0.1,2.6c-0.4,2.1-1.8,3.7-2.5,5.7c-0.3,1.2,0.9,2.3,0.6,3.5c-0.4,3.9-0.2,7.9-0.4,11.8
	c-0.5,4.9,0,9.8-0.6,14.7c-1,0-1.9,0-2.8,0.1c-2,0.3-4,0-6,0.4c-2.4,0.5-4.8-0.8-7.2-0.1c-1.8,0.7-2.5,2.8-2.7,4.6
	c-0.2,1,0.3,1.9,0.5,2.9c0.3,4.4,0.9,8.8,1.3,13.2c0.6,1.8,1.2,3.6,1.8,5.5c0.5,1.4,0.7,2.9,1.7,4.1c1.1,1.7,2.4,3.3,3.6,5
	c1,1.4,2.5,2.3,3.5,3.6c1.1,1.4,2.8,2.2,4.3,3.3c2.7,1.6,5.4,3.3,8.5,4c2.8,0.8,5.6,1.9,8.6,1.7c2.8,0,5.6,0.3,8.3-0.7
	c1.3-0.6,2.7-0.6,4-1.2c2.7-2.3,6.5-2.9,9.2-5.1c1.1-1,2.2-2,3.3-3.1c2.9-2.1,4.8-5.2,6.5-8.2c0.6-1.1,1.3-2,1.7-3.1
	c0.3-0.9,0-2.1-0.9-2.5c-1.3-0.7-2.8,0-4.1-0.1c-1.6,0.1-3.5,0-4.5,1.4c-1,1-2.2,1.9-3,3.1c-1.1,1.6-3.3,1.3-5,1.3
	c-1.4-0.2-3-0.1-4.1-1.2c-1.2-1.1-2.1-2.5-3.2-3.6c-0.3-2.3-0.2-4.7-1.1-6.8c0.8-1.4,1.6-2.7,2.4-4.1c0.5-0.9,0.6-2.1,0-2.9
	c-0.6-0.8-1.6-1.1-2.3-1.9c-0.7-1.3-0.7-3,0.1-4.3c0.6-1.2,2.2-1.1,3-2c1.1-1,0.5-2.6,0.7-3.8c0.2-3.7-0.1-7.4,0.3-11.1
	c0-4,0-7.9,0-11.9c0-0.9-0.2-2,0.4-2.8c-0.2,0.2-0.5,0.5-0.7,0.7c0.2,5.1,0.1,10.3,0.1,15.4c-0.1-5.4,0.2-10.8-0.2-16.1l0.4,0.3
	c0.1-3.7,0-7.5,0.1-11.2c0.2-1-0.6-2-1.6-2c-2.4,0.5-4.7,1.6-7.2,1.5c-1.3-0.1-2.6,0.5-3.9,0.4c-2.5,0.1-4.9,0.8-7.4,0.7
	c0.2-1.1,0.8-2.3,0-3.3C1279.9,2759.1,1279,2759.3,1278.3,2759.4 M1310.1,2767.9c-0.3,1.8-0.1,3.6-0.2,5.4c0.4,3.3,0.1,6.7,0.3,10
	c0,6.5,0.1,13,0.1,19.4c0,1.2,1.2,1.9,2.2,2.1c1.6,0.3,3.4,0.3,4.9,1.3c1.6,1.3,3.5,2.4,5.4,3.1c1.5,0.5,2.8-0.9,3.1-2.2
	c0.3-1.3,1.1-2.5,1.1-3.9c0-3.2,0-6.5,0-9.7c0.3-1.6,0.2-3.4,1.1-4.9c1.1-1.8,0.7-3.9,0.8-5.9c0.1-1.3-0.3-2.4-0.8-3.6
	c-0.4-1.6,1.5-2.4,1.5-3.9c0.1-1.5,1.1-3,0.2-4.4c-0.6-0.2-1.1-0.6-1.5-1.1c-0.9-1.2-2.7-0.6-3.9-0.8c-3.7-0.6-7.4-1-11-2
	C1312.3,2766.5,1310.6,2766.5,1310.1,2767.9 M1100.3,2779.3c-1,0.2-1.2,1.5-0.8,2.3c0.6,0.9,1.8,0.3,2.6,0.9c1.3,0.8,2.2,2,3.5,2.8
	c1.3,0.9,2.3,2.2,3.9,2.6c1.9,0.6,3.6,1.5,5.5,2.2c1.3,0.4,3-0.5,3-2c0-1.8,0.2-3.7-0.4-5.5c-1.5-0.8-3.3-1.2-5-1.2
	c-1.5-0.6-3-1.3-4.5-1.8C1105.5,2779.7,1102.9,2778.8,1100.3,2779.3 M1080.3,2782.8c-1.1,0.7-2.5,1.6-2.8,3
	c-0.5,1.9-0.5,3.8-0.4,5.8c0.7,2.6,2.8,4.5,3.9,6.9c0.3,1.8,1.3,3.4,2,5.1c0.8,1.7,1.7,3.4,3.1,4.6c0.7,0.2,1.6,0.3,2.1-0.3
	c0.9-1.2,0.6-3,1.7-4.1c0.8-1.2,2.3-1.9,2.9-3.3c0.2-1.4,0.2-2.9,0.1-4.3c-0.5-2-2-3.5-2.6-5.5c-0.7-1.7-1.1-3.4-2.3-4.8
	c-0.9-1.1-1.8-2.4-3.2-2.8C1083.3,2782.7,1081.7,2782.1,1080.3,2782.8 M1111.8,2802.4c-0.8,0.7-0.6,1.9-0.6,2.8
	c-0.1,2.1,0.6,4,0.4,6.1c-0.1,1.6,0.2,3.3,1.5,4.5c0.5,0,1.1,0,1.6,0c0.8-1.2,1.2-2.7,1.5-4.1c0.1-1.8,0-3.6,0-5.4
	c0.1-1.3-0.6-2.5-0.8-3.7C1114.5,2801.6,1112.8,2801.5,1111.8,2802.4 M1098.5,2856.7c-0.6,0-1.2,0-1.8,0.1c-0.7,1.9-1,3.9-0.6,5.9
	c0.5,3.1-0.6,6.2-0.1,9.4c0.3,1.4,0.1,2.9,0.5,4.3c0.6,2-0.1,4,0.1,6c0.5-0.4,0.2-1.2,0.2-1.7c-0.2-1.1,0.1-2.2,0.3-3.3
	c-0.2,1.6-0.2,3.2,0.1,4.8c-0.9,0.7-0.3,2.1-0.5,3.1c-0.2,1.4,1.2,2.3,1.2,3.7c0.6,0,1.3,0,2,0c-0.1-1.2,0.2-2.3,0.6-3.4
	c0.4-2.9-0.2-5.9,0.4-8.8c0.2-1.6,0.2-3.2,0.2-4.8c0-1.8,0.4-3.6,0.3-5.4c-0.1-3.2,0.4-6.4,0.3-9.7c-0.1-0.6-0.7-1-1.2-1.2
	C1099.5,2855.6,1098.9,2856.2,1098.5,2856.7 M1115.5,2896.3c-1.5,0.9-3.5,1.5-4.3,3.1c-0.5,0.6-0.1,1.4,0.2,2.1
	c0.8,0.4,1.6,1,2.6,0.7c1.5-0.3,3.1-0.2,4.6-0.6c1.6-0.4,2.5-2.5,1.9-4c-0.4-1-1.4-1.4-2.2-1.9
	C1117.2,2895.2,1116.3,2895.9,1115.5,2896.3 M1201.8,2969.7c-0.8,0.3-1,1.3-0.6,2.1c0.8,1.6,1.1,3.4,1.6,5.1
	c0.4,1.8,1.4,3.5,2.1,5.2c0.9,1.7,1.6,3.6,2.7,5.1c1.8,2.4,3.3,5.1,5.2,7.4c2,2.6,4,5.3,6.4,7.6c1.8,1.7,3.8,3.4,5.6,5.2
	c1.6,1.8,4.1,2.2,5.9,3.8c1,0.9,2.3,1.3,3.6,1.2c0.5-0.3,1.3-0.6,1.3-1.3c0.2-1.1-0.7-2-1.2-2.9c-1.4-2.4-1.2-5.2-1.4-7.8
	c-0.6-2.1-0.4-4.3-0.1-6.4c-0.2-1.4-0.3-2.7-0.4-4.1c-0.7-2.6-3.9-3.1-4.8-5.5c-0.7-1.9-2.1-3.4-3.3-5.1c-1.2-0.9-2.5-1.8-3.5-3
	c-1.4-1.5-3.7-1.1-5.3-2.2c-1.4-0.8-3.1-1.2-4.6-1.7c-2.2-0.1-4-1.5-6.1-2C1203.9,2970,1202.9,2969.3,1201.8,2969.7 M1314.7,2983.7
	c-0.7,0.8-0.9,2-2.2,2.1c-0.8,0.8-1.7,1.4-2.5,2.2c-1.2,1-1.4,2.8-2.6,3.8c-1.2,1-2,2.4-3.2,3.3c-1.2,1.1-3,1.4-4.2,2.7
	c-1.1,1.3-2.8,1.8-4.2,2.6c-1.4,0.8-3.1,1.3-4.4,2.4c-0.6,0.8-0.6,2-0.9,3c-0.5,1.7-0.3,3.5-0.9,5.2c-0.5,1.3-0.3,2.9,0.9,3.8
	c1.3,0,2.3-0.7,3.4-1.2c1.9-0.9,3.5-2.3,5.3-3.3c2.4-2.5,5.2-4.6,7.5-7.2c2.5-2.3,4.2-5.3,6.3-8c0.8-1,1-2.3,1.8-3.3
	c0.8-1.2,1.3-2.6,1.8-4c0.4-1.1,0.7-2.4,0.5-3.6C1316.7,2983.2,1315.3,2982.9,1314.7,2983.7z"/>
</svg>
