<?xml version="1.0" encoding="utf-8"?>

<!DOCTYPE svg PUBLIC "-//W3C//DTD SVG 1.1//EN" "http://www.w3.org/Graphics/SVG/1.1/DTD/svg11.dtd">
<svg version="1.1" id="Layer_1" xmlns="http://www.w3.org/2000/svg" xmlns:xlink="http://www.w3.org/1999/xlink" x="0px" y="0px"
	 viewBox="0 0 3672 4428" enable-background="new 0 0 3672 4428" xml:space="preserve">
<g>
	<path d="M3608.5,1765.47c-1.16-3.23-3.6-5.75-5.87-8.19c-4.84-4.85-12.05-6.06-18.61-5.73c1.03-6.84,6.5-13.88,2.07-20.62
		c-3.23-3.33-6.48-6.84-10.43-9.34c1.98-10.36-10.14-19.16-19.71-16.31c-5.41,0.56-8.72,5.27-12.42,8.67
		c3.17-6.25,0-15.79-7.34-17.07c-4.96-1.49-10.35-0.39-14.66,2.32c0.32-2.56,0.47-5.33-1.38-7.34c-2.76-4.5-8.56-5.14-13.31-4.75
		c-8.11,1.52-15.04,6.55-20.84,12.19c-4.6,3.74-9.85,7-15.72,8.17c-4.39,1.16-8.91,0.04-13.34,0.11
		c-10.36-0.81-20.77,0.02-30.89,2.29c-11.69,2.08-23.47,3.65-35.02,6.43c-23.23,5.27-46.7,9.78-69.37,17.22
		c-10.03,3.4-20.42,5.44-30.66,8.06c-13.2,3.4-26.57,6.07-40,8.37c-10.36,1.91-20.92,2.91-31.02,5.99
		c-6.09,1.81-12.58,2.64-17.95,6.24c-9.41,5.69-20.19,9.8-27.47,18.39c-5.07,5.6-10.39,10.99-15.2,16.81
		c-3.8,6.04-6.92,12.48-10.15,18.83c-13.58,2.61-27.42,3.66-41.21,4.39c-12.01,0.28-24.03-0.3-36.02,0.43
		c-18.32-0.84-36.65-1.52-54.93-2.96c-21.3-2-42.71-2.6-63.98-4.81c-25.68-2.52-51.41-4.58-76.97-8.16
		c-13.84-2-27.86-3.05-41.42-6.65c-9.67-1.59-19.04-4.72-28.81-5.64c-8.95-1.26-17.82-3.22-26.88-3.15
		c-11.33,0.3-22.64-1.3-33.95-0.38c-10.73,0.66-21.54,0.43-32.15,2.29c-13.38,1.87-26.8,3.27-40.18,5.01
		c-9.96,2.15-19.87,4.48-29.81,6.66c-10.96,2.19-21.39,6.27-32.06,9.46c-10.74,3.03-20.82,7.87-31.2,11.85
		c-18.1,7.89-35.54,17.28-52.05,28.09c-13.67,9.05-27.04,18.58-41.38,26.56c-7.07,4.21-14.17,8.64-22.24,10.64
		c-22.47,7.4-45.99,11.07-69.43,13.88c-27.09,3.28-54.41,1.56-81.59,1.28c-14.69,0.38-29.28-1.7-43.93-2.39
		c-12.69-0.6-25.34-1.85-38.02-2.56c-27.06-1.49-54.08-3.7-81.13-5.27c-23.11-1.12-46.2-2.85-69.32-3.55
		c-7.5-0.15-15.04-1.38-22.51-0.37c-5.65,0.45-11.3,1.21-16.95,0.56c-10.56-0.96-20.86,1.81-31.24,3.16
		c-12.28,1.66-24.49,3.75-36.7,5.91c-25.52,4.76-51.2,8.67-77.05,11.16c-14.92,1.83-30.02,1.71-44.96,0.43
		c-11.35-0.77-22.3-4.03-33.54-5.43c-0.91-2.61-2.84-4.58-4.84-6.35c-3.31-0.16-6.6,0.16-9.76,1.12c-4.81-4.72-12.02-8.24-18.8-6.13
		c-5.95,1.51-12.23,2.63-18.31,1.32c-11.18-2.51-21.87-6.77-32.93-9.64c-23.7-3.68-46.49-11.45-70.05-15.78
		c-13.1-3.23-25.97-7.29-38.9-11.11c-26.19-7.93-51.12-19.33-76.39-29.68c-12.05-5.15-24.04-11.09-33.69-20.11
		c-7.27-3.62-14.54-7.38-21.16-12.11c-4.3-4.49-8.6-9.2-11.18-14.92c-5.05-8.84-8.73-18.48-10.97-28.4
		c-1.49-5.83,0.04-11.87-1.17-17.71c-1.26-6.69-0.83-13.53-0.33-20.26c1.26-13.55,3.18-27.06,6.22-40.32
		c1.65-27.94,5.72-55.68,9.3-83.42c1.32-7.19,2.75-14.38,5.19-21.27c3.9-11.58,6.77-23.47,11.07-34.9c1.62-7.2,3.97-14.19,5.7-21.35
		c1.46-8.1,4.5-15.76,6.75-23.64c6.13-18.72,8.98-38.5,17.18-56.53c7.13-16.05,18.54-29.65,26.98-44.91
		c7.9-4,14.48-10.65,23.24-12.82c6.38-2.26,13.24-2.09,19.88-2.96c19.79-1.3,39.64-1.56,59.43-3.01
		c34.08-2.43,68.22-0.34,102.3,1.02c18.21,1.02,36.45,1.22,54.68,1.7c20.33,0.94,40.66,2.15,61.02,1.85
		c38.69,0.32,77.29-2.69,115.92-4.38c16-0.68,32.03-1.94,48.05-0.96c15.98,0.17,31.95,1.05,47.93,1.69
		c17.38-0.23,34.78-0.86,52.08-2.7c16.11-1.21,32.05-3.9,48.04-6.13c12.45-2.43,24.91-4.81,37.35-7.28
		c11.81-3.1,23.62-6.23,35.42-9.37c7.32-1.7,14.45-4.03,21.47-6.69c22.54-8.14,45.16-16.09,67.52-24.72
		c36.63-13.79,73.13-27.95,110.2-40.53c24.19-7.74,48.57-14.92,73.32-20.68c8.2-2.2,16.63-3.62,24.64-6.51
		c5.79-0.74,11.17-3.12,16.25-5.9c4.02,6.41,9.73,11.82,16.78,14.78c9.33,3.82,19.06,6.57,28.25,10.77
		c10.92,4.79,22.76,7.17,33.33,12.81c8.58,3.87,14.26,12.02,22.77,16.04c1.65,0.95,3.77,1.33,4.98,2.97
		c3.35,3.98,6.62,8.11,10.81,11.27c4.87,4.96,8.39,11.05,12.5,16.63c1.56,2.31,3.72,4.48,4.07,7.4c0.63,6.04,2.96,11.73,5.23,17.32
		c1.37,3.28,1.23,6.97,2.56,10.28c2.3,5.94,6.23,11.05,10.15,16.01c2.94,3.46,7.47,4.84,11.88,5.04c1.52,1.7,4.13,2.58,6.26,1.38
		c3.06-1.62,4.24-5.47,3.73-8.72c-1.11-5.5-2.47-10.98-4.78-16.1c-2.21-4.92-3.21-10.27-5.52-15.12
		c-0.85-6.29-0.59-12.66,0.02-18.95c-0.54-9.31-9.83-14.9-11.42-23.83c-1.31-6.45-4.98-12.05-7.48-18.06
		c3.19-0.2,7.14-2.03,9.68,0.86c6.05,5.27,11.36,11.42,18.14,15.84c2.61,2.04,6.26,2.92,8.11,5.86c4.24,10.4,9.05,20.59,14.7,30.31
		c1.32,2.57,3.27,4.99,3.65,7.96c0.77,7.97,3.1,15.76,6.39,23.05c2.78,5.42,7.65,10.81,14.31,10.46c0.62,1.74,2.33,2.96,4.19,2.01
		c4.64-2.6,5.27-8.65,5.14-13.43c-0.6-6.67-0.64-13.4-2.23-19.93c-1.49-14.98-7.85-28.8-12.82-42.84
		c-3.98-9.43-5.69-20.77-14.51-27.19c3.56,2.15,7.51,3.49,11.54,4.53c2.14,0.46,3.77,2.31,4.5,4.34
		c3.56,9.49,6.19,19.49,11.81,28.06c2.17,3.37,5.72,6,6.62,10.1c0.9,5.33,1.61,10.74,3.5,15.86c2.09,5.58,3.76,11.63,8.03,16.04
		c2.92,3.3,7.57,4.49,11.86,3.96c0.7,0.71,1.44,1.44,2.2,2.19c0.65-0.06,1.94-0.16,2.59-0.22c2.72-2.49,3.41-6.35,3.6-9.87
		c0.32-6.84-2.72-13.23-3.03-20c-1.12-7.37-2.51-14.74-4.69-21.86c-2.86-7.96-4.22-16.38-7.7-24.12
		c-4.03-9.07-7.31-18.47-11.71-27.37c-2.64-5.5-7.81-8.91-12.27-12.77c-3.27-2.75-6.44-5.6-9.68-8.35
		c6.55,0.93,13.28,0.85,19.68,2.75c4.04,1.06,7.95,2.57,11.98,3.75c5.72,1.63,11.09,4.62,17.14,5.01
		c10.09,1.76,19.69,5.78,29.85,7.31c5.54,0.67,11.42,0.46,16.65-1.74c3.64-1.59,4.96-5.78,8.48-7.52c1.41-1.09,3.53-3.27,1.87-5.03
		c-3.53-4.38-8.68-7.01-13.6-9.5c-6.52-3.56-13.65-5.74-20.69-7.98c-4.83-1.39-10.06-1.41-14.61-3.68
		c-12-6.99-24.49-13.57-38.01-17.03c-8.72-2.71-16.77-7.22-25.64-9.48c-11.74-3.75-24.1-5.08-35.79-8.91
		c-5.87-1.68-10.34-6.85-16.7-6.92c-9.99-0.43-19.18-4.64-28.87-6.56c-12.05-2.89-24.26-4.97-36.35-7.64
		c-23.2-5.66-46.28-11.84-69.54-17.24c-13.4-3.39-27.63-4.05-41.14-1.02c-2.02,0.32-4.19,1.12-6.07-0.03
		c-5.37-2.42-11.43-0.92-16.8,0.68c-6.53,0.55-12.85,2.31-19.23,3.64c-26.79,5.83-53.75,10.93-80.99,14.13
		c-48.93,4.97-98.07,7.55-146.99,12.62c-31.66,3.65-63.35,7.12-94.79,12.33c-30.06,4.42-59.76,11.81-90.21,13.13
		c-6.45,0.4-13.07,0.54-19.16,2.93c-6.75,2.19-12.74,6.44-19.79,7.71c-6.02,0.74-11.15-3.42-17.01-3.62
		c-5.11,0.43-9.24,3.95-14.2,4.93c-5.93,1.32-11.89-0.53-17.7-1.55c-13.45-3.02-27.32-2.04-40.96-1.49
		c-5.69-0.18-11.64,1.58-17.09-0.59c-6.65-2.82-13.88-3.84-20.99-4.64c-5.9,0.19-11.83,0.27-17.68,1.15
		c-6.1,0.94-12.2,2.18-18.39,2.19c-14.14-0.5-27.99-3.69-42-5.3c-11.28,0.77-22.61,0.31-33.84,1.83
		c-13.62,1.89-27.42,1.6-41.05,0.09c-23.48-3.3-46.71-8.12-70.04-12.28c-23-3.93-45.96-8.1-68.98-11.88
		c-20.6-3.38-41.18-7.24-62.04-8.47c-14.01-1.04-28.01-2.09-42.03-2.93c-4.69-0.15-9.47-0.35-14.01,1.01
		c-7.06-2.25-14.53-2.81-21.51-5.34c-10.48-2-20.32-6.11-30.44-9.3c-7.93-2.67-15.8-5.52-23.81-7.92
		c-14.55-4.55-29.29-8.44-44.16-11.72c-9.55-2.04-19.14-4.13-28.26-7.66c0.24-4.32-0.93-8.53-1.07-12.81
		c0.24-5.75,0.52-11.54,2.01-17.12c0.72-3.79,2.64-7.22,3.34-11.01c0.22-0.57,0.66-1.7,0.88-2.27c0.41-1.37,0.86-2.74,1.4-4.04
		c0.11-0.2,0.31-0.61,0.42-0.81c3.7-0.19,7.65,0.19,10.89-2.04c7.86-4.5,16.29-8.24,23.55-13.67c2.68-1.12,5.14-2.7,7.75-3.99
		c5.63-2.58,10.14-6.95,15.47-10.06c2.65,1.84,5.82-0.45,8.7-0.6c6.75-0.68,13.18-3.68,18.14-8.29c5.35-1.97,7.66-7.73,10.55-12.19
		c1.05-0.57,2.13-1.13,3.22-1.67c1.12,1.63-0.18,3.25-0.81,4.8c0.27,0.37,0.82,1.12,1.09,1.5c-0.37,0.86-0.74,1.73-1.06,2.63
		c1.93-0.68,3.68-1.76,5.22-3.11l-0.06-0.67c1.99-1.72,3.35-4.51,6.07-5.15c0,0.93,0.01,2.77,0.01,3.69c0.93-3.86,3-7.39,3.47-11.35
		c0.56-0.78,0.96-1.65,1.2-2.61c1.75-5.89,3.83-11.71,6.15-17.4c0.12,3.64,0.18,7.29-0.05,10.93l-0.6,0.52
		c0.94,4.37,1.96,8.73,2.58,13.18c-2.08,4.02-4.77,7.72-8.06,10.84c3.08-2.83,7.13-3.7,11.01-4.82c3.82-3.72,8.8-7.39,9.52-13.06
		c4.47-8.63,7.66-18.04,13.69-25.79c1.02-1.35,1.47-3.01,1.29-4.69c0.84-1.35,1.67-2.73,2.17-4.24c3.32-3.57,5.94-7.91,7.39-12.58
		c2.46-3.86,4.27-8.16,6.46-12.19c1.87-4.11,4.79-7.93,5.03-12.59c0.38-3.84,1.22-7.64,1.34-11.49l0.12,0.38
		c1.41-5.21,2.85-10.42,4.31-15.61c0.85-2.78-0.26-5.62-0.59-8.37c-0.99-4.9-1.58-9.87-2.66-14.72c0.93-0.71,1.88-1.41,2.85-2.09
		c-0.44-2.01-0.81-4.03-0.94-6.06c1.51,1.94,1.99,4.43,2.99,6.66c1.28-0.67,2.58-1.32,3.79-2.16c1.39,2.77,2.99,5.46,4.03,8.41
		c2.1,5.92,5.14,11.58,5.78,17.94c1.47,6.01,0.98,12.2,1.25,18.32c-0.74,2.9-1.24,5.84-1.54,8.82c-0.52,5.17-2.3,10.08-3.78,15.02
		c-4.63,5.52-7.75,12.5-12.47,18.11c-4.44,5.26-8.02,11.18-12.76,16.18c-4,3.53-8.64,6.29-12.32,10.16c0.39,0.26,1.16,0.8,1.54,1.06
		c-2.92,2.33-7.99,4.88-6.42,9.42c2.54-1.24,4.32-3.51,6.38-5.38c4.88-4.6,10.43-8.61,14.38-14.1
		c8.99-11.02,16.96-22.93,22.92-35.86c3.84-6.82,7.22-14.03,8.76-21.75c0.97-4.96,2.75-9.75,3.34-14.78
		c1.63-3.68,3.45-7.85,2.71-11.9c-0.06-1.56-0.12-3.1-0.17-4.63c0.7,1.93,0.66,4.47,2.47,5.78c1.08-7.19-0.43-14.78-4.53-20.76
		l-0.03-0.33c-3.15-4.1-6.33-8.22-10.38-11.47c-2.77-1.91-3.34-5.36-4.74-8.18c-1.62-3.37-3.23-6.74-4.61-10.2
		c-5.81-18.98-16.24-36.06-25.37-53.56c-2.85-4.85-2.81-10.62-4.43-15.88c-1.01-3.28-0.09-6.76-0.84-10.07
		c-0.92-4.28-0.45-8.66-0.56-12.99c-0.12-7.34-0.11-14.68-0.12-22.02c-0.52-9.4-2.88-18.71-7.09-27.13
		c-0.96-2.68-2.15-5.29-3.56-7.74c-0.14-2.17-0.72-4.25-1.63-6.2c-3.65-8.23-6.49-16.89-11.32-24.54c-0.65-3.19-3.1-5.7-4.79-8.4
		c-6-7.33-12.07-14.88-19.94-20.26c-2.17-2.18-4.41-4.27-6.55-6.46l-0.28,0.21c-1.14-1.16-2.31-2.24-3.58-3.19
		c-1.27-0.99-2.46-2.01-3.73-2.95c-0.59-2.54-2.93-3.94-4.67-5.62c-4.44-4.11-9.68-7.22-15.06-9.91c-4.57-2.27-8.66-5.33-13.01-7.94
		c-1.48-0.86-3.04-1.92-4.82-1.5c-1.28-0.95-2.71-1.78-4.28-1.95c-1.27-2.27-3.66-3.46-5.73-4.84c-3.59-2.11-7.39-4.48-11.71-4.28
		c-6.42-3.32-12.76-7.31-20.23-7.49l-0.14-0.42c-1.58,0.08-3.61-1.06-4.87,0.03c-4.02-1.94-6.42-6.03-10.31-8.17
		c-4.01-4.8-9.61-8-14.78-11.42c-5.22-3.52-11.93-3.93-17.77-1.84c-3.4,0.67-6.75,1.56-10.03,2.61c-1.17-0.3-2.33-0.39-3.48-0.26
		c-5.92,0.89-11.92,0.19-17.86,0.52c-0.01-2.03,0.03-4.07-0.4-6.05c-0.11,2.17-0.15,4.36-0.31,6.54c-0.75,0.18-2.23,0.53-2.97,0.71
		c0.56-0.37,1.7-1.12,2.27-1.49c-0.12-2.04-0.2-4.08-0.24-6.11c-1.64-0.12-3.37-0.05-4.76-1.06l-0.11,0.63l-0.06-1.19
		c-1.42-0.14-2.76-0.31-4.14-0.39c-3.31-1.93-6.73-4.78-10.83-4.02c-1.23-5.97-2.14-14.39-9.6-15.49c4.73,3.82,5.69,10.2,5.85,15.91
		c-0.78-0.15-2.36-0.45-3.15-0.6c0.54,0.36,1.61,1.07,2.15,1.43c-2.42,0.75-4.19,3.26-6.85,3.06c-2.33-0.2-4.57,0.5-6.36,1.97
		c-1.44-3.33-1.13-7-0.91-10.51c3.68,1.67,7.5,3.15,11.52,3.78c-3.81-1.86-7.99-3.18-11.28-5.94c-1.91-2.97-1.94-6.89-4.47-9.54
		c-0.62-0.18-1.85-0.53-2.47-0.7c0.68,1.49,1.31,3.02,1.95,4.55c-2.51,0.52-2.61-3.09-3.02-4.79c-2.86-2.1-2.55-6.2-4.87-8.73
		c-1.37-2.17-3.88-2.86-6.3-2.7c4.66,1.96,6.7,7.35,6.83,12.09c-0.95,0.99-1.86,1.99-2.75,3c-2.69-2.49-6.39-5.28-10.05-2.9
		c3.61,0.15,8.17,2.49,6.37,6.82l-0.72,0.93c-2.66,2.03-4.82,4.65-7.67,6.43c-0.94-2.06-1.56-4.23-1.96-6.44
		c1.24-2.28,2.63-4.54,3.02-7.15c-1.33,1.96-2.51,4-3.7,6.04c-1.45-2.3-2.16-5.34-4.55-6.88c-0.14-0.52-0.42-1.55-0.56-2.06
		c1.89-2.56,4.18-4.78,6.14-7.29c-5.11,1.34-6.38,7.88-11.78,8.72l-0.08,0.56c-3.13,0.65-4.37-2.4-5.2-4.74
		c-4,0.83-6.67,4.39-8.37,7.86c-1.37-1.07-2.01-2.73-2.95-4.13c-0.26,3.25,1.08,6.45,0.62,9.79c-2.03,5.89-4.19,13.2,0.4,18.49
		c-0.08,1.72-0.42,3.41-1.08,5.01c-1.43,0.23-2.79,0.77-4.12,1.25c-1.29-5.17-2.63-10.54-1.4-15.86c-1.11,0.98-1.73,2.32-2.39,3.6
		c-0.29-6.03,2.14-11.61,2.99-17.46c-3.53,4.22-3.7,10.02-3.58,15.25c0.2,2.96-0.92,5.81-0.86,8.75c-0.21,3.14-0.3,6.3-0.52,9.45
		c-0.24,0.2-0.7,0.62-0.94,0.82c-2.02,0.24-3.98,0.66-5.88,1.34c0.67,0.11,2,0.34,2.66,0.46c-4.07,3.85-8.71,7.04-13.11,10.52
		l-0.58-1.23c2.02-2.6,4.02-5.23,6.31-7.61c-3.32,0.81-5.49,3.58-7.56,6.07c-2.27-0.84-4.6-1.59-7.04-1.48
		c-3.75-1.53-8-1.69-12.01-1.79c1.58,0.21,3.02,0.75,4.32,1.62c-0.89,0.34-2.68,1.01-3.58,1.35c-0.99,0.07-1.94,0.25-2.86,0.53
		c-0.09-0.71-0.26-2.15-0.35-2.86c-1.3,4.5-2.48,9.2-5.37,13c-2.62,3.34-5.48,6.48-8.51,9.46c-1.26,1.04-1.41,2.74-1.91,4.2
		c-9.8,2.32-19.47,5.36-28.41,10.04c-3.13,1.65-6.39,3.1-9.18,5.31c-4.55,3.47-10.59,4.32-14.82,8.25
		c-2.48,2.15-4.57,4.69-6.92,6.97c-3.88,3.82-8.47,6.79-12.52,10.41c-3.15,1.15-5.3,4.12-7.7,6.36c-3.93,4.08-8.48,7.51-12.1,11.89
		c-10.23,12.22-19.02,25.95-23.88,41.22c-1.47,4.34-1.26,9.2-3.69,13.22c-3.83,6.67-6.7,13.83-10.31,20.62
		c-2.3,4.36-6.12,8.09-6.89,13.12c2.93-4.06,5.62-8.3,8.25-12.56c3.47-5.65,5.21-12.19,8.92-17.71c1.19,7.96-2.61,15.95-7.67,21.95
		c-3.57,4.16-6.21,9.02-9.77,13.18c-2.52,3.22-6.39,4.96-8.98,8.11c-0.36-0.04-1.08-0.12-1.44-0.16c-0.2-0.74-0.61-2.24-0.82-2.98
		c-1.67,4.95-4.67,9.99-3.5,15.38c1.94-4.04,2.74-9.65,7.7-11.19c-1.6,6.23-5.36,12.28-3.79,18.94c-2.28,7.38-4.44,14.91-8.37,21.61
		c-1.78,2.87-1.59,6.58-0.73,9.73c3.44-6.02,4.63-13.18,7.79-19.41c-0.83,11.38-4.33,22.3-7.61,33.16
		c-1.94,5.79-3.14,11.82-3.39,17.93c-0.19,6.67-1.86,13.43-0.2,20.05c1.08-5.73,0.93-11.63,2.25-17.31
		c1.91-5.45,3.01-11.18,5.56-16.39c3.86-10.43,8.14-21.12,7.92-32.43c0.12-6.02-1.16-11.95-1.23-17.95l0.65-0.34
		c1.44-3.23,2.75-6.53,4.54-9.59c1.45-2.57,3.57-4.73,4.67-7.5c3.9-4.29,7.69-8.7,11.49-13.09c0.31,1.89,0.44,3.85-0.08,5.74
		c-1.46,5.82-2.59,11.72-3.26,17.69c-0.66,1.16-1.17,2.39-1.52,3.69c-2.97,2.43-1.55,7.04-2.2,10.4c-1.66,6.76-6.45,12.79-6,20.02
		c0.89-2.4,0.66-5.51,2.84-7.23c-0.1,4.78-0.69,9.52-1.16,14.27c-0.4,3.99-0.05,8.07-0.95,12.02c-2.26,10.8-7.1,20.87-9.28,31.7
		c-0.74,5.47-0.16,11.02-0.68,16.51c-0.88-1-1.61-2.11-1.89-3.39c-1.77-6.79-1.91-13.88-1.59-20.85c0.17-3.78,2.13-7.2,2.18-11
		c-2.62,6.32-3.86,13.13-3.54,19.98c-0.55,9.51,5.02,17.76,6.47,26.94c1.07-3.82,2.91-8.08,0.87-11.89
		c-0.1,1.73-0.16,3.47-0.23,5.22l-0.96-0.52c-1.55-3.79,0.45-7.77,0.14-11.68c-0.28-4.76,1.66-9.16,2.38-13.78
		c2.84-2.68,2.56-7.11,4.64-10.32c0.2,0.77,0.59,2.3,0.78,3.06c-2.85,4.48-2.21,10.07-2.48,15.14c1.16,5.53,2.19,11.21,4.8,16.29
		c0.8,2,2.26,4.02,1.71,6.29c-0.19,1.66-1.01,3.43-0.05,5.04c-0.84,2.49-1.66,4.99-2.57,7.46c-0.43,0.08-1.29,0.24-1.72,0.32
		c-0.18,3.45,0.18,6.91,0.99,10.27c1.39,6.05-0.85,12.11-0.41,18.21c0.51,1.78,2.08,2.99,3.19,4.43c-0.86,2.65-0.51,6,1.12,8.33
		c0.26-0.8,0.55-1.6,0.84-2.38c2.05-0.37,4.11-0.73,6.17-1.1c0.4,0.34,1.2,1.02,1.6,1.37c1.23-1.1,2.49-2.15,3.74-3.22
		c0.88,0.12,1.78,0.26,2.7,0.4c0.94-0.7,1.92-1.38,2.92-2.01c-0.24,1.25-0.63,2.5-1.46,3.52c-3.83,5.01-3.76,12.17-8.37,16.68
		c-2.21,2.25-3.26,5.3-4.92,7.94c-2.5,4.35-6.33,7.72-8.88,12.04c6.87-4.01,10.41-11.67,15.76-17.3c0.09,1.78,0.18,3.58,0.28,5.39
		c1.84-5.39,3.27-10.91,5.43-16.2c2.7-8.27,8.55-15.56,9.09-24.46c2.53-4.45,2.99-9.98,2.21-14.96c0.61-1.1,1.24-2.19,1.92-3.24
		c2.55,0.45,5.1,0.99,7.69,1.26c0.5,1.86,0.88,3.76,1.16,5.69c-0.28,1.72-0.43,3.44-0.55,5.19c-0.81,3.69-1.08,7.46-1.54,11.21
		c-1.21,3.24-1.49,6.89-2.78,10.19c-2.85,10.04-7.7,19.66-8.32,30.23c0.53,3.56,1.83,6.97,3.25,10.27c0.43,2.89,1.74,5.5,3.49,7.83
		c-1.83,3.45-4.73,6.15-6.7,9.5c-2.99,4.77-5.34,9.91-8.13,14.79c-1.5,2.25,0.21,4.6,1.32,6.58c-0.94,1.63-2.19,3.16-2.64,5.02
		c0,2.66,0.77,5.24,1.28,7.85c1.7-0.53,3.38-1.12,5.05-1.77c0.25,1.17,0.52,2.36,0.8,3.56c0.8-0.85,1.61-1.69,2.42-2.52
		c-0.08,1.74-0.83,3.71,0.32,5.3c1.65-4.53,4.39-8.82,4.96-13.65c3.6-4.38,6.85-9.14,8.16-14.75c4.45-6.03,12.19-8.5,16.27-14.86
		c3.26-3.37,7.47-5.95,12-7.24c-0.02,0.5-0.05,1.48-0.07,1.98c-2.35,4.98-8.13,6.92-10.58,11.89c-3.3,2.33-5.44,5.85-8.55,8.4
		c-4.1,3.39-6.33,8.34-9.5,12.51c-3.57,4.55-4.97,10.31-5.79,15.93c0.35-0.26,1.06-0.77,1.42-1.02c0.5,0.29,1.02,0.61,1.55,0.94
		c0.59-0.84,1.19-1.66,1.81-2.47c0.57,3.84,0,7.73,0.28,11.6c0.84-0.44,1.7-0.87,2.57-1.29c0.22,0.56,0.67,1.67,0.89,2.22
		c0.55,0,1.66-0.01,2.21-0.02c1.53-3.54,4.43-6.78,4.26-10.81c2.33-3.41,4.5-6.92,6.75-10.39c1.27-1.97,2.95-3.83,5.31-4.45
		c-1.22,3.65-3.6,7.04-3.53,11.02c0.81,5.8-3.56,10.44-4.75,15.89c-1.65,3.56-0.27,7.4-0.67,11.12c-0.08,1.36-0.52,2.94,0.61,4.04
		c0.67-1.64,1.3-3.28,1.9-4.94c0.25,1.66,0.53,3.32,0.87,4.99c3.25-3.32,1.94-8.58,4.25-12.43c2.89-5.2,4.6-11.04,8.27-15.78
		c3.95-5.22,6.95-11.06,10.56-16.51c3.66-5.88,7.78-11.84,9.44-18.64c3.27-3.47,3.73-9.38,8.44-11.39c0.14,0.74,0.44,2.22,0.59,2.96
		c-0.39,0.77-0.74,1.56-1.07,2.37c-2.4,1.6-3.07,4.59-3.41,7.28c-0.38,3.18-2.31,5.86-3.18,8.9c-2.4,1.92-3.41,4.94-5.08,7.41
		c-4.54,7.06-7.38,15.03-11.99,22.04c-2.78,4.33-4.77,9.08-7.16,13.63c-2.71,4.82-3.08,10.46-3.87,15.83
		c1.78-1.34,3.44-2.86,4.74-4.69c0.52,3.13,0.98,6.27,1.33,9.44c1.42-0.54,2.89-0.98,4.4-1.26c5.17-9.06,7.39-20.27,15.95-27.08
		c-0.09,2.85-1.17,5.95,0.42,8.58c2.69,0.3,5.4,0.57,8.12,0.8c1.36-1.18,2.52-2.56,3.17-4.25c0.21-0.36,0.62-1.08,0.82-1.43
		c1.2,0.99,2.78,1.7,3.63,3.08c-1.65,2.84-4.48,5.16-4.58,8.7c-12.8,5.31-24.78,12.34-36.55,19.59c-3.27-1.62-6.24-3.74-9.32-5.66
		c-1.93-1.65-4.1-2.96-6.17-4.39c-2.78-1.85-5.74-3.38-8.84-4.59c-1.52-0.45-2.07-2.03-2.74-3.25c-2.99-6.76-7.75-12.54-10.73-19.31
		c-1.64-4.29-5.23-7.26-8.12-10.66c-5.38-5.67-10.17-11.9-16.12-16.99c-14.15-13.16-27.88-26.76-41.98-39.97
		c-28.31-28.06-56.1-56.61-84.39-84.69c-6.26-6.43-13-12.42-18.56-19.5c-6.57-6.91-10.5-15.7-15.17-23.88
		c-4.91-8.87-10.44-17.38-15.89-25.92c-8.37-9.62-17.71-18.38-25.72-28.31c-7.38-9.3-11.18-20.7-16.76-31.04
		c-4.68-8.47-12.1-14.82-19.48-20.84c-2.04-1.6-4.37-2.92-5.81-5.13c-4.84-6.95-8.86-14.43-13.5-21.51
		c-5.34-8.14-11.72-15.53-18.19-22.78c-4.19-4.65-6.49-10.7-7.95-16.7c-0.76-3.27-2.39-6.34-4.84-8.64
		c-3.49-3.77-9.04-5.55-11.14-10.56c-3.18-7.67-2.79-16.33-6.21-23.94c-6.42-12.53-15.22-23.64-22.28-35.8
		c-13.05-20.93-23.23-43.43-34.61-65.27c-7.98-16.14-16.82-31.83-25.42-47.64c-3.67-6.87-8.08-13.29-12.04-19.98
		c-11.62-18.77-23.22-37.54-34.78-56.34c-20.9-34-42.41-67.68-61.04-103c-9.41-17.27-17.77-35.09-26.08-52.9
		c-3.4-7.18-6.26-14.63-10.33-21.47c-2.27-6.54-5.98-13.66-13.23-15.56c-1.5-2.57-2.95-5.18-4.44-7.75
		c-4.01-6.48-9.87-11.48-14.71-17.3c-7.81-8.78-17.57-15.48-27.44-21.72c-17.09-10.14-35.79-17.06-53.89-25.11
		c-9.59-5.01-18.6-11.13-28.57-15.42c-4.2-1.95-8.57-3.72-12.25-6.59c-7.52-6.9-19-5.83-26.99-11.96
		c-5.71-3.69-11.57-7.14-17.36-10.7c-10.93-6.7-23.87-9.3-34.46-16.64c-6.84-4.99-15.17-7.1-23.02-9.89
		c-4.14-1.54-8.62-1.8-12.73-3.39c-5.58-2.8-9.59-7.96-15.3-10.56c-3.92-1.76-7.96-3.27-11.73-5.36
		c-7.03-4.05-15.09-6.72-23.26-6.61c-0.33,2.05,0.37,3.96,1.8,5.44c-2.6,3.71-2.47,8.79-0.08,12.57
		c4.35,8.89,13.42,13.64,21.37,18.78c5.56,3.78,11.57,6.9,16.56,11.45c7.23,4.29,14.8,8.03,22.2,12.05
		c-4.67-0.05-9.43,0.2-13.89,1.69c-7.95,2.44-14.86,7.19-22.08,11.15c-8.07,4.73-16.3,9.27-23.61,15.15
		c-8.93,6.16-18.64,11.74-25.44,20.41c-8.2,5.96-18.72,11.63-21.04,22.38c1.4-0.11,2.78-0.3,4.15-0.56
		c1.47,2.27,3.31,4.35,5.76,5.57c3.78,2.5,8.48,1.1,12.63,0.56c-3.54,4.13-7.44,8.15-9.52,13.26c-0.65,1.89-1.9,3.97-0.62,5.89
		c1.42,0.62,2.65-0.49,3.84-1.09c2.1,2.81,5.2,5.17,8.92,4.65c10.64,0.17,18.68-7.71,26.04-14.32c3.19-2.44,4.95-6.65,9-7.87
		c11.12-4.11,22-8.92,32.25-14.89c2.11-1.09,4.24-2.89,6.8-2.25c4.53,1.37,8.93,3.32,13.69,3.79c4.78,0.8,9.65,0.22,14.44,0.86
		c-9.4,2.5-18.94,4.5-28.31,7.11c-4.43,1.38-8.06,4.68-10.43,8.6c-3.89,6.36-8.47,12.25-12.68,18.38
		c-5.18,4.31-10.25,8.86-16.2,12.11c-4.33,3.97-9.58,6.92-13.39,11.46c-1.28,1.47-1.3,3.45-0.87,5.25c1.35,1.13,3.03,1.46,4.76,1.4
		c1.68,1.62,3.34,3.43,5.64,4.16c4.84,1.86,10,0.04,14.59-1.67c5.64-2.3,11.61-4.88,15.37-9.9c5.1-7.35,14.07-10.45,19.91-17.06
		c2.01-2.17,3.93-5.09,7.17-5.33c11.15-0.56,22.14-2.66,33.22-3.88c4.63,0.13,8.07,3.87,12.38,5.16c6.88,2.88,14.47,2.05,21.66,3.36
		c4.45,0.69,8.33,3.12,12.05,5.51c-7.44,1.65-14.93,2.99-22.55,3.38c-8.73,2.15-17.78,2.63-26.45,5.06
		c-10.8,2.99-21.49,7.73-29.27,15.99c-4.92,7.15-0.5,18.27,7.66,20.8c8.33,4.72,18.22,4.57,27.49,4.36
		c8.92-0.45,17.79-2.06,26.35-4.61c6.66-2.66,13.66-4.38,20.71-5.67c6.86-1.21,13.88-2.36,20.85-1.32c4.95,0.76,9.98-0.11,14.93,0.5
		c5.64,1.52,11.35,2.89,17.18,3.41c6.85,0.16,13.7,0.02,20.55,0.06c0.32,1.66,0.63,3.33,1.03,4.98
		c5.72,17.3,12.94,34.12,18.74,51.43c6.25,17.37,11.68,35.03,17.1,52.68c12.81,46.44,24.47,93.19,37.37,139.61
		c5.78,18.63,11.54,37.26,17.42,55.86c5.86,14.73,12.07,29.33,18.02,44.03c3.68,7.88,7.59,15.65,11.3,23.51
		c4.75,9.28,8.59,19.03,14.05,27.94c10.99,20.24,23.37,39.69,36.52,58.58c11.5,16.43,24.87,31.52,35.37,48.65
		c5.71,8.74,11.09,17.7,16.25,26.79c13.75,23.55,28.18,46.74,43.92,69.03c10.41,15.14,20.47,30.56,31.9,44.97
		c6.06,7.92,12.02,15.94,18.71,23.36c7.32,8.08,13.42,17.18,20.75,25.26c13.64,16.03,27.99,31.46,40.76,48.21
		c10.63,13.7,22.08,26.79,31.73,41.22c6.06,8.72,12.29,17.35,17.24,26.78c3.49,6.9,8.83,13.04,10.23,20.82
		c4.27,15.02,7.69,30.28,12.87,45.03c7.08,23.19,15.08,46.08,23.21,68.92c4.15,10.12,8.3,20.25,12.49,30.37
		c2.72,7.55,6.82,14.45,10.3,21.66c4.25,7.54,7.53,15.59,12.07,22.98c5.04,8.31,9.4,17.06,15.34,24.79c2.01,3.23,5,5.97,6.23,9.63
		c1.33,12.14,3.49,24.18,5.85,36.16c0.18,3,0.86,6,1.56,8.95c-0.56,8.47-3.56,16.43-6.22,24.41c-7.08,19.06-16.04,37.37-23.03,56.47
		c-4.13,9.33-6.93,19.17-10.44,28.74c-1.5,5.97-3.37,11.85-4.7,17.87c-2.03,7.19-2.17,14.73-3.75,22.02
		c0,10.96-0.74,22.05,1.41,32.89c1.56,7.3,2.14,14.86,4.98,21.84c1.44,3.44,1.82,7.21,3.43,10.6c2.14,5.91,5.34,11.34,7.8,17.12
		c13.49,24.93,33.39,45.52,48.84,69.16c12.06,21.6,19.89,45.14,30.45,67.46c8.72,20.75,20.54,39.96,31.65,59.49
		c9.52,15.63,18.98,31.33,27.57,47.51c9.11,16.15,18.74,32.13,30.6,46.44c7.99,10.88,17.33,20.71,27.54,29.54
		c5.61,4.5,9.8,10.38,13.46,16.51c9.78,16.55,20.23,32.71,31.95,47.96c7.26,9.77,14.24,19.75,21.28,29.7
		c17.24,25.77,36.37,50.22,55.96,74.23c7.46,8.8,14.36,18.1,22.41,26.4c9.37,9.31,18.53,18.85,28.3,27.76
		c5.7,5.61,12.61,10.15,16.96,17.01c3.96,5.62,8.12,11.17,13.08,15.99c3.55,3.75,7.62,7.07,10.67,11.3
		c3.99,5.31,6.08,11.72,9.64,17.3c3.41,5.76,8.79,9.88,13.46,14.55c4.05,3.87,5.34,9.52,7.43,14.52
		c3.88,9.98,12.36,17.02,18.3,25.72c4.62,5.35,3.62,12.89,5.66,19.27c3.54,7,3.98,15.13,3.28,22.84c-0.36,4.06-1.25,8.39,0.6,12.25
		c1.45,4.98,2.23,10.51,0.51,15.54c-0.83,5.1-0.95,10.37-0.19,15.51c0.34,3.07,3.13,4.86,5.22,6.82
		c0.65,18.59,0.55,37.22,2.32,55.76c0.84,11.61,0.94,23.29,2.43,34.86c1.36,12.5,2.86,24.99,4.02,37.52
		c9.53,74.25,22.12,148.07,35.62,221.69c3.54,20.58,8.26,40.93,12.28,61.42c4.7,22.17,9.93,44.23,14.26,66.48
		c4.85,20.9,9,41.95,13.06,63.02c4.09,26.87,9.49,53.51,14.57,80.2c4.16,21.56,8.95,42.99,14.02,64.36
		c1.89,10.36,5.86,20.22,7.76,30.58c2.18,21.05,11.05,40.48,16.96,60.6c3.55,11.16,8.98,21.57,13.88,32.18
		c4.3,9.67,6.49,20.09,9.49,30.21c1.75,5.4,1.98,11.12,2.91,16.71c1.65,12.35,3.5,24.69,5.05,37.06c1.05,14.66,2.02,29.33,2.98,44
		c0.15,38.75,0.43,77.5,3.2,116.17c1.84,27.6,3.47,55.23,3.19,82.91c0.24,24.06-1.13,48.09-2.55,72.11
		c-2.04,24.33-3.93,48.67-5.79,73.01c-4.87,46.85-9.26,93.77-15.95,140.41c-3.39,23.36-6.75,46.75-11.41,69.9
		c-2.2,8.95-4.55,17.87-5.6,27.06c-2.66,17.41-5.47,34.88-5.74,52.53c-0.43,8.66-0.78,17.33-0.63,26.02
		c0.28,8.67-0.88,17.34-0.06,26.02c0.18,10.02,0.53,20.04,2.01,29.98c2.53,25.57,7.67,50.77,12.94,75.9
		c3.85,17.73,5.04,36.07,2.67,54.11c-1.49,10.97-1.53,22.12-3.69,33.02c-2.17,11.25-5.16,22.43-5.9,33.91
		c0.72,7.34,0.32,14.94,2.88,21.99c2.67,9.03,5.84,17.92,8.23,27.05c3.68,12.85,4.84,26.34,9.54,38.92
		c2.59,6.43,4.85,13.01,7.69,19.37c4.52,9.53,8.21,19.68,15.09,27.87c2.78,3.66,8.15,4.57,12.28,2.88
		c10.47-4.81,19.3-15.01,19.05-27.04c1.89,2.62,4.2,5.39,7.64,5.91c6.98,0.72,13.76-2.93,18.37-7.95c3.22-4.36,3.51-10.26,2.1-15.32
		c3.45,0.49,6.71-0.99,9.4-3.02c6.86-4.82,8.77-14.2,6.96-21.99c-1.43-4.62-3.78-8.88-6.04-13.12c-2.31-4.26-7.05-6.61-8.94-11.13
		c-2.06-4.7-3.54-9.64-4.46-14.66c1.52,4.57,2.97,9.31,6.06,13.14c3.87,5.22,7.89,11.49,14.69,13.03c5.26,0.17,8.78-4.66,11.43-8.57
		c4.4-7.66,2.25-17.18-2.59-24.08c2.77,1.58,5.91,2,9.07,1.7c6.01-2.84,9.57-9.48,9.29-16.01c0.43-10.6-4.64-20.18-7.78-29.98
		c-0.4-2.26-2.27-5.09-0.18-6.96c5.64-7.2,12.81-14.03,14.45-23.37c2.43-6.01,3.47-12.41,5.3-18.58
		c2.91-11.29,7.09-22.18,10.96-33.15c3.5-9.1,5.28-18.82,9.74-27.54c4.56-9.33,8.77-18.86,14.19-27.73
		c5.62-8.47,10.77-17.23,15.99-25.94c2.31-3.55,2.72-7.86,4.08-11.76c1-4.27,3.42-8.45,2.35-12.91c-0.26-5.29-2.21-10.24-3.96-15.15
		c-8-16.93-19.29-32.35-33.46-44.63c-8.19-6.71-18.17-10.5-27.13-15.98c-3.89-2.65-8.28-4.85-10.86-8.94
		c-3.59-3.9-5.88-9.03-5.79-14.36c-0.61-5.41,1.47-10.56,2.36-15.8c1.13-6.49,3.26-12.77,4.04-19.31
		c3.12-20.06,6.08-40.19,10.79-59.94c4.58-20.76,10.2-41.26,14.95-61.96c2.58-13.58,6.83-26.73,10.66-39.97
		c6.98-28.84,15.85-57.17,23.6-85.8c7.35-23.02,11.57-46.96,20.16-69.58c7.32-18.05,14.09-36.38,19.01-55.24
		c3.21-10.09,4.66-20.61,6.83-30.94c2.97-13.14,3.57-26.64,5.39-39.95c1.84-12.41,1.47-24.97,2.22-37.45
		c0.23-9.36,1.23-18.71,0.59-28.05c-0.69-12.35-1.11-24.72-1.96-37.05c-1.63-12.2-3.46-24.37-5.27-36.52
		c-3.39-13.32-6.02-26.85-10.68-39.8c-3.83-12.18-7.8-24.31-11.47-36.53c-6.15-20.22-13.56-40.14-17.37-60.99
		c-2.01-12.08-5.36-23.89-6.77-36.06c-1.98-16.95-3.53-33.94-5.68-50.85c-1.39-10.07-2.59-20.15-3.55-30.26
		c-0.69-13.71,0.74-27.38,1.79-41.02c3.02-24.28,3.87-48.76,6.75-73.05c3.19-19.39,6.22-38.82,7.9-58.41
		c1.76-13.8,1.9-27.73,2.97-41.58c2.34-23.23,2.16-46.61,3.84-69.89c1.76-25.63,3.46-51.27,3.98-76.95
		c0.46-11.02,1.07-22.06,0.34-33.07c-0.18-11.66,0.28-23.33-0.38-34.96c-1.12-23.29-1-46.61-1.66-69.9
		c-0.04-34.86,3.58-69.59,7.44-104.19c1.36-10.29,3.13-20.81,8.44-29.88c4.73-8.35,8.41-17.24,13.06-25.63
		c5.16-10.02,10.12-20.15,14.79-30.41c3.93,0.29,7.84,0.92,11.79,1.27c2.74-1.01,4.04-3.86,5.26-6.29
		c2.58-5.82,4.64-11.91,5.46-18.24c2.25-9.08,5.92-17.75,8.39-26.77c3.6-11.97,6.53-24.14,8.85-36.43
		c14.94-2.77,30.16-3.56,45.11-6.27c24.4-3.82,48.83-7.59,73.09-12.25c18.02-4.26,36.17-7.97,54.01-12.96
		c41.11-11.08,82.11-22.59,123.07-34.21c46.58-13.52,93.14-27.14,140.01-39.65c18.11-4.7,36.04-10.68,54.74-12.61
		c13.83-1.73,27.58-4.06,41.37-6.09c12.39-1.68,24.51-4.86,36.76-7.33c10.08-2.02,20.01-4.72,30.02-7.09
		c19.13-4.95,38.45-10.01,56.04-19.25c9.87-4.71,19.29-10.42,29.59-14.22c8.54-3.24,17.08-6.52,25.17-10.81
		c10.21-4.77,20.25-10,29.42-16.6c6.99-4.69,14.24-9,21.44-13.39c8.68-4.75,17.57-9.11,26.38-13.62
		c8.49-3.71,17.26-6.79,25.88-10.22c12.21-5,25.19-7.6,38.07-10.23c22.02-5.03,44.6-6.76,67-9.32c22.96-1.8,45.22-8.19,67.99-11.35
		c11.72-1.85,23.33-4.38,35.08-6.14c14.33-2.46,28.58-5.56,43.06-7.09c24.03-2.89,47.95-6.6,72.01-9.31
		c13.13-2.04,26.28-3.98,39.39-6.19c22.42-5.03,45.22-8.02,67.98-11.03c37.97-5.67,76.09-11.95,114.58-11.97
		c13.96,0.02,27.87,3.9,41.85,1.77c6.69-1.17,13.62-1.39,20.1-3.64c4.08-1.47,8.45-2.19,12.37-4.14c4.52-2.68,9.56-4.27,14.32-6.48
		c4.86-2,10.16-2.52,15.27-3.72c6.21-0.95,12.01-3.47,18.06-5.14c6.72-2,13.78-2.91,20.3-5.63c14.33-5.41,28.92-10.02,43.63-14.29
		c18.72-5.18,36.9-12.07,54.95-19.23c17.7-6.47,36.26-10.71,55.1-11.91c15.34-1.71,30.58-4.78,45.27-9.61
		c7.08-2.02,13.92-5.55,18.99-10.98c8.24-7.36,17.42-13.61,27.1-18.91c7.33-4.05,14.07-9.19,19.92-15.19
		c5.89-6.76,13.15-12.16,18.98-18.98c3.93-4.45,9.64-7.35,12.3-12.88C3609.04,1771,3608.81,1768.08,3608.5,1765.47z M1483.93,672.22
		c4.71,4.24,8.67,9.23,13.23,13.63c5.25,4.87,9.5,10.95,11.64,17.83c1.32,4.48,3.65,8.56,5.77,12.71
		c4.38,8.32,7.85,17.15,10.27,26.25c-0.04,6.95,1.8,13.88,0.5,20.83c-2.83-8.79-5.58-17.62-9.77-25.87
		c-2.13-4.7-4.1-9.47-5.98-14.26c-6.46-18.12-15.78-35.25-27.11-50.78C1482.85,672.47,1483.57,672.3,1483.93,672.22z M992.23,857.99
		c-0.13-2.61,0.35-5.19,1.18-7.65c3.24-9.93,6.69-19.92,7.8-30.36c0.39-3.36,0.74-6.73,1.38-10.05
		C1005.97,826.75,997.9,842.65,992.23,857.99z M1014.78,875.06c-1.31,6.24-0.9,12.65-1.23,18.99c-1.17-4.63-2.99-9.3-2.2-14.15
		c0.96-6.45,1.61-13.09,4.39-19.06C1015.89,865.59,1015.81,870.39,1014.78,875.06z M1125.24,634.86c0.74,0.61,1.48,1.25,2.22,1.9
		c-4.22,2.39-8.62,4.92-11.29,9.11c-5.87,1.59-11.24,4.5-16.88,6.67C1105.67,644.13,1114.65,636.92,1125.24,634.86z M1114.86,648.34
		c-0.67,1.57-1.24,3.19-1.7,4.84c0-0.58,0-1.74-0.01-2.32c-8.39,2.47-15.78,7.24-22.89,12.19c-0.17-0.56-0.52-1.67-0.69-2.22
		c2.17-1.72,4.35-3.46,6.76-4.85c3.47-1.76,6.94-3.53,10.41-5.31C1109.29,649.47,1111.91,647.82,1114.86,648.34z M1093.07,652.96
		c2.79-2.93,5.22-6.37,8.94-8.2c-2.64,3-5.68,5.62-8.36,8.59c-2.93,3.02-5.73,6.28-9.37,8.46c-1.18,0.37-2.35,0.71-3.52,1.03
		C1085.19,659.99,1089.51,656.87,1093.07,652.96z M1072.27,672.06c3.93-1.93,6.96-6.54,11.64-6.33c-2.23,2.6-4.07,5.52-6.52,7.92
		c-6.56,6.67-13.44,13.07-19.5,20.21c-3.4,3.75-5.49,8.72-9.82,11.57C1049.76,690.98,1060.87,679.96,1072.27,672.06z M1046.85,713.8
		c3.77-10.22,11.04-18.7,18.74-26.2c3.78-3.43,6.91-7.54,10.94-10.68c0.05,3.83-1.01,7.93-3.93,10.6
		c-10.19,10.68-18.67,22.79-26.33,35.37C1046.5,719.86,1046.02,716.74,1046.85,713.8z M1040.97,709.68c1.94-3.71,3.82-7.45,6-11.02
		c-0.44,5.09-1.18,10.22-2.95,15.04c-2.31,3.19-4.52,6.47-7.11,9.45C1037.95,718.56,1040.01,714.28,1040.97,709.68z M1034.92,731.54
		c0.94-1.67,1.87-3.35,2.89-4.97c2.18-2.66,3.88-5.66,5.8-8.5c0.17,0.52,0.49,1.55,0.66,2.07c-0.22,1.77-0.41,3.56-0.58,5.35
		c-1.07,6.96-5.4,12.8-8.55,18.94c-0.48,0.02-1.46,0.04-1.94,0.06C1034.04,740.21,1034.94,735.92,1034.92,731.54z M1021.6,803.19
		c0.53,0.1,1.61,0.3,2.14,0.39c-0.03-1.5-0.63-3.18,0.4-4.48c2.51-3.84,5.84-7.08,8.24-11c4.94-6.37,7.98-14.31,14.31-19.48
		c-0.05-3.01,0.73-5.93,2.17-8.57c0.08,0.51,0.26,1.55,0.35,2.06c-2.42,4.59-1.58,9.71-1.8,14.67c-4.72,5.64-7.87,12.44-12.56,18.14
		c-2.99,4.59-7.38,7.91-11.78,11.05c-1.36,0.97-2.72,1.92-4.1,2.86C1019.73,806.89,1020.61,805.01,1021.6,803.19z M1029.89,811.27
		c0.08,0.45,0.24,1.37,0.32,1.83c-0.62,2.01-1.26,4.03-1.94,6.03c-1.15,0.91-2.3,1.83-3.39,2.81c-0.08-1.8-0.17-3.57-0.17-5.35
		c-2.45,0.49-3.23-1.79-4.14-3.53c1.8-2.23,3.54-5.34,6.92-4.92c-0.18,2.09-0.7,4.14-1.15,6.2
		C1027.5,813.3,1028.69,812.27,1029.89,811.27z M1026.7,923.02c1.91,2.44,3.63,5.04,4.78,7.96c-1.01,1.64-2,3.29-3,4.95
		c-1.82-4.94-3.34-10.01-5.88-14.64c0.58-1.29,1.09-2.6,1.67-3.88c0.52-1.13,1.08-2.23,1.66-3.32c0.35,0.93,1.05,2.8,1.39,3.73
		c0.21,0.72,0.43,1.45,0.66,2.2c-0.55,0.84-1.08,1.71-1.55,2.61L1026.7,923.02z M1019.21,869.39c-0.35-2.29-1.05-4.6-0.49-6.9
		c2.28-10.14,2.59-20.95,7.59-30.29c0.33,0.48,0.98,1.43,1.31,1.9c-0.46,11.23-3.3,22.5-1.29,33.71c0.85,6.49-1.8,12.72-1.73,19.18
		c-0.06,1.63-0.36,3.25-0.68,4.87c-1.61,2.59-3.53,4.97-5.58,7.23C1018.66,889.19,1020.08,879.3,1019.21,869.39z M1034.05,951.15
		c-0.52-1.37-0.61-2.83-0.58-4.27c-1.42,0.06-1.58,1.54-2.07,2.58c-3.21-0.73-4.4,2.88-6.52,4.48c-0.83,1.01-1.8,0.27-2.55-0.3
		c-1.11,0.43-2.22,0.88-3.31,1.35c0.46-4.36,2.23-8.5,2.28-12.9c-0.58-5.22-2.03-10.73,0.08-15.81c2.45-0.4,2.75,2.97,3.73,4.59
		c1.48,2.59,1.07,6.3,3.3,8.35c0.48-0.98,1.23-1.73,2.3-1.95c0.38-1.82,0.87-3.61,1.84-5.2c2.17,3.74,3.88,7.79,4.92,12.01
		C1037.33,946.72,1035.99,949.33,1034.05,951.15z M1053.26,904.49c-0.82-0.17-2.44-0.51-3.25-0.68c1.44-2.02,4.2-3.84,3.61-6.65
		c-1.32-3.82-4.06-6.92-5.82-10.51l-0.37-0.02c-2.72,2-3.45-2.67-4.01-4.45c-0.23,0.66-0.69,2-0.93,2.66
		c-2.08-1.02-4.12-2.27-4.77-4.64c0.16-0.68,0.49-2.03,0.66-2.7c0.5,0.55,1.51,1.67,2.01,2.22c0.36-1.43,0.72-2.86,1.1-4.27
		c0.58-0.44,1.17-0.87,1.78-1.28c0.52,2.46,1.26,4.89,2.41,7.15c0.21-3.64-1.53-8.14,1.74-10.89c5.13-5.28,8.61-12.02,9.96-19.25
		c1.49-4.9,1.22-10.06,2.09-15.04c2.08-3.78,4.31-7.5,5.54-11.68c4.67-1.41,3.16-6.85,4.35-10.46c2.42-8.44,1.23-17.7,5.21-25.71
		c1.14-0.62,2.32-1.22,3.45-1.89c-0.87,5.38-0.78,10.86-0.02,16.25c0.18,2.85,0.78,5.83-0.13,8.63c-2.24,7.34-4.29,14.75-5.56,22.33
		c-2.49,4.61-3.06,9.91-5.09,14.71c-2.65,6.55-3.72,13.62-3.42,20.66c-0.14,3.43,0.8,7.28-1.3,10.31c-3.06,2.4-5.81,5.26-7.49,8.79
		c-0.67,0.93-0.27,2.02-0.11,3.04c2.94-2.41,5.6-5.16,8.62-7.49c-0.49,4.72-1.76,9.32-2.37,14.03
		C1058.58,900.01,1056.11,902.47,1053.26,904.49z M1065.91,982c-1.88,2.6-3.1,5.59-4.54,8.44c-1.44-2.59-2.33-5.47-2.24-8.44
		c-0.23-3.14,2.19-5.5,3.47-8.14c3.75-1.13,7.53-2.24,11.44-2.74C1072.44,975.51,1068.5,978.27,1065.91,982z M1069.16,949.49
		l-0.15-0.63c1.11-3.21,2.4-6.38,3.2-9.69c1.6-4.68-2.47-9.27-0.35-13.94c2.43,5.23,5.08,10.44,8.78,14.91
		C1077.92,944.45,1073.23,946.71,1069.16,949.49z M1081.8,775.31c-0.76,2.24-1.65,4.47-3.01,6.43c-1.21,1.01-2.45,1.97-3.69,2.94
		c0.8-4.84,1.46-9.8,3.55-14.28c0.79-2.16,3.43-3.54,5.58-2.47C1083.36,770.37,1082.56,772.83,1081.8,775.31z M1096.11,749.76
		c-0.73,1.67-1.75,3.21-2.95,4.59c-1.87,1.9-3.65,3.9-4.99,6.22c-0.89-0.77-1.77-1.54-2.64-2.29l0.25-0.38
		c4.17-6.73,7.54-13.93,11.51-20.79C1098.38,741.37,1096.51,745.54,1096.11,749.76z M1083.7,677.52c-1.57,1.08-3.16,2.15-4.73,3.22
		c1.12-5.8,4.3-11.22,9.34-14.44c7.6-4.46,14.18-10.84,22.78-13.44c-1.04,1.74-2.07,3.49-3.18,5.19
		C1100.2,664.97,1091.89,671.19,1083.7,677.52z M1127.86,706.29c-0.08-0.56-0.23-1.66-0.31-2.22c-3.84,7.36-6.82,15.15-11.1,22.28
		c-1.86,3.2-3.88,6.38-4.8,10.02c-0.6,0.68-1.18,1.36-1.74,2.06c-1.46,1.36-2.93,2.72-4.33,4.13c2.4-8.11,4.66-16.3,5.32-24.78
		c1.54-3.35,3.51-6.48,5.18-9.76c0.7-1.38,1.36-2.77,1.95-4.19c0.03,0.52,0.08,1.58,0.11,2.1c3.73-3.86,7.41-7.8,11.38-11.43
		c0.79-0.97,1.97-1.2,3.18-1.09C1131.52,697.86,1129.5,702,1127.86,706.29z M1133.35,687.45c-2.52,1.92-4.86,4.06-7.36,6.01
		c-0.39-0.05-1.17-0.14-1.56-0.19c3.72-4.79,7.63-9.46,10.9-14.58c0.3,0.62,0.91,1.85,1.22,2.46
		C1135.33,683.17,1134.35,685.32,1133.35,687.45z M1138.95,628.73c-1.51,0.95-3,1.9-4.52,2.81c-2.76,1.99-6.28,0.96-9.42,1.16
		c5.65-2.43,11.14-5.51,17.2-6.81C1141.15,626.88,1140.12,627.9,1138.95,628.73z M1156.73,627.48c-4.02-2.73-8.58,1.03-12.84,1.29
		c4.3-2.89,8.96-5.8,14.31-5.9c-0.8,1.15-1.6,2.31-2.38,3.48c1.05,0.25,2.11,0.49,3.19,0.73
		C1158.23,627.21,1157.47,627.34,1156.73,627.48z M1151.15,621.7c-0.06-2.01,1.78-3.17,2.95-4.53c3.69-3.69,6.94-7.79,9.68-12.24
		c0.35,4.91,0.6,10.27-2.28,14.54C1158.26,620.94,1154.6,621.03,1151.15,621.7z M1181.72,616.65c-2.06,1.42-4.77,1.11-7.12,1.51
		c-3.77,0.12-7.5,0.69-11.2,1.31c2.39-5.9,2.12-12.26,1.53-18.47c3.68-1.17,7.54-1.53,11.37-1.98c1.61,0.83,3.23,1.68,4.85,2.53
		C1185.06,605.65,1183.25,611.88,1181.72,616.65z M1183.6,617.39c0.39-3.39,0.86-6.78,1.77-10.07c1.44,1.53,3.08,2.9,4.82,4.11
		c1.21,1.87,2.17,3.89,3.07,5.94C1190.03,617.47,1186.81,617.46,1183.6,617.39z M1205.04,616.57c-0.24-3.13,1.27-6.61-0.52-9.46
		c-0.6,3.06-0.95,6.15-1.3,9.25c-2.72-0.02-5.61-0.94-7.11-3.35c-2-3.26-3.97-6.53-6.11-9.7c4.83-3.63,8.83-8.78,14.67-10.78
		c0.13,3.84-0.1,7.69-0.05,11.53c0.83,2.33,2.15,4.48,2.65,6.94C1206.88,612.96,1207.25,615.61,1205.04,616.57z M1213.69,591.95
		c-0.5,3.4-0.8,6.84-1.12,10.27c-0.84-1.44-1.7-2.88-2.47-4.34c0.04-0.61,0.12-1.83,0.17-2.44c0.53-2.88,0.95-5.78,1-8.71l0.06-0.77
		c1.1-0.68,2.21-1.35,3.35-2.01C1214.42,586.62,1214.05,589.28,1213.69,591.95z M1225.64,555.98c-0.59,1.7-1.48,3.71-3.47,4.02
		c-0.81-1.68-1.59-3.36-2.36-5.04c0.84-2.11,1.92-4.13,3.42-5.86C1226.61,549.57,1225.83,553.53,1225.64,555.98z M1240.36,576.79
		l-1.08,0.62c-1.06-1.09-2.89-1.7-3.28-3.24c0.97-4.07,2.06-8.12,2.54-12.29c-0.59,0.07-1.77,0.22-2.36,0.29
		c-1.3,3.43-0.5,7.34-2.65,10.51c-0.55-4.15-2.08-8.6-0.15-12.63c0.79-1.89,1.65-3.88,0.83-5.93c0.7-0.82,1.43-1.63,2.22-2.39
		c3.09,4.45,4.85,9.64,6.11,14.88C1243.29,570.14,1241.63,573.58,1240.36,576.79z M1247.91,574.23c-0.61-1.69-1.59-3.4-1.15-5.25
		c1.46-2.39,3.21-4.7,5.57-6.3C1251.55,566.62,1251.4,571.65,1247.91,574.23z M1264.44,568.51c-1.26-1.78-3.6-1.91-5.5-2.43
		c3.18,1.2,4.74,4.05,5.45,7.24l-1.2-0.37c-1.99-1.32-3.94-3.62-6.57-2.53c-0.28-1.12-0.73-2.36-0.06-3.43
		c1.91-3.09,4.74-5.47,6.75-8.5c-3.38,2.1-5.54,5.55-8.55,8.08c0.35-2.58,0.68-5.16,1.09-7.73l0.71-0.79
		c1.45-1.63,2.98-3.18,4.53-4.72c1.89,3.2,4.63,5.74,7.53,8.03c-0.04,4.14,0.2,8.28,0.91,12.38
		C1266.33,573.89,1265.97,570.49,1264.44,568.51z M1416.35,628.26c-3.28-1.9-7.24-0.78-10.66-1.93c-3.39-2.69-6.74-5.44-9.92-8.37
		c3.47-0.45,6.96-0.82,10.43-1.41C1410.03,620.04,1413.04,624.29,1416.35,628.26z M1357.17,590.67c4.37-0.93,8.83-0.06,13.25-0.01
		c3.77,2.01,7.33,4.41,10.87,6.83c-4.69,0.46-9.4,0.7-14.1,0.8C1364.32,595.17,1360.51,593.19,1357.17,590.67z M1368.39,1126.63
		l-1.49-0.71c-0.38-2.88-0.65-5.77-1.14-8.62c1.01-5.21,1.16-10.65,3.31-15.57c-0.67,6.75-0.29,13.56,0.28,20.31
		C1369.55,1123.63,1369.28,1125.26,1368.39,1126.63z M1371.58,600.99c-1.52-0.15-2.81-0.83-3.72-2.04
		c4.73,0.18,9.49-0.23,14.23,0.16c1.14,0.07,2.14,0.52,3.01,1.34c2.46,2.15,4.96,4.26,7.6,6.21c0.43,0.34,0.88,0.68,1.35,1.03
		l0.38,0.33c2.11,2.47,4.55,4.64,6.87,6.93c-2.8,0.25-5.58,0.43-8.37,0.49c-2.14-2.19-4.76-3.75-7.53-4.95
		C1382.52,605.39,1377.52,601.52,1371.58,600.99z M1627.35,4213.71c-0.61-0.86-0.52-3.24,0.97-2.35c3.48,5.19,6.12,10.87,8.6,16.61
		C1633.26,4223.54,1629.61,4219.02,1627.35,4213.71z"/>
	<path d="M1027.77,722.94c2.52-7.1,5.5-14.1,6.86-21.54c1.1-5.34,5.04-9.32,7.58-13.97c8.06-12.35,19.94-21.42,30.54-31.42
		c-15.66,12.46-32.77,25.42-39.91,44.91c-3.71,12.28-7.29,24.66-12.49,36.42c-2.64,6.12-7.24,11.1-10.05,17.13
		c-2.39,5-5.98,9.79-6.07,15.56c2.87-10.21,9.2-18.99,15.06-27.67C1022.88,736.25,1025.23,729.53,1027.77,722.94z"/>
	<path d="M1747.45,4214.44c-0.11,0.34-0.34,1.02-0.46,1.37c2.72,0.2,5.47,0.22,8.23,0.15c-0.16-0.39-0.48-1.17-0.63-1.56
		C1752.2,4214.2,1749.81,4214.19,1747.45,4214.44z"/>
</g>
</svg>
